<svg xmlns="http://www.w3.org/2000/svg" fill="none" stroke-linecap="square" stroke-miterlimit="10" viewBox="0 0 667 452"><path fill="#fff" d="M0 0h667v452H0V0Z"/><path fill="#4285f4" d="M333.5 61.67c70.76 0 135.24 40.6 165.81 104.4L333.5 245.54Z"/><path fill="#ea4335" d="M499.31 166.08a183.87 183.87 0 0 1-2.21 163.37l-163.6-83.92Z"/><path fill="#fbbc04" d="M497.1 329.45a183.87 183.87 0 0 1-116.81 93.9L333.5 245.53Z"/><path fill="#291121" d="m331.01 61.68 2.49-.01v183.86Z"/><path fill="#010d31" d="m328.52 61.73 2.49-.05 2.49 183.85Z"/><path fill="#032527" d="M326.03 61.82c.83-.04 1.66-.06 2.5-.09l4.97 183.8Z"/><path fill="#251701" d="M323.55 61.94c.82-.05 1.65-.09 2.48-.12l7.47 183.71Z"/><path fill="#edf8f9" d="m321.06 62.09 2.49-.15 9.95 183.6Z"/><path fill="#fff0e6" d="M318.58 62.27c.82-.06 1.65-.13 2.48-.18l12.44 183.44Z"/><path fill="#ebf6ee" d="M316.1 62.5c.82-.09 1.65-.16 2.48-.23l14.92 183.26Z"/><path fill="#fff8e6" d="M311.15 63.03c1.64-.2 3.3-.38 4.95-.54l17.4 183.04Z"/><path fill="#fdeceb" d="M306.21 63.7c1.64-.24 3.29-.47 4.94-.67l22.35 182.5Z"/><path fill="#ecf3fe" d="M301.3 64.5c1.63-.28 3.27-.55 4.91-.8l27.29 181.83Z"/><path fill="#b5e5e8" d="M296.4 65.45c1.64-.34 3.27-.65 4.9-.94l32.2 181.02Z"/><path fill="#ffc599" d="M291.55 66.52c1.61-.38 3.23-.74 4.86-1.07l37.09 180.08Z"/><path fill="#aedcba" d="M284.31 68.37c2.4-.67 4.81-1.28 7.24-1.85l41.95 179.01Z"/><path fill="#fde49b" d="M270.1 72.95c4.67-1.72 9.41-3.25 14.21-4.58l49.19 177.16Z"/><path fill="#f7b4ae" d="M251.8 80.81a183.86 183.86 0 0 1 18.3-7.86l63.4 172.58Z"/><path fill="#b3cefb" d="M234.48 90.61c5.6-3.58 11.38-6.85 17.33-9.8l81.69 164.72Z"/><path fill="#7ed1d7" d="M216.38 103.8c5.76-4.76 11.8-9.17 18.1-13.19l99.02 154.92Z"/><path fill="#ff994d" d="M193.36 126.5a183.87 183.87 0 0 1 23.02-22.7L333.5 245.53Z"/><path fill="#71c287" d="M173.44 155.04a183.87 183.87 0 0 1 19.92-28.54L333.5 245.53Z"/><path fill="#fcd04f" d="M156.34 196.34c4-14.4 9.74-28.28 17.1-41.3l160.06 90.5Z"/><path fill="#f07b72" d="M149.63 245.53c0-16.62 2.26-33.17 6.7-49.19l177.17 49.2Z"/><path fill="#7baaf7" d="M156.34 294.72a183.87 183.87 0 0 1-6.7-49.19H333.5Z"/><path fill="#46bdc6" d="M182.73 350.77a183.87 183.87 0 0 1-26.4-56.05l177.17-49.19Z"/><path fill="#ff6d01" d="M251.8 410.25a183.87 183.87 0 0 1-69.07-59.48L333.5 245.53Z"/><path fill="#34a853" d="M380.29 423.35a183.87 183.87 0 0 1-128.48-13.1l81.69-164.72Z"/><path fill="#000" d="M393.4 131.93h-1.23v-7.84q-.44.42-1.17.86-.72.42-1.29.62v-1.19q1.04-.48 1.8-1.17.78-.69 1.1-1.34h.8v10.06Zm3.44-8.7v-1.2h6.5v.96q-.97 1.02-1.9 2.7-.94 1.7-1.46 3.49-.36 1.25-.47 2.75h-1.26q.01-1.19.45-2.86.45-1.67 1.28-3.22.84-1.56 1.78-2.62h-4.92Zm8.6 8.7v-1.4h1.42v1.4h-1.41Zm3.5-2.31 1.2-.11q.14.83.56 1.2.44.38 1.1.38.56 0 .98-.25.43-.27.7-.7.28-.44.47-1.18.19-.73.19-1.5l-.02-.25q-.36.6-1 .97-.64.36-1.39.36-1.25 0-2.1-.9-.87-.91-.87-2.38 0-1.53.9-2.45.9-.94 2.26-.94.97 0 1.78.53.81.51 1.23 1.5.43.97.43 2.81 0 1.92-.43 3.06-.4 1.14-1.23 1.74-.83.6-1.94.6-1.17 0-1.92-.66-.73-.66-.9-1.83Zm5.04-4.42q0-1.07-.56-1.7-.56-.62-1.35-.62-.82 0-1.43.68-.61.67-.61 1.73 0 .95.58 1.56.57.6 1.42.6.86 0 1.4-.6.55-.6.55-1.65Zm3.02-.88q0-1.08.53-1.83.54-.75 1.58-.75.93 0 1.54.67.63.68.63 1.97 0 1.28-.63 1.97-.62.69-1.53.69-.9 0-1.51-.67-.61-.69-.61-2.05Zm2.14-1.73q-.46 0-.77.4-.3.4-.3 1.44 0 .97.3 1.36.31.39.77.39.47 0 .76-.4.31-.38.31-1.44 0-.97-.3-1.36-.32-.4-.77-.4Zm0 9.72 5.48-10.57h1l-5.45 10.57h-1.03Zm4.34-2.74q0-1.08.53-1.81.55-.75 1.58-.75.94 0 1.56.67.63.67.63 1.97 0 1.28-.63 1.97-.62.69-1.56.69-.9 0-1.52-.68-.59-.68-.59-2.06Zm2.14-1.72q-.47 0-.76.4-.3.4-.3 1.45 0 .96.3 1.36.3.39.76.39.47 0 .77-.4.3-.39.3-1.45 0-.97-.3-1.36-.3-.39-.77-.39ZM462 252.47h-1.23v-7.84q-.44.42-1.17.86-.72.42-1.28.62v-1.18q1.03-.49 1.8-1.18.77-.68 1.09-1.34h.8v10.06Zm7.32 0v-2.4h-4.36v-1.13l4.57-6.48h1v6.48h1.36v1.13h-1.36v2.4h-1.21Zm0-3.53v-4.51l-3.14 4.51h3.14Zm4.73 3.53v-1.4h1.4v1.4h-1.4Zm3.4-8.7v-1.19h6.5v.96q-.98 1.01-1.92 2.7-.93 1.69-1.45 3.48-.36 1.25-.47 2.75h-1.26q.01-1.18.45-2.86.45-1.67 1.28-3.21.85-1.57 1.78-2.63h-4.92Zm8.15 1.1q0-1.08.53-1.83.55-.75 1.58-.75.93 0 1.54.67.63.67.63 1.97 0 1.28-.63 1.97-.62.68-1.53.68-.9 0-1.51-.67-.61-.69-.61-2.05Zm2.14-1.74q-.46 0-.77.4-.3.4-.3 1.44 0 .97.3 1.36.31.4.77.4.47 0 .76-.4.32-.39.32-1.45 0-.97-.32-1.36-.3-.39-.76-.39Zm0 9.72 5.48-10.56h1l-5.45 10.56h-1.03Zm4.34-2.74q0-1.07.53-1.8.55-.76 1.58-.76.94 0 1.56.67.63.68.63 1.97 0 1.28-.63 1.97-.62.69-1.56.69-.9 0-1.51-.67-.6-.7-.6-2.07Zm2.14-1.71q-.47 0-.76.4-.3.4-.3 1.44 0 .97.3 1.36.3.39.76.39.47 0 .77-.4.31-.38.31-1.44 0-.97-.31-1.36-.3-.4-.77-.4ZM405.66 358.69h-1.24v-7.85q-.44.43-1.17.86-.72.42-1.28.63v-1.19q1.03-.48 1.8-1.17.78-.69 1.09-1.35h.8v10.07Zm3.37-2.64 1.22-.18q.22 1.05.72 1.52.51.45 1.25.45.87 0 1.47-.6.59-.6.59-1.5 0-.83-.56-1.38-.55-.55-1.4-.55-.35 0-.87.13l.14-1.08.19.01q.8 0 1.42-.4.63-.4.63-1.27 0-.67-.46-1.1-.45-.46-1.18-.46-.72 0-1.2.45-.48.44-.62 1.35l-1.21-.22q.21-1.24 1.01-1.9.8-.7 1.99-.7.82 0 1.51.36.69.35 1.05.96.37.6.37 1.3 0 .63-.34 1.17-.34.53-1.03.86.89.2 1.37.84.5.64.5 1.62 0 1.32-.97 2.22-.95.9-2.4.9-1.33 0-2.2-.77-.86-.78-.99-2.03Zm8.67 2.64v-1.4h1.4v1.4h-1.4Zm7.27 0v-2.4h-4.36v-1.13l4.58-6.49h1v6.49h1.36v1.12h-1.36v2.4h-1.22Zm0-3.53v-4.52l-3.14 4.52h3.14Zm4.28-4.08q0-1.08.53-1.83.55-.75 1.58-.75.94 0 1.55.67.62.67.62 1.97 0 1.28-.62 1.97-.63.69-1.54.69-.9 0-1.51-.68t-.61-2.04Zm2.14-1.74q-.45 0-.77.4-.3.4-.3 1.45 0 .97.3 1.36.32.39.77.39.47 0 .77-.4.3-.38.3-1.45 0-.97-.3-1.36-.32-.39-.77-.39Zm0 9.72 5.48-10.56h1l-5.45 10.56h-1.03Zm4.34-2.73q0-1.08.53-1.81.55-.75 1.58-.75.94 0 1.57.67.62.67.62 1.97 0 1.28-.62 1.96-.63.7-1.57.7-.9 0-1.51-.68-.6-.69-.6-2.06Zm2.14-1.72q-.46 0-.76.4t-.3 1.44q0 .97.3 1.36.31.4.76.4.47 0 .77-.4.31-.39.31-1.45 0-.97-.31-1.36-.3-.4-.77-.4ZM303.48 400.02h-1.23v-7.84q-.44.42-1.17.86-.72.42-1.28.62v-1.19q1.03-.48 1.8-1.17t1.09-1.34h.8v10.06Zm8 0h-1.23v-7.84q-.44.42-1.17.86-.72.42-1.28.62v-1.19q1.03-.48 1.8-1.17t1.09-1.34h.8v10.06Zm4.05 0v-1.4h1.4v1.4h-1.4Zm7.27 0v-2.4h-4.36v-1.13l4.58-6.48h1v6.48h1.36v1.12h-1.36v2.41h-1.22Zm0-3.53v-4.52l-3.14 4.52h3.14Zm4.28-4.08q0-1.08.53-1.83.55-.75 1.58-.75.94 0 1.54.68.63.67.63 1.96t-.63 1.97q-.62.69-1.53.69-.9 0-1.51-.67-.61-.69-.61-2.05Zm2.14-1.73q-.45 0-.77.4-.3.4-.3 1.44 0 .97.3 1.36.32.4.77.4.47 0 .76-.4.32-.39.32-1.45 0-.97-.32-1.36-.3-.4-.76-.4Zm0 9.72 5.48-10.57h1l-5.45 10.57h-1.03Zm4.34-2.74q0-1.08.53-1.81.55-.75 1.58-.75.94 0 1.56.67.63.67.63 1.97 0 1.28-.63 1.97-.62.69-1.56.69-.9 0-1.51-.68-.6-.68-.6-2.06Zm2.14-1.72q-.47 0-.76.4-.3.4-.3 1.45 0 .97.3 1.36.31.39.76.39.47 0 .77-.4.31-.38.31-1.45 0-.97-.31-1.36-.3-.39-.77-.39ZM227.82 352.1q-.77-.27-1.14-.79-.36-.51-.36-1.25 0-1.1.78-1.83.8-.75 2.1-.75t2.1.77q.81.76.81 1.86 0 .69-.37 1.2-.36.52-1.11.8.92.3 1.4.97.5.67.5 1.6 0 1.29-.92 2.16-.9.88-2.39.88-1.48 0-2.4-.88-.9-.89-.9-2.2 0-.97.5-1.63.5-.67 1.4-.9Zm-.24-2.07q0 .7.46 1.16.45.45 1.18.45.72 0 1.18-.44.45-.45.45-1.1 0-.68-.47-1.13-.47-.47-1.17-.47t-1.17.45q-.46.44-.46 1.08Zm-.4 4.62q0 .54.25 1.04.25.48.73.75.5.26 1.08.26.87 0 1.44-.56.58-.56.58-1.44 0-.89-.6-1.47-.58-.6-1.47-.6-.87 0-1.45.59-.56.58-.56 1.43Zm7.43 2.9v-1.41h1.41v1.4h-1.4Zm3.32-4.94q0-1.78.36-2.86.37-1.1 1.09-1.67.72-.6 1.81-.6.82 0 1.42.33.61.33 1 .94.41.6.63 1.48.22.88.22 2.38 0 1.76-.36 2.84-.36 1.08-1.08 1.67-.72.6-1.83.6-1.43 0-2.26-1.05-1-1.25-1-4.06Zm1.26 0q0 2.47.58 3.28.58.81 1.42.81.86 0 1.44-.81.58-.83.58-3.28 0-2.49-.58-3.3-.58-.81-1.45-.81-.85 0-1.35.72-.64.92-.64 3.39Zm6.97-2.67q0-1.08.53-1.83.55-.75 1.58-.75.94 0 1.55.67.62.67.62 1.97 0 1.28-.62 1.97-.63.68-1.53.68-.91 0-1.52-.67-.6-.68-.6-2.04Zm2.14-1.74q-.45 0-.76.4-.3.4-.3 1.45 0 .96.3 1.35.3.4.76.4.47 0 .77-.4.31-.39.31-1.45 0-.97-.31-1.36-.31-.39-.77-.39Zm0 9.72 5.49-10.56h1l-5.46 10.56h-1.03Zm4.35-2.73q0-1.08.53-1.82.54-.75 1.58-.75.93 0 1.56.68.62.67.62 1.96t-.62 1.97q-.63.69-1.56.69-.91 0-1.52-.67-.6-.69-.6-2.06Zm2.14-1.72q-.47 0-.77.4-.3.4-.3 1.44 0 .97.3 1.36.31.4.77.4.47 0 .76-.4.31-.4.31-1.45 0-.97-.3-1.36-.3-.4-.77-.4ZM190.26 308.1l1.3-.11q.13.94.65 1.42.53.47 1.27.47.89 0 1.5-.67.62-.67.62-1.77 0-1.06-.6-1.67-.59-.6-1.54-.6-.6 0-1.08.27-.47.27-.75.69l-1.15-.14.96-5.16h4.99v1.2h-4l-.53 2.68q.9-.63 1.89-.63 1.31 0 2.2.9.9.92.9 2.35 0 1.36-.77 2.35-.97 1.22-2.64 1.22-1.36 0-2.24-.77-.86-.77-.98-2.03Zm8.68 2.62v-1.4h1.41v1.4h-1.4Zm7.27 0v-2.4h-4.36v-1.13l4.58-6.48h1v6.48h1.36v1.13h-1.36v2.4h-1.22Zm0-3.53v-4.51l-3.14 4.51h3.14Zm4.28-4.08q0-1.07.53-1.82.55-.75 1.58-.75.94 0 1.55.67.62.67.62 1.97 0 1.28-.62 1.97-.63.68-1.53.68-.91 0-1.52-.67-.6-.69-.6-2.05Zm2.14-1.73q-.45 0-.76.4-.3.4-.3 1.44 0 .97.3 1.36.3.4.76.4.47 0 .77-.4.31-.39.31-1.45 0-.97-.31-1.36-.31-.39-.77-.39Zm0 9.72 5.49-10.56h1l-5.46 10.56h-1.03Zm4.35-2.74q0-1.07.53-1.8.54-.76 1.58-.76.93 0 1.56.67.62.68.62 1.97 0 1.28-.62 1.97-.63.69-1.56.69-.91 0-1.52-.67-.6-.7-.6-2.07Zm2.14-1.71q-.47 0-.77.4-.3.4-.3 1.44 0 .97.3 1.36.31.39.77.39.47 0 .76-.4.31-.38.31-1.44 0-.97-.3-1.36-.3-.4-.77-.4ZM178.39 270.1v-2.4h-4.36v-1.13l4.58-6.48h1v6.48h1.36v1.13h-1.36v2.4h-1.22Zm0-3.53v-4.51l-3.14 4.51h3.14Zm4.73 3.53v-1.4h1.4v1.4h-1.4Zm3.33-2.64 1.22-.17q.22 1.05.72 1.52.51.45 1.25.45.87 0 1.47-.6.59-.6.59-1.5 0-.84-.56-1.38-.55-.55-1.4-.55-.35 0-.87.12l.14-1.07.19.01q.8 0 1.42-.4.63-.41.63-1.27 0-.67-.46-1.1-.45-.46-1.18-.46-.72 0-1.2.45-.48.44-.62 1.34l-1.22-.21q.22-1.24 1.02-1.91.8-.69 1.98-.69.83 0 1.52.36.69.35 1.05.95.37.61.37 1.3 0 .64-.34 1.17-.35.53-1.03.86.89.2 1.37.85.5.64.5 1.62 0 1.31-.97 2.22-.95.9-2.4.9-1.33 0-2.2-.77-.87-.79-.99-2.04Zm8.22-4.96q0-1.08.53-1.83.55-.75 1.58-.75.94 0 1.54.67.63.67.63 1.97 0 1.28-.63 1.97-.62.68-1.53.68-.9 0-1.51-.67-.61-.69-.61-2.04Zm2.14-1.74q-.45 0-.77.4-.3.4-.3 1.44 0 .97.3 1.36.32.4.77.4.47 0 .76-.4.32-.39.32-1.45 0-.97-.32-1.36-.3-.39-.76-.39Zm0 9.72 5.48-10.56h1l-5.45 10.56h-1.03Zm4.34-2.73q0-1.08.53-1.82.55-.75 1.58-.75.94 0 1.56.67.63.68.63 1.97 0 1.28-.63 1.97-.62.69-1.56.69-.9 0-1.51-.67-.6-.69-.6-2.06Zm2.14-1.72q-.47 0-.76.4-.3.4-.3 1.44 0 .97.3 1.36.31.39.76.39.47 0 .77-.4.31-.38.31-1.44 0-.97-.31-1.36-.3-.4-.77-.4ZM178.39 230.96v-2.4h-4.36v-1.13l4.58-6.48h1v6.48h1.36v1.13h-1.36v2.4h-1.22Zm0-3.53v-4.51l-3.14 4.51h3.14Zm4.73 3.53v-1.4h1.4v1.4h-1.4Zm3.33-2.64 1.22-.17q.22 1.05.72 1.52.51.45 1.25.45.87 0 1.47-.6.59-.6.59-1.5 0-.84-.56-1.39-.55-.54-1.4-.54-.35 0-.87.12l.14-1.08.19.02q.8 0 1.42-.4.63-.41.63-1.27 0-.67-.46-1.11-.45-.45-1.18-.45-.72 0-1.2.45-.48.44-.62 1.34l-1.22-.22q.22-1.23 1.02-1.9.8-.69 1.98-.69.83 0 1.52.36.69.34 1.05.95.37.61.37 1.3 0 .64-.34 1.17-.35.53-1.03.86.89.2 1.37.84.5.64.5 1.63 0 1.31-.97 2.22-.95.9-2.4.9-1.33 0-2.2-.78-.87-.78-.99-2.03Zm8.22-4.97q0-1.08.53-1.83.55-.75 1.58-.75.94 0 1.54.68.63.67.63 1.97 0 1.28-.63 1.96-.62.7-1.53.7-.9 0-1.51-.68-.61-.69-.61-2.05Zm2.14-1.73q-.45 0-.77.4-.3.4-.3 1.44 0 .97.3 1.36.32.4.77.4.47 0 .76-.4.32-.39.32-1.45 0-.97-.32-1.36-.3-.4-.76-.4Zm0 9.72 5.48-10.57h1l-5.45 10.57h-1.03Zm4.34-2.74q0-1.08.53-1.81.55-.75 1.58-.75.94 0 1.56.67.63.67.63 1.97 0 1.28-.63 1.97-.62.69-1.56.69-.9 0-1.51-.67-.6-.7-.6-2.07Zm2.14-1.72q-.47 0-.76.41-.3.4-.3 1.44 0 .97.3 1.36.31.39.76.39.47 0 .77-.4.31-.38.31-1.45 0-.96-.31-1.36-.3-.39-.77-.39ZM187.22 193.68l1.22-.17q.22 1.05.72 1.52.51.45 1.25.45.87 0 1.47-.6.59-.6.59-1.5 0-.84-.56-1.38-.55-.55-1.4-.55-.35 0-.87.12l.14-1.07.19.01q.8 0 1.42-.4.63-.41.63-1.27 0-.67-.46-1.11-.45-.45-1.18-.45-.72 0-1.2.45-.48.44-.62 1.34l-1.22-.22q.22-1.23 1.02-1.9.8-.69 1.98-.69.83 0 1.52.36.69.34 1.05.95.37.61.37 1.3 0 .64-.34 1.17-.35.53-1.03.86.89.2 1.37.85.5.64.5 1.62 0 1.31-.97 2.22-.95.9-2.4.9-1.33 0-2.2-.78-.87-.78-.99-2.03Zm8.67 2.64v-1.4h1.4v1.4h-1.4Zm3.5-2.3 1.19-.12q.14.83.56 1.2.44.38 1.1.38.56 0 .98-.25.44-.27.7-.7.28-.44.47-1.18.19-.73.19-1.5l-.02-.25q-.36.6-1 .97-.64.36-1.39.36-1.25 0-2.1-.9-.87-.91-.87-2.38 0-1.53.9-2.45.9-.94 2.26-.94.97 0 1.78.53.81.52 1.24 1.5.42.97.42 2.81 0 1.93-.42 3.07-.41 1.14-1.24 1.73-.83.6-1.94.6-1.17 0-1.92-.66-.73-.66-.89-1.83Zm5.03-4.43q0-1.06-.56-1.69-.56-.62-1.34-.62-.83 0-1.44.67t-.61 1.73q0 .96.58 1.57.58.59 1.42.59.86 0 1.4-.6.55-.6.55-1.65Zm3.02-.88q0-1.07.53-1.82.55-.75 1.58-.75.94 0 1.54.67.63.67.63 1.97 0 1.28-.63 1.97-.62.68-1.53.68-.9 0-1.51-.67-.61-.69-.61-2.05Zm2.14-1.73q-.45 0-.77.4-.3.4-.3 1.44 0 .97.3 1.36.32.4.77.4.47 0 .76-.4.32-.39.32-1.45 0-.97-.32-1.36-.3-.39-.76-.39Zm0 9.72 5.48-10.56h1l-5.45 10.56h-1.03Zm4.34-2.74q0-1.07.53-1.8.55-.76 1.58-.76.94 0 1.56.67.63.68.63 1.97 0 1.28-.63 1.97-.62.69-1.56.69-.9 0-1.51-.67-.6-.7-.6-2.07Zm2.14-1.71q-.47 0-.76.4-.3.4-.3 1.44 0 .97.3 1.36.31.39.76.39.47 0 .77-.4.31-.38.31-1.44 0-.97-.31-1.36-.3-.4-.77-.4ZM23.52 74.01v-8.6h3.25q.85 0 1.3.09.64.1 1.06.4.44.3.69.83.26.53.26 1.17 0 1.1-.7 1.86-.69.75-2.51.75h-2.2v3.5h-1.15Zm1.14-4.5h2.22q1.11 0 1.56-.4.47-.43.47-1.18 0-.53-.28-.9-.26-.4-.7-.52-.3-.08-1.06-.08h-2.2v3.08Zm6.74 4.5v-8.6h1.04v3.09q.74-.85 1.86-.85.7 0 1.2.28.52.27.74.75.22.47.22 1.4V74H35.4v-3.94q0-.8-.34-1.15-.34-.36-.97-.36-.47 0-.9.25-.4.23-.58.66-.18.4-.18 1.14V74H31.4Zm6.95 2.4-.13-1q.35.1.61.1.35 0 .55-.12.22-.11.36-.32.1-.17.33-.8.01-.07.1-.24l-2.38-6.24h1.14l1.3 3.6q.25.68.45 1.45.19-.73.44-1.42l1.32-3.63h1.05l-2.36 6.33q-.39 1.02-.6 1.4-.27.54-.65.77-.36.25-.86.25-.3 0-.67-.14Zm4.63-4.26L44 72q.09.62.48.95.4.33 1.14.33.72 0 1.06-.28.36-.3.36-.7 0-.37-.3-.57-.23-.14-1.09-.36-1.15-.3-1.6-.5-.44-.22-.68-.6-.23-.37-.23-.84 0-.4.18-.76.2-.36.52-.6.25-.17.67-.3.42-.12.92-.12.72 0 1.27.22.56.2.83.56.26.36.36.96l-1.03.14q-.07-.47-.41-.74-.33-.28-.95-.28-.72 0-1.03.25-.32.24-.32.56 0 .2.13.36.14.18.4.29.16.06.94.26 1.13.31 1.56.5.44.19.7.55.24.36.24.9t-.31 1q-.3.46-.88.72-.57.25-1.3.25-1.23 0-1.87-.5-.62-.51-.8-1.5Zm7.42-5.51v-1.22h1.06v1.22H50.4Zm0 7.37V67.8h1.06v6.22H50.4Zm7.06-2.28 1.03.14q-.17 1.06-.87 1.67-.7.61-1.72.61-1.28 0-2.07-.83-.76-.84-.76-2.4 0-1 .33-1.75.34-.77 1.01-1.14.69-.38 1.5-.38 1 0 1.64.52.66.5.85 1.45l-1.03.16q-.14-.63-.52-.94-.38-.33-.9-.33-.8 0-1.3.58-.5.56-.5 1.8 0 1.26.48 1.83.49.56 1.25.56.63 0 1.03-.38.42-.37.55-1.17Zm6 1.52q-.6.5-1.14.7-.53.2-1.16.2-1.03 0-1.58-.5-.54-.5-.54-1.28 0-.45.2-.83.2-.39.55-.6.34-.24.76-.35.3-.1.94-.17 1.27-.14 1.88-.36v-.27q0-.65-.3-.92-.4-.34-1.2-.34-.74 0-1.1.26-.36.25-.53.91l-1.03-.14q.14-.66.47-1.06.33-.41.94-.63.6-.22 1.4-.22.8 0 1.3.19t.73.47q.24.28.33.72.05.26.05.97v1.4q0 1.47.06 1.86.08.4.28.75h-1.1q-.16-.33-.21-.76Zm-.1-2.36q-.57.23-1.71.4-.66.1-.92.22-.27.11-.43.33-.14.22-.14.5 0 .42.32.7.32.28.93.28.61 0 1.08-.26.48-.27.7-.74.18-.35.18-1.04v-.4Zm3 3.12v-8.6h1.07v8.6h-1.06Zm6 0v-8.6h1.07v8.6h-1.06Zm2.65-3.1q0-1.74.95-2.57.8-.69 1.95-.69 1.28 0 2.1.85.82.82.82 2.3 0 1.21-.36 1.9-.35.69-1.06 1.08-.69.37-1.5.37-1.3 0-2.1-.83-.8-.84-.8-2.42Zm1.07 0q0 1.18.52 1.77.53.6 1.31.6.8 0 1.31-.6.52-.59.52-1.8 0-1.16-.53-1.76-.52-.6-1.3-.6t-1.31.6q-.52.58-.52 1.78Zm10.38.82 1.03.14q-.17 1.06-.87 1.67-.7.61-1.72.61-1.28 0-2.07-.83-.76-.84-.76-2.4 0-1 .33-1.75.34-.77 1.01-1.14.69-.38 1.5-.38 1 0 1.64.52.66.5.85 1.45l-1.03.16q-.15-.63-.52-.94-.38-.33-.9-.33-.8 0-1.3.58-.5.56-.5 1.8 0 1.26.48 1.83.49.56 1.25.56.63 0 1.03-.38.42-.37.55-1.17Zm6 1.52q-.6.5-1.14.7-.53.2-1.16.2-1.03 0-1.58-.5-.54-.5-.54-1.28 0-.45.2-.83.2-.39.55-.6.34-.24.76-.35.3-.1.94-.17 1.27-.14 1.88-.36v-.27q0-.65-.3-.92-.4-.34-1.2-.34-.74 0-1.1.26-.36.25-.53.91l-1.03-.14q.14-.66.47-1.06.33-.41.94-.63.6-.22 1.4-.22.8 0 1.3.19t.73.47q.24.28.33.72.05.26.05.97v1.4q0 1.47.06 1.86.08.4.28.75h-1.1q-.16-.33-.21-.76Zm-.1-2.36q-.57.23-1.71.4-.66.1-.93.22-.26.11-.42.33-.14.22-.14.5 0 .42.31.7.33.28.94.28.61 0 1.08-.26.48-.27.7-.74.18-.35.18-1.04v-.4Zm5.33 2.18.16.93q-.45.09-.8.09-.58 0-.89-.17-.31-.19-.45-.49-.13-.3-.13-1.25v-3.57h-.76v-.82h.76v-1.54l1.05-.63v2.17h1.06v.82h-1.06v3.64q0 .45.05.57.06.13.19.2.12.09.35.09.2 0 .47-.04Zm.7-6.43v-1.22h1.07v1.22H98.4Zm0 7.37V67.8h1.07v6.22H98.4Zm2.62-3.1q0-1.74.95-2.57.8-.69 1.95-.69 1.28 0 2.1.85.82.82.82 2.3 0 1.21-.36 1.9-.35.69-1.06 1.08-.69.37-1.5.37-1.3 0-2.1-.83-.8-.84-.8-2.42Zm1.07 0q0 1.18.52 1.77.53.6 1.31.6.8 0 1.31-.6.52-.59.52-1.8 0-1.16-.53-1.76-.52-.6-1.3-.6t-1.31.6q-.52.58-.52 1.78Zm6.32 3.1V67.8h.93v.88q.7-1.02 1.99-1.02.56 0 1.03.2.48.2.72.54.23.33.33.76.04.3.04 1.03v3.83h-1.04v-3.78q0-.66-.13-.97-.12-.31-.44-.5-.3-.2-.73-.2-.67 0-1.17.44-.49.42-.49 1.6v3.41h-1.04Z"/><path fill="#9e9e9e" d="M27.07 91.01h-1.05V84.3q-.39.36-1.01.74-.61.36-1.1.53v-1.02q.88-.42 1.53-1 .68-.59.96-1.15h.67V91Zm3.62 0v-1.2h1.2V91h-1.2Zm2.47-7.47v-1.01h5.57v.83q-.82.87-1.63 2.32-.8 1.44-1.23 2.97-.33 1.08-.41 2.36h-1.1q.02-1.01.4-2.45.39-1.44 1.09-2.77.72-1.32 1.53-2.25h-4.22Zm7.14.94q0-.92.46-1.56.47-.64 1.34-.64.81 0 1.34.58.54.57.54 1.68 0 1.1-.55 1.7-.53.57-1.31.57-.79 0-1.3-.58-.52-.58-.52-1.75ZM42.13 83q-.39 0-.66.34-.24.34-.24 1.25 0 .83.25 1.17.26.33.65.33.4 0 .66-.34.26-.35.26-1.24 0-.84-.26-1.17-.27-.34-.66-.34Zm0 8.32 4.7-9.04h.86l-4.68 9.04h-.88ZM45.85 89q0-.93.45-1.57.47-.64 1.36-.64.82 0 1.35.58.53.56.53 1.69 0 1.1-.55 1.69-.53.57-1.33.57-.76 0-1.3-.57-.51-.58-.51-1.75Zm1.84-1.49q-.4 0-.67.35-.25.34-.25 1.25 0 .8.27 1.15.26.35.65.35.4 0 .66-.35.27-.34.27-1.25 0-.83-.27-1.15-.27-.35-.66-.35Z"/><path stroke="#757575" stroke-linecap="butt" d="M22.6 78.51h121.03l120.85 6.57"/><path fill="#9e9e9e" d="M266.48 85.08a2 2 0 1 0-4 0 2 2 0 0 0 4 0"/><path fill="#000" d="M23.52 105.01v-8.6h1.16l4.51 6.76v-6.75h1.1v8.6h-1.17l-4.52-6.76v6.75h-1.08Zm8.49-3.1q0-1.74.95-2.57.8-.69 1.95-.69 1.28 0 2.1.85.82.82.82 2.3 0 1.21-.35 1.9-.36.69-1.07 1.08-.68.37-1.5.37-1.3 0-2.1-.83-.8-.84-.8-2.42Zm1.07 0q0 1.18.52 1.77.53.6 1.31.6.8 0 1.32-.6.51-.59.51-1.8 0-1.16-.53-1.76-.52-.6-1.3-.6t-1.31.6q-.52.58-.52 1.78Zm6.32 3.1V98.8h.93v.88q.7-1.02 1.99-1.02.56 0 1.03.2.48.2.72.54.23.33.33.76.04.3.04 1.03v3.83H43.4v-3.78q0-.66-.13-.97-.12-.31-.44-.5-.3-.2-.73-.2-.67 0-1.17.44-.49.42-.49 1.6v3.41H39.4Zm6.58-2.58v-1.06h3.25v1.06h-3.25Zm4.57 2.58v-8.6h6.2v1.02H51.7v2.63h4.75v1.01H51.7V104h5.27V105h-6.4Zm7.85 0V98.8h.93v.88q.7-1.02 1.99-1.02.56 0 1.03.2.48.2.72.54.23.33.33.76.04.3.04 1.03v3.83H62.4v-3.78q0-.66-.13-.97-.12-.31-.44-.5-.3-.2-.73-.2-.67 0-1.17.44-.49.42-.49 1.6v3.41H58.4Zm6.8.52 1.02.15q.07.47.36.7.4.29 1.07.29.73 0 1.12-.3.4-.3.55-.81.1-.33.08-1.36-.7.81-1.72.81-1.28 0-1.99-.92-.7-.94-.7-2.22 0-.89.31-1.64.33-.76.94-1.17.61-.4 1.44-.4 1.1 0 1.83.88v-.75h.96v5.38q0 1.45-.3 2.06-.29.61-.93.95-.64.36-1.58.36-1.1 0-1.8-.5-.68-.5-.67-1.51Zm.87-3.74q0 1.22.48 1.78.49.57 1.22.57.74 0 1.22-.57.5-.56.5-1.75 0-1.14-.52-1.71-.5-.58-1.21-.58-.7 0-1.2.58-.5.56-.5 1.68Zm6.3 3.22v-8.6h1.06v8.6h-1.06Zm3.03-7.37v-1.22h1.06v1.22H75.4Zm0 7.37V98.8h1.06v6.22H75.4Zm2.57-1.86 1.04-.15q.09.62.48.95.4.33 1.14.33.72 0 1.06-.28.36-.3.36-.7 0-.37-.3-.57-.23-.14-1.09-.36-1.15-.3-1.6-.5-.44-.22-.68-.6-.23-.37-.23-.84 0-.4.18-.76.2-.36.52-.6.25-.17.67-.3.42-.12.92-.12.72 0 1.27.22.56.2.83.56.26.36.36.96l-1.03.14q-.07-.47-.41-.74-.33-.28-.95-.28-.72 0-1.04.25-.3.24-.3.56 0 .2.12.36.14.18.4.29.16.06.94.26 1.13.31 1.56.5.44.19.7.55.24.36.24.9t-.31 1q-.3.46-.88.72-.57.25-1.3.25-1.23 0-1.87-.5-.62-.51-.8-1.5Zm7.43 1.86v-8.6h1.04v3.09q.74-.85 1.86-.85.7 0 1.2.28.52.27.74.75.22.47.22 1.4V105H89.4v-3.94q0-.8-.34-1.15-.34-.36-.97-.36-.47 0-.9.25-.4.23-.58.66-.18.4-.18 1.14v3.4H85.4Zm11.14 0-1.9-6.22h1.08l.99 3.6.37 1.33q.04-.1.33-1.29l.99-3.64h1.07l.94 3.61.31 1.19.36-1.2 1.07-3.6h1.03l-1.96 6.22h-1.09l-.98-3.73-.25-1.05-1.25 4.78h-1.11Zm7.47-3.1q0-1.74.95-2.57.8-.69 1.95-.69 1.28 0 2.1.85.82.82.82 2.3 0 1.21-.36 1.9-.35.69-1.06 1.08-.69.37-1.5.37-1.3 0-2.1-.83-.8-.84-.8-2.42Zm1.07 0q0 1.18.52 1.77.53.6 1.31.6.8 0 1.31-.6.52-.59.52-1.8 0-1.16-.53-1.76-.52-.6-1.3-.6t-1.31.6q-.52.58-.52 1.78Zm6.3 3.1V98.8h.95v.94q.36-.66.66-.86.31-.22.69-.22.53 0 1.08.33l-.36.99q-.4-.24-.77-.24-.36 0-.64.22-.27.2-.37.58-.2.56-.2 1.22V105h-1.04Zm8.05 0v-.78q-.6.92-1.74.92-.75 0-1.37-.4-.63-.43-.97-1.16-.34-.73-.34-1.69 0-.92.3-1.68.32-.77.95-1.16.62-.4 1.39-.4.56 0 1 .23.43.23.72.6v-3.07h1.04v8.6h-.98Zm-3.33-3.1q0 1.2.5 1.79.5.58 1.19.58.68 0 1.17-.56.48-.57.48-1.72 0-1.28-.5-1.88-.48-.6-1.2-.6-.7 0-1.17.59-.47.56-.47 1.8Z"/><path fill="#9e9e9e" d="M27.07 122.01h-1.05v-6.72q-.39.36-1.01.74-.61.36-1.1.53v-1.02q.88-.42 1.53-1 .68-.59.96-1.15h.67V122Zm3.62 0v-1.2h1.2v1.2h-1.2Zm2.47-7.47v-1.01h5.57v.83q-.82.87-1.63 2.32-.8 1.44-1.23 2.97-.33 1.08-.41 2.36h-1.1q.02-1.01.4-2.45.39-1.44 1.09-2.77.72-1.32 1.53-2.25h-4.22Zm7.14.94q0-.92.46-1.56.47-.64 1.34-.64.81 0 1.34.58.54.57.54 1.68 0 1.1-.55 1.7-.53.57-1.31.57-.79 0-1.3-.58-.52-.58-.52-1.75Zm1.83-1.48q-.39 0-.66.34-.24.34-.24 1.25 0 .83.25 1.17.26.33.65.33.4 0 .66-.34.26-.35.26-1.24 0-.84-.26-1.17-.27-.34-.66-.34Zm0 8.32 4.7-9.04h.86l-4.68 9.04h-.88Zm3.72-2.32q0-.93.45-1.57.47-.64 1.36-.64.82 0 1.35.58.53.56.53 1.69 0 1.1-.55 1.69-.53.57-1.33.57-.76 0-1.3-.57-.51-.58-.51-1.75Zm1.84-1.49q-.4 0-.67.35-.25.34-.25 1.25 0 .8.27 1.15.26.35.65.35.4 0 .66-.35.27-.34.27-1.25 0-.83-.27-1.15-.27-.35-.66-.35Z"/><path stroke="#757575" stroke-linecap="butt" d="M22.6 109.51h121.03l103.9-16.03"/><path fill="#9e9e9e" d="M249.53 93.48a2 2 0 1 0-4 0 2 2 0 0 0 4 0"/><path fill="#000" d="M23.57 136.01v-8.6h1.12v3.54h4.47v-3.53h1.14v8.6h-1.14v-4.05H24.7V136h-1.12Zm12.89-.76q-.6.5-1.14.7-.53.2-1.16.2-1.03 0-1.58-.5-.54-.5-.54-1.28 0-.45.2-.83.2-.39.55-.6.34-.24.76-.35.3-.1.94-.17 1.27-.14 1.88-.36v-.27q0-.65-.3-.92-.4-.34-1.2-.34-.74 0-1.1.26-.36.25-.53.91l-1.03-.14q.14-.66.47-1.06.33-.41.94-.63.6-.22 1.4-.22.8 0 1.3.19t.73.47q.24.28.33.72.05.26.05.97v1.4q0 1.47.06 1.86.08.4.28.75h-1.1q-.16-.33-.21-.76Zm-.1-2.36q-.57.23-1.71.4-.66.1-.92.22-.27.11-.43.33-.14.22-.14.5 0 .42.32.7.32.28.93.28.61 0 1.08-.26.48-.27.7-.74.18-.35.18-1.04v-.4Zm3.02 3.12v-6.22h.95v.94q.36-.66.66-.86.31-.22.69-.22.53 0 1.08.33l-.36.99q-.4-.24-.77-.24-.36 0-.64.22-.27.2-.37.58-.2.56-.2 1.22V136h-1.04Zm8.05 0v-.78q-.6.92-1.74.92-.75 0-1.37-.4-.63-.43-.97-1.16-.34-.73-.34-1.69 0-.92.3-1.68.32-.77.95-1.16.62-.4 1.39-.4.56 0 1 .23.43.23.72.6v-3.07h1.04v8.6h-.98Zm-3.33-3.1q0 1.2.5 1.79.5.58 1.19.58t1.17-.56q.48-.57.48-1.72 0-1.28-.5-1.88-.48-.6-1.2-.6-.7 0-1.17.59-.47.56-.47 1.8Zm7.44 3.1-1.9-6.22h1.09l.98 3.6.37 1.33q.04-.1.33-1.29l.99-3.64h1.08l.93 3.61.32 1.19.35-1.2 1.07-3.6h1.03l-1.95 6.22h-1.1l-.98-3.73-.25-1.05-1.25 4.78h-1.11Zm11.92-.76q-.6.5-1.14.7-.53.2-1.16.2-1.03 0-1.58-.5-.54-.5-.54-1.28 0-.45.2-.83.2-.39.55-.6.34-.24.76-.35.3-.1.94-.17 1.27-.14 1.88-.36v-.27q0-.65-.3-.92-.4-.34-1.2-.34-.74 0-1.1.26-.36.25-.53.91l-1.03-.14q.14-.66.47-1.06.33-.41.94-.63.6-.22 1.4-.22.8 0 1.3.19t.73.47q.24.28.33.72.05.26.05.97v1.4q0 1.47.06 1.86.08.4.28.75h-1.1q-.16-.33-.21-.76Zm-.1-2.36q-.57.23-1.71.4-.66.1-.92.22-.27.11-.43.33-.14.22-.14.5 0 .42.32.7.32.28.93.28.61 0 1.08-.26.48-.27.7-.74.18-.35.18-1.04v-.4Zm3.02 3.12v-6.22h.95v.94q.36-.66.66-.86.31-.22.69-.22.53 0 1.08.33l-.36.99q-.4-.24-.77-.24-.36 0-.64.22-.27.2-.37.58-.2.56-.2 1.22V136h-1.04Zm8.27-2 1.1.13q-.26.95-.96 1.48t-1.78.53q-1.36 0-2.18-.84-.8-.84-.8-2.36 0-1.56.82-2.42.81-.88 2.1-.88 1.24 0 2.02.85.8.84.8 2.39v.28h-4.64q.06 1.03.58 1.58.52.53 1.3.53.57 0 .98-.3.42-.31.66-.97Zm-3.46-1.7h3.47q-.06-.8-.39-1.19-.51-.6-1.31-.6-.73 0-1.23.48-.49.48-.54 1.3Zm8.41 2.31v-2.36h-2.33v-.98h2.33v-2.33h1v2.33h2.34v.98H80.6v2.36h-1Zm4.92 1.4v-8.6h1.16l4.51 6.75v-6.75h1.1v8.6h-1.17l-4.52-6.76v6.75h-1.08Zm12.94-.77q-.6.5-1.14.7-.53.2-1.16.2-1.03 0-1.58-.5-.54-.5-.54-1.28 0-.45.2-.83.2-.39.55-.6.34-.24.76-.35.3-.1.94-.17 1.27-.14 1.88-.36v-.27q0-.65-.3-.92-.4-.34-1.2-.34-.74 0-1.1.26-.36.25-.53.91l-1.03-.14q.14-.66.47-1.06.33-.41.94-.63.6-.22 1.4-.22.8 0 1.3.19t.73.47q.24.28.33.72.05.26.05.97v1.4q0 1.47.06 1.86.08.4.28.75h-1.1q-.16-.33-.21-.76Zm-.1-2.36q-.57.23-1.71.4-.66.1-.93.22-.26.11-.42.33-.14.22-.14.5 0 .42.31.7.33.28.94.28.61 0 1.08-.26.48-.27.7-.74.18-.35.18-1.04v-.4Zm3.04 3.12v-6.22h.93v.88q.3-.47.79-.74.48-.28 1.1-.28.7 0 1.13.28.45.29.63.8.74-1.08 1.92-1.08.93 0 1.42.52.5.5.5 1.58V136h-1.05v-3.92q0-.62-.1-.9-.1-.29-.37-.46-.26-.17-.64-.17-.65 0-1.1.44-.41.43-.41 1.4v3.61h-1.07v-4.04q0-.7-.26-1.05-.25-.36-.83-.36-.45 0-.83.23-.37.24-.54.7-.18.44-.18 1.29V136h-1.04Zm15.25-2 1.1.13q-.26.95-.96 1.48t-1.78.53q-1.36 0-2.18-.84-.8-.84-.8-2.36 0-1.56.82-2.42.81-.88 2.1-.88 1.24 0 2.02.85.8.84.8 2.39v.28h-4.64q.06 1.03.58 1.58.52.53 1.3.53.57 0 .98-.3.42-.31.66-.97Zm-3.46-1.7h3.47q-.06-.8-.39-1.19-.51-.6-1.31-.6-.73 0-1.23.48-.49.48-.54 1.3Z"/><path fill="#9e9e9e" d="M27.07 153.01h-1.05v-6.72q-.39.36-1.01.74-.61.36-1.1.53v-1.02q.88-.42 1.53-1 .68-.59.96-1.15h.67V153Zm3.62 0v-1.2h1.2v1.2h-1.2Zm2.57-1.98 1.01-.1q.13.72.49 1.05.37.31.93.31.49 0 .85-.22.37-.23.6-.59.24-.37.4-1 .15-.64.15-1.3v-.21q-.3.5-.86.82-.54.32-1.18.32-1.08 0-1.82-.77-.73-.78-.73-2.05 0-1.3.77-2.1.78-.8 1.93-.8.83 0 1.52.45.7.45 1.06 1.3.36.83.36 2.4 0 1.64-.36 2.63-.34.97-1.06 1.48-.7.5-1.64.5-1.02 0-1.66-.54-.64-.57-.76-1.58Zm4.3-3.8q0-.9-.48-1.44-.46-.53-1.15-.53-.7 0-1.24.58-.51.56-.51 1.48 0 .82.5 1.33.5.52 1.22.52.73 0 1.2-.52.47-.51.47-1.42Zm2.74-.75q0-.92.46-1.56.47-.64 1.34-.64.81 0 1.34.58.54.57.54 1.68 0 1.1-.55 1.7-.53.57-1.31.57-.79 0-1.3-.58-.52-.58-.52-1.75Zm1.83-1.48q-.39 0-.66.34-.24.34-.24 1.25 0 .83.25 1.17.26.33.65.33.4 0 .66-.34.26-.35.26-1.24 0-.84-.26-1.17-.27-.34-.66-.34Zm0 8.32 4.7-9.04h.86l-4.68 9.04h-.88Zm3.72-2.32q0-.93.45-1.57.47-.64 1.36-.64.82 0 1.35.58.53.56.53 1.69 0 1.1-.55 1.69-.53.57-1.33.57-.76 0-1.3-.57-.51-.58-.51-1.75Zm1.84-1.49q-.4 0-.67.35-.25.34-.25 1.25 0 .8.27 1.15.26.35.65.35.4 0 .66-.35.27-.34.27-1.25 0-.83-.27-1.15-.27-.35-.66-.35Z"/><path stroke="#757575" stroke-linecap="butt" d="M22.6 140.51h121.03l87-36.15"/><path fill="#9e9e9e" d="M232.64 104.36a2 2 0 1 0-4 0 2 2 0 0 0 4 0"/><path fill="#000" d="M23.58 167.01v-8.6h5.8v1.02h-4.65v2.66h4.03v1.02h-4.04v3.9h-1.14Zm6.82-7.37v-1.22h1.06v1.22H30.4Zm0 7.37v-6.22h1.06v6.22H30.4Zm7.06-2.28 1.03.14q-.17 1.06-.87 1.67-.7.61-1.72.61-1.28 0-2.07-.83-.76-.84-.76-2.4 0-1 .33-1.75.34-.77 1.01-1.14.69-.38 1.5-.38 1 0 1.64.52.66.5.85 1.45l-1.03.16q-.14-.63-.52-.94-.38-.33-.9-.33-.8 0-1.3.58-.5.56-.5 1.8 0 1.26.48 1.83.49.56 1.25.56.63 0 1.03-.38.42-.37.55-1.17Zm4.23 1.34.16.93q-.45.09-.8.09-.57 0-.89-.17-.31-.19-.45-.49-.13-.3-.13-1.25v-3.57h-.76v-.82h.76v-1.54l1.05-.63v2.17h1.06v.82h-1.06v3.64q0 .45.05.57.06.13.19.2.12.09.36.09.18 0 .46-.04Zm.7-6.43v-1.22h1.07v1.22H42.4Zm0 7.37v-6.22h1.07v6.22H42.4Zm2.62-3.1q0-1.74.95-2.57.8-.69 1.95-.69 1.28 0 2.1.85.82.82.82 2.3 0 1.21-.35 1.9-.36.69-1.07 1.08-.68.37-1.5.37-1.3 0-2.1-.83-.8-.84-.8-2.42Zm1.07 0q0 1.18.52 1.77.53.6 1.31.6.8 0 1.32-.6.51-.59.51-1.8 0-1.16-.53-1.76-.52-.6-1.3-.6t-1.31.6q-.52.58-.52 1.78Zm6.32 3.1v-6.22h.93v.88q.7-1.02 1.99-1.02.56 0 1.03.2.48.2.72.54.23.33.33.76.04.3.04 1.03v3.83H56.4v-3.78q0-.66-.13-.97-.12-.31-.44-.5-.3-.2-.73-.2-.67 0-1.17.44-.49.42-.49 1.6v3.41H52.4Zm11.06-.76q-.6.5-1.14.7-.53.2-1.16.2-1.03 0-1.58-.5-.54-.5-.54-1.28 0-.45.2-.83.2-.39.55-.6.34-.24.76-.35.3-.1.94-.17 1.27-.14 1.88-.36v-.27q0-.65-.3-.92-.4-.34-1.2-.34-.74 0-1.1.26-.36.25-.53.91l-1.03-.14q.14-.66.47-1.06.33-.41.94-.63.6-.22 1.4-.22.8 0 1.3.19t.73.47q.24.28.33.72.05.26.05.97v1.4q0 1.47.06 1.86.08.4.28.75h-1.1q-.16-.33-.21-.76Zm-.1-2.36q-.57.23-1.71.4-.66.1-.92.22-.27.11-.43.33-.14.22-.14.5 0 .42.32.7.32.28.93.28.61 0 1.08-.26.48-.27.7-.74.18-.35.18-1.04v-.4Zm3 3.12v-8.6h1.07v8.6h-1.06Zm8.33-.94.16.93q-.45.09-.8.09-.58 0-.89-.17-.31-.19-.45-.49-.13-.3-.13-1.25v-3.57h-.76v-.82h.76v-1.54l1.05-.63v2.17h1.06v.82h-1.06v3.64q0 .45.05.57.06.13.19.2.12.09.35.09.2 0 .47-.04Zm.7.94v-8.6h1.05v3.09q.74-.85 1.86-.85.7 0 1.2.28.52.27.74.75.22.47.22 1.4V167H79.4v-3.94q0-.8-.34-1.15-.34-.36-.97-.36-.47 0-.9.25-.4.23-.58.66-.18.4-.18 1.14v3.4H75.4Zm7-7.37v-1.22h1.07v1.22H82.4Zm0 7.37v-6.22h1.07v6.22H82.4Zm3 0v-6.22h.94v.88q.7-1.02 1.99-1.02.56 0 1.03.2.48.2.72.54.23.33.33.76.04.3.04 1.03v3.83H89.4v-3.78q0-.66-.13-.97-.12-.31-.44-.5-.3-.2-.73-.2-.67 0-1.17.44-.49.42-.49 1.6v3.41H85.4Zm6.8.52 1.03.15q.07.47.36.7.4.29 1.07.29.73 0 1.12-.3.4-.3.55-.81.1-.33.08-1.36-.7.81-1.72.81-1.28 0-1.99-.92-.7-.94-.7-2.22 0-.89.31-1.64.33-.76.94-1.17.61-.4 1.44-.4 1.1 0 1.83.88v-.75h.96v5.38q0 1.45-.3 2.06-.29.61-.93.95-.64.36-1.58.36-1.1 0-1.8-.5-.68-.5-.67-1.51Zm.88-3.74q0 1.22.48 1.78.49.57 1.22.57.74 0 1.22-.57.5-.56.5-1.75 0-1.14-.52-1.71-.5-.58-1.21-.58-.7 0-1.2.58-.5.56-.5 1.68Z"/><path fill="#9e9e9e" d="M28.65 183V184h-5.7q0-.37.13-.73.22-.58.7-1.14.48-.57 1.38-1.3 1.4-1.16 1.9-1.83.5-.67.5-1.26 0-.63-.46-1.05-.45-.44-1.17-.44-.77 0-1.22.46-.45.45-.47 1.26l-1.08-.1q.11-1.23.83-1.85.74-.64 1.97-.64t1.95.68q.72.7.72 1.7 0 .52-.22 1.02-.2.49-.7 1.05-.48.55-1.61 1.5-.95.8-1.23 1.1-.27.28-.44.56h4.22Zm2.04 1.01v-1.2h1.2v1.2h-1.2Zm4.04-4.65q-.66-.25-.99-.7-.31-.44-.31-1.05 0-.94.67-1.58.69-.64 1.8-.64 1.12 0 1.8.65.7.66.7 1.6 0 .6-.32 1.03-.3.44-.95.69.8.25 1.2.82.41.58.41 1.38 0 1.1-.78 1.84-.77.75-2.05.75-1.26 0-2.04-.75-.79-.75-.79-1.87 0-.85.43-1.4.43-.57 1.22-.77Zm-.22-1.8q0 .6.39 1 .4.39 1.03.39.6 0 1-.38.39-.39.39-.95 0-.58-.4-.97-.41-.4-1-.4-.62 0-1.02.39t-.4.92Zm-.33 3.97q0 .45.2.87.22.42.64.66.42.23.9.23.76 0 1.24-.48.5-.49.5-1.24 0-.76-.5-1.26t-1.26-.5q-.75 0-1.24.5-.48.48-.48 1.22Zm6.12-4.05q0-.92.46-1.56.47-.64 1.34-.64.81 0 1.34.58.54.57.54 1.68 0 1.1-.55 1.7-.53.57-1.31.57-.79 0-1.3-.58-.52-.58-.52-1.75Zm1.83-1.48q-.39 0-.66.34-.24.34-.24 1.25 0 .83.25 1.17.26.33.65.33.4 0 .66-.34.26-.35.26-1.24 0-.84-.26-1.17-.27-.34-.66-.34Zm0 8.32 4.7-9.04h.86l-4.68 9.04h-.88Zm3.72-2.32q0-.93.45-1.57.47-.64 1.36-.64.82 0 1.35.58.53.56.53 1.69 0 1.1-.55 1.69-.53.57-1.33.57-.76 0-1.3-.57-.51-.58-.51-1.75Zm1.84-1.49q-.4 0-.67.35-.25.34-.25 1.25 0 .8.27 1.15.26.35.65.35.4 0 .66-.35.27-.34.27-1.25 0-.83-.27-1.15-.27-.35-.66-.35Z"/><path stroke="#757575" stroke-linecap="butt" d="M22.6 171.51h121.03l67.2-50.32"/><path fill="#9e9e9e" d="M212.83 121.19a2 2 0 1 0-4 0 2 2 0 0 0 4 0"/><path fill="#000" d="M23.18 193.82q0-2.14 1.14-3.34 1.16-1.22 2.97-1.22 1.2 0 2.15.58.96.56 1.46 1.58.5 1.01.5 2.31t-.53 2.33q-.54 1.03-1.5 1.56t-2.08.53q-1.22 0-2.17-.58-.96-.59-1.46-1.59-.48-1.01-.48-2.16Zm1.17.02q0 1.56.83 2.45.84.9 2.1.9 1.29 0 2.12-.9.83-.9.83-2.57 0-1.05-.36-1.83-.35-.78-1.04-1.2-.68-.44-1.53-.44-1.2 0-2.07.82-.88.83-.88 2.77Zm7.8 1.4 1.06-.09q.08.66.36 1.07.28.4.86.67.6.25 1.33.25.64 0 1.14-.19.5-.2.73-.53.25-.35.25-.74 0-.4-.23-.7-.24-.31-.77-.51-.36-.15-1.55-.43-1.17-.28-1.64-.53-.62-.33-.92-.8-.3-.48-.3-1.07 0-.64.36-1.2.38-.58 1.08-.87.72-.3 1.58-.3.95 0 1.69.32.73.3 1.12.9.4.6.43 1.35l-1.1.08q-.1-.81-.6-1.22-.5-.42-1.5-.42-1.02 0-1.5.37-.46.38-.46.9 0 .48.33.77.33.3 1.7.61 1.4.32 1.9.55.76.36 1.12.9.36.5.36 1.21 0 .69-.4 1.3-.39.6-1.12.93-.73.33-1.66.33-1.17 0-1.97-.33-.78-.34-1.23-1.03-.44-.68-.45-1.54Zm11.25 2.77v-6.22h.93v.88q.7-1.02 1.99-1.02.56 0 1.03.2.48.2.72.54.23.33.33.76.04.3.04 1.03v3.83H47.4v-3.78q0-.66-.13-.97-.12-.31-.44-.5-.3-.2-.73-.2-.67 0-1.17.44-.49.42-.49 1.6v3.41H43.4Zm11.06-.76q-.6.5-1.14.7-.53.2-1.16.2-1.03 0-1.58-.5-.54-.5-.54-1.28 0-.45.2-.83.2-.39.55-.6.34-.24.76-.35.3-.1.94-.17 1.27-.14 1.88-.36v-.27q0-.65-.3-.92-.4-.34-1.2-.34-.74 0-1.1.26-.36.25-.53.91l-1.03-.14q.14-.66.47-1.06.33-.41.94-.63.6-.22 1.4-.22.8 0 1.3.19t.73.47q.24.28.33.72.05.26.05.97v1.4q0 1.47.06 1.86.08.4.28.75h-1.1q-.16-.33-.21-.76Zm-.1-2.36q-.57.23-1.71.4-.66.1-.92.22-.27.11-.43.33-.14.22-.14.5 0 .42.32.7.32.28.93.28.61 0 1.08-.26.48-.27.7-.74.18-.35.18-1.04v-.4ZM57.4 198v-6.22h.93v.88q.3-.47.79-.74.48-.28 1.1-.28.7 0 1.13.28.45.29.63.8.75-1.08 1.92-1.08.93 0 1.42.52.5.5.5 1.58V198h-1.05v-3.92q0-.62-.1-.9-.1-.29-.37-.46-.26-.17-.64-.17-.65 0-1.1.44-.41.43-.41 1.4v3.61h-1.07v-4.04q0-.7-.26-1.05-.25-.36-.83-.36-.45 0-.83.23-.37.24-.54.7-.18.44-.18 1.29V198H57.4Zm15.25-2 1.1.13q-.26.95-.96 1.48t-1.78.53q-1.36 0-2.18-.84-.8-.84-.8-2.36 0-1.56.82-2.42.81-.88 2.1-.88 1.24 0 2.02.85.8.84.8 2.39v.28h-4.64q.06 1.03.58 1.58.52.53 1.3.53.57 0 .98-.3.42-.31.66-.97Zm-3.46-1.7h3.47q-.06-.8-.39-1.19-.51-.6-1.31-.6-.73 0-1.23.48-.49.48-.54 1.3Z"/><path fill="#9e9e9e" d="m23.1 212.75 1.06-.14q.17.89.61 1.3.44.38 1.06.38.75 0 1.27-.51.52-.52.52-1.28 0-.72-.49-1.2-.47-.48-1.2-.48-.3 0-.75.13l.12-.94.18.02q.67 0 1.2-.35.55-.36.55-1.09 0-.58-.4-.95-.39-.4-1.01-.4-.61 0-1.03.4-.4.39-.52 1.15l-1.06-.18q.19-1.05.87-1.63.7-.6 1.7-.6.71 0 1.3.32.6.3.91.81.31.52.31 1.11 0 .55-.3 1.02-.3.45-.87.72.75.17 1.17.73.43.55.43 1.4 0 1.12-.83 1.9-.82.78-2.07.78-1.12 0-1.87-.67-.75-.7-.86-1.75Zm7.6 2.26v-1.2h1.2v1.2h-1.2Zm2.4-4.23q0-1.53.31-2.46.32-.93.92-1.43.63-.5 1.57-.5.68 0 1.2.28.53.28.88.81.34.52.53 1.27.18.75.18 2.03 0 1.51-.3 2.44-.3.92-.93 1.43-.61.5-1.56.5-1.24 0-1.96-.89-.84-1.06-.84-3.48Zm1.08 0q0 2.1.5 2.81.5.7 1.22.7.73 0 1.22-.7.5-.7.5-2.81 0-2.13-.5-2.81-.49-.7-1.24-.7-.72 0-1.16.6-.54.78-.54 2.9Zm6.12-2.3q0-.92.46-1.56.47-.64 1.34-.64.81 0 1.34.58.54.57.54 1.68 0 1.1-.55 1.7-.53.57-1.31.57-.79 0-1.3-.58-.52-.58-.52-1.75Zm1.83-1.48q-.39 0-.66.34-.24.34-.24 1.25 0 .83.25 1.17.26.33.65.33.4 0 .66-.34.26-.35.26-1.24 0-.84-.26-1.17-.27-.34-.66-.34Zm0 8.32 4.7-9.04h.86l-4.68 9.04h-.88Zm3.72-2.32q0-.93.45-1.57.47-.64 1.36-.64.82 0 1.35.58.53.56.53 1.69 0 1.1-.55 1.69-.53.57-1.33.57-.76 0-1.3-.57-.51-.58-.51-1.75Zm1.84-1.49q-.4 0-.67.35-.25.34-.25 1.25 0 .8.27 1.15.26.35.65.35.4 0 .66-.35.27-.34.27-1.25 0-.83-.27-1.15-.27-.35-.66-.35Z"/><path stroke="#757575" stroke-linecap="butt" d="M22.6 202.51h121.03l46.64-56.95"/><path fill="#9e9e9e" d="M192.27 145.56a2 2 0 1 0-4 0 2 2 0 0 0 4 0"/><path fill="#000" d="M23.57 229.01v-8.6h1.12v3.54h4.47v-3.53h1.14v8.6h-1.14v-4.05H24.7V229h-1.12Zm8.44-3.1q0-1.74.95-2.57.8-.69 1.95-.69 1.28 0 2.1.85.82.82.82 2.3 0 1.21-.35 1.9-.36.69-1.07 1.08-.68.37-1.5.37-1.3 0-2.1-.83-.8-.84-.8-2.42Zm1.07 0q0 1.18.52 1.77.53.6 1.31.6.8 0 1.32-.6.51-.59.51-1.8 0-1.16-.53-1.76-.52-.6-1.3-.6t-1.31.6q-.52.58-.52 1.78Zm5.9 1.24L40 227q.09.62.48.95.4.33 1.14.33.72 0 1.06-.28.36-.3.36-.7 0-.37-.3-.57-.23-.14-1.09-.36-1.15-.3-1.6-.5-.44-.22-.68-.6-.23-.37-.23-.84 0-.4.18-.76.2-.36.52-.6.25-.17.67-.3.42-.12.92-.12.72 0 1.27.22.56.2.83.56.26.36.36.96l-1.03.14q-.07-.47-.41-.74-.33-.28-.95-.28-.72 0-1.03.25-.32.24-.32.56 0 .2.13.36.14.18.4.29.16.06.94.26 1.13.31 1.56.5.44.19.7.55.24.36.24.9t-.31 1q-.3.46-.88.72-.57.25-1.3.25-1.23 0-1.87-.5-.62-.51-.8-1.5Zm9.71.92.16.93q-.45.09-.8.09-.57 0-.89-.17-.31-.19-.45-.49-.13-.3-.13-1.25v-3.57h-.76v-.82h.76v-1.54l1.05-.63v2.17h1.06v.82h-1.06v3.64q0 .45.05.57.06.13.19.2.12.09.36.09.18 0 .46-.04Zm.7-6.43v-1.22h1.07v1.22H49.4Zm0 7.37v-6.22h1.07v6.22H49.4Zm3 0v-6.22h.94v.88q.7-1.02 1.99-1.02.56 0 1.03.2.48.2.72.54.23.33.33.76.04.3.04 1.03v3.83H56.4v-3.78q0-.66-.13-.97-.12-.31-.44-.5-.3-.2-.73-.2-.67 0-1.17.44-.49.42-.49 1.6v3.41H52.4Zm6.8.52 1.04.15q.06.47.35.7.4.29 1.07.29.73 0 1.12-.3.4-.3.55-.81.1-.33.08-1.36-.7.81-1.72.81-1.28 0-1.99-.92-.7-.94-.7-2.22 0-.89.31-1.64.33-.76.94-1.17.61-.4 1.44-.4 1.1 0 1.83.88v-.75h.96v5.38q0 1.45-.3 2.06-.29.61-.93.95-.64.36-1.58.36-1.1 0-1.8-.5-.68-.5-.67-1.51Zm.88-3.74q0 1.22.48 1.78.49.57 1.22.57.74 0 1.22-.57.5-.56.5-1.75 0-1.14-.52-1.71-.5-.58-1.21-.58-.7 0-1.2.58-.5.56-.5 1.68Zm9.33 5.61v-8.6h.95v.79q.34-.47.77-.7.43-.24 1.04-.24.8 0 1.4.4.62.42.91 1.17.32.75.32 1.64 0 .95-.35 1.71-.32.77-.98 1.18-.66.4-1.38.4-.53 0-.95-.22-.42-.23-.69-.56v3.03H69.4Zm.95-5.47q0 1.2.48 1.79.49.56 1.18.56.7 0 1.2-.6.5-.59.5-1.84 0-1.19-.48-1.77-.49-.59-1.18-.59-.67 0-1.18.63-.52.62-.52 1.82Zm6.03 3.08v-6.22h.95v.94q.36-.66.66-.86.31-.22.69-.22.53 0 1.08.33l-.36.99q-.4-.24-.77-.24-.36 0-.64.22-.27.2-.37.58-.2.56-.2 1.22V229h-1.04Zm3.63-3.1q0-1.74.95-2.57.8-.69 1.95-.69 1.28 0 2.1.85.82.82.82 2.3 0 1.21-.36 1.9-.35.69-1.06 1.08-.69.37-1.5.37-1.3 0-2.1-.83-.8-.84-.8-2.42Zm1.07 0q0 1.18.52 1.77.53.6 1.31.6.8 0 1.31-.6.52-.59.52-1.8 0-1.16-.53-1.76-.52-.6-1.3-.6t-1.31.6q-.52.58-.52 1.78Zm8.04 3.1-2.36-6.22h1.1l1.35 3.72.39 1.25q.14-.48.4-1.17l1.38-3.8h1.08l-2.36 6.22h-.98Zm3.28-7.37v-1.22h1.06v1.22H92.4Zm0 7.37v-6.22h1.06v6.22H92.4Zm7.03 0v-.78q-.6.92-1.74.92-.75 0-1.37-.4-.63-.43-.97-1.16-.34-.73-.34-1.69 0-.92.3-1.68.32-.77.95-1.16.62-.4 1.39-.4.56 0 1 .23.43.23.72.6v-3.07h1.04v8.6h-.98Zm-3.33-3.1q0 1.2.5 1.79.5.58 1.19.58.68 0 1.17-.56.48-.57.48-1.72 0-1.28-.5-1.88-.48-.6-1.2-.6-.7 0-1.17.59-.47.56-.47 1.8Zm10.55 1.1 1.1.13q-.26.95-.96 1.48t-1.78.53q-1.36 0-2.18-.84-.8-.84-.8-2.36 0-1.56.82-2.42.81-.88 2.1-.88 1.24 0 2.02.85.8.84.8 2.39v.28h-4.64q.06 1.03.58 1.58.52.53 1.3.53.57 0 .98-.3.42-.31.66-.97Zm-3.46-1.7h3.47q-.06-.8-.39-1.19-.51-.6-1.31-.6-.73 0-1.23.48-.49.48-.54 1.3Zm6.2 3.7v-6.22h.94v.94q.36-.66.66-.86.31-.22.69-.22.53 0 1.08.33l-.36.99q-.4-.24-.77-.24-.36 0-.64.22-.27.2-.37.58-.2.56-.2 1.22V229h-1.04Z"/><path fill="#9e9e9e" d="m23.1 243.75 1.06-.14q.17.89.61 1.3.44.38 1.06.38.75 0 1.27-.51.52-.52.52-1.28 0-.72-.49-1.2-.47-.48-1.2-.48-.3 0-.75.13l.12-.94.18.02q.67 0 1.2-.35.55-.36.55-1.09 0-.58-.4-.95-.39-.4-1.01-.4-.61 0-1.03.4-.4.39-.52 1.15l-1.06-.18q.19-1.05.87-1.63.7-.6 1.7-.6.71 0 1.3.32.6.3.91.81.31.52.31 1.11 0 .55-.3 1.02-.3.45-.87.72.75.17 1.17.73.43.55.43 1.4 0 1.12-.83 1.9-.82.78-2.07.78-1.12 0-1.87-.67-.75-.7-.86-1.75Zm7.6 2.26v-1.2h1.2v1.2h-1.2Zm2.56-1.98 1.01-.1q.13.72.49 1.05.37.31.93.31.49 0 .85-.22.37-.23.6-.59.24-.37.4-1 .15-.64.15-1.3v-.21q-.3.5-.86.82-.54.32-1.18.32-1.08 0-1.82-.77-.73-.78-.73-2.05 0-1.3.77-2.1.78-.8 1.93-.8.83 0 1.52.45.7.45 1.06 1.3.36.83.36 2.4 0 1.64-.36 2.63-.34.97-1.06 1.48-.7.5-1.64.5-1.02 0-1.66-.54-.64-.57-.76-1.58Zm4.3-3.8q0-.9-.48-1.44-.46-.53-1.15-.53-.7 0-1.24.58-.51.56-.51 1.48 0 .82.5 1.33.5.52 1.22.52.73 0 1.2-.52.47-.51.47-1.42Zm2.74-.75q0-.92.46-1.56.47-.64 1.34-.64.81 0 1.34.58.54.57.54 1.68 0 1.1-.55 1.7-.53.57-1.31.57-.79 0-1.3-.58-.52-.58-.52-1.75Zm1.83-1.48q-.39 0-.66.34-.24.34-.24 1.25 0 .83.25 1.17.26.33.65.33.4 0 .66-.34.26-.35.26-1.24 0-.84-.26-1.17-.27-.34-.66-.34Zm0 8.32 4.7-9.04h.86l-4.68 9.04h-.88Zm3.72-2.32q0-.93.45-1.57.47-.64 1.36-.64.82 0 1.35.58.53.56.53 1.69 0 1.1-.55 1.69-.53.57-1.33.57-.76 0-1.3-.57-.51-.58-.51-1.75Zm1.84-1.49q-.4 0-.67.35-.25.34-.25 1.25 0 .8.27 1.15.26.35.65.35.4 0 .66-.35.27-.34.27-1.25 0-.83-.27-1.15-.27-.35-.66-.35Z"/><path stroke="#757575" stroke-linecap="butt" d="M22.6 233.51h121.03l28.5-54.82"/><path fill="#9e9e9e" d="M174.12 178.69a2 2 0 1 0-4 0 2 2 0 0 0 4 0"/><path fill="#000" d="M23.57 260.01v-8.6h1.12v3.54h4.47v-3.53h1.14v8.6h-1.14v-4.05H24.7V260h-1.12Zm12.9 0v-.92q-.73 1.06-1.98 1.06-.55 0-1.03-.2-.47-.22-.7-.53-.24-.33-.33-.8-.06-.3-.06-.98v-3.85h1.06v3.46q0 .8.06 1.1.1.41.4.66.34.24.82.24.47 0 .87-.24.43-.25.6-.67.19-.42.19-1.22v-3.33h1.04v6.22h-.93Zm2.93 0v-6.22h.93v.88q.3-.47.79-.74.48-.28 1.1-.28.7 0 1.13.28.45.29.63.8.75-1.08 1.92-1.08.93 0 1.42.52.5.5.5 1.58V260h-1.05v-3.92q0-.62-.1-.9-.1-.29-.37-.46-.26-.17-.64-.17-.65 0-1.1.44-.41.43-.41 1.4v3.61h-1.07v-4.04q0-.7-.26-1.05-.25-.36-.83-.36-.45 0-.83.23-.37.24-.54.7-.18.44-.18 1.29V260H39.4Zm15.06-.76q-.6.5-1.14.7-.53.2-1.16.2-1.03 0-1.58-.5-.54-.5-.54-1.28 0-.45.2-.83.2-.39.55-.6.34-.24.76-.35.3-.1.94-.17 1.27-.14 1.88-.36v-.27q0-.65-.3-.92-.4-.34-1.2-.34-.74 0-1.1.26-.36.25-.53.91l-1.03-.14q.14-.66.47-1.06.33-.41.94-.63.6-.22 1.4-.22.8 0 1.3.19t.73.47q.24.28.33.72.05.26.05.97v1.4q0 1.47.06 1.86.08.4.28.75h-1.1q-.16-.33-.21-.76Zm-.1-2.36q-.57.23-1.71.4-.66.1-.92.22-.27.11-.43.33-.14.22-.14.5 0 .42.32.7.32.28.93.28.61 0 1.08-.26.48-.27.7-.74.18-.35.18-1.04v-.4ZM57.4 260v-6.22h.93v.88q.7-1.02 1.99-1.02.56 0 1.03.2.48.2.72.54.23.33.33.76.04.3.04 1.03v3.83H61.4v-3.78q0-.66-.13-.97-.12-.31-.44-.5-.3-.2-.73-.2-.67 0-1.17.44-.49.42-.49 1.6v3.41H57.4Zm6.58-2.58v-1.06h3.24v1.06h-3.24Zm4.39 2.58v-8.6h1.06v8.6h-1.06Zm3.03-7.37v-1.22h1.06v1.22H71.4Zm0 7.37v-6.22h1.06v6.22H71.4Zm3 0v-8.6h1.06v4.91l2.48-2.53h1.38l-2.4 2.3 2.63 3.92h-1.3l-2.06-3.19-.73.72v2.47H74.4Zm10.25-2 1.1.13q-.26.95-.96 1.48t-1.78.53q-1.36 0-2.18-.84-.8-.84-.8-2.36 0-1.56.82-2.42.81-.88 2.1-.88 1.24 0 2.02.85.8.84.8 2.39v.28h-4.64q.06 1.03.58 1.58.52.53 1.3.53.57 0 .98-.3.42-.31.66-.97Zm-3.46-1.7h3.47q-.06-.8-.39-1.19-.51-.6-1.31-.6-.73 0-1.23.48-.49.48-.54 1.3Zm9.2 3.7v-6.22h.94v.88q.7-1.02 1.99-1.02.56 0 1.03.2.48.2.72.54.23.33.33.76.04.3.04 1.03v3.83H94.4v-3.78q0-.66-.13-.97-.12-.31-.44-.5-.3-.2-.73-.2-.67 0-1.17.44-.49.42-.49 1.6v3.41H90.4Zm11.07-.76q-.6.5-1.14.7-.53.2-1.16.2-1.03 0-1.58-.5-.54-.5-.54-1.28 0-.45.2-.83.2-.39.55-.6.34-.24.76-.35.3-.1.94-.17 1.27-.14 1.88-.36v-.27q0-.65-.3-.92-.4-.34-1.2-.34-.74 0-1.1.26-.36.25-.53.91l-1.03-.14q.14-.66.47-1.06.33-.41.94-.63.6-.22 1.4-.22.8 0 1.3.19t.73.47q.24.28.33.72.05.26.05.97v1.4q0 1.47.06 1.86.08.4.28.75h-1.1q-.16-.33-.21-.76Zm-.1-2.36q-.57.23-1.71.4-.66.1-.93.22-.26.11-.42.33-.14.22-.14.5 0 .42.31.7.33.28.94.28.61 0 1.08-.26.48-.27.7-.74.18-.35.18-1.04v-.4Zm3.04 3.12v-6.22h.93v.88q.3-.47.79-.74.48-.28 1.1-.28.7 0 1.13.28.45.29.63.8.74-1.08 1.92-1.08.93 0 1.42.52.5.5.5 1.58V260h-1.05v-3.92q0-.62-.1-.9-.1-.29-.37-.46-.26-.17-.64-.17-.65 0-1.1.44-.41.43-.41 1.4v3.61h-1.07v-4.04q0-.7-.26-1.05-.25-.36-.83-.36-.45 0-.83.23-.37.24-.54.7-.18.44-.18 1.29V260h-1.04Zm15.25-2 1.1.13q-.26.95-.96 1.48t-1.78.53q-1.36 0-2.18-.84-.8-.84-.8-2.36 0-1.56.82-2.42.81-.88 2.1-.88 1.24 0 2.02.85.8.84.8 2.39v.28h-4.64q.06 1.03.58 1.58.52.53 1.3.53.57 0 .98-.3.42-.31.66-.97Zm-3.46-1.7h3.47q-.06-.8-.39-1.19-.51-.6-1.31-.6-.73 0-1.23.48-.49.48-.54 1.3Z"/><path fill="#9e9e9e" d="M26.48 277.01v-2.06h-3.72v-.97l3.92-5.56h.86v5.56h1.15v.97h-1.15v2.06h-1.06Zm0-3.03v-3.86l-2.7 3.86h2.7Zm4.21 3.03v-1.2h1.2v1.2h-1.2Zm2.41-2.26 1.06-.14q.17.89.61 1.3.44.38 1.06.38.75 0 1.27-.51.52-.52.52-1.28 0-.72-.49-1.2-.47-.48-1.2-.48-.3 0-.75.13l.12-.94.18.02q.67 0 1.2-.35.55-.36.55-1.09 0-.58-.4-.95-.39-.4-1.01-.4-.61 0-1.03.4-.4.39-.52 1.15l-1.06-.18q.19-1.05.87-1.63.7-.6 1.7-.6.71 0 1.3.32.6.3.91.81.31.52.31 1.11 0 .55-.3 1.02-.3.45-.87.72.75.17 1.17.73.43.55.43 1.4 0 1.12-.83 1.9-.82.78-2.07.78-1.12 0-1.87-.67-.75-.7-.86-1.75Zm7.2-4.27q0-.92.46-1.56.47-.64 1.34-.64.81 0 1.34.58.54.57.54 1.68 0 1.1-.55 1.7-.53.57-1.31.57-.79 0-1.3-.58-.52-.58-.52-1.75Zm1.83-1.48q-.39 0-.66.34-.24.34-.24 1.25 0 .83.25 1.17.26.33.65.33.4 0 .66-.34.26-.35.26-1.24 0-.84-.26-1.17-.27-.34-.66-.34Zm0 8.32 4.7-9.04h.86l-4.68 9.04h-.88Zm3.72-2.32q0-.93.45-1.57.47-.64 1.36-.64.82 0 1.35.58.53.56.53 1.69 0 1.1-.55 1.69-.53.57-1.33.57-.76 0-1.3-.57-.51-.58-.51-1.75Zm1.84-1.49q-.4 0-.67.35-.25.34-.25 1.25 0 .8.27 1.15.26.35.65.35.4 0 .66-.35.27-.34.27-1.25 0-.83-.27-1.15-.27-.35-.66-.35Z"/><path stroke="#757575" stroke-linecap="butt" d="M22.6 264.51h121.03l16.8-42.56"/><path fill="#9e9e9e" d="M162.43 221.95a2 2 0 1 0-4 0 2 2 0 0 0 4 0"/><path fill="#000" d="M23.52 291.01v-8.6h2.97q1 0 1.53.13.74.18 1.25.61.69.58 1.02 1.49.34.89.34 2.03 0 .98-.23 1.73-.22.75-.58 1.25t-.8.78q-.42.29-1.01.44-.6.14-1.38.14h-3.1Zm1.14-1.01h1.83q.86 0 1.34-.16.49-.16.77-.45.4-.4.63-1.08.23-.69.23-1.66 0-1.34-.45-2.06-.44-.73-1.07-.98-.46-.18-1.46-.18h-1.82V290Zm11.99-.99 1.1.13q-.26.95-.96 1.48t-1.78.53q-1.36 0-2.18-.84-.8-.84-.8-2.36 0-1.56.82-2.42.81-.88 2.1-.88 1.24 0 2.02.85.8.84.8 2.39v.28h-4.64q.06 1.03.58 1.58.52.53 1.3.53.57 0 .98-.3.42-.31.66-.97Zm-3.46-1.7h3.47q-.06-.8-.39-1.19-.51-.6-1.31-.6-.73 0-1.23.48-.49.48-.54 1.3Zm6.46 3.7v-5.4h-.94v-.82h.94v-.67q0-.62.1-.92.16-.42.54-.67.39-.25 1.08-.25.45 0 .98.1l-.16.91q-.32-.04-.62-.04-.49 0-.69.2-.19.2-.19.77v.57h1.22v.82H40.7v5.4h-1.04Zm6.8-.76q-.58.5-1.13.7-.53.2-1.16.2-1.03 0-1.58-.5-.54-.5-.54-1.28 0-.45.2-.83.2-.39.55-.6.34-.24.76-.35.3-.1.94-.17 1.27-.14 1.88-.36v-.27q0-.65-.3-.92-.4-.34-1.2-.34-.74 0-1.1.26-.36.25-.53.91l-1.03-.14q.14-.66.47-1.06.33-.41.94-.63.6-.22 1.4-.22.8 0 1.3.19t.73.47q.24.28.33.72.05.26.05.97v1.4q0 1.47.06 1.86.08.4.28.75h-1.1q-.16-.33-.21-.76Zm-.08-2.36q-.58.23-1.72.4-.66.1-.92.22-.27.11-.43.33-.14.22-.14.5 0 .42.32.7.32.28.93.28.61 0 1.08-.26.48-.27.7-.74.18-.35.18-1.04v-.4Zm7.1 3.12v-.92q-.73 1.06-1.98 1.06-.55 0-1.03-.2-.47-.22-.7-.53-.24-.33-.33-.8-.06-.3-.06-.98v-3.85h1.06v3.46q0 .8.06 1.1.1.41.4.66.34.24.82.24.47 0 .87-.24.43-.25.6-.67.19-.42.19-1.22v-3.33h1.04v6.22h-.93Zm2.9 0v-8.6h1.06v8.6h-1.06Zm5.32-.94.16.93q-.45.09-.8.09-.57 0-.89-.17-.31-.19-.45-.49-.13-.3-.13-1.25v-3.57h-.76v-.82h.76v-1.54l1.05-.63v2.17h1.06v.82h-1.06v3.64q0 .45.05.57.06.13.19.2.12.09.36.09.18 0 .46-.04Zm3.7.94v-6.22h.94v.88q.7-1.02 1.99-1.02.56 0 1.03.2.48.2.72.54.23.33.33.76.04.3.04 1.03v3.83H69.4v-3.78q0-.66-.13-.97-.12-.31-.44-.5-.3-.2-.73-.2-.67 0-1.17.44-.49.42-.49 1.6v3.41H65.4Zm11.07-.76q-.6.5-1.14.7-.53.2-1.16.2-1.03 0-1.58-.5-.54-.5-.54-1.28 0-.45.2-.83.2-.39.55-.6.34-.24.76-.35.3-.1.94-.17 1.27-.14 1.88-.36v-.27q0-.65-.3-.92-.4-.34-1.2-.34-.74 0-1.1.26-.36.25-.53.91l-1.03-.14q.14-.66.47-1.06.33-.41.94-.63.6-.22 1.4-.22.8 0 1.3.19t.73.47q.24.28.33.72.05.26.05.97v1.4q0 1.47.06 1.86.08.4.28.75h-1.1q-.16-.33-.21-.76Zm-.1-2.36q-.57.23-1.71.4-.66.1-.93.22-.26.11-.42.33-.14.22-.14.5 0 .42.31.7.33.28.94.28.61 0 1.08-.26.48-.27.7-.74.18-.35.18-1.04v-.4ZM79.4 291v-6.22h.93v.88q.3-.47.79-.74.48-.28 1.1-.28.7 0 1.13.28.45.29.63.8.74-1.08 1.92-1.08.93 0 1.42.52.5.5.5 1.58V291h-1.05v-3.92q0-.62-.1-.9-.1-.29-.37-.46-.26-.17-.64-.17-.65 0-1.1.44-.41.43-.41 1.4v3.61h-1.07v-4.04q0-.7-.26-1.05-.25-.36-.83-.36-.45 0-.83.23-.37.24-.54.7-.18.44-.18 1.29V291H79.4Zm15.25-2 1.1.13q-.26.95-.96 1.48t-1.78.53q-1.36 0-2.18-.84-.8-.84-.8-2.36 0-1.56.82-2.42.81-.88 2.1-.88 1.24 0 2.02.85.8.84.8 2.39v.28h-4.64q.06 1.03.58 1.58.52.53 1.3.53.57 0 .98-.3.42-.31.66-.97Zm-3.46-1.7h3.47q-.06-.8-.39-1.19-.51-.6-1.31-.6-.73 0-1.23.48-.49.48-.54 1.3Z"/><path fill="#9e9e9e" d="M26.48 308.01v-2.06h-3.72v-.97l3.92-5.56h.86v5.56h1.15v.97h-1.15v2.06h-1.06Zm0-3.03v-3.86l-2.7 3.86h2.7Zm4.21 3.03v-1.2h1.2v1.2h-1.2Zm2.41-2.26 1.06-.14q.17.89.61 1.3.44.38 1.06.38.75 0 1.27-.51.52-.52.52-1.28 0-.72-.49-1.2-.47-.48-1.2-.48-.3 0-.75.13l.12-.94.18.02q.67 0 1.2-.35.55-.36.55-1.09 0-.58-.4-.95-.39-.4-1.01-.4-.61 0-1.03.4-.4.39-.52 1.15l-1.06-.18q.19-1.05.87-1.63.7-.6 1.7-.6.71 0 1.3.32.6.3.91.81.31.52.31 1.11 0 .55-.3 1.02-.3.45-.87.72.75.17 1.17.73.43.55.43 1.4 0 1.12-.83 1.9-.82.78-2.07.78-1.12 0-1.87-.67-.75-.7-.86-1.75Zm7.2-4.27q0-.92.46-1.56.47-.64 1.34-.64.81 0 1.34.58.54.57.54 1.68 0 1.1-.55 1.7-.53.57-1.31.57-.79 0-1.3-.58-.52-.58-.52-1.75Zm1.83-1.48q-.39 0-.66.34-.24.34-.24 1.25 0 .83.25 1.17.26.33.65.33.4 0 .66-.34.26-.35.26-1.24 0-.84-.26-1.17-.27-.34-.66-.34Zm0 8.32 4.7-9.04h.86l-4.68 9.04h-.88Zm3.72-2.32q0-.93.45-1.57.47-.64 1.36-.64.82 0 1.35.58.53.56.53 1.69 0 1.1-.55 1.69-.53.57-1.33.57-.76 0-1.3-.57-.51-.58-.51-1.75Zm1.84-1.49q-.4 0-.67.35-.25.34-.25 1.25 0 .8.27 1.15.26.35.65.35.4 0 .66-.35.27-.34.27-1.25 0-.83-.27-1.15-.27-.35-.66-.35Z"/><path stroke="#757575" stroke-linecap="butt" d="M22.6 295.51h121.03l16.8-26.4"/><path fill="#9e9e9e" d="M162.43 269.11a2 2 0 1 0-4 0 2 2 0 0 0 4 0"/><path fill="#000" d="M23.5 322.01v-8.6h1.7l2.04 6.09q.28.86.4 1.28l.46-1.38 2.06-5.98h1.53v8.6H30.6v-7.2l-2.5 7.2h-1.03l-2.49-7.32v7.31H23.5Zm12.96-.76q-.6.5-1.14.7-.53.2-1.16.2-1.03 0-1.58-.5-.54-.5-.54-1.28 0-.45.2-.83.2-.39.55-.6.34-.24.76-.35.3-.1.94-.17 1.27-.14 1.88-.36v-.27q0-.65-.3-.92-.4-.34-1.2-.34-.74 0-1.1.26-.36.25-.53.91l-1.03-.14q.14-.66.47-1.06.33-.41.94-.63.6-.22 1.4-.22.8 0 1.3.19t.73.47q.24.28.33.72.05.26.05.97v1.4q0 1.47.06 1.86.08.4.28.75h-1.1q-.16-.33-.21-.76Zm-.1-2.36q-.57.23-1.71.4-.66.1-.92.22-.27.11-.43.33-.14.22-.14.5 0 .42.32.7.32.28.93.28.61 0 1.08-.26.48-.27.7-.74.18-.35.18-1.04v-.4Zm7.07 3.12v-.78q-.6.92-1.74.92-.75 0-1.37-.4-.63-.43-.97-1.16-.34-.73-.34-1.69 0-.92.3-1.68.32-.77.95-1.16.62-.4 1.39-.4.56 0 1 .23.43.23.72.6v-3.07h1.04v8.6h-.98Zm-3.33-3.1q0 1.2.5 1.79.5.58 1.19.58t1.17-.56q.48-.57.48-1.72 0-1.28-.5-1.88-.48-.6-1.2-.6-.7 0-1.17.59-.47.56-.47 1.8Zm10.55 1.1 1.1.13q-.26.95-.96 1.48t-1.78.53q-1.36 0-2.18-.84-.8-.84-.8-2.36 0-1.56.82-2.42.81-.88 2.1-.88 1.24 0 2.02.85.8.84.8 2.39v.28h-4.64q.06 1.03.58 1.58.52.53 1.3.53.57 0 .98-.3.42-.31.66-.97Zm-3.46-1.7h3.47q-.06-.8-.39-1.19-.51-.6-1.31-.6-.73 0-1.23.48-.49.48-.54 1.3Zm5.79 1.12v-1.06h3.25v1.06h-3.25Zm8.5 2.58v-.92q-.74 1.06-1.99 1.06-.55 0-1.03-.2-.47-.22-.7-.53-.24-.33-.33-.8-.06-.3-.06-.98v-3.85h1.06v3.46q0 .8.06 1.1.1.41.4.66.34.24.82.24.47 0 .87-.24.43-.25.6-.67.19-.42.19-1.22v-3.33h1.04v6.22h-.93Zm2.92 2.4v-8.62h.95v.8q.34-.47.77-.7.43-.24 1.04-.24.8 0 1.4.4.62.42.91 1.17.32.75.32 1.64 0 .95-.35 1.71-.32.77-.98 1.18-.66.4-1.38.4-.53 0-.95-.22-.42-.23-.69-.56v3.03H64.4Zm.95-5.48q0 1.2.48 1.79.49.56 1.18.56.7 0 1.2-.6.5-.59.5-1.84 0-1.19-.48-1.77-.49-.59-1.18-.59-.67 0-1.18.63-.52.62-.52 1.82Zm10.19 3.08-1.9-6.22h1.08l.99 3.6.37 1.33q.04-.1.33-1.29l.99-3.64h1.07l.94 3.61.31 1.19.36-1.2 1.07-3.6h1.03l-1.96 6.22h-1.09l-.98-3.73-.25-1.05-1.25 4.78h-1.11Zm7.47-3.1q0-1.74.95-2.57.8-.69 1.95-.69 1.28 0 2.1.85.82.82.82 2.3 0 1.21-.36 1.9-.35.69-1.06 1.08-.69.37-1.5.37-1.3 0-2.1-.83-.8-.84-.8-2.42Zm1.07 0q0 1.18.52 1.77.53.6 1.31.6.8 0 1.31-.6.52-.59.52-1.8 0-1.16-.53-1.76-.52-.6-1.3-.6t-1.31.6q-.52.58-.52 1.78Zm6.3 3.1v-6.22h.95v.94q.36-.66.66-.86.31-.22.69-.22.53 0 1.08.33l-.36.99q-.4-.24-.77-.24-.36 0-.64.22-.27.2-.37.58-.2.56-.2 1.22V322h-1.04Zm8.05 0v-.78q-.6.92-1.74.92-.75 0-1.37-.4-.63-.43-.97-1.16-.34-.73-.34-1.69 0-.92.3-1.68.32-.77.95-1.16.62-.4 1.39-.4.56 0 1 .23.43.23.72.6v-3.07h1.04v8.6h-.98Zm-3.33-3.1q0 1.2.5 1.79.5.58 1.19.58.68 0 1.17-.56.48-.57.48-1.72 0-1.28-.5-1.88-.48-.6-1.2-.6-.7 0-1.17.59-.47.56-.47 1.8Z"/><path fill="#9e9e9e" d="m23.1 336.76 1.1-.1q.13.82.57 1.23.46.4 1.1.4.75 0 1.28-.57.53-.58.53-1.52 0-.9-.52-1.42-.5-.53-1.33-.53-.5 0-.92.23-.4.24-.64.6l-.98-.13.83-4.4h4.28v1h-3.44l-.45 2.3q.76-.54 1.6-.54 1.13 0 1.9.78.78.78.78 2.02 0 1.15-.67 2.01-.83 1.03-2.25 1.03-1.18 0-1.93-.65-.73-.66-.84-1.74Zm7.6 2.25v-1.2h1.2v1.2h-1.2Zm5.78 0v-2.06h-3.72v-.97l3.92-5.56h.86v5.56h1.15v.97h-1.15v2.06h-1.06Zm0-3.03v-3.86l-2.7 3.86h2.7Zm3.82-3.5q0-.92.46-1.56.47-.64 1.34-.64.81 0 1.34.58.54.57.54 1.68 0 1.1-.55 1.7-.53.57-1.31.57-.79 0-1.3-.58-.52-.58-.52-1.75Zm1.83-1.48q-.39 0-.66.34-.24.34-.24 1.25 0 .83.25 1.17.26.33.65.33.4 0 .66-.34.26-.35.26-1.24 0-.84-.26-1.17-.27-.34-.66-.34Zm0 8.32 4.7-9.04h.86l-4.68 9.04h-.88Zm3.72-2.32q0-.93.45-1.57.47-.64 1.36-.64.82 0 1.35.58.53.56.53 1.69 0 1.1-.55 1.69-.53.57-1.33.57-.76 0-1.3-.57-.51-.58-.51-1.75Zm1.84-1.49q-.4 0-.67.35-.25.34-.25 1.25 0 .8.27 1.15.26.35.65.35.4 0 .66-.35.27-.34.27-1.25 0-.83-.27-1.15-.27-.35-.66-.35Z"/><path stroke="#757575" stroke-linecap="butt" d="M22.6 326.51h121.03l31.84-6.56"/><path fill="#9e9e9e" d="M177.47 319.95a2 2 0 1 0-4 0 2 2 0 0 0 4 0"/><path fill="#000" d="M23.57 373.4v-8.6h1.12v3.53h4.47v-3.53h1.14v8.6h-1.14v-4.05H24.7v4.04h-1.12Zm12.89-.77q-.6.5-1.14.7-.53.2-1.16.2-1.03 0-1.58-.5-.54-.5-.54-1.28 0-.45.2-.82.2-.4.55-.61.34-.24.76-.35.3-.1.94-.17 1.27-.14 1.88-.36v-.26q0-.66-.3-.93-.4-.34-1.2-.34-.74 0-1.1.27-.36.25-.53.9l-1.03-.14q.14-.66.47-1.06.33-.4.94-.63.6-.22 1.4-.22.8 0 1.3.2.5.18.73.46.24.28.33.72.05.27.05.97v1.4q0 1.47.06 1.86.08.4.28.75h-1.1q-.16-.32-.21-.76Zm-.1-2.36q-.57.23-1.71.4-.66.1-.92.22-.27.11-.43.33-.14.22-.14.5 0 .42.32.7.32.29.93.29.61 0 1.08-.27.48-.26.7-.73.18-.36.18-1.05v-.4Zm3.02 3.12v-6.21h.95v.93q.36-.65.66-.86.31-.22.69-.22.53 0 1.08.33l-.36.99q-.4-.24-.77-.24-.36 0-.64.22-.27.2-.37.58-.2.56-.2 1.22v3.26h-1.04Zm8.05 0v-.78q-.6.92-1.74.92-.75 0-1.37-.4-.63-.42-.97-1.16-.34-.73-.34-1.69 0-.92.3-1.68.32-.77.95-1.16.62-.4 1.39-.4.56 0 1 .23.43.23.72.6v-3.07h1.04v8.6h-.98Zm-3.33-3.1q0 1.2.5 1.8.5.57 1.19.57t1.17-.56q.48-.57.48-1.72 0-1.28-.5-1.88-.48-.59-1.2-.59-.7 0-1.17.58-.47.56-.47 1.8Zm7.44 3.1-1.9-6.21h1.09l.98 3.59.37 1.33q.04-.1.33-1.28l.99-3.64h1.08l.93 3.6.32 1.2.35-1.21 1.07-3.6h1.03l-1.95 6.22h-1.1l-.98-3.73-.25-1.05-1.25 4.78h-1.11Zm11.92-.76q-.6.5-1.14.7-.53.2-1.16.2-1.03 0-1.58-.5-.54-.5-.54-1.28 0-.45.2-.82.2-.4.55-.61.34-.24.76-.35.3-.1.94-.17 1.27-.14 1.88-.36v-.26q0-.66-.3-.93-.4-.34-1.2-.34-.74 0-1.1.27-.36.25-.53.9l-1.03-.14q.14-.66.47-1.06.33-.4.94-.63.6-.22 1.4-.22.8 0 1.3.2.5.18.73.46.24.28.33.72.05.27.05.97v1.4q0 1.47.06 1.86.08.4.28.75h-1.1q-.16-.32-.21-.76Zm-.1-2.36q-.57.23-1.71.4-.66.1-.92.22-.27.11-.43.33-.14.22-.14.5 0 .42.32.7.32.29.93.29.61 0 1.08-.27.48-.26.7-.73.18-.36.18-1.05v-.4Zm3.02 3.12v-6.21h.95v.93q.36-.65.66-.86.31-.22.69-.22.53 0 1.08.33l-.36.99q-.4-.24-.77-.24-.36 0-.64.22-.27.2-.37.58-.2.56-.2 1.22v3.26h-1.04Zm8.27-2 1.1.13q-.26.95-.96 1.48t-1.78.53q-1.36 0-2.18-.84-.8-.84-.8-2.36 0-1.56.82-2.42.81-.88 2.1-.88 1.24 0 2.02.85.8.84.8 2.39v.28h-4.64q.06 1.03.58 1.58.52.53 1.3.53.57 0 .98-.3.42-.31.66-.97Zm-3.46-1.7h3.47q-.06-.8-.39-1.19-.51-.6-1.31-.6-.73 0-1.23.48-.49.48-.54 1.31Z"/><path fill="#9e9e9e" d="M24.73 385.74q-.66-.25-.99-.69-.31-.45-.31-1.06 0-.94.67-1.58.69-.64 1.8-.64 1.12 0 1.8.66.7.65.7 1.59 0 .6-.32 1.03-.3.44-.95.69.8.25 1.2.83.41.57.41 1.37 0 1.1-.78 1.84-.77.75-2.05.75-1.26 0-2.04-.75-.79-.75-.79-1.87 0-.84.43-1.4.43-.57 1.21-.77Zm-.22-1.8q0 .61.39 1 .4.4 1.03.4.6 0 1-.38.39-.4.39-.96 0-.57-.4-.97-.41-.4-1-.4-.62 0-1.02.39t-.4.92Zm-.33 3.97q0 .45.2.87.22.43.64.66.42.24.9.24.76 0 1.24-.49.5-.48.5-1.23 0-.77-.5-1.27t-1.26-.5q-.75 0-1.24.5-.48.49-.48 1.22Zm6.51 2.48v-1.2h1.2v1.2h-1.2Zm2.41-4.23q0-1.53.31-2.45.32-.94.92-1.44.63-.5 1.57-.5.68 0 1.2.28.53.28.88.81.34.52.53 1.27.18.75.18 2.03 0 1.52-.3 2.44-.3.92-.93 1.43-.61.5-1.56.5-1.24 0-1.96-.89-.84-1.06-.84-3.48Zm1.08 0q0 2.1.5 2.81.5.7 1.22.7.73 0 1.22-.7.5-.7.5-2.81 0-2.13-.5-2.81-.49-.7-1.24-.7-.72 0-1.16.6-.54.78-.54 2.91Zm6.12-2.3q0-.92.46-1.56.47-.64 1.34-.64.81 0 1.34.58.54.58.54 1.69 0 1.09-.55 1.68-.53.58-1.31.58-.79 0-1.3-.58-.52-.58-.52-1.75Zm1.83-1.48q-.39 0-.66.34-.24.35-.24 1.25 0 .83.25 1.17.26.33.65.33.4 0 .66-.34.26-.35.26-1.24 0-.84-.26-1.17-.27-.34-.66-.34Zm0 8.33 4.7-9.05h.86l-4.68 9.05h-.88Zm3.72-2.33q0-.92.45-1.56.47-.64 1.36-.64.82 0 1.35.57.53.57.53 1.7 0 1.08-.55 1.68-.53.58-1.33.58-.76 0-1.3-.58-.51-.58-.51-1.75Zm1.84-1.49q-.4 0-.67.35-.25.34-.25 1.25 0 .81.27 1.15.26.35.65.35.4 0 .66-.35.27-.34.27-1.25 0-.82-.27-1.15-.27-.35-.66-.35Z"/><path stroke="#757575" stroke-linecap="butt" d="M22.6 377.9H219.52"/><path fill="#9e9e9e" d="M221.52 377.9a2 2 0 1 0-4 0 2 2 0 0 0 4 0"/><path fill="#000" d="M23.54 409.4v-8.6h3.81q1.16 0 1.75.24.6.23.95.83.36.58.36 1.28 0 .92-.6 1.55-.58.62-1.82.8.45.21.69.42.5.45.94 1.14l1.5 2.34h-1.44l-1.13-1.78q-.5-.78-.82-1.19-.32-.4-.58-.56-.25-.17-.52-.25-.19-.03-.62-.03h-1.33v3.81h-1.14Zm1.14-4.8h2.45q.77 0 1.2-.15.46-.18.68-.52.23-.36.23-.78 0-.6-.45-1-.44-.4-1.4-.4h-2.71v2.85Zm11.78 4.03q-.6.5-1.14.7-.53.21-1.16.21-1.03 0-1.58-.5-.54-.5-.54-1.28 0-.45.2-.83.2-.39.55-.6.34-.24.76-.35.3-.1.94-.17 1.27-.14 1.88-.36v-.27q0-.66-.3-.92-.4-.34-1.2-.34-.74 0-1.1.26-.36.25-.53.9l-1.03-.13q.14-.66.47-1.07.33-.4.94-.62.6-.22 1.4-.22.8 0 1.3.19t.73.47q.24.28.33.72.05.26.05.96v1.41q0 1.47.06 1.86.08.4.28.75h-1.1q-.16-.33-.21-.77Zm-.1-2.36q-.57.24-1.71.41-.66.1-.92.22-.27.1-.43.33-.14.22-.14.5 0 .42.32.7.32.28.93.28.61 0 1.08-.26.48-.27.7-.74.18-.36.18-1.04v-.4Zm3.04 3.13v-6.22h.93v.88q.7-1.02 1.99-1.02.56 0 1.03.2.48.2.72.53.23.33.33.77.04.3.04 1.03v3.83H43.4v-3.78q0-.66-.13-.97-.12-.31-.44-.5-.3-.2-.73-.2-.67 0-1.17.43-.49.43-.49 1.61v3.41H39.4Zm11.03 0v-.78q-.6.92-1.74.92-.75 0-1.37-.4-.63-.43-.97-1.16-.34-.74-.34-1.69 0-.92.3-1.69.32-.76.95-1.15.62-.4 1.39-.4.56 0 1 .22.43.24.72.61v-3.07h1.04v8.59h-.98Zm-3.33-3.1q0 1.2.5 1.79.5.58 1.19.58t1.17-.57q.48-.56.48-1.72 0-1.28-.5-1.87-.48-.6-1.2-.6-.7 0-1.17.58-.47.57-.47 1.8Zm5.9 0q0-1.74.96-2.57.8-.69 1.95-.69 1.28 0 2.1.84.82.83.82 2.32 0 1.2-.35 1.89-.36.69-1.07 1.08-.68.37-1.5.37-1.3 0-2.1-.83-.8-.84-.8-2.42Zm1.08 0q0 1.18.52 1.77.53.6 1.31.6.8 0 1.32-.6.51-.6.51-1.81 0-1.16-.53-1.75-.52-.6-1.3-.6t-1.31.6q-.52.58-.52 1.78Zm6.32 3.1v-6.22h.93v.88q.3-.47.79-.74.48-.28 1.1-.28.7 0 1.13.28.45.28.63.8.74-1.08 1.92-1.08.93 0 1.42.52.5.5.5 1.57v4.27h-1.05v-3.92q0-.63-.1-.9-.1-.29-.37-.46-.26-.17-.64-.17-.65 0-1.1.43-.41.44-.41 1.41v3.61h-1.07v-4.05q0-.7-.26-1.04-.25-.36-.83-.36-.45 0-.83.23-.37.24-.54.69-.18.45-.18 1.3v3.23H60.4Zm18.06-2.28 1.03.14q-.17 1.06-.87 1.67-.7.61-1.72.61-1.28 0-2.07-.83-.76-.84-.76-2.4 0-1 .33-1.75.34-.77 1.01-1.14.69-.38 1.5-.38 1 0 1.64.52.66.5.85 1.45l-1.03.16q-.15-.63-.52-.94-.38-.33-.9-.33-.8 0-1.3.58-.5.56-.5 1.8 0 1.26.48 1.82.49.57 1.25.57.63 0 1.03-.38.42-.37.55-1.17Zm1.94 2.28v-8.6h1.04v3.08q.74-.84 1.86-.84.7 0 1.2.28.52.27.74.75.22.47.22 1.4v3.93H84.4v-3.94q0-.8-.34-1.15-.34-.36-.97-.36-.47 0-.9.25-.4.23-.58.65-.18.4-.18 1.14v3.41H80.4Zm11.06-.77q-.6.5-1.14.7-.53.21-1.16.21-1.03 0-1.58-.5-.54-.5-.54-1.28 0-.45.2-.83.2-.39.55-.6.34-.24.76-.35.3-.1.94-.17 1.27-.14 1.88-.36v-.27q0-.66-.3-.92-.4-.34-1.2-.34-.74 0-1.1.26-.36.25-.53.9l-1.03-.13q.14-.66.47-1.07.33-.4.94-.62.6-.22 1.4-.22.8 0 1.3.19t.73.47q.24.28.33.72.05.26.05.96v1.41q0 1.47.06 1.86.08.4.28.75h-1.1q-.16-.33-.21-.77Zm-.1-2.36q-.57.24-1.71.41-.66.1-.93.22-.26.1-.42.33-.14.22-.14.5 0 .42.31.7.33.28.94.28.61 0 1.08-.26.48-.27.7-.74.18-.36.18-1.04v-.4Zm3.02 3.13v-6.22h.95v.94q.36-.66.66-.86.31-.22.69-.22.53 0 1.08.33l-.36.98q-.4-.23-.77-.23-.36 0-.64.22-.27.2-.37.58-.2.56-.2 1.21v3.27h-1.04Zm8.08-.77q-.6.5-1.14.7-.53.21-1.16.21-1.03 0-1.58-.5-.54-.5-.54-1.28 0-.45.2-.83.2-.39.55-.6.34-.24.76-.35.3-.1.94-.17 1.27-.14 1.88-.36v-.27q0-.66-.3-.92-.4-.34-1.2-.34-.74 0-1.1.26-.36.25-.53.9l-1.03-.13q.14-.66.47-1.07.33-.4.94-.62.6-.22 1.4-.22.8 0 1.3.19t.73.47q.24.28.33.72.05.26.05.96v1.41q0 1.47.06 1.86.08.4.28.75h-1.1q-.16-.33-.21-.77Zm-.1-2.36q-.57.24-1.71.41-.66.1-.93.22-.26.1-.42.33-.14.22-.14.5 0 .42.31.7.33.28.94.28.61 0 1.08-.26.48-.27.7-.74.18-.36.18-1.04v-.4Zm7.1.85 1.03.14q-.17 1.06-.87 1.67-.7.61-1.72.61-1.28 0-2.07-.83-.76-.84-.76-2.4 0-1 .33-1.75.34-.77 1.01-1.14.69-.38 1.5-.38 1 0 1.64.52.66.5.85 1.45l-1.03.16q-.15-.63-.52-.94-.38-.33-.9-.33-.8 0-1.3.58-.5.56-.5 1.8 0 1.26.48 1.82.49.57 1.25.57.63 0 1.03-.38.42-.37.55-1.17Zm4.23 1.34.16.92q-.45.1-.8.1-.58 0-.89-.17-.31-.2-.45-.49-.13-.3-.13-1.25V404h-.76v-.8h.76v-1.56l1.05-.62v2.17h1.06v.81h-1.06v3.64q0 .46.05.58.06.13.19.2.12.08.35.08.2 0 .47-.03Zm4.96-1.06 1.1.13q-.26.95-.96 1.48t-1.78.53q-1.36 0-2.18-.84-.8-.85-.8-2.36 0-1.56.82-2.42.81-.88 2.1-.88 1.24 0 2.02.84.8.85.8 2.4v.28h-4.64q.06 1.03.58 1.57t1.3.54q.57 0 .98-.3.42-.31.66-.97Zm-3.46-1.7h3.47q-.06-.8-.39-1.2-.51-.6-1.31-.6-.73 0-1.23.48-.49.49-.54 1.32Zm6.2 3.7v-6.22h.94v.94q.36-.66.66-.86.31-.22.69-.22.53 0 1.08.33l-.36.98q-.4-.23-.77-.23-.36 0-.64.22-.27.2-.37.58-.2.56-.2 1.21v3.27h-1.04Zm3.58-1.86 1.04-.16q.09.63.48.96.4.33 1.14.33.72 0 1.06-.29.36-.3.36-.7 0-.36-.3-.56-.23-.14-1.09-.36-1.15-.3-1.6-.5-.44-.22-.68-.6-.23-.37-.23-.84 0-.4.18-.76.2-.36.52-.6.25-.17.67-.3.42-.12.92-.12.72 0 1.27.22.56.2.83.56.26.36.36.95l-1.03.15q-.07-.47-.41-.74-.33-.28-.95-.28-.72 0-1.04.25-.3.23-.3.56 0 .2.12.36.14.17.4.28.16.07.94.27 1.13.31 1.56.5.44.19.7.55.24.35.24.9 0 .53-.31 1-.3.45-.88.72-.57.25-1.3.25-1.23 0-1.87-.5-.62-.52-.8-1.5Z"/><path fill="#9e9e9e" d="M27.07 426.4h-1.05v-6.72q-.39.36-1.01.74-.61.35-1.1.53v-1.02q.88-.42 1.53-1 .68-.6.96-1.16h.67v8.63Zm7 0h-1.05v-6.72q-.39.36-1.01.74-.61.35-1.1.53v-1.02q.88-.42 1.53-1 .68-.6.96-1.16h.67v8.63Zm3.62 0v-1.2h1.2v1.2h-1.2Zm5.79 0v-2.06h-3.72v-.97l3.92-5.56h.86v5.56h1.15v.97h-1.15v2.06h-1.06Zm0-3.03v-3.86l-2.7 3.86h2.7Zm3.82-3.5q0-.92.46-1.56.47-.64 1.34-.64.81 0 1.34.57.54.58.54 1.7 0 1.08-.55 1.68-.53.58-1.31.58-.79 0-1.3-.58-.52-.58-.52-1.75Zm1.83-1.49q-.39 0-.66.35-.24.34-.24 1.25 0 .83.25 1.17.26.33.65.33.4 0 .66-.35.26-.34.26-1.23 0-.84-.26-1.17-.27-.35-.66-.35Zm0 8.33 4.7-9.04h.86l-4.68 9.04h-.88Zm3.72-2.33q0-.92.45-1.56.47-.64 1.36-.64.82 0 1.35.58.53.56.53 1.69 0 1.1-.55 1.68-.53.58-1.33.58-.76 0-1.3-.58-.51-.57-.51-1.75Zm1.84-1.48q-.4 0-.67.34-.25.35-.25 1.25 0 .82.27 1.16.26.34.65.34.4 0 .66-.34.27-.34.27-1.25 0-.83-.27-1.16-.27-.34-.66-.34Z"/><path stroke="#757575" stroke-linecap="butt" d="M22.6 413.9h121.03l172.16 5.4"/><path fill="#9e9e9e" d="M317.8 419.3a2 2 0 1 0-4 0 2 2 0 0 0 4 0"/><path fill="#000" d="M559.52 93.22v-8.6h1.13v8.6h-1.13Zm2.68 0V87h.93v.88q.7-1.02 1.99-1.02.56 0 1.03.2.48.21.72.54.23.33.33.76.04.3.04 1.04v3.82h-1.04v-3.78q0-.65-.13-.97-.12-.3-.44-.5-.3-.2-.73-.2-.67 0-1.17.44-.49.42-.49 1.6v3.41h-1.04Zm9.3-.93.15.92q-.45.1-.8.1-.58 0-.89-.18-.31-.19-.45-.48-.13-.3-.13-1.25v-3.58h-.76V87h.76v-1.54l1.05-.63V87h1.06v.82h-1.06v3.64q0 .45.05.58.06.12.19.2.12.08.36.08.18 0 .46-.03Zm4.95-1.07 1.1.13q-.26.95-.96 1.48t-1.78.53q-1.36 0-2.18-.84-.8-.84-.8-2.36 0-1.56.82-2.42.81-.88 2.1-.88 1.24 0 2.02.85.8.84.8 2.39v.28h-4.64q.06 1.03.58 1.58.51.53 1.3.53.57 0 .98-.3.42-.31.66-.97Zm-3.46-1.7h3.47q-.06-.8-.39-1.19-.51-.6-1.31-.6-.74 0-1.24.48-.48.48-.53 1.31Zm6.2 3.7V87h.94v.88q.7-1.02 1.99-1.02.56 0 1.03.2.48.21.72.54.23.33.33.76.04.3.04 1.04v3.82h-1.04v-3.78q0-.65-.13-.97-.12-.3-.44-.5-.3-.2-.73-.2-.67 0-1.17.44-.49.42-.49 1.6v3.41h-1.04Zm11.04 0v-.78q-.6.92-1.74.92-.75 0-1.37-.4-.63-.42-.97-1.16-.34-.73-.34-1.69 0-.92.3-1.68.32-.77.95-1.16.62-.4 1.39-.4.56 0 1 .23.43.23.72.6v-3.07h1.04v8.6h-.98Zm-3.33-3.1q0 1.2.5 1.8.5.57 1.19.57.68 0 1.17-.56.48-.57.48-1.72 0-1.28-.5-1.88-.48-.6-1.2-.6-.7 0-1.17.59-.47.56-.47 1.8Zm10.55 1.1 1.1.13q-.26.95-.96 1.48t-1.78.53q-1.36 0-2.18-.84-.8-.84-.8-2.36 0-1.56.82-2.42.81-.88 2.1-.88 1.24 0 2.02.85.8.84.8 2.39v.28h-4.64q.06 1.03.58 1.58.51.53 1.3.53.57 0 .98-.3.42-.31.66-.97Zm-3.46-1.7h3.47q-.06-.8-.39-1.19-.51-.6-1.31-.6-.74 0-1.24.48-.48.48-.53 1.31Zm10.24 3.7v-.78q-.6.92-1.74.92-.75 0-1.37-.4-.63-.42-.97-1.16-.34-.73-.34-1.69 0-.92.3-1.68.32-.77.95-1.16.62-.4 1.39-.4.56 0 1 .23.43.23.72.6v-3.07h1.04v8.6h-.98Zm-3.33-3.1q0 1.2.5 1.8.5.57 1.19.57.68 0 1.17-.56.48-.57.48-1.72 0-1.28-.5-1.88-.48-.6-1.2-.6-.7 0-1.17.59-.47.56-.47 1.8Zm13.38 3.1v-.92q-.74 1.06-1.99 1.06-.55 0-1.03-.2-.47-.22-.7-.53-.24-.33-.33-.8-.06-.3-.06-.98V87h1.06v3.46q0 .81.06 1.1.1.41.4.66.33.24.82.24.47 0 .87-.24.43-.25.6-.67.19-.42.19-1.22V87h1.04v6.22h-.94Zm2.5-1.86 1.03-.15q.09.62.48.95.4.33 1.14.33.72 0 1.06-.28.36-.3.36-.7 0-.36-.3-.57-.23-.14-1.09-.36-1.15-.3-1.6-.5-.44-.22-.68-.6-.23-.37-.23-.83 0-.41.18-.77.2-.36.52-.6.25-.17.67-.3.42-.12.92-.12.72 0 1.27.22.56.2.83.57.26.35.36.95l-1.03.14q-.07-.47-.41-.74-.33-.28-.95-.28-.72 0-1.03.25-.32.24-.32.57 0 .2.13.36.14.17.4.28.16.06.94.26 1.13.31 1.56.5.44.19.7.55.24.36.24.9t-.31 1q-.3.46-.88.72-.57.25-1.3.25-1.23 0-1.87-.5-.62-.51-.8-1.5Zm11.48 1.1q-.6.5-1.14.7-.53.2-1.16.2-1.03 0-1.58-.5-.54-.5-.54-1.28 0-.45.2-.83.2-.39.55-.6.34-.24.76-.35.3-.1.94-.17 1.27-.14 1.88-.36V89q0-.65-.3-.92-.4-.34-1.2-.34-.74 0-1.1.26-.36.25-.53.91l-1.03-.14q.14-.66.47-1.06.33-.4.94-.63.6-.22 1.4-.22.8 0 1.3.2.5.18.73.46.24.28.33.72.05.26.05.97v1.4q0 1.47.06 1.86.08.4.28.75h-1.1q-.16-.32-.21-.76Zm-.1-2.36q-.57.23-1.71.4-.66.1-.93.22-.26.11-.42.33-.14.22-.14.5 0 .42.31.7.33.29.94.29.61 0 1.08-.27.49-.27.7-.73.18-.36.18-1.05v-.4Zm2.83 3.64 1.03.16q.07.46.36.68.4.3 1.07.3.73 0 1.12-.3.4-.3.55-.81.1-.33.08-1.36-.7.81-1.72.81-1.28 0-1.99-.92-.7-.94-.7-2.22 0-.89.31-1.64.33-.76.94-1.17.61-.4 1.44-.4 1.1 0 1.83.88V87h.97v5.38q0 1.45-.3 2.06-.3.61-.94.96-.64.35-1.58.35-1.1 0-1.8-.5-.68-.5-.67-1.51Zm.88-3.74q0 1.22.48 1.79.49.56 1.22.56.74 0 1.22-.56.5-.57.5-1.75 0-1.14-.51-1.72-.5-.58-1.22-.58-.7 0-1.2.58-.5.56-.5 1.68Zm10.58 1.22 1.1.13q-.26.95-.96 1.48t-1.78.53q-1.36 0-2.18-.84-.8-.84-.8-2.36 0-1.56.82-2.42.81-.88 2.1-.88 1.24 0 2.02.85.8.84.8 2.39v.28h-4.64q.06 1.03.58 1.58.51.53 1.3.53.57 0 .98-.3.42-.31.66-.97Zm-3.46-1.7h3.47q-.06-.8-.39-1.19-.51-.6-1.31-.6-.74 0-1.24.48-.48.48-.53 1.31Z"/><path fill="#9e9e9e" d="M613.87 110.22h-1.05v-6.72q-.39.36-1.01.74-.61.36-1.1.53v-1.02q.88-.42 1.53-1 .68-.59.96-1.15h.67v8.62Zm3.1-7.47v-1.01h5.55v.83q-.8.87-1.62 2.33-.8 1.43-1.23 2.96-.33 1.08-.41 2.36h-1.1q.02-1.01.4-2.45.39-1.44 1.09-2.77.72-1.32 1.53-2.25h-4.22Zm7.52 7.47v-1.2h1.2v1.2h-1.2Zm2.57-1.98 1.01-.1q.13.72.49 1.05.37.31.93.31.49 0 .85-.21.37-.24.6-.6.24-.37.4-1 .15-.64.15-1.3v-.21q-.3.5-.86.82-.54.32-1.18.32-1.08 0-1.82-.77-.73-.78-.73-2.05 0-1.3.77-2.1.78-.8 1.93-.8.83 0 1.52.45.7.45 1.06 1.3.36.83.36 2.4 0 1.65-.36 2.63-.34.97-1.06 1.48-.7.5-1.64.5-1.02 0-1.66-.54-.64-.57-.76-1.58Zm4.3-3.8q0-.9-.48-1.44-.46-.53-1.15-.53-.7 0-1.24.58-.51.56-.51 1.49 0 .8.5 1.32t1.22.52q.73 0 1.2-.52.47-.51.47-1.42Zm2.74-.75q0-.92.46-1.56.47-.64 1.34-.64.81 0 1.34.58t.53 1.68q0 1.1-.54 1.7-.53.57-1.31.57-.79 0-1.3-.58-.52-.58-.52-1.75Zm1.83-1.48q-.39 0-.65.34-.25.35-.25 1.25 0 .83.25 1.17.26.33.65.33.4 0 .66-.34.26-.35.26-1.24 0-.84-.26-1.17-.27-.34-.66-.34Zm0 8.33 4.7-9.05h.86l-4.68 9.05h-.88Zm3.72-2.33q0-.92.45-1.56.47-.65 1.36-.65.81 0 1.35.58.53.57.53 1.69 0 1.1-.55 1.69-.53.58-1.33.58-.76 0-1.3-.58-.51-.58-.51-1.75Zm1.84-1.49q-.4 0-.67.35-.25.34-.25 1.25 0 .8.27 1.15.26.35.65.35.4 0 .66-.35.27-.34.27-1.25 0-.82-.27-1.15-.27-.35-.66-.35Z"/><path stroke="#757575" stroke-linecap="butt" d="M644.4 97.72H426.57"/><path fill="#9e9e9e" d="M428.57 97.72a2 2 0 1 0-4 0 2 2 0 0 0 4 0"/><path fill="#000" d="m551.95 240.63 1.06-.1q.08.67.36 1.07.28.4.86.67.6.25 1.33.25.64 0 1.14-.18.5-.2.73-.54.25-.34.25-.73 0-.4-.23-.7-.24-.32-.77-.52-.36-.14-1.55-.42-1.17-.28-1.64-.53-.62-.33-.92-.8-.3-.48-.3-1.08 0-.64.36-1.2.38-.58 1.08-.86.72-.3 1.58-.3.95 0 1.69.32.73.3 1.12.9.4.6.42 1.35l-1.09.07q-.1-.8-.6-1.21-.5-.43-1.5-.43-1.02 0-1.5.38-.46.37-.46.9 0 .47.33.77.32.3 1.7.61 1.4.31 1.9.55.76.36 1.12.89.36.51.36 1.22 0 .68-.4 1.3-.39.59-1.12.93-.74.33-1.66.33-1.17 0-1.97-.33-.78-.34-1.23-1.03-.44-.69-.45-1.55Zm7.86-.34q0-1.74.95-2.56.8-.7 1.95-.7 1.28 0 2.1.85.82.83.82 2.32 0 1.2-.36 1.89-.35.68-1.06 1.07-.69.38-1.5.38-1.3 0-2.1-.83-.8-.84-.8-2.42Zm1.07 0q0 1.19.52 1.78.53.6 1.31.6.8 0 1.31-.6.52-.6.52-1.81 0-1.16-.53-1.75-.52-.6-1.3-.6t-1.31.6q-.52.58-.52 1.78Zm6.57 3.1V238h-.94v-.81h.94v-.67q0-.63.1-.92.16-.43.54-.68.39-.25 1.08-.25.45 0 .98.11l-.16.91q-.32-.05-.62-.05-.49 0-.69.2-.19.2-.19.77v.58h1.22v.81h-1.22v5.4h-1.04Zm5.04-.93.16.92q-.45.1-.8.1-.58 0-.89-.18-.31-.18-.45-.48-.13-.3-.13-1.25v-3.58h-.76v-.81h.76v-1.55l1.05-.62v2.17h1.06v.81h-1.06v3.64q0 .46.05.58.06.13.19.2.12.08.36.08.18 0 .46-.03Zm1.85.94-1.9-6.22h1.08l.99 3.6.37 1.32q.04-.1.33-1.28l.99-3.64h1.07l.94 3.6.31 1.2.36-1.2 1.07-3.6h1.03l-1.96 6.22h-1.09l-.98-3.74-.25-1.04-1.25 4.78h-1.11Zm11.92-.77q-.6.5-1.14.7-.53.2-1.16.2-1.03 0-1.58-.5-.54-.5-.54-1.27 0-.46.2-.83.2-.4.55-.61.34-.23.76-.34.3-.1.94-.18 1.27-.14 1.88-.35v-.27q0-.66-.3-.92-.4-.35-1.2-.35-.74 0-1.1.27-.36.25-.53.9l-1.03-.13q.14-.66.47-1.07.33-.4.94-.62.6-.22 1.4-.22.8 0 1.3.19.5.18.73.47.24.28.33.71.05.27.05.97v1.4q0 1.48.06 1.87.08.39.28.75h-1.1q-.16-.33-.21-.77Zm-.1-2.36q-.57.24-1.71.41-.66.1-.93.22-.26.1-.42.33-.14.22-.14.5 0 .42.31.7.33.28.94.28.61 0 1.08-.26.49-.27.7-.74.18-.36.18-1.05v-.39Zm3.02 3.13v-6.22h.95v.94q.36-.66.66-.86.31-.22.69-.22.53 0 1.08.33l-.36.98q-.4-.23-.77-.23-.36 0-.64.22-.26.2-.37.57-.2.57-.2 1.22v3.27h-1.04Zm8.27-2 1.1.12q-.26.96-.96 1.49t-1.78.53q-1.36 0-2.18-.84-.8-.85-.8-2.36 0-1.57.82-2.43.81-.87 2.1-.87 1.24 0 2.02.84.8.85.8 2.4v.27h-4.64q.06 1.04.58 1.58.51.53 1.3.53.57 0 .98-.3.42-.3.66-.96Zm-3.46-1.7h3.47q-.06-.8-.39-1.2-.51-.6-1.31-.6-.74 0-1.24.48-.48.49-.53 1.32Zm9.2 3.7v-6.22h.94v.94q.36-.66.66-.86.31-.22.69-.22.53 0 1.08.33l-.36.98q-.4-.23-.77-.23-.36 0-.64.22-.26.2-.37.57-.2.57-.2 1.22v3.27h-1.04Zm8.08 0v-.92q-.73 1.06-1.98 1.06-.55 0-1.03-.2-.47-.22-.7-.54-.24-.32-.33-.8-.06-.29-.06-.98v-3.84h1.06v3.45q0 .82.06 1.11.1.4.4.66.33.23.82.23.47 0 .87-.23.43-.25.6-.67.19-.43.19-1.22v-3.33h1.04v6.22h-.94Zm2.93 0v-6.22h.93v.87q.7-1.01 1.99-1.01.56 0 1.03.2.48.2.72.53.23.33.33.77.04.3.04 1.03v3.83h-1.04v-3.78q0-.66-.13-.97-.12-.31-.44-.5-.3-.2-.73-.2-.67 0-1.17.43-.49.42-.49 1.61v3.4h-1.04Zm7 0v-6.22h.93v.87q.7-1.01 1.99-1.01.56 0 1.03.2.48.2.72.53.23.33.33.77.04.3.04 1.03v3.83h-1.04v-3.78q0-.66-.13-.97-.12-.31-.44-.5-.3-.2-.73-.2-.67 0-1.17.43-.49.42-.49 1.61v3.4h-1.04Zm7-7.38v-1.22h1.06v1.22h-1.06Zm0 7.38v-6.22h1.06v6.22h-1.06Zm3 0v-6.22h.93v.87q.7-1.01 1.99-1.01.56 0 1.03.2.48.2.72.53.23.33.33.77.04.3.04 1.03v3.83h-1.04v-3.78q0-.66-.13-.97-.12-.31-.44-.5-.3-.2-.73-.2-.67 0-1.17.43-.49.42-.49 1.61v3.4h-1.04Zm6.8.51 1.02.16q.07.47.36.69.4.3 1.07.3.73 0 1.12-.3.4-.3.55-.81.1-.33.08-1.36-.7.8-1.72.8-1.28 0-1.99-.91-.7-.94-.7-2.22 0-.9.31-1.64.33-.77.94-1.17.61-.41 1.44-.41 1.1 0 1.83.89v-.75h.97v5.37q0 1.46-.3 2.07-.3.6-.94.95-.64.36-1.58.36-1.1 0-1.8-.5-.68-.5-.67-1.52Zm.87-3.73q0 1.22.48 1.78.49.56 1.22.56.74 0 1.22-.56.5-.56.5-1.75 0-1.14-.51-1.72-.5-.58-1.22-.58-.7 0-1.2.58-.5.56-.5 1.69Z"/><path fill="#9e9e9e" d="M613.87 260.4h-1.05v-6.72q-.39.36-1.01.73-.61.36-1.1.54v-1.02q.88-.42 1.53-1 .68-.6.96-1.16h.67v8.63Zm6.4 0v-2.06h-3.71v-.97l3.92-5.57h.86v5.57h1.15v.97h-1.15v2.06h-1.07Zm0-3.03v-3.86l-2.68 3.86h2.68Zm4.22 3.03v-1.2h1.2v1.2h-1.2Zm2.47-7.47v-1.02h5.56v.83q-.8.88-1.62 2.33-.8 1.44-1.23 2.97-.33 1.08-.41 2.36h-1.1q.02-1.02.4-2.45.39-1.44 1.09-2.77.72-1.33 1.53-2.25h-4.22Zm7.14.94q0-.92.46-1.57.47-.64 1.34-.64.81 0 1.34.58t.53 1.69q0 1.1-.54 1.69-.53.58-1.31.58-.79 0-1.3-.58-.52-.58-.52-1.75Zm1.83-1.49q-.39 0-.65.35-.25.34-.25 1.25 0 .82.25 1.17.26.33.65.33.4 0 .66-.35.26-.34.26-1.23 0-.85-.26-1.17-.27-.35-.66-.35Zm0 8.33 4.7-9.05h.86l-4.68 9.05h-.88Zm3.72-2.33q0-.92.45-1.56.47-.64 1.36-.64.81 0 1.35.58.53.56.53 1.69 0 1.09-.55 1.68-.53.58-1.33.58-.76 0-1.3-.58-.51-.58-.51-1.75Zm1.84-1.48q-.4 0-.67.34-.25.35-.25 1.25 0 .81.27 1.16.26.34.65.34.4 0 .66-.34.27-.35.27-1.25 0-.83-.27-1.16-.27-.34-.66-.34Z"/><path stroke="#757575" stroke-linecap="butt" d="M644.4 247.9H508.16"/><path fill="#9e9e9e" d="M510.16 247.9a2 2 0 1 0-4 0 2 2 0 0 0 4 0"/><path fill="#000" d="M529.32 377.18v-8.6h1.16l4.51 6.75v-6.75h1.1v8.6h-1.17l-4.52-6.75v6.75h-1.08Zm8.49-3.11q0-1.74.95-2.57.8-.68 1.95-.68 1.28 0 2.1.84.82.83.82 2.31 0 1.2-.36 1.9-.35.68-1.06 1.07-.69.38-1.5.38-1.3 0-2.1-.83-.8-.85-.8-2.42Zm1.07 0q0 1.18.52 1.78.53.6 1.31.6.8 0 1.31-.6.52-.6.52-1.81 0-1.16-.53-1.75-.52-.6-1.3-.6t-1.31.6q-.52.57-.52 1.78Zm6.32 3.1v-6.21h.93v.87q.7-1.01 1.99-1.01.56 0 1.03.2.48.2.72.53.23.33.33.77.04.3.04 1.03v3.83h-1.04v-3.79q0-.65-.13-.96-.12-.32-.44-.5-.3-.2-.73-.2-.67 0-1.17.43-.49.42-.49 1.61v3.4h-1.04Zm6.57-2.57v-1.06h3.25v1.06h-3.25Zm8.46 2.58v-.79q-.6.93-1.74.93-.75 0-1.37-.41-.63-.42-.97-1.16-.34-.73-.34-1.68 0-.93.3-1.7.32-.76.95-1.15.62-.4 1.39-.4.56 0 1 .23.43.24.72.61v-3.08h1.04v8.6h-.98Zm-3.33-3.11q0 1.2.5 1.8.5.57 1.19.57.68 0 1.17-.56.48-.56.48-1.72 0-1.28-.5-1.87-.48-.6-1.2-.6-.7 0-1.17.58-.47.56-.47 1.8Zm10.55 1.1 1.1.13q-.26.95-.96 1.49-.7.53-1.78.53-1.36 0-2.18-.85-.8-.84-.8-2.36 0-1.56.82-2.42.81-.87 2.1-.87 1.24 0 2.02.84.8.84.8 2.4v.27h-4.64q.06 1.03.58 1.58.51.53 1.3.53.57 0 .98-.3.42-.3.66-.96Zm-3.46-1.7h3.47q-.06-.8-.39-1.18-.51-.61-1.31-.61-.74 0-1.24.48-.48.48-.53 1.31Zm5.78 1.85 1.04-.16q.09.63.48.95.4.33 1.14.33.72 0 1.06-.28.36-.3.36-.7 0-.36-.3-.57-.23-.14-1.09-.35-1.15-.3-1.6-.5-.44-.22-.68-.6-.23-.37-.23-.84 0-.4.18-.77.2-.36.52-.6.25-.16.67-.29.42-.12.92-.12.72 0 1.27.22.56.2.83.56.26.36.36.95l-1.03.14q-.07-.47-.41-.73-.33-.28-.95-.28-.72 0-1.03.25-.32.23-.32.56 0 .2.13.36.14.17.4.28.16.06.94.26 1.13.32 1.56.5.44.2.7.55.24.36.24.9t-.31 1q-.3.46-.88.73-.57.25-1.3.25-1.23 0-1.87-.5-.62-.52-.8-1.5Zm11.49-.43 1.03.15q-.17 1.06-.87 1.67-.7.6-1.72.6-1.28 0-2.07-.82-.76-.85-.76-2.4 0-1 .33-1.76.34-.76 1.01-1.14.69-.37 1.5-.37 1 0 1.64.51.66.5.85 1.46l-1.03.15q-.14-.62-.52-.94-.38-.32-.9-.32-.8 0-1.3.57t-.5 1.8q0 1.27.48 1.83.49.56 1.25.56.63 0 1.03-.37.42-.38.55-1.18Zm1.92 2.29v-6.22h.95v.93q.36-.65.66-.85.31-.22.69-.22.53 0 1.08.32l-.36.99q-.4-.24-.77-.24-.36 0-.64.22-.26.2-.37.58-.2.56-.2 1.22v3.27h-1.04Zm4.02-7.38v-1.22h1.06v1.22h-1.06Zm0 7.38v-6.22h1.06v6.22h-1.06Zm3 2.39v-8.61h.95v.8q.34-.47.77-.7.43-.24 1.04-.24.8 0 1.4.4.62.4.91 1.16.32.75.32 1.64 0 .95-.35 1.72-.32.76-.98 1.17-.66.4-1.38.4-.53 0-.95-.21-.42-.24-.69-.56v3.03h-1.04Zm.95-5.47q0 1.2.48 1.78.49.56 1.18.56.7 0 1.2-.6.5-.59.5-1.84 0-1.18-.49-1.76-.48-.6-1.17-.6-.67 0-1.18.63-.52.62-.52 1.83Zm8.34 2.14.16.92q-.45.1-.8.1-.58 0-.89-.18-.31-.19-.45-.48-.13-.3-.13-1.25v-3.58h-.76v-.81h.76v-1.55l1.05-.62v2.17h1.06v.81h-1.06v3.64q0 .45.05.58.06.12.19.2.12.08.36.08.18 0 .46-.03Zm.7-6.44v-1.22h1.07v1.22h-1.06Zm0 7.38v-6.22h1.07v6.22h-1.06Zm4.73 0-2.36-6.22h1.1l1.35 3.72q.2.6.39 1.25.14-.49.4-1.18l1.38-3.8h1.08l-2.36 6.23h-.98Zm7.53-2 1.1.12q-.26.95-.96 1.49-.7.53-1.78.53-1.36 0-2.18-.85-.8-.84-.8-2.36 0-1.56.82-2.42.81-.87 2.1-.87 1.24 0 2.02.84.8.84.8 2.4v.27h-4.64q.06 1.03.58 1.58.51.53 1.3.53.57 0 .98-.3.42-.3.66-.96Zm-3.46-1.7h3.47q-.06-.8-.39-1.2-.51-.6-1.31-.6-.74 0-1.24.48-.48.48-.53 1.31Zm10.35 3.7-1.9-6.22h1.08l.99 3.6.37 1.32q.04-.1.33-1.28l.99-3.64h1.07l.94 3.6.31 1.2.36-1.2 1.07-3.6h1.03l-1.96 6.22h-1.09l-.98-3.74-.25-1.05-1.25 4.79h-1.11Zm7.47-3.11q0-1.74.95-2.57.8-.68 1.95-.68 1.28 0 2.1.84.82.83.82 2.31 0 1.2-.36 1.9-.35.68-1.06 1.07-.69.38-1.5.38-1.3 0-2.1-.83-.8-.85-.8-2.42Zm1.07 0q0 1.18.52 1.78.53.6 1.31.6.8 0 1.31-.6.52-.6.52-1.81 0-1.16-.53-1.75-.52-.6-1.3-.6t-1.31.6q-.52.57-.52 1.78Zm6.3 3.1v-6.21h.95v.93q.36-.65.66-.85.31-.22.69-.22.53 0 1.08.32l-.36.99q-.4-.24-.77-.24-.36 0-.64.22-.26.2-.37.58-.2.56-.2 1.22v3.27h-1.04Zm8.05 0v-.78q-.6.93-1.74.93-.75 0-1.37-.41-.63-.42-.97-1.16-.34-.73-.34-1.68 0-.93.3-1.7.32-.76.95-1.15.62-.4 1.39-.4.56 0 1 .23.43.24.72.61v-3.08h1.04v8.6h-.98Zm-3.33-3.1q0 1.2.5 1.8.5.57 1.19.57.68 0 1.17-.56.48-.56.48-1.72 0-1.28-.5-1.87-.48-.6-1.2-.6-.7 0-1.17.58-.47.56-.47 1.8Z"/><path fill="#9e9e9e" d="M613.87 394.18h-1.05v-6.72q-.39.36-1.01.73-.61.36-1.1.53v-1.01q.88-.42 1.53-1 .68-.6.96-1.16h.67v8.63Zm3.03-2.27 1.06-.14q.17.89.61 1.3.44.39 1.06.39.75 0 1.27-.52.52-.51.52-1.28 0-.72-.49-1.19-.47-.48-1.2-.48-.3 0-.75.12l.12-.93.17.01q.68 0 1.2-.34.55-.36.55-1.1 0-.57-.39-.95-.39-.39-1.01-.39-.61 0-1.03.4-.4.38-.52 1.15l-1.06-.19q.19-1.05.87-1.63.7-.59 1.7-.59.71 0 1.3.31.6.3.91.82.31.51.31 1.1 0 .55-.3 1.02-.3.45-.87.72.75.17 1.17.73.42.55.42 1.4 0 1.12-.82 1.9-.82.78-2.07.78-1.12 0-1.87-.67-.75-.69-.86-1.75Zm7.6 2.27v-1.2h1.2v1.2h-1.2Zm5.77 0v-2.07h-3.71v-.97l3.92-5.56h.86v5.56h1.15v.97h-1.15v2.07h-1.07Zm0-3.04v-3.85l-2.68 3.85h2.68Zm3.83-3.5q0-.92.46-1.56.47-.64 1.34-.64.81 0 1.34.58t.53 1.69q0 1.1-.54 1.68-.53.58-1.31.58-.79 0-1.3-.58-.52-.57-.52-1.75Zm1.83-1.48q-.39 0-.65.34-.25.35-.25 1.25 0 .83.25 1.18.26.32.65.32.4 0 .66-.34t.26-1.23q0-.85-.26-1.18-.27-.34-.66-.34Zm0 8.33 4.7-9.05h.86l-4.68 9.05h-.88Zm3.72-2.33q0-.92.45-1.56.47-.64 1.36-.64.81 0 1.35.58.53.56.53 1.68 0 1.1-.55 1.69-.53.58-1.33.58-.76 0-1.3-.58-.51-.58-.51-1.75Zm1.84-1.48q-.4 0-.67.34-.25.34-.25 1.25 0 .81.27 1.16.26.34.65.34.4 0 .66-.34.27-.35.27-1.25 0-.83-.27-1.16-.27-.34-.66-.34Z"/><path stroke="#757575" stroke-linecap="butt" d="M644.4 381.68H442.93"/><path fill="#9e9e9e" d="M444.93 381.68a2 2 0 1 0-4 0 2 2 0 0 0 4 0"/><path fill="#000" d="M242.1 41.6V27.29h1.9v5.87h7.44V27.3h1.89V41.6h-1.9v-6.75H244v6.75h-1.9Zm12.07-5.19q0-2.87 1.6-4.26 1.34-1.16 3.26-1.16 2.14 0 3.49 1.4 1.36 1.41 1.36 3.88 0 2-.6 3.16-.6 1.14-1.75 1.78-1.14.62-2.5.62-2.19 0-3.53-1.39-1.33-1.4-1.33-4.03Zm1.8 0q0 2 .86 2.99.87.98 2.2.98 1.31 0 2.17-.98.88-1 .88-3.05 0-1.92-.88-2.9-.87-1-2.17-1-1.33 0-2.2 1-.86.98-.86 2.96Zm9.14 2.1 1.75-.28q.14 1.04.81 1.6.67.55 1.88.55 1.2 0 1.78-.48.6-.5.6-1.16 0-.6-.52-.94-.36-.23-1.8-.6-1.94-.5-2.69-.83-.73-.36-1.12-.99-.4-.64-.4-1.4 0-.7.32-1.29.33-.59.87-.98.41-.3 1.11-.5.72-.22 1.53-.22 1.22 0 2.14.36.93.34 1.36.95.44.6.61 1.6l-1.71.23q-.13-.8-.7-1.23-.56-.46-1.57-.46-1.22 0-1.74.41-.51.4-.51.92 0 .35.22.63.2.28.67.47.27.09 1.55.43 1.87.5 2.6.83.74.31 1.16.92.42.6.42 1.5 0 .88-.51 1.66-.52.78-1.49 1.2-.96.42-2.18.42-2.02 0-3.08-.84t-1.36-2.48Zm14.55 1.51.25 1.56q-.74.16-1.33.16-.95 0-1.49-.3-.51-.3-.73-.8-.22-.5-.22-2.07V32.6h-1.28v-1.38h1.28v-2.56l1.75-1.06v3.62h1.77v1.38h-1.77v6.06q0 .75.1.97.09.2.3.34.21.13.6.13.28 0 .77-.08Zm2.15 1.58V31.22h1.6v1.49q1.14-1.72 3.3-1.72.93 0 1.71.34.8.33 1.19.88.39.55.55 1.3.09.5.09 1.72v6.37h-1.77v-6.31q0-1.08-.2-1.61t-.73-.85q-.52-.3-1.22-.3-1.13 0-1.94.71-.81.7-.81 2.69v5.67h-1.77Zm16.78-1.28q-.98.83-1.89 1.17-.9.34-1.93.34-1.7 0-2.63-.82-.92-.85-.92-2.14 0-.77.34-1.4.36-.62.92-1 .57-.39 1.27-.59.52-.12 1.56-.26 2.13-.25 3.13-.6l.01-.47q0-1.06-.5-1.51-.67-.6-2-.6-1.25 0-1.84.44-.58.44-.86 1.55l-1.72-.24q.24-1.1.77-1.78.53-.69 1.54-1.04 1.02-.38 2.36-.38 1.33 0 2.16.31.83.32 1.22.8.39.47.55 1.19.09.45.09 1.62v2.35q0 2.45.1 3.1.12.65.46 1.24h-1.84q-.27-.55-.35-1.28Zm-.15-3.92q-.96.39-2.88.65-1.08.16-1.53.36-.44.19-.69.57-.25.37-.25.84 0 .7.54 1.17.53.47 1.56.47 1.01 0 1.8-.44.8-.45 1.17-1.22.28-.6.28-1.76v-.64Zm4.37 5.2V31.22h1.58v1.46q.49-.75 1.3-1.22t1.84-.47q1.16 0 1.9.48.73.47 1.04 1.33 1.23-1.8 3.2-1.8 1.55 0 2.38.85.82.86.82 2.63v7.12h-1.75v-6.53q0-1.06-.17-1.52-.17-.47-.62-.75-.44-.28-1.05-.28-1.1 0-1.83.74-.72.72-.72 2.3v6.04h-1.75v-6.73q0-1.18-.43-1.75-.43-.6-1.4-.6-.74 0-1.38.4-.63.38-.91 1.13-.28.75-.28 2.18v5.37h-1.77Zm23.11-3.34 1.81.23q-.42 1.58-1.59 2.47-1.16.87-2.97.87-2.26 0-3.6-1.39-1.34-1.4-1.34-3.93 0-2.63 1.35-4.07 1.34-1.45 3.5-1.45 2.08 0 3.39 1.42 1.33 1.4 1.33 3.99l-.02.47h-7.73q.1 1.7.97 2.6.87.91 2.17.91.97 0 1.64-.5.69-.51 1.1-1.62Zm-5.78-2.85h5.8q-.11-1.3-.66-1.95-.84-1.02-2.19-1.02-1.2 0-2.03.82-.83.8-.92 2.15Zm22.45 2.4 1.72.21q-.28 1.8-1.45 2.81-1.16 1-2.86 1-2.13 0-3.42-1.39-1.3-1.39-1.3-3.98 0-1.69.55-2.94.56-1.26 1.7-1.89 1.14-.64 2.49-.64 1.68 0 2.75.86t1.39 2.42l-1.72.27q-.24-1.05-.86-1.56-.63-.54-1.5-.54-1.33 0-2.16.96-.83.95-.83 3 0 2.1.8 3.04t2.1.94q1.03 0 1.71-.62.7-.64.9-1.96Zm10 2.5q-.98.84-1.89 1.18-.9.34-1.93.34-1.7 0-2.63-.82-.92-.85-.92-2.14 0-.77.34-1.4.36-.62.92-1 .57-.39 1.27-.59.52-.12 1.56-.26 2.13-.25 3.13-.6l.01-.47q0-1.06-.5-1.51-.67-.6-2-.6-1.25 0-1.84.44-.58.44-.86 1.55l-1.72-.24q.24-1.1.77-1.78.53-.69 1.54-1.04 1.02-.38 2.36-.38 1.33 0 2.16.31.83.32 1.22.8.39.47.55 1.19.09.45.09 1.62v2.35q0 2.45.1 3.1.12.65.46 1.24h-1.84q-.27-.55-.35-1.28Zm-.15-3.91q-.96.39-2.88.65-1.08.16-1.53.36-.44.19-.69.57-.25.37-.25.84 0 .7.54 1.17.53.47 1.56.47 1.01 0 1.8-.44.8-.45 1.17-1.22.28-.6.28-1.76v-.64Zm8.22 3.62.25 1.56q-.74.16-1.33.16-.95 0-1.49-.3-.51-.3-.73-.8-.22-.5-.22-2.07V32.6h-1.28v-1.38h1.28v-2.56l1.75-1.06v3.62h1.77v1.38h-1.77v6.06q0 .75.1.97.09.2.3.34.21.13.6.13.28 0 .77-.08Zm9.26-1.76 1.81.23q-.42 1.58-1.59 2.47-1.16.87-2.97.87-2.26 0-3.6-1.39-1.34-1.4-1.34-3.93 0-2.63 1.35-4.07 1.34-1.45 3.5-1.45 2.08 0 3.39 1.42 1.33 1.4 1.33 3.99l-.02.47h-7.73q.1 1.7.97 2.6.87.91 2.17.91.97 0 1.64-.5.69-.51 1.1-1.62Zm-5.78-2.85h5.8q-.11-1.3-.66-1.95-.84-1.02-2.19-1.02-1.2 0-2.03.82-.83.8-.92 2.15Zm9.36 7.05 1.7.25q.11.8.6 1.16.65.48 1.8.48 1.21 0 1.87-.48.67-.49.9-1.36.15-.55.13-2.27-1.16 1.36-2.88 1.36-2.14 0-3.3-1.55-1.18-1.54-1.18-3.7 0-1.48.53-2.73.55-1.25 1.56-1.94 1.04-.69 2.41-.69 1.83 0 3.03 1.49v-1.26h1.61v8.97q0 2.43-.5 3.43-.48 1.01-1.56 1.59-1.06.6-2.63.6-1.84 0-3-.84-1.14-.82-1.09-2.51Zm1.45-6.23q0 2.04.82 2.98.8.94 2.03.94 1.2 0 2.01-.94.83-.94.83-2.92 0-1.9-.84-2.88-.85-.97-2.03-.97-1.18 0-2 .96-.82.95-.82 2.83Zm9.22.18q0-2.87 1.6-4.26 1.34-1.16 3.26-1.16 2.14 0 3.49 1.4 1.36 1.41 1.36 3.88 0 2-.6 3.16-.6 1.14-1.75 1.78-1.14.62-2.5.62-2.19 0-3.53-1.39-1.33-1.4-1.33-4.03Zm1.8 0q0 2 .86 2.99.87.98 2.2.98 1.31 0 2.17-.98.88-1 .88-3.05 0-1.92-.88-2.9-.87-1-2.17-1-1.33 0-2.2 1-.86.98-.86 2.96Zm9.83 5.19V31.22h1.57v1.58q.61-1.1 1.13-1.45.52-.36 1.13-.36.89 0 1.8.56l-.6 1.64q-.64-.39-1.28-.39-.58 0-1.05.36-.45.35-.66.96-.28.93-.28 2.04v5.44h-1.76Zm7.03-12.3V27.3h1.76v2.01h-1.76Zm0 12.3V31.22h1.76V41.6h-1.76Zm11.1-3.34 1.8.23q-.42 1.58-1.59 2.47-1.16.87-2.97.87-2.26 0-3.6-1.39-1.34-1.4-1.34-3.93 0-2.63 1.35-4.07 1.34-1.45 3.5-1.45 2.08 0 3.39 1.42 1.33 1.4 1.33 3.99l-.02.47h-7.73q.1 1.7.97 2.6.87.91 2.17.91.97 0 1.64-.5.69-.51 1.1-1.62Zm-5.79-2.85h5.8q-.11-1.3-.66-1.95-.84-1.02-2.19-1.02-1.2 0-2.03.82-.83.8-.92 2.15Zm8.97 3.1 1.75-.28q.14 1.04.81 1.6.67.55 1.88.55 1.2 0 1.78-.48.6-.5.6-1.16 0-.6-.52-.94-.36-.23-1.8-.6-1.94-.5-2.69-.83-.73-.36-1.12-.99-.4-.64-.4-1.4 0-.7.32-1.29.33-.59.87-.98.41-.3 1.11-.5.72-.22 1.53-.22 1.22 0 2.14.36.93.34 1.36.95.44.6.61 1.6l-1.71.23q-.13-.8-.7-1.23-.56-.46-1.57-.46-1.22 0-1.74.41-.51.4-.51.92 0 .35.22.63.2.28.67.47.27.09 1.55.43 1.87.5 2.6.83.74.31 1.16.92.42.6.42 1.5 0 .88-.51 1.66-.52.78-1.49 1.2-.96.42-2.18.42-2.02 0-3.08-.84t-1.36-2.48Z"/></svg>