<svg xmlns="http://www.w3.org/2000/svg" fill="none" stroke-linecap="square" stroke-miterlimit="10" viewBox="0 0 683 459"><path fill="#fff" d="M0 0h683v459H0V0Z"/><path stroke="#333" stroke-linecap="butt" d="M111.5 62.5v354"/><path stroke="#ccc" stroke-linecap="butt" d="M203.5 62.5v354M294.5 62.5v354M385.5 62.5v354M477.5 62.5v354M568.5 62.5v354M660.5 62.5v354"/><clipPath id="a"><path d="M111.95 62.25h548.1v353.8h-548.1V62.25Z"/></clipPath><path d="M112 77v-9h500a2 2 0 0 1 2 2v5a2 2 0 0 1-2 2Z" clip-path="url(#a)"/><path fill="#134f5c" d="M112 77v-9h500a2 2 0 0 1 2 2v5a2 2 0 0 1-2 2Z" clip-path="url(#a)"/><path d="M112 92v-9h226a2 2 0 0 1 2 2v5a2 2 0 0 1-2 2Z" clip-path="url(#a)"/><path fill="#134f5c" d="M112 92v-9h226a2 2 0 0 1 2 2v5a2 2 0 0 1-2 2Z" clip-path="url(#a)"/><path d="M112 106v-9h135a2 2 0 0 1 2 2v5a2 2 0 0 1-2 2Z" clip-path="url(#a)"/><path fill="#134f5c" d="M112 106v-9h135a2 2 0 0 1 2 2v5a2 2 0 0 1-2 2Z" clip-path="url(#a)"/><path d="M112 121v-9h135a2 2 0 0 1 2 2v5a2 2 0 0 1-2 2Z" clip-path="url(#a)"/><path fill="#134f5c" d="M112 121v-9h135a2 2 0 0 1 2 2v5a2 2 0 0 1-2 2Z" clip-path="url(#a)"/><path d="M112 135v-9h135a2 2 0 0 1 2 2v5a2 2 0 0 1-2 2Z" clip-path="url(#a)"/><path fill="#134f5c" d="M112 135v-9h135a2 2 0 0 1 2 2v5a2 2 0 0 1-2 2Z" clip-path="url(#a)"/><path d="M112 150v-9h135a2 2 0 0 1 2 2v5a2 2 0 0 1-2 2Z" clip-path="url(#a)"/><path fill="#134f5c" d="M112 150v-9h135a2 2 0 0 1 2 2v5a2 2 0 0 1-2 2Z" clip-path="url(#a)"/><path d="M112 164v-9h135a2 2 0 0 1 2 2v5a2 2 0 0 1-2 2Z" clip-path="url(#a)"/><path fill="#134f5c" d="M112 164v-9h135a2 2 0 0 1 2 2v5a2 2 0 0 1-2 2Z" clip-path="url(#a)"/><path d="M112 179v-9h135a2 2 0 0 1 2 2v5a2 2 0 0 1-2 2Z" clip-path="url(#a)"/><path fill="#134f5c" d="M112 179v-9h135a2 2 0 0 1 2 2v5a2 2 0 0 1-2 2Z" clip-path="url(#a)"/><path d="M112 193v-9h89a2 2 0 0 1 2 2v5a2 2 0 0 1-2 2Z" clip-path="url(#a)"/><path fill="#134f5c" d="M112 193v-9h89a2 2 0 0 1 2 2v5a2 2 0 0 1-2 2Z" clip-path="url(#a)"/><path d="M112 208v-9h89a2 2 0 0 1 2 2v5a2 2 0 0 1-2 2Z" clip-path="url(#a)"/><path fill="#134f5c" d="M112 208v-9h89a2 2 0 0 1 2 2v5a2 2 0 0 1-2 2Z" clip-path="url(#a)"/><path d="M112 222v-9h89a2 2 0 0 1 2 2v5a2 2 0 0 1-2 2Z" clip-path="url(#a)"/><path fill="#134f5c" d="M112 222v-9h89a2 2 0 0 1 2 2v5a2 2 0 0 1-2 2Z" clip-path="url(#a)"/><path d="M112 237v-9h89a2 2 0 0 1 2 2v5a2 2 0 0 1-2 2Z" clip-path="url(#a)"/><path fill="#134f5c" d="M112 237v-9h89a2 2 0 0 1 2 2v5a2 2 0 0 1-2 2Z" clip-path="url(#a)"/><path d="M112 251v-9h89a2 2 0 0 1 2 2v5a2 2 0 0 1-2 2Z" clip-path="url(#a)"/><path fill="#134f5c" d="M112 251v-9h89a2 2 0 0 1 2 2v5a2 2 0 0 1-2 2Z" clip-path="url(#a)"/><path d="M112 266v-9h89a2 2 0 0 1 2 2v5a2 2 0 0 1-2 2Z" clip-path="url(#a)"/><path fill="#134f5c" d="M112 266v-9h89a2 2 0 0 1 2 2v5a2 2 0 0 1-2 2Z" clip-path="url(#a)"/><path d="M112 280v-9h89a2 2 0 0 1 2 2v5a2 2 0 0 1-2 2Z" clip-path="url(#a)"/><path fill="#134f5c" d="M112 280v-9h89a2 2 0 0 1 2 2v5a2 2 0 0 1-2 2Z" clip-path="url(#a)"/><path d="M112 295v-9h89a2 2 0 0 1 2 2v5a2 2 0 0 1-2 2Z" clip-path="url(#a)"/><path fill="#134f5c" d="M112 295v-9h89a2 2 0 0 1 2 2v5a2 2 0 0 1-2 2Z" clip-path="url(#a)"/><path d="M112 310v-9h89a2 2 0 0 1 2 2v5a2 2 0 0 1-2 2Z" clip-path="url(#a)"/><path fill="#134f5c" d="M112 310v-9h89a2 2 0 0 1 2 2v5a2 2 0 0 1-2 2Z" clip-path="url(#a)"/><path d="M112 324v-9h89a2 2 0 0 1 2 2v5a2 2 0 0 1-2 2Z" clip-path="url(#a)"/><path fill="#134f5c" d="M112 324v-9h89a2 2 0 0 1 2 2v5a2 2 0 0 1-2 2Z" clip-path="url(#a)"/><path d="M112 339v-9h89a2 2 0 0 1 2 2v5a2 2 0 0 1-2 2Z" clip-path="url(#a)"/><path fill="#134f5c" d="M112 339v-9h89a2 2 0 0 1 2 2v5a2 2 0 0 1-2 2Z" clip-path="url(#a)"/><path d="M112 353v-9h89a2 2 0 0 1 2 2v5a2 2 0 0 1-2 2Z" clip-path="url(#a)"/><path fill="#134f5c" d="M112 353v-9h89a2 2 0 0 1 2 2v5a2 2 0 0 1-2 2Z" clip-path="url(#a)"/><path d="M112 368v-9h89a2 2 0 0 1 2 2v5a2 2 0 0 1-2 2Z" clip-path="url(#a)"/><path fill="#134f5c" d="M112 368v-9h89a2 2 0 0 1 2 2v5a2 2 0 0 1-2 2Z" clip-path="url(#a)"/><path d="M112 382v-9h89a2 2 0 0 1 2 2v5a2 2 0 0 1-2 2Z" clip-path="url(#a)"/><path fill="#134f5c" d="M112 382v-9h89a2 2 0 0 1 2 2v5a2 2 0 0 1-2 2Z" clip-path="url(#a)"/><path d="M112 397v-9h89a2 2 0 0 1 2 2v5a2 2 0 0 1-2 2Z" clip-path="url(#a)"/><path fill="#134f5c" d="M112 397v-9h89a2 2 0 0 1 2 2v5a2 2 0 0 1-2 2Z" clip-path="url(#a)"/><path d="M112 411v-9h89a2 2 0 0 1 2 2v5a2 2 0 0 1-2 2Z" clip-path="url(#a)"/><path fill="#134f5c" d="M112 411v-9h89a2 2 0 0 1 2 2v5a2 2 0 0 1-2 2Z" clip-path="url(#a)"/><path stroke="#fff" stroke-linecap="round" stroke-linejoin="round" stroke-width="3" d="M630.64 76.5h-1.08v-7.22l-2.18.8v-.99l3.1-1.17h.16v8.58Zm7 0h-1.08v-7.22l-2.18.8v-.99l3.1-1.17h.16v8.58Z"/><path fill="#666" d="M630.64 76.5h-1.08v-7.22l-2.18.8v-.99l3.1-1.17h.16v8.58Zm7 0h-1.08v-7.22l-2.18.8v-.99l3.1-1.17h.16v8.58Z"/><path stroke="#fff" stroke-linecap="round" stroke-linejoin="round" stroke-width="3" d="m353.53 87.22.44-4.25h4.37v1h-3.45l-.27 2.33q.64-.38 1.44-.38 1.16 0 1.84.78.7.77.7 2.08t-.73 2.08q-.7.77-1.98.77-1.13 0-1.85-.63-.72-.64-.8-1.75h1q.12.73.54 1.1.42.38 1.1.38.76 0 1.2-.51.43-.52.43-1.42 0-.86-.47-1.38-.47-.51-1.25-.51-.7 0-1.1.3l-.29.23-.87-.22Z"/><path fill="#666" d="m353.53 87.22.44-4.25h4.37v1h-3.45l-.27 2.33q.64-.38 1.44-.38 1.16 0 1.84.78.7.77.7 2.08t-.73 2.08q-.7.77-1.98.77-1.13 0-1.85-.63-.72-.64-.8-1.75h1q.12.73.54 1.1.42.38 1.1.38.76 0 1.2-.51.43-.52.43-1.42 0-.86-.47-1.38-.47-.51-1.25-.51-.7 0-1.1.3l-.29.23-.87-.22Z"/><path stroke="#fff" stroke-linecap="round" stroke-linejoin="round" stroke-width="3" d="M263.26 100.7h.8q.79-.01 1.23-.4.44-.4.44-1.07 0-1.5-1.5-1.5-.7 0-1.13.41-.4.4-.4 1.06h-1.1q0-1.01.73-1.68.75-.68 1.9-.68 1.2 0 1.89.64.68.64.68 1.79 0 .56-.36 1.07-.36.52-.98.78.7.22 1.08.74.39.52.39 1.27 0 1.14-.75 1.82-.75.67-1.95.67t-1.96-.65q-.75-.66-.75-1.72h1.1q0 .67.43 1.08.44.4 1.2.4.77 0 1.18-.4.42-.42.42-1.19 0-.73-.45-1.12-.46-.41-1.33-.43h-.81v-.89Z"/><path fill="#666" d="M263.26 100.7h.8q.79-.01 1.23-.4.44-.4.44-1.07 0-1.5-1.5-1.5-.7 0-1.13.41-.4.4-.4 1.06h-1.1q0-1.01.73-1.68.75-.68 1.9-.68 1.2 0 1.89.64.68.64.68 1.79 0 .56-.36 1.07-.36.52-.98.78.7.22 1.08.74.39.52.39 1.27 0 1.14-.75 1.82-.75.67-1.95.67t-1.96-.65q-.75-.66-.75-1.72h1.1q0 .67.43 1.08.44.4 1.2.4.77 0 1.18-.4.42-.42.42-1.19 0-.73-.45-1.12-.46-.41-1.33-.43h-.81v-.89Z"/><path stroke="#fff" stroke-linecap="round" stroke-linejoin="round" stroke-width="3" d="M263.26 115.7h.8q.79-.01 1.23-.4.44-.4.44-1.07 0-1.5-1.5-1.5-.7 0-1.13.41-.4.4-.4 1.06h-1.1q0-1.01.73-1.68.75-.68 1.9-.68 1.2 0 1.89.64.68.64.68 1.79 0 .56-.36 1.07-.36.52-.98.78.7.22 1.08.74.39.52.39 1.27 0 1.14-.75 1.82-.75.67-1.95.67t-1.96-.65q-.75-.66-.75-1.72h1.1q0 .67.43 1.08.44.4 1.2.4.77 0 1.18-.4.42-.42.42-1.19 0-.73-.45-1.12-.46-.41-1.33-.43h-.81v-.89Z"/><path fill="#666" d="M263.26 115.7h.8q.79-.01 1.23-.4.44-.4.44-1.07 0-1.5-1.5-1.5-.7 0-1.13.41-.4.4-.4 1.06h-1.1q0-1.01.73-1.68.75-.68 1.9-.68 1.2 0 1.89.64.68.64.68 1.79 0 .56-.36 1.07-.36.52-.98.78.7.22 1.08.74.39.52.39 1.27 0 1.14-.75 1.82-.75.67-1.95.67t-1.96-.65q-.75-.66-.75-1.72h1.1q0 .67.43 1.08.44.4 1.2.4.77 0 1.18-.4.42-.42.42-1.19 0-.73-.45-1.12-.46-.41-1.33-.43h-.81v-.89Z"/><path stroke="#fff" stroke-linecap="round" stroke-linejoin="round" stroke-width="3" d="M263.26 129.7h.8q.79-.01 1.23-.4.44-.4.44-1.07 0-1.5-1.5-1.5-.7 0-1.13.41-.4.4-.4 1.06h-1.1q0-1.01.73-1.68.75-.68 1.9-.68 1.2 0 1.89.64.68.64.68 1.79 0 .56-.36 1.07-.36.52-.98.78.7.22 1.08.74.39.51.39 1.26 0 1.15-.75 1.83-.75.68-1.95.68t-1.96-.66q-.75-.66-.75-1.72h1.1q0 .67.43 1.08.44.4 1.2.4.77 0 1.18-.4.42-.42.42-1.19 0-.73-.45-1.12-.46-.41-1.33-.43h-.81v-.89Z"/><path fill="#666" d="M263.26 129.7h.8q.79-.01 1.23-.4.44-.4.44-1.07 0-1.5-1.5-1.5-.7 0-1.13.41-.4.4-.4 1.06h-1.1q0-1.01.73-1.68.75-.68 1.9-.68 1.2 0 1.89.64.68.64.68 1.79 0 .56-.36 1.07-.36.52-.98.78.7.22 1.08.74.39.51.39 1.26 0 1.15-.75 1.83-.75.68-1.95.68t-1.96-.66q-.75-.66-.75-1.72h1.1q0 .67.43 1.08.44.4 1.2.4.77 0 1.18-.4.42-.42.42-1.19 0-.73-.45-1.12-.46-.41-1.33-.43h-.81v-.89Z"/><path stroke="#fff" stroke-linecap="round" stroke-linejoin="round" stroke-width="3" d="M263.26 144.7h.8q.79-.01 1.23-.4.44-.4.44-1.07 0-1.5-1.5-1.5-.7 0-1.13.41-.4.4-.4 1.06h-1.1q0-1.01.73-1.68.75-.68 1.9-.68 1.2 0 1.89.64.68.65.68 1.79 0 .56-.36 1.07-.36.52-.98.78.7.22 1.08.74.39.51.39 1.26 0 1.15-.75 1.83-.75.68-1.95.68t-1.96-.66q-.75-.66-.75-1.72h1.1q0 .67.43 1.08.44.4 1.2.4.77 0 1.18-.4.42-.42.42-1.19 0-.73-.45-1.12-.46-.41-1.33-.43h-.81v-.89Z"/><path fill="#666" d="M263.26 144.7h.8q.79-.01 1.23-.4.44-.4.44-1.07 0-1.5-1.5-1.5-.7 0-1.13.41-.4.4-.4 1.06h-1.1q0-1.01.73-1.68.75-.68 1.9-.68 1.2 0 1.89.64.68.65.68 1.79 0 .56-.36 1.07-.36.52-.98.78.7.22 1.08.74.39.51.39 1.26 0 1.15-.75 1.83-.75.68-1.95.68t-1.96-.66q-.75-.66-.75-1.72h1.1q0 .67.43 1.08.44.4 1.2.4.77 0 1.18-.4.42-.42.42-1.19 0-.73-.45-1.12-.46-.41-1.33-.43h-.81v-.89Z"/><path stroke="#fff" stroke-linecap="round" stroke-linejoin="round" stroke-width="3" d="M263.26 158.7h.8q.79-.01 1.23-.4.44-.4.44-1.07 0-1.5-1.5-1.5-.7 0-1.13.41-.4.4-.4 1.06h-1.1q0-1.01.73-1.68.75-.68 1.9-.68 1.2 0 1.89.64.68.65.68 1.79 0 .56-.36 1.07-.36.52-.98.78.7.22 1.08.74.39.51.39 1.26 0 1.15-.75 1.83-.75.68-1.95.68t-1.96-.66q-.75-.66-.75-1.72h1.1q0 .67.43 1.08.44.4 1.2.4.77 0 1.18-.4.42-.42.42-1.19 0-.73-.45-1.12-.46-.41-1.33-.43h-.81v-.89Z"/><path fill="#666" d="M263.26 158.7h.8q.79-.01 1.23-.4.44-.4.44-1.07 0-1.5-1.5-1.5-.7 0-1.13.41-.4.4-.4 1.06h-1.1q0-1.01.73-1.68.75-.68 1.9-.68 1.2 0 1.89.64.68.65.68 1.79 0 .56-.36 1.07-.36.52-.98.78.7.22 1.08.74.39.51.39 1.26 0 1.15-.75 1.83-.75.68-1.95.68t-1.96-.66q-.75-.66-.75-1.72h1.1q0 .67.43 1.08.44.4 1.2.4.77 0 1.18-.4.42-.42.42-1.19 0-.73-.45-1.12-.46-.41-1.33-.43h-.81v-.89Z"/><path stroke="#fff" stroke-linecap="round" stroke-linejoin="round" stroke-width="3" d="M263.26 173.7h.8q.79-.01 1.23-.4.44-.4.44-1.07 0-1.5-1.5-1.5-.7 0-1.13.41-.4.4-.4 1.06h-1.1q0-1.01.73-1.68.75-.68 1.9-.68 1.2 0 1.89.64.68.65.68 1.79 0 .56-.36 1.07-.36.52-.98.78.7.22 1.08.74.39.51.39 1.26 0 1.15-.75 1.83-.75.68-1.95.68t-1.96-.66q-.75-.66-.75-1.72h1.1q0 .67.43 1.08.44.4 1.2.4.77 0 1.18-.4.42-.42.42-1.19 0-.73-.45-1.12-.46-.41-1.33-.43h-.81v-.89Z"/><path fill="#666" d="M263.26 173.7h.8q.79-.01 1.23-.4.44-.4.44-1.07 0-1.5-1.5-1.5-.7 0-1.13.41-.4.4-.4 1.06h-1.1q0-1.01.73-1.68.75-.68 1.9-.68 1.2 0 1.89.64.68.65.68 1.79 0 .56-.36 1.07-.36.52-.98.78.7.22 1.08.74.39.51.39 1.26 0 1.15-.75 1.83-.75.68-1.95.68t-1.96-.66q-.75-.66-.75-1.72h1.1q0 .67.43 1.08.44.4 1.2.4.77 0 1.18-.4.42-.42.42-1.19 0-.73-.45-1.12-.46-.41-1.33-.43h-.81v-.89Z"/><path stroke="#fff" stroke-linecap="round" stroke-linejoin="round" stroke-width="3" d="M221.6 192.5H216v-.78l2.96-3.28q.65-.75.9-1.2.25-.47.25-.97 0-.68-.4-1.1-.4-.44-1.08-.44-.8 0-1.25.47-.45.46-.45 1.28h-1.08q0-1.18.75-1.9.76-.74 2.03-.74 1.2 0 1.89.63.69.62.69 1.67 0 1.25-1.61 3l-2.28 2.47h4.28v.89Z"/><path fill="#666" d="M221.6 192.5H216v-.78l2.96-3.28q.65-.75.9-1.2.25-.47.25-.97 0-.68-.4-1.1-.4-.44-1.08-.44-.8 0-1.25.47-.45.46-.45 1.28h-1.08q0-1.18.75-1.9.76-.74 2.03-.74 1.2 0 1.89.63.69.62.69 1.67 0 1.25-1.61 3l-2.28 2.47h4.28v.89Z"/><path stroke="#fff" stroke-linecap="round" stroke-linejoin="round" stroke-width="3" d="M221.6 207.5H216v-.78l2.96-3.28q.65-.75.9-1.2.25-.47.25-.97 0-.68-.4-1.1-.4-.44-1.08-.44-.8 0-1.25.47-.45.46-.45 1.28h-1.08q0-1.18.75-1.9.76-.74 2.03-.74 1.2 0 1.89.63.69.62.69 1.67 0 1.25-1.61 3l-2.28 2.47h4.28v.89Z"/><path fill="#666" d="M221.6 207.5H216v-.78l2.96-3.28q.65-.75.9-1.2.25-.47.25-.97 0-.68-.4-1.1-.4-.44-1.08-.44-.8 0-1.25.47-.45.46-.45 1.28h-1.08q0-1.18.75-1.9.76-.74 2.03-.74 1.2 0 1.89.63.69.62.69 1.67 0 1.25-1.61 3l-2.28 2.47h4.28v.89Z"/><path stroke="#fff" stroke-linecap="round" stroke-linejoin="round" stroke-width="3" d="M221.6 221.5H216v-.78l2.96-3.28q.65-.75.9-1.2.25-.47.25-.97 0-.68-.4-1.1-.4-.44-1.08-.44-.8 0-1.25.47-.45.46-.45 1.28h-1.08q0-1.18.75-1.9.76-.74 2.03-.74 1.2 0 1.89.63.69.62.69 1.67 0 1.25-1.61 3l-2.28 2.47h4.28v.89Z"/><path fill="#666" d="M221.6 221.5H216v-.78l2.96-3.28q.65-.75.9-1.2.25-.47.25-.97 0-.68-.4-1.1-.4-.44-1.08-.44-.8 0-1.25.47-.45.46-.45 1.28h-1.08q0-1.18.75-1.9.76-.74 2.03-.74 1.2 0 1.89.63.69.62.69 1.67 0 1.25-1.61 3l-2.28 2.47h4.28v.89Z"/><path stroke="#fff" stroke-linecap="round" stroke-linejoin="round" stroke-width="3" d="M221.6 236.5H216v-.78l2.96-3.28q.65-.75.9-1.2.25-.47.25-.97 0-.68-.4-1.1-.4-.44-1.08-.44-.8 0-1.25.47-.45.46-.45 1.28h-1.08q0-1.18.75-1.9.76-.74 2.03-.74 1.2 0 1.89.63.69.62.69 1.67 0 1.25-1.61 3l-2.28 2.47h4.28v.89Z"/><path fill="#666" d="M221.6 236.5H216v-.78l2.96-3.28q.65-.75.9-1.2.25-.47.25-.97 0-.68-.4-1.1-.4-.44-1.08-.44-.8 0-1.25.47-.45.46-.45 1.28h-1.08q0-1.18.75-1.9.76-.74 2.03-.74 1.2 0 1.89.63.69.62.69 1.67 0 1.25-1.61 3l-2.28 2.47h4.28v.89Z"/><path stroke="#fff" stroke-linecap="round" stroke-linejoin="round" stroke-width="3" d="M221.6 250.5H216v-.78l2.96-3.28q.65-.75.9-1.2.25-.47.25-.97 0-.68-.4-1.1-.4-.44-1.08-.44-.8 0-1.25.47-.45.46-.45 1.28h-1.08q0-1.18.75-1.9.76-.74 2.03-.74 1.2 0 1.89.63.69.62.69 1.67 0 1.25-1.61 3l-2.28 2.47h4.28v.89Z"/><path fill="#666" d="M221.6 250.5H216v-.78l2.96-3.28q.65-.75.9-1.2.25-.47.25-.97 0-.68-.4-1.1-.4-.44-1.08-.44-.8 0-1.25.47-.45.46-.45 1.28h-1.08q0-1.18.75-1.9.76-.74 2.03-.74 1.2 0 1.89.63.69.62.69 1.67 0 1.25-1.61 3l-2.28 2.47h4.28v.89Z"/><path stroke="#fff" stroke-linecap="round" stroke-linejoin="round" stroke-width="3" d="M221.6 265.5H216v-.78l2.96-3.28q.65-.75.9-1.2.25-.47.25-.97 0-.68-.4-1.1-.4-.44-1.08-.44-.8 0-1.25.47-.45.46-.45 1.28h-1.08q0-1.18.75-1.9.76-.74 2.03-.74 1.2 0 1.89.63.69.62.69 1.67 0 1.25-1.61 3l-2.28 2.47h4.28v.89Z"/><path fill="#666" d="M221.6 265.5H216v-.78l2.96-3.28q.65-.75.9-1.2.25-.47.25-.97 0-.68-.4-1.1-.4-.44-1.08-.44-.8 0-1.25.47-.45.46-.45 1.28h-1.08q0-1.18.75-1.9.76-.74 2.03-.74 1.2 0 1.89.63.69.62.69 1.67 0 1.25-1.61 3l-2.28 2.47h4.28v.89Z"/><path stroke="#fff" stroke-linecap="round" stroke-linejoin="round" stroke-width="3" d="M221.6 279.5H216v-.78l2.96-3.28q.65-.75.9-1.2.25-.47.25-.97 0-.68-.4-1.1-.4-.44-1.08-.44-.8 0-1.25.47-.45.46-.45 1.28h-1.08q0-1.18.75-1.9.76-.74 2.03-.74 1.2 0 1.89.63.69.62.69 1.67 0 1.25-1.61 3l-2.28 2.47h4.28v.89Z"/><path fill="#666" d="M221.6 279.5H216v-.78l2.96-3.28q.65-.75.9-1.2.25-.47.25-.97 0-.68-.4-1.1-.4-.44-1.08-.44-.8 0-1.25.47-.45.46-.45 1.28h-1.08q0-1.18.75-1.9.76-.74 2.03-.74 1.2 0 1.89.63.69.62.69 1.67 0 1.25-1.61 3l-2.28 2.47h4.28v.89Z"/><path stroke="#fff" stroke-linecap="round" stroke-linejoin="round" stroke-width="3" d="M221.6 294.5H216v-.78l2.96-3.28q.65-.75.9-1.2.25-.47.25-.97 0-.68-.4-1.1-.4-.44-1.08-.44-.8 0-1.25.47-.45.46-.45 1.28h-1.08q0-1.18.75-1.9.76-.74 2.03-.74 1.2 0 1.89.63.69.62.69 1.67 0 1.25-1.61 3l-2.28 2.47h4.28v.89Z"/><path fill="#666" d="M221.6 294.5H216v-.78l2.96-3.28q.65-.75.9-1.2.25-.47.25-.97 0-.68-.4-1.1-.4-.44-1.08-.44-.8 0-1.25.47-.45.46-.45 1.28h-1.08q0-1.18.75-1.9.76-.74 2.03-.74 1.2 0 1.89.63.69.62.69 1.67 0 1.25-1.61 3l-2.28 2.47h4.28v.89Z"/><path stroke="#fff" stroke-linecap="round" stroke-linejoin="round" stroke-width="3" d="M221.6 309.5H216v-.78l2.96-3.28q.65-.75.9-1.2.25-.47.25-.97 0-.68-.4-1.1-.4-.44-1.08-.44-.8 0-1.25.47-.45.46-.45 1.28h-1.08q0-1.18.75-1.9.76-.74 2.03-.74 1.2 0 1.89.63.69.62.69 1.67 0 1.25-1.61 3l-2.28 2.47h4.28v.89Z"/><path fill="#666" d="M221.6 309.5H216v-.78l2.96-3.28q.65-.75.9-1.2.25-.47.25-.97 0-.68-.4-1.1-.4-.44-1.08-.44-.8 0-1.25.47-.45.46-.45 1.28h-1.08q0-1.18.75-1.9.76-.74 2.03-.74 1.2 0 1.89.63.69.62.69 1.67 0 1.25-1.61 3l-2.28 2.47h4.28v.89Z"/><path stroke="#fff" stroke-linecap="round" stroke-linejoin="round" stroke-width="3" d="M221.6 323.5H216v-.78l2.96-3.28q.65-.75.9-1.2.25-.47.25-.97 0-.68-.4-1.1-.4-.44-1.08-.44-.8 0-1.25.47-.45.46-.45 1.28h-1.08q0-1.18.75-1.9.76-.74 2.03-.74 1.2 0 1.89.63.69.62.69 1.67 0 1.25-1.61 3l-2.28 2.47h4.28v.89Z"/><path fill="#666" d="M221.6 323.5H216v-.78l2.96-3.28q.65-.75.9-1.2.25-.47.25-.97 0-.68-.4-1.1-.4-.44-1.08-.44-.8 0-1.25.47-.45.46-.45 1.28h-1.08q0-1.18.75-1.9.76-.74 2.03-.74 1.2 0 1.89.63.69.62.69 1.67 0 1.25-1.61 3l-2.28 2.47h4.28v.89Z"/><path stroke="#fff" stroke-linecap="round" stroke-linejoin="round" stroke-width="3" d="M221.6 338.5H216v-.78l2.96-3.28q.65-.75.9-1.2.25-.47.25-.97 0-.68-.4-1.1-.4-.44-1.08-.44-.8 0-1.25.47-.45.46-.45 1.28h-1.08q0-1.18.75-1.9.76-.74 2.03-.74 1.2 0 1.89.63.69.62.69 1.67 0 1.25-1.61 3l-2.28 2.47h4.28v.89Z"/><path fill="#666" d="M221.6 338.5H216v-.78l2.96-3.28q.65-.75.9-1.2.25-.47.25-.97 0-.68-.4-1.1-.4-.44-1.08-.44-.8 0-1.25.47-.45.46-.45 1.28h-1.08q0-1.18.75-1.9.76-.74 2.03-.74 1.2 0 1.89.63.69.62.69 1.67 0 1.25-1.61 3l-2.28 2.47h4.28v.89Z"/><path stroke="#fff" stroke-linecap="round" stroke-linejoin="round" stroke-width="3" d="M221.6 352.5H216v-.78l2.96-3.28q.65-.75.9-1.2.25-.47.25-.97 0-.68-.4-1.1-.4-.44-1.08-.44-.8 0-1.25.47-.45.46-.45 1.28h-1.08q0-1.18.75-1.9.76-.74 2.03-.74 1.2 0 1.89.63.69.62.69 1.67 0 1.25-1.61 3l-2.28 2.47h4.28v.89Z"/><path fill="#666" d="M221.6 352.5H216v-.78l2.96-3.28q.65-.75.9-1.2.25-.47.25-.97 0-.68-.4-1.1-.4-.44-1.08-.44-.8 0-1.25.47-.45.46-.45 1.28h-1.08q0-1.18.75-1.9.76-.74 2.03-.74 1.2 0 1.89.63.69.62.69 1.67 0 1.25-1.61 3l-2.28 2.47h4.28v.89Z"/><path stroke="#fff" stroke-linecap="round" stroke-linejoin="round" stroke-width="3" d="M221.6 367.5H216v-.78l2.96-3.28q.65-.75.9-1.2.25-.47.25-.97 0-.68-.4-1.1-.4-.44-1.08-.44-.8 0-1.25.47-.45.46-.45 1.28h-1.08q0-1.18.75-1.9.76-.74 2.03-.74 1.2 0 1.89.63.69.62.69 1.67 0 1.25-1.61 3l-2.28 2.47h4.28v.89Z"/><path fill="#666" d="M221.6 367.5H216v-.78l2.96-3.28q.65-.75.9-1.2.25-.47.25-.97 0-.68-.4-1.1-.4-.44-1.08-.44-.8 0-1.25.47-.45.46-.45 1.28h-1.08q0-1.18.75-1.9.76-.74 2.03-.74 1.2 0 1.89.63.69.62.69 1.67 0 1.25-1.61 3l-2.28 2.47h4.28v.89Z"/><path stroke="#fff" stroke-linecap="round" stroke-linejoin="round" stroke-width="3" d="M221.6 381.5H216v-.78l2.96-3.28q.65-.75.9-1.2.25-.47.25-.97 0-.68-.4-1.1-.4-.44-1.08-.44-.8 0-1.25.47-.45.46-.45 1.28h-1.08q0-1.18.75-1.9.76-.74 2.03-.74 1.2 0 1.89.63.69.62.69 1.67 0 1.25-1.61 3l-2.28 2.47h4.28v.89Z"/><path fill="#666" d="M221.6 381.5H216v-.78l2.96-3.28q.65-.75.9-1.2.25-.47.25-.97 0-.68-.4-1.1-.4-.44-1.08-.44-.8 0-1.25.47-.45.46-.45 1.28h-1.08q0-1.18.75-1.9.76-.74 2.03-.74 1.2 0 1.89.63.69.62.69 1.67 0 1.25-1.61 3l-2.28 2.47h4.28v.89Z"/><path stroke="#fff" stroke-linecap="round" stroke-linejoin="round" stroke-width="3" d="M221.6 396.5H216v-.78l2.96-3.28q.65-.75.9-1.2.25-.47.25-.97 0-.68-.4-1.1-.4-.44-1.08-.44-.8 0-1.25.47-.45.46-.45 1.28h-1.08q0-1.18.75-1.9.76-.74 2.03-.74 1.2 0 1.89.63.69.62.69 1.67 0 1.25-1.61 3l-2.28 2.47h4.28v.89Z"/><path fill="#666" d="M221.6 396.5H216v-.78l2.96-3.28q.65-.75.9-1.2.25-.47.25-.97 0-.68-.4-1.1-.4-.44-1.08-.44-.8 0-1.25.47-.45.46-.45 1.28h-1.08q0-1.18.75-1.9.76-.74 2.03-.74 1.2 0 1.89.63.69.62.69 1.67 0 1.25-1.61 3l-2.28 2.47h4.28v.89Z"/><path stroke="#fff" stroke-linecap="round" stroke-linejoin="round" stroke-width="3" d="M221.6 410.5H216v-.78l2.96-3.28q.65-.75.9-1.2.25-.47.25-.97 0-.68-.4-1.1-.4-.44-1.08-.44-.8 0-1.25.47-.45.46-.45 1.28h-1.08q0-1.18.75-1.9.76-.74 2.03-.74 1.2 0 1.89.63.69.62.69 1.67 0 1.25-1.61 3l-2.28 2.47h4.28v.89Z"/><path fill="#666" d="M221.6 410.5H216v-.78l2.96-3.28q.65-.75.9-1.2.25-.47.25-.97 0-.68-.4-1.1-.4-.44-1.08-.44-.8 0-1.25.47-.45.46-.45 1.28h-1.08q0-1.18.75-1.9.76-.74 2.03-.74 1.2 0 1.89.63.69.62.69 1.67 0 1.25-1.61 3l-2.28 2.47h4.28v.89Z"/><path fill="#000" d="M44.73 76.06v-6.22h.95v.94q.36-.66.66-.86.31-.22.69-.22.53 0 1.08.33l-.36.98q-.4-.23-.77-.23-.36 0-.64.22-.27.2-.37.57-.2.57-.2 1.22v3.27h-1.04Zm8.08-.77q-.6.5-1.14.7-.53.2-1.16.2-1.03 0-1.58-.5-.54-.5-.54-1.27 0-.46.2-.83.2-.4.55-.61.34-.23.76-.34.3-.1.94-.18 1.27-.14 1.88-.36v-.26q0-.66-.3-.92-.4-.35-1.2-.35-.74 0-1.1.27-.36.25-.53.9l-1.03-.14q.14-.65.47-1.06.33-.4.94-.62.6-.22 1.4-.22.8 0 1.3.19.5.18.73.46.24.29.33.72.05.27.05.97v1.4q0 1.48.06 1.87.08.39.28.75h-1.1q-.16-.33-.21-.77Zm-.1-2.36q-.57.24-1.71.4-.66.1-.92.23-.27.1-.43.33-.14.21-.14.5 0 .42.32.7.32.28.93.28.61 0 1.08-.27.48-.26.7-.73.18-.36.18-1.05v-.39Zm2.62 1.27 1.03-.16q.09.63.48.96.4.32 1.14.32.72 0 1.06-.28.36-.3.36-.7 0-.36-.3-.56-.23-.14-1.09-.36-1.15-.3-1.6-.5-.44-.22-.68-.6-.23-.37-.23-.84 0-.4.18-.77.2-.36.52-.59.25-.17.67-.3.42-.12.92-.12.72 0 1.27.22.56.2.83.56.26.36.36.95l-1.03.14q-.07-.47-.41-.73-.33-.28-.95-.28-.72 0-1.03.25-.32.23-.32.56 0 .2.13.36.14.17.4.28.16.06.94.27 1.13.3 1.56.5.44.18.7.54.24.36.24.9t-.31 1q-.3.46-.88.73-.57.25-1.3.25-1.23 0-1.87-.5-.62-.52-.8-1.5Zm7.42 4.25v-8.61h.95v.8q.34-.47.77-.7.43-.24 1.04-.24.8 0 1.4.4.62.41.92 1.16.3.75.3 1.64 0 .95-.34 1.72-.32.77-.98 1.17-.66.4-1.38.4-.53 0-.95-.21-.42-.23-.69-.56v3.03h-1.04Zm.95-5.47q0 1.2.48 1.78.49.56 1.18.56.7 0 1.2-.6.5-.58.5-1.83 0-1.2-.48-1.77-.49-.6-1.18-.6-.67 0-1.18.63-.52.63-.52 1.83Zm7.02 3.08h-.99v-8.6h1.06v3.07q.68-.83 1.7-.83.59 0 1.09.23.51.22.84.64.34.43.53 1.02.19.6.19 1.26 0 1.6-.8 2.47-.8.88-1.89.88-1.1 0-1.73-.92v.78Zm-.02-3.16q0 1.11.31 1.61.5.81 1.35.81.68 0 1.18-.6.52-.58.52-1.79 0-1.22-.48-1.8-.49-.57-1.18-.57-.68 0-1.2.6-.5.6-.5 1.74ZM81 74.06l1.1.12q-.26.96-.96 1.49t-1.78.53q-1.36 0-2.18-.85-.8-.84-.8-2.35 0-1.57.82-2.43.81-.87 2.1-.87 1.24 0 2.03.84.8.85.8 2.4v.27h-4.65q.06 1.04.58 1.58.52.53 1.3.53.57 0 .98-.3.42-.3.66-.96Zm-3.46-1.7h3.47q-.06-.8-.39-1.2-.51-.6-1.31-.6-.73 0-1.23.48-.49.49-.54 1.31Zm6.2 3.7v-6.22h.94v.94q.36-.66.66-.86.31-.22.69-.22.53 0 1.08.33l-.36.98q-.4-.23-.77-.23-.36 0-.64.22-.27.2-.37.57-.2.57-.2 1.22v3.27h-1.04Zm4 0v-6.22h.94v.94q.36-.66.66-.86.31-.22.69-.22.53 0 1.08.33l-.36.98q-.4-.23-.77-.23-.36 0-.64.22-.27.2-.37.57-.2.57-.2 1.22v3.27h-1.04Zm3.96 2.39-.13-.99q.35.1.61.1.35 0 .55-.13.22-.1.36-.31.1-.17.33-.8.01-.07.1-.25l-2.38-6.23h1.14l1.3 3.6q.25.68.45 1.45.19-.74.44-1.43l1.32-3.62h1.05l-2.36 6.33q-.39 1.01-.6 1.4-.27.53-.65.77-.36.25-.86.25-.3 0-.67-.14Zm5.05 0v-8.61h.95v.8q.34-.47.77-.7.43-.24 1.04-.24.8 0 1.4.4.62.41.92 1.16.3.75.3 1.64 0 .95-.34 1.72-.32.77-.98 1.17-.66.4-1.38.4-.53 0-.95-.21-.42-.23-.69-.56v3.03h-1.04Zm.95-5.47q0 1.2.48 1.78.49.56 1.18.56.7 0 1.2-.6.5-.58.5-1.83 0-1.2-.48-1.77-.49-.6-1.18-.6-.67 0-1.18.63-.52.63-.52 1.83Zm6.05-4.3v-1.22h1.06v1.22h-1.06Zm0 7.38v-6.22h1.06v6.22h-1.06ZM72.75 92.98v-8.61h.95v.8q.34-.47.77-.7.43-.24 1.04-.24.8 0 1.4.4.62.41.92 1.16.3.75.3 1.64 0 .95-.34 1.72-.32.77-.98 1.17-.66.4-1.38.4-.53 0-.95-.21-.42-.24-.69-.56v3.03h-1.04Zm.95-5.47q0 1.2.48 1.78.49.56 1.18.56.7 0 1.2-.6.5-.58.5-1.83 0-1.2-.48-1.77-.49-.6-1.18-.6-.67 0-1.18.63-.52.63-.52 1.83Zm6.05-4.3V82h1.06v1.22h-1.06Zm0 7.38v-6.22h1.06v6.22h-1.06Zm3 0v-8.6h1.04v3.08q.74-.84 1.86-.84.7 0 1.2.28.52.26.74.75.22.47.22 1.39v3.94h-1.05v-3.94q0-.8-.34-1.16-.34-.36-.97-.36-.47 0-.9.25-.4.24-.58.66-.18.4-.18 1.14v3.4h-1.04Zm6.6-3.11q0-1.74.96-2.56.8-.7 1.95-.7 1.28 0 2.1.85.82.83.82 2.31 0 1.2-.36 1.9-.35.68-1.06 1.07-.69.38-1.5.38-1.3 0-2.1-.83-.8-.84-.8-2.42Zm1.08 0q0 1.19.52 1.78.53.6 1.31.6.8 0 1.31-.6.52-.6.52-1.81 0-1.16-.53-1.75-.52-.6-1.3-.6t-1.31.6q-.52.57-.52 1.78Zm6.29 3.1V82h1.06v8.6h-1.06Zm7.28-2 1.1.13q-.26.96-.96 1.49t-1.78.53q-1.36 0-2.18-.85-.8-.84-.8-2.36 0-1.56.82-2.42.81-.87 2.1-.87 1.24 0 2.03.84.8.85.8 2.4v.27h-4.65q.06 1.03.58 1.58.52.53 1.3.53.57 0 .98-.3.42-.3.66-.96Zm-3.46-1.7h3.47q-.06-.8-.39-1.18-.51-.61-1.31-.61-.73 0-1.23.48-.49.49-.54 1.31ZM88.72 105.12h-.99v-8.6h1.06v3.07q.68-.83 1.7-.83.59 0 1.09.23.51.22.84.64.34.42.53 1.02.19.6.19 1.26 0 1.6-.8 2.47-.8.88-1.89.88-1.1 0-1.73-.92v.78Zm-.02-3.16q0 1.11.31 1.61.5.81 1.35.81.68 0 1.18-.6.52-.58.52-1.79 0-1.22-.48-1.8-.49-.57-1.18-.57-.68 0-1.2.6-.5.6-.5 1.74Zm6.03 3.16V98.9h.95v.94q.36-.66.66-.86.31-.22.69-.22.53 0 1.08.33l-.36.98q-.4-.23-.77-.23-.36 0-.64.21-.27.2-.37.58-.2.57-.2 1.22v3.27h-1.04Zm4.02-7.38v-1.22h1.06v1.22h-1.06Zm0 7.38V98.9h1.06v6.22h-1.06Zm2.3 0 2.26-3.24-2.1-2.98h1.32l.95 1.45.44.7q.25-.39.47-.68l1.04-1.47h1.27l-2.16 2.92 2.32 3.3h-1.28l-1.29-1.94-.34-.52-1.64 2.46h-1.27ZM47.75 119.65v-6.22h.93v.87q.3-.47.79-.73.48-.28 1.1-.28.7 0 1.13.28.45.28.63.8.75-1.08 1.92-1.08.93 0 1.42.51.5.5.5 1.58v4.27h-1.05v-3.92q0-.63-.1-.91t-.37-.45q-.26-.18-.64-.18-.65 0-1.1.44-.41.44-.41 1.4v3.62h-1.07v-4.05q0-.7-.26-1.05-.25-.36-.83-.36-.45 0-.83.24-.37.23-.54.69-.18.45-.18 1.3v3.23h-1.04Zm10.6-3.11q0-1.74.96-2.56.8-.7 1.95-.7 1.28 0 2.1.85.82.83.82 2.31 0 1.2-.36 1.9-.35.68-1.06 1.07-.68.38-1.5.38-1.3 0-2.1-.83-.8-.84-.8-2.42Zm1.08 0q0 1.19.52 1.78.53.6 1.31.6.8 0 1.32-.6.51-.6.51-1.81 0-1.16-.53-1.75-.52-.6-1.3-.6t-1.31.6q-.52.57-.52 1.78Zm6.32 3.1v-6.21h.93v.87q.7-1.01 1.99-1.01.56 0 1.03.2.48.2.72.53.23.33.33.77.04.3.04 1.03v3.83h-1.04v-3.78q0-.66-.13-.97-.12-.32-.44-.5-.3-.2-.73-.2-.67 0-1.17.43-.49.42-.49 1.61v3.4h-1.04Zm7-7.37v-1.22h1.06v1.22h-1.06Zm0 7.38v-6.22h1.06v6.22h-1.06Zm5.3-.94.15.92q-.45.1-.8.1-.58 0-.89-.18-.31-.18-.45-.48-.13-.3-.13-1.25v-3.58h-.76v-.81h.76v-1.55l1.05-.62v2.17h1.06v.81h-1.06v3.64q0 .45.05.58.06.12.19.2.12.08.36.08.18 0 .46-.03Zm.3-2.17q0-1.74.96-2.56.8-.7 1.95-.7 1.28 0 2.1.85.82.83.82 2.31 0 1.2-.36 1.9-.35.68-1.06 1.07-.69.38-1.5.38-1.3 0-2.1-.83-.8-.84-.8-2.42Zm1.08 0q0 1.19.52 1.78.53.6 1.31.6.8 0 1.31-.6.52-.6.52-1.81 0-1.16-.53-1.75-.52-.6-1.3-.6t-1.31.6q-.52.57-.52 1.78Zm6.3 3.1v-6.21h.95v.94q.36-.66.66-.86.31-.22.69-.22.53 0 1.08.33l-.36.98q-.4-.23-.77-.23-.36 0-.64.21-.27.2-.37.58-.2.57-.2 1.22v3.27h-1.04Zm4.02-7.37v-1.22h1.06v1.22h-1.06Zm0 7.38v-6.22h1.06v6.22h-1.06Zm3 0v-6.22h.93v.87q.7-1.01 1.99-1.01.56 0 1.03.2.48.2.72.53.23.33.33.77.04.3.04 1.03v3.83h-1.04v-3.78q0-.66-.13-.97-.12-.32-.44-.5-.3-.2-.73-.2-.67 0-1.17.43-.49.42-.49 1.61v3.4h-1.04Zm6.8.51 1.03.16q.06.47.35.69.4.3 1.07.3.73 0 1.12-.3.4-.3.55-.82.1-.32.08-1.36-.7.82-1.72.82-1.28 0-1.99-.92-.7-.94-.7-2.22 0-.9.31-1.64.33-.77.94-1.18.61-.4 1.44-.4 1.1 0 1.83.89v-.75h.97v5.37q0 1.46-.3 2.07-.3.6-.94.95-.64.36-1.58.36-1.1 0-1.8-.5-.68-.5-.67-1.52Zm.87-3.73q0 1.22.48 1.78.49.56 1.22.56.74 0 1.22-.56.5-.56.5-1.75 0-1.14-.52-1.72-.5-.58-1.21-.58-.7 0-1.2.58-.5.56-.5 1.69ZM86.75 134.18v-6.22h.93v.87q.7-1.01 1.99-1.01.56 0 1.03.2.48.2.72.53.23.33.33.77.04.3.04 1.03v3.83h-1.04v-3.78q0-.66-.13-.97-.12-.32-.44-.5-.3-.2-.73-.2-.67 0-1.17.43-.49.42-.49 1.61v3.4h-1.04Zm11.08 0v-.93q-.74 1.07-1.99 1.07-.55 0-1.03-.2-.47-.22-.7-.54-.24-.33-.33-.8-.06-.3-.06-.98v-3.84h1.06v3.45q0 .81.06 1.11.1.4.4.66.34.23.82.23.47 0 .87-.23.43-.25.6-.68.19-.42.19-1.21v-3.33h1.04v6.22h-.94Zm6.98-2.28 1.03.14q-.17 1.06-.87 1.67-.7.6-1.72.6-1.28 0-2.07-.82-.76-.84-.76-2.4 0-1 .33-1.76.34-.76 1.01-1.14.69-.37 1.5-.37 1 0 1.64.51.66.5.85 1.46l-1.03.15q-.14-.62-.52-.94-.38-.32-.9-.32-.8 0-1.3.57t-.5 1.8q0 1.27.48 1.83.49.56 1.25.56.63 0 1.03-.37.42-.38.55-1.17ZM96.75 151.1v-8.61h.95v.8q.34-.47.77-.7.43-.24 1.04-.24.8 0 1.4.4.62.41.92 1.16.3.75.3 1.64 0 .95-.34 1.72-.32.76-.98 1.17-.66.4-1.38.4-.53 0-.95-.21-.42-.24-.69-.56v3.03h-1.04Zm.95-5.47q0 1.2.48 1.78.49.56 1.18.56.7 0 1.2-.6.5-.59.5-1.84 0-1.18-.48-1.76-.49-.6-1.18-.6-.67 0-1.18.63-.52.63-.52 1.83Zm6.05-4.3v-1.22h1.06v1.22h-1.06Zm0 7.38v-6.22h1.06v6.22h-1.06ZM74.75 165.63v-8.61h.95v.8q.34-.47.77-.7.43-.24 1.04-.24.8 0 1.4.4.62.4.92 1.16.3.75.3 1.64 0 .95-.34 1.72-.32.76-.98 1.17-.66.4-1.38.4-.53 0-.95-.21-.42-.24-.69-.56v3.03h-1.04Zm.95-5.47q0 1.2.48 1.78.49.56 1.18.56.7 0 1.2-.6.5-.59.5-1.84 0-1.18-.48-1.76-.49-.6-1.18-.6-.67 0-1.18.63-.52.62-.52 1.83Zm6.05-4.3v-1.22h1.06v1.22h-1.06Zm0 7.38v-6.22h1.06v6.22h-1.06Zm3 0v-8.6h1.06v4.9l2.48-2.52h1.38l-2.4 2.3 2.63 3.92h-1.3l-2.06-3.2-.73.73v2.47h-1.06Zm7.72 0-2.36-6.22h1.1l1.35 3.72q.2.6.39 1.25.14-.49.4-1.18l1.38-3.8h1.08l-2.36 6.23h-.98Zm3.28 0v-6.22h.93v.87q.3-.47.79-.73.48-.28 1.1-.28.7 0 1.13.28.45.28.63.8.75-1.08 1.92-1.08.93 0 1.42.51.5.5.5 1.58v4.27h-1.05v-3.93q0-.62-.1-.9t-.37-.46q-.26-.17-.64-.17-.65 0-1.1.44-.41.44-.41 1.4v3.62h-1.07v-4.05q0-.7-.26-1.05-.25-.36-.83-.36-.45 0-.83.24-.37.23-.54.68-.18.46-.18 1.3v3.24h-1.04ZM72.83 177.77v-.93q-.74 1.07-1.99 1.07-.55 0-1.03-.2-.47-.23-.7-.54-.24-.33-.33-.8-.06-.3-.06-.98v-3.84h1.06V175q0 .81.06 1.11.1.4.4.66.34.23.82.23.47 0 .87-.23.43-.25.6-.68.19-.42.19-1.21v-3.33h1.04v6.22h-.94Zm3.89 0h-.99v-8.6h1.06v3.06q.68-.82 1.7-.82.59 0 1.09.23.51.22.84.64.34.42.53 1.02.19.6.19 1.26 0 1.6-.8 2.47-.8.88-1.89.88-1.1 0-1.73-.93v.79Zm-.02-3.16q0 1.1.31 1.6.5.82 1.35.82.68 0 1.18-.6.52-.59.52-1.79 0-1.22-.48-1.8-.49-.57-1.18-.57-.68 0-1.2.6-.5.6-.5 1.74Zm10.13 3.16v-.93q-.74 1.07-1.99 1.07-.55 0-1.03-.2-.47-.23-.7-.54-.24-.33-.33-.8-.06-.3-.06-.98v-3.84h1.06V175q0 .81.06 1.11.1.4.4.66.34.23.82.23.47 0 .87-.23.43-.25.6-.68.19-.42.19-1.21v-3.33h1.04v6.22h-.94Zm2.92 0v-6.22h.93v.87q.7-1.01 1.99-1.01.56 0 1.03.2.48.2.72.53.23.33.33.77.04.3.04 1.03v3.83h-1.04v-3.79q0-.65-.13-.96-.12-.32-.44-.5-.3-.2-.73-.2-.67 0-1.17.43-.49.42-.49 1.61v3.4h-1.04Zm9.3-.94.15.92q-.45.1-.8.1-.58 0-.89-.18-.31-.19-.45-.48-.13-.3-.13-1.25v-3.58h-.76v-.81h.76V170l1.05-.62v2.17h1.06v.81h-1.06V176q0 .45.05.58.06.12.19.2.12.08.36.08.18 0 .46-.03Zm4.78.94v-.93q-.74 1.07-1.99 1.07-.55 0-1.03-.2-.47-.23-.7-.54-.24-.33-.33-.8-.06-.3-.06-.98v-3.84h1.06V175q0 .81.06 1.11.1.4.4.66.34.23.82.23.47 0 .87-.23.43-.25.6-.68.19-.42.19-1.21v-3.33h1.04v6.22h-.94ZM83.8 190.01l1.04.15q-.17 1.06-.87 1.67-.7.6-1.72.6-1.28 0-2.07-.82-.76-.85-.76-2.4 0-1 .33-1.76.34-.76 1.01-1.14.69-.37 1.5-.37 1 0 1.64.51.66.5.85 1.46l-1.03.15q-.14-.62-.52-.94-.38-.32-.9-.32-.8 0-1.3.57t-.5 1.8q0 1.27.48 1.83.49.56 1.25.56.63 0 1.03-.37.42-.38.55-1.18Zm1.56-.82q0-1.74.95-2.57.8-.68 1.95-.68 1.28 0 2.1.84.82.83.82 2.31 0 1.2-.36 1.9-.35.68-1.06 1.07-.69.38-1.5.38-1.3 0-2.1-.83-.8-.85-.8-2.42Zm1.07 0q0 1.18.52 1.78.53.6 1.31.6.8 0 1.31-.6.52-.6.52-1.81 0-1.16-.53-1.75-.52-.6-1.3-.6t-1.31.6q-.52.57-.52 1.78Zm10.35 3.1v-.78q-.6.93-1.74.93-.75 0-1.37-.41-.63-.42-.97-1.16-.34-.73-.34-1.68 0-.93.3-1.7.32-.76.95-1.15.62-.4 1.39-.4.56 0 1 .23.43.24.72.61v-3.08h1.04v8.6h-.98Zm-3.33-3.1q0 1.2.5 1.8.5.57 1.19.57t1.17-.56q.48-.56.48-1.72 0-1.28-.5-1.87-.48-.6-1.2-.6-.7 0-1.17.58-.47.56-.47 1.8Zm10.55 1.1 1.1.13q-.26.95-.96 1.49-.7.53-1.78.53-1.36 0-2.18-.85-.8-.84-.8-2.36 0-1.56.82-2.42.81-.87 2.1-.87 1.24 0 2.03.84.8.84.8 2.4v.27h-4.65q.06 1.03.58 1.58.52.53 1.3.53.57 0 .98-.3.42-.3.66-.96Zm-3.46-1.7h3.47q-.06-.8-.39-1.18-.51-.61-1.31-.61-.73 0-1.23.48-.49.48-.54 1.31ZM92.75 206.83v-8.6h1.04v3.08q.74-.84 1.86-.84.7 0 1.2.28.52.26.74.75.22.47.22 1.39v3.94h-1.05v-3.94q0-.8-.34-1.16-.34-.36-.97-.36-.47 0-.9.25-.4.24-.58.66-.18.4-.18 1.14v3.4h-1.04Zm11.06-.77q-.6.5-1.14.7-.53.2-1.16.2-1.03 0-1.58-.5-.54-.5-.54-1.28 0-.45.2-.82.2-.4.55-.61.34-.24.76-.35.3-.09.94-.17 1.27-.14 1.88-.36v-.26q0-.66-.3-.93-.4-.34-1.2-.34-.74 0-1.1.27-.36.25-.53.9l-1.03-.14q.14-.65.47-1.06.33-.4.94-.63.6-.21 1.4-.21.8 0 1.3.18.5.2.73.47.24.28.33.72.05.27.05.97v1.4q0 1.47.06 1.87.08.39.28.75h-1.1q-.16-.33-.21-.77Zm-.1-2.36q-.57.23-1.71.4-.66.1-.92.23-.27.1-.43.32-.14.22-.14.5 0 .43.31.7.33.29.94.29.61 0 1.08-.27.48-.26.7-.73.18-.36.18-1.05v-.39ZM23.75 221.36v-8.6h1.04v3.08q.74-.84 1.86-.84.7 0 1.2.28.52.26.74.75.22.47.22 1.39v3.94h-1.05v-3.94q0-.8-.34-1.16-.35-.36-.97-.36-.47 0-.9.25-.4.24-.58.66-.18.4-.18 1.14v3.4h-1.04Zm6.6-3.11q0-1.74.96-2.57.8-.68 1.95-.68 1.28 0 2.1.84.82.83.82 2.31 0 1.2-.35 1.9-.36.68-1.07 1.07-.68.38-1.5.38-1.3 0-2.1-.83-.8-.85-.8-2.42Zm1.08 0q0 1.18.52 1.78.53.6 1.31.6.8 0 1.32-.6.51-.6.51-1.82 0-1.15-.53-1.75-.52-.59-1.3-.59t-1.31.6q-.52.57-.52 1.78Zm6.32 3.1v-6.21h.93v.87q.3-.47.79-.73.48-.28 1.1-.28.7 0 1.13.28.45.28.63.8.75-1.08 1.92-1.08.93 0 1.42.51.5.5.5 1.58v4.27h-1.05v-3.93q0-.62-.1-.9t-.37-.46q-.26-.17-.64-.17-.65 0-1.1.44-.41.44-.41 1.4v3.62h-1.07v-4.05q0-.7-.26-1.05-.25-.36-.83-.36-.45 0-.83.24-.37.23-.54.68-.18.46-.18 1.3v3.24h-1.04Zm15.25-2 1.1.13q-.26.95-.96 1.48-.7.54-1.78.54-1.36 0-2.18-.85-.8-.84-.8-2.36 0-1.56.82-2.42.81-.87 2.1-.87 1.24 0 2.03.84.8.84.8 2.39v.28h-4.65q.06 1.03.58 1.58.52.53 1.3.53.57 0 .98-.3.42-.3.66-.96Zm-3.46-1.7h3.47q-.06-.8-.39-1.19-.51-.6-1.31-.6-.73 0-1.23.48-.49.48-.54 1.31Zm10.27 2.94q-.6.5-1.14.7-.53.2-1.16.2-1.03 0-1.58-.5-.54-.5-.54-1.28 0-.45.2-.82.2-.4.55-.61.34-.24.76-.35.3-.09.94-.17 1.27-.14 1.88-.36v-.26q0-.66-.3-.93-.4-.34-1.2-.34-.74 0-1.1.27-.36.25-.53.9l-1.03-.14q.14-.65.47-1.06.33-.4.94-.63.6-.21 1.4-.21.8 0 1.3.18.5.2.73.47.24.28.33.72.05.27.05.97v1.4q0 1.47.06 1.87.08.39.28.75h-1.1q-.16-.33-.21-.77Zm-.1-2.36q-.57.23-1.71.4-.66.1-.92.23-.27.1-.43.32-.14.22-.14.5 0 .43.32.7.32.29.93.29.61 0 1.08-.27.48-.26.7-.73.18-.36.18-1.05v-.39Zm2.62 1.27 1.03-.16q.09.62.48.95.4.33 1.14.33.72 0 1.06-.28.36-.3.36-.7 0-.36-.3-.57-.23-.14-1.09-.36-1.15-.3-1.6-.5-.44-.21-.68-.59-.23-.37-.23-.84 0-.4.18-.77.2-.36.52-.6.25-.16.67-.29.42-.12.92-.12.72 0 1.27.21.56.2.83.57.26.36.36.95l-1.03.14q-.07-.47-.41-.73-.33-.28-.95-.28-.72 0-1.03.25-.32.23-.32.56 0 .2.13.36.14.17.4.28.16.06.94.26 1.13.32 1.56.5.44.2.7.55.24.36.24.9t-.31 1q-.3.46-.88.73-.57.25-1.3.25-1.23 0-1.87-.5-.62-.52-.8-1.5Zm7 0 1.03-.16q.09.62.48.95.4.33 1.14.33.72 0 1.06-.28.36-.3.36-.7 0-.36-.3-.57-.23-.14-1.09-.36-1.15-.3-1.6-.5-.44-.21-.68-.59-.23-.37-.23-.84 0-.4.18-.77.2-.36.52-.6.25-.16.67-.29.42-.12.92-.12.72 0 1.27.21.56.2.83.57.26.36.36.95l-1.03.14q-.07-.47-.41-.73-.33-.28-.95-.28-.72 0-1.03.25-.32.23-.32.56 0 .2.13.36.14.17.4.28.16.06.94.26 1.13.32 1.56.5.44.2.7.55.24.36.24.9t-.31 1q-.3.46-.88.73-.57.25-1.3.25-1.23 0-1.87-.5-.62-.52-.8-1.5Zm7.42-5.52v-1.22h1.06v1.22h-1.06Zm0 7.38v-6.22h1.06v6.22h-1.06Zm2.58-1.86 1.03-.16q.09.62.48.95.4.33 1.14.33.72 0 1.06-.28.36-.3.36-.7 0-.36-.3-.57-.23-.14-1.09-.36-1.15-.3-1.6-.5-.44-.21-.68-.59-.23-.37-.23-.84 0-.4.18-.77.2-.36.52-.6.25-.16.67-.29.42-.12.92-.12.72 0 1.27.21.56.2.83.57.26.36.36.95l-1.03.14q-.07-.47-.41-.73-.33-.28-.95-.28-.72 0-1.03.25-.32.23-.32.56 0 .2.13.36.14.17.4.28.16.06.94.26 1.13.32 1.56.5.44.2.7.55.24.36.24.9t-.31 1q-.3.46-.88.73-.57.25-1.3.25-1.23 0-1.87-.5-.62-.52-.8-1.5Zm9.71.92.16.92q-.45.1-.8.1-.58 0-.89-.18-.31-.19-.45-.48-.13-.3-.13-1.25v-3.58h-.76v-.81h.76v-1.55l1.05-.63v2.18h1.06v.8h-1.06v3.65q0 .45.05.58.06.12.19.2.12.08.36.08.18 0 .46-.03Zm4.77.17q-.6.5-1.14.7-.53.2-1.16.2-1.03 0-1.58-.5-.54-.5-.54-1.28 0-.45.2-.82.2-.4.55-.61.34-.24.76-.35.3-.09.94-.17 1.27-.14 1.88-.36v-.26q0-.66-.3-.93-.4-.34-1.2-.34-.74 0-1.1.27-.36.25-.53.9l-1.03-.14q.14-.65.47-1.06.33-.4.94-.63.6-.21 1.4-.21.8 0 1.3.18.5.2.73.47.24.28.33.72.05.27.05.97v1.4q0 1.47.06 1.87.08.39.28.75h-1.1q-.16-.33-.21-.77Zm-.1-2.36q-.57.23-1.71.4-.66.1-.92.23-.27.1-.43.32-.14.22-.14.5 0 .43.31.7.33.29.94.29.61 0 1.08-.27.48-.26.7-.73.18-.36.18-1.05v-.39Zm3.04 3.13v-6.22h.93v.87q.7-1.01 1.99-1.01.56 0 1.03.2.48.2.72.53.23.33.33.77.04.3.04 1.03v3.83h-1.04v-3.79q0-.65-.13-.96-.12-.32-.44-.5-.3-.2-.73-.2-.67 0-1.17.43-.49.42-.49 1.6v3.42h-1.04Zm9.3-.94.15.92q-.45.1-.8.1-.58 0-.89-.18-.31-.19-.45-.48-.13-.3-.13-1.25v-3.58h-.76v-.81h.76v-1.55l1.05-.63v2.18h1.06v.8h-1.06v3.65q0 .45.05.58.06.12.19.2.12.08.36.08.18 0 .46-.03ZM39.75 235.89v-8.6h1.04v3.08q.74-.84 1.86-.84.7 0 1.2.28.52.26.74.75.22.47.22 1.39v3.94h-1.05v-3.94q0-.8-.34-1.16-.34-.36-.97-.36-.47 0-.9.25-.4.24-.58.66-.18.4-.18 1.14v3.4h-1.04Zm6.6-3.11q0-1.74.96-2.57.8-.68 1.95-.68 1.28 0 2.1.84.82.83.82 2.31 0 1.2-.35 1.9-.36.68-1.07 1.07-.68.38-1.5.38-1.3 0-2.1-.83-.8-.85-.8-2.42Zm1.08 0q0 1.18.52 1.78.53.6 1.31.6.8 0 1.32-.6.51-.6.51-1.82 0-1.15-.53-1.75-.52-.59-1.3-.59t-1.31.6q-.52.57-.52 1.78Zm6.32 3.1v-6.21h.93v.87q.3-.47.79-.73.48-.28 1.1-.28.7 0 1.13.28.45.28.63.8.75-1.08 1.92-1.08.93 0 1.42.51.5.5.5 1.58v4.27h-1.05v-3.93q0-.62-.1-.9t-.37-.46q-.26-.17-.64-.17-.65 0-1.1.44-.41.44-.41 1.4v3.62h-1.07v-4.05q0-.7-.26-1.05-.25-.36-.83-.36-.45 0-.83.24-.37.23-.54.68-.18.46-.18 1.3v3.24h-1.04Zm15.25-2 1.1.13q-.26.95-.96 1.48-.7.54-1.78.54-1.36 0-2.18-.85-.8-.84-.8-2.36 0-1.56.82-2.42.81-.87 2.1-.87 1.24 0 2.03.84.8.84.8 2.39v.28h-4.65q.06 1.03.58 1.58.52.53 1.3.53.57 0 .98-.3.42-.3.66-.96Zm-3.46-1.7h3.47q-.06-.8-.39-1.19-.51-.6-1.31-.6-.73 0-1.23.48-.49.48-.54 1.31Zm7.18 3.7h-.99v-8.59h1.06v3.06q.68-.82 1.7-.82.59 0 1.09.23.51.22.84.64.34.42.53 1.02.19.59.19 1.26 0 1.6-.8 2.47-.8.88-1.89.88-1.1 0-1.73-.93v.79Zm-.02-3.15q0 1.1.31 1.6.5.82 1.35.82.68 0 1.18-.6.52-.59.52-1.79 0-1.22-.48-1.8-.49-.57-1.18-.57-.68 0-1.2.6-.5.6-.5 1.74Zm6.03 3.16v-6.22h.95v.93q.36-.65.66-.86.31-.21.69-.21.53 0 1.08.32l-.36.99q-.4-.24-.77-.24-.36 0-.64.22-.27.2-.37.58-.2.56-.2 1.22v3.27h-1.04Zm4.02-7.38v-1.22h1.06v1.22h-1.06Zm0 7.38v-6.22h1.06v6.22h-1.06Zm7.03 0v-.79q-.6.93-1.74.93-.75 0-1.37-.41-.63-.42-.97-1.16-.34-.73-.34-1.68 0-.93.3-1.7.32-.76.95-1.15.62-.4 1.39-.4.56 0 1 .23.43.23.72.6v-3.07h1.04v8.6h-.98Zm-3.33-3.11q0 1.2.5 1.8.5.57 1.19.57t1.17-.56q.48-.56.48-1.72 0-1.28-.5-1.88-.48-.59-1.2-.59-.7 0-1.17.58-.47.56-.47 1.8Zm6.1 3.62 1.03.16q.06.47.35.68.4.3 1.07.3.73 0 1.12-.3.4-.3.55-.8.1-.34.08-1.37-.7.82-1.72.82-1.28 0-1.99-.93-.7-.93-.7-2.22 0-.89.31-1.64.33-.76.94-1.17.61-.4 1.44-.4 1.1 0 1.83.89v-.75h.97v5.37q0 1.45-.3 2.06-.3.61-.94.96-.64.36-1.58.36-1.1 0-1.8-.5-.68-.5-.67-1.52Zm.87-3.73q0 1.22.48 1.78.49.56 1.22.56.74 0 1.22-.56.5-.56.5-1.75 0-1.14-.52-1.72-.5-.58-1.21-.58-.7 0-1.2.58-.5.56-.5 1.69Zm10.58 1.22 1.1.12q-.26.95-.96 1.48-.7.54-1.78.54-1.36 0-2.18-.85-.8-.84-.8-2.36 0-1.56.82-2.42.81-.87 2.1-.87 1.24 0 2.03.84.8.84.8 2.39v.28h-4.65q.06 1.03.58 1.58.52.53 1.3.53.57 0 .98-.3.42-.3.66-.96Zm-3.46-1.7h3.47q-.06-.8-.39-1.2-.51-.6-1.31-.6-.73 0-1.23.48-.49.48-.54 1.31ZM85.75 250.41v-8.59h1.04v3.08q.74-.84 1.86-.84.7 0 1.2.28.52.26.74.75.22.47.22 1.39v3.93h-1.05v-3.93q0-.8-.34-1.16-.34-.36-.97-.36-.47 0-.9.25-.4.24-.58.66-.18.4-.18 1.14v3.4h-1.04Zm11.08 0v-.92q-.74 1.07-1.99 1.07-.55 0-1.03-.2-.47-.23-.7-.54-.24-.33-.33-.8-.06-.3-.06-.98v-3.84h1.06v3.45q0 .81.06 1.1.1.41.4.66.34.24.82.24.47 0 .87-.24.43-.25.6-.67.19-.42.19-1.22v-3.32h1.04v6.21h-.94Zm3.89 0h-.99v-8.59h1.06v3.06q.68-.82 1.7-.82.59 0 1.09.23.51.22.84.64.34.42.53 1.02.19.59.19 1.26 0 1.6-.8 2.47-.8.88-1.89.88-1.1 0-1.73-.93v.78Zm-.02-3.15q0 1.1.31 1.6.5.82 1.35.82.68 0 1.18-.6.52-.59.52-1.79 0-1.22-.48-1.8-.49-.58-1.18-.58-.68 0-1.2.61-.5.6-.5 1.74ZM87.75 264.94v-8.59h1.06v4.9l2.48-2.52h1.38l-2.4 2.3 2.63 3.91h-1.3l-2.06-3.18-.73.72v2.46h-1.06Zm10.06-.76q-.6.5-1.14.7-.53.2-1.16.2-1.03 0-1.58-.5-.54-.5-.54-1.28 0-.45.2-.82.2-.4.55-.61.34-.24.76-.35.3-.1.94-.17 1.27-.14 1.88-.36v-.26q0-.66-.3-.93-.4-.34-1.2-.34-.74 0-1.1.27-.36.25-.53.9l-1.03-.14q.14-.65.47-1.06.33-.4.94-.63.6-.21 1.4-.21.8 0 1.3.18.5.19.73.47.24.28.33.72.05.27.05.97v1.4q0 1.47.06 1.86.08.4.28.75h-1.1q-.16-.32-.21-.76Zm-.1-2.36q-.57.23-1.71.4-.66.1-.92.22-.27.11-.43.33-.14.22-.14.5 0 .42.31.7.33.29.94.29.61 0 1.08-.27.48-.26.7-.73.18-.36.18-1.05v-.39Zm3 3.12v-8.59h1.07v8.6h-1.06Zm3.04-7.37v-1.22h1.06v1.22h-1.06Zm0 7.37v-6.21h1.06v6.21h-1.06ZM46.75 279.47v-6.21h.93v.87q.3-.47.79-.73.48-.28 1.1-.28.7 0 1.13.28.45.28.63.8.75-1.08 1.92-1.08.93 0 1.42.51.5.5.5 1.58v4.26h-1.05v-3.92q0-.62-.1-.9t-.37-.46q-.26-.17-.64-.17-.65 0-1.1.44-.41.44-.41 1.4v3.61h-1.07v-4.04q0-.7-.26-1.05-.25-.36-.83-.36-.45 0-.83.24-.37.23-.54.68-.18.46-.18 1.3v3.23h-1.04Zm15.25-2 1.1.13q-.26.95-.96 1.48-.7.54-1.78.54-1.36 0-2.18-.85-.8-.84-.8-2.36 0-1.56.82-2.42.81-.87 2.1-.87 1.24 0 2.03.84.8.84.8 2.39v.28h-4.65q.06 1.03.58 1.58.52.53 1.3.53.57 0 .98-.3.42-.3.66-.97Zm-3.46-1.7h3.47q-.06-.8-.39-1.19-.51-.6-1.31-.6-.73 0-1.23.48-.49.48-.54 1.31Zm10.24 3.7v-.78q-.6.93-1.74.93-.75 0-1.37-.41-.63-.42-.97-1.16-.34-.73-.34-1.68 0-.93.3-1.7.32-.76.95-1.15.62-.4 1.39-.4.56 0 1 .23.43.23.72.6v-3.07h1.04v8.6h-.98Zm-3.33-3.1q0 1.2.5 1.8.5.57 1.19.57t1.17-.56q.48-.56.48-1.72 0-1.28-.5-1.88-.48-.59-1.2-.59-.7 0-1.17.58-.47.56-.47 1.8Zm6.3-4.27v-1.22h1.06v1.22h-1.06Zm0 7.37v-6.21h1.06v6.21h-1.06Zm7.06-.76q-.6.5-1.14.7-.53.2-1.16.2-1.03 0-1.58-.5-.54-.5-.54-1.28 0-.45.2-.82.2-.4.55-.61.34-.24.76-.35.3-.1.94-.17 1.27-.14 1.88-.36v-.26q0-.66-.3-.93-.4-.34-1.2-.34-.74 0-1.1.27-.36.25-.53.9l-1.03-.14q.14-.65.47-1.06.33-.4.94-.63.6-.21 1.4-.21.8 0 1.3.18.5.19.73.47.24.28.33.72.05.27.05.97v1.4q0 1.47.06 1.86.08.4.28.75h-1.1q-.16-.32-.21-.76Zm-.1-2.36q-.57.23-1.71.4-.66.1-.92.22-.27.11-.43.33-.14.22-.14.5 0 .42.31.7.33.29.94.29.61 0 1.08-.27.48-.26.7-.73.18-.36.18-1.05v-.4Zm2.62.55v-1.07h3.25v1.07h-3.25Zm4.42 2.57v-6.21h.93v.87q.7-1.01 1.99-1.01.56 0 1.03.2.48.2.72.53.23.33.33.77.04.3.04 1.03v3.82h-1.04v-3.78q0-.65-.13-.97-.12-.3-.44-.5-.3-.2-.73-.2-.67 0-1.17.44-.49.42-.49 1.6v3.41h-1.04Zm11.06-.76q-.6.5-1.14.7-.53.2-1.16.2-1.03 0-1.58-.5-.54-.5-.54-1.28 0-.45.2-.82.2-.4.55-.61.34-.24.76-.35.3-.1.94-.17 1.27-.14 1.88-.36v-.26q0-.66-.3-.93-.4-.34-1.2-.34-.74 0-1.1.27-.36.25-.53.9l-1.03-.14q.14-.65.47-1.06.33-.4.94-.63.6-.21 1.4-.21.8 0 1.3.18.5.19.73.47.24.28.33.72.05.27.05.97v1.4q0 1.47.06 1.86.08.4.28.75h-1.1q-.16-.32-.21-.76Zm-.1-2.36q-.57.23-1.71.4-.66.1-.92.22-.27.11-.43.33-.14.22-.14.5 0 .42.31.7.33.29.94.29.61 0 1.08-.27.48-.26.7-.73.18-.36.18-1.05v-.4Zm2.62 1.27 1.03-.16q.09.62.48.95.4.33 1.14.33.72 0 1.06-.28.36-.3.36-.7 0-.36-.3-.57-.23-.14-1.09-.36-1.15-.3-1.6-.5-.44-.21-.68-.59-.23-.37-.23-.84 0-.41.18-.77.2-.36.52-.6.25-.16.67-.29.42-.12.92-.12.72 0 1.27.21.56.2.83.57.26.36.36.95l-1.03.14q-.07-.47-.41-.73-.33-.29-.95-.29-.72 0-1.03.25-.32.24-.32.57 0 .2.13.36.14.17.4.28.16.06.94.26 1.13.32 1.56.5.44.2.7.55.24.36.24.9t-.31 1q-.3.46-.88.73-.57.25-1.3.25-1.23 0-1.87-.5-.62-.52-.8-1.5ZM85.75 294v-6.21h.93v.87q.7-1.02 1.99-1.02.56 0 1.03.2.48.21.72.54.23.33.33.76.04.3.04 1.04V294h-1.04v-3.78q0-.65-.13-.97-.12-.3-.44-.5-.3-.2-.73-.2-.67 0-1.17.44-.49.42-.49 1.6V294h-1.04Zm11.06-.76q-.6.5-1.14.7-.53.2-1.16.2-1.03 0-1.58-.5-.54-.5-.54-1.28 0-.45.2-.82.2-.4.55-.61.34-.24.76-.35.3-.1.94-.17 1.27-.14 1.88-.36v-.26q0-.66-.3-.93-.4-.34-1.2-.34-.74 0-1.1.27-.36.25-.53.9l-1.03-.14q.14-.66.47-1.06.33-.4.94-.63.6-.22 1.4-.22.8 0 1.3.2.5.18.73.46.24.28.33.72.05.27.05.97v1.4q0 1.47.06 1.86.08.4.28.75h-1.1q-.16-.32-.21-.76Zm-.1-2.36q-.57.23-1.71.4-.66.1-.92.22-.27.11-.43.33-.14.22-.14.5 0 .42.31.7.33.29.94.29.61 0 1.08-.27.48-.26.7-.73.18-.36.18-1.05v-.4Zm2.62 1.26 1.03-.15q.09.62.48.95.4.33 1.14.33.72 0 1.06-.28.36-.3.36-.7 0-.36-.3-.57-.23-.14-1.09-.36-1.15-.3-1.6-.5-.44-.22-.68-.59-.23-.38-.23-.84 0-.41.18-.77.2-.36.52-.6.25-.17.67-.29.42-.13.92-.13.72 0 1.27.22.56.2.83.57.26.36.36.95l-1.03.14q-.07-.47-.41-.73-.33-.29-.95-.29-.72 0-1.03.25-.32.24-.32.57 0 .2.13.36.14.17.4.28.16.06.94.26 1.13.32 1.56.5.44.19.7.55.24.36.24.9t-.31 1q-.3.46-.88.72-.57.25-1.3.25-1.23 0-1.87-.5-.62-.51-.8-1.5ZM54.75 308.53v-6.21h.93v.87q.7-1.02 1.99-1.02.56 0 1.03.2.48.21.72.54.23.33.33.76.04.3.04 1.04v3.82h-1.04v-3.78q0-.65-.13-.97-.12-.3-.44-.5-.3-.2-.73-.2-.67 0-1.17.44-.49.42-.49 1.6v3.41h-1.04Zm11.25-2 1.1.13q-.26.95-.96 1.48t-1.78.53q-1.36 0-2.18-.84-.8-.84-.8-2.36 0-1.56.82-2.42.81-.88 2.1-.88 1.24 0 2.03.85.8.84.8 2.39v.28h-4.65q.06 1.03.58 1.58.52.53 1.3.53.57 0 .98-.3.42-.31.66-.97Zm-3.46-1.7h3.47q-.06-.8-.39-1.19-.51-.6-1.31-.6-.73 0-1.23.48-.49.48-.54 1.31Zm5.5 3.7 2.27-3.23-2.1-2.98h1.32l.95 1.45.44.7q.25-.39.47-.69l1.04-1.46h1.27l-2.16 2.92 2.32 3.3h-1.28l-1.29-1.94-.34-.52-1.64 2.45h-1.27Zm8-.93.16.92q-.45.1-.8.1-.58 0-.89-.18-.31-.19-.45-.48-.13-.3-.13-1.25v-3.58h-.76v-.81h.76v-1.55l1.05-.63v2.18h1.06v.8h-1.06v3.65q0 .45.05.58.06.12.19.2.12.08.36.08.18 0 .46-.03Zm4.77-1.35 1.03.14q-.17 1.07-.87 1.68-.7.6-1.72.6-1.28 0-2.07-.82-.76-.85-.76-2.41 0-1 .33-1.75.34-.77 1.01-1.14.69-.38 1.5-.38 1 0 1.64.52.66.5.85 1.45l-1.03.16q-.14-.63-.52-.94-.38-.33-.9-.33-.8 0-1.3.58-.5.56-.5 1.8 0 1.26.48 1.83.49.56 1.25.56.63 0 1.03-.38.42-.37.55-1.17Zm1.9 2.28v-8.59h1.07v8.6h-1.06Zm2.65-3.1q0-1.74.95-2.57.8-.69 1.95-.69 1.28 0 2.1.85.82.83.82 2.31 0 1.2-.36 1.9-.35.68-1.06 1.07-.69.37-1.5.37-1.3 0-2.1-.82-.8-.85-.8-2.43Zm1.07 0q0 1.18.52 1.78.53.59 1.31.59.8 0 1.31-.6.52-.59.52-1.8 0-1.16-.53-1.76-.52-.59-1.3-.59t-1.31.6q-.52.57-.52 1.77Zm10.4 3.1v-.92q-.74 1.06-1.99 1.06-.55 0-1.03-.2-.47-.22-.7-.53-.24-.33-.33-.8-.06-.3-.06-.98v-3.84h1.06v3.45q0 .81.06 1.1.1.41.4.66.34.24.82.24.47 0 .87-.24.43-.25.6-.67.19-.42.19-1.22v-3.32h1.04v6.21h-.94Zm6.95 0v-.78q-.6.92-1.74.92-.75 0-1.37-.4-.63-.42-.97-1.16-.34-.73-.34-1.69 0-.92.3-1.68.32-.77.95-1.16.62-.4 1.39-.4.56 0 1 .23.43.23.72.6v-3.07h1.04v8.6h-.98Zm-3.33-3.1q0 1.2.5 1.8.5.57 1.19.57t1.17-.56q.48-.57.48-1.72 0-1.28-.5-1.88-.48-.59-1.2-.59-.7 0-1.17.58-.47.56-.47 1.8ZM73.36 319.95q0-1.73.95-2.56.8-.69 1.95-.69 1.28 0 2.1.85.82.83.82 2.31 0 1.2-.36 1.9-.35.68-1.06 1.07-.69.37-1.5.37-1.3 0-2.1-.82-.8-.85-.8-2.43Zm1.07 0q0 1.2.52 1.79.53.59 1.31.59.8 0 1.31-.6.52-.59.52-1.8 0-1.16-.53-1.76-.52-.6-1.3-.6t-1.31.6q-.52.58-.52 1.78Zm10.38.83 1.03.14q-.17 1.07-.87 1.68-.7.6-1.72.6-1.28 0-2.07-.82-.76-.85-.76-2.41 0-1 .33-1.75.34-.77 1.01-1.14.69-.38 1.5-.38 1 0 1.64.52.66.5.85 1.45l-1.03.16q-.14-.63-.52-.94-.38-.33-.9-.33-.8 0-1.3.58-.5.56-.5 1.8 0 1.26.48 1.83.49.56 1.25.56.63 0 1.03-.38.42-.37.55-1.17Zm4.23 1.35.16.92q-.45.1-.8.1-.58 0-.89-.18-.31-.19-.45-.48-.13-.3-.13-1.25v-3.58h-.76v-.81h.76v-1.55l1.05-.63v2.18h1.06v.8h-1.06v3.65q0 .45.05.58.06.12.19.2.12.08.36.08.18 0 .46-.03Zm.32-2.18q0-1.73.95-2.56.8-.69 1.95-.69 1.28 0 2.1.85.82.83.82 2.31 0 1.2-.36 1.9-.35.68-1.06 1.07-.69.37-1.5.37-1.3 0-2.1-.82-.8-.85-.8-2.43Zm1.07 0q0 1.2.52 1.79.53.59 1.31.59.8 0 1.31-.6.52-.59.52-1.8 0-1.16-.53-1.76-.52-.6-1.3-.6t-1.31.6q-.52.58-.52 1.78Zm6.32 5.5v-8.6h.95v.8q.34-.48.77-.71.43-.24 1.04-.24.8 0 1.4.41.62.4.92 1.16.3.75.3 1.64 0 .95-.34 1.72-.32.76-.98 1.17-.66.4-1.38.4-.53 0-.95-.21-.42-.24-.69-.57v3.03h-1.04Zm.95-5.46q0 1.2.48 1.78.49.56 1.18.56.7 0 1.2-.6.5-.59.5-1.84 0-1.19-.48-1.76-.49-.6-1.18-.6-.67 0-1.18.63-.52.62-.52 1.83Zm6.05-4.3v-1.22h1.06v1.22h-1.06Zm0 7.37v-6.21h1.06v6.21h-1.06ZM52.75 339.98v-8.6h.95v.8q.34-.48.77-.71.43-.24 1.04-.24.8 0 1.4.41.62.4.92 1.16.3.75.3 1.64 0 .95-.34 1.72-.32.76-.98 1.17-.66.4-1.38.4-.53 0-.95-.21-.42-.24-.69-.57v3.03h-1.04Zm.95-5.46q0 1.2.48 1.78.49.56 1.18.56.7 0 1.2-.6.5-.59.5-1.84 0-1.19-.48-1.76-.49-.6-1.18-.6-.67 0-1.18.63-.52.62-.52 1.83Zm10.1 2.3q-.58.5-1.13.71-.53.2-1.16.2-1.03 0-1.58-.5-.54-.5-.54-1.28 0-.45.2-.83.2-.39.55-.6.34-.24.76-.35.3-.1.94-.17 1.27-.14 1.88-.36v-.27q0-.65-.3-.92-.4-.34-1.2-.34-.74 0-1.1.26-.36.25-.53.91l-1.03-.14q.14-.66.47-1.06.33-.4.94-.63.6-.22 1.4-.22.8 0 1.3.2.5.18.73.46.24.28.33.72.05.26.05.97v1.4q0 1.47.06 1.86.08.4.28.75h-1.1q-.16-.32-.21-.76Zm-.08-2.35q-.58.23-1.72.4-.66.1-.92.22-.27.11-.43.33-.14.22-.14.5 0 .42.32.7.32.29.93.29.61 0 1.08-.27.48-.27.7-.73.18-.36.18-1.05v-.4Zm2.98 5.51-.13-.98q.35.1.61.1.35 0 .55-.13.22-.11.36-.31.1-.18.33-.8.01-.08.1-.25l-2.38-6.24h1.14l1.3 3.6q.25.69.45 1.45.19-.73.44-1.42l1.32-3.63h1.05l-2.36 6.33q-.39 1.02-.6 1.4-.27.54-.65.77-.36.25-.86.25-.3 0-.67-.14Zm5.05-2.39v-6.22h.93v.88q.3-.47.79-.73.48-.29 1.1-.29.7 0 1.13.29.45.28.63.8.75-1.09 1.92-1.09.93 0 1.42.52.5.5.5 1.58v4.26h-1.05v-3.92q0-.62-.1-.9-.1-.29-.37-.46-.26-.17-.64-.17-.65 0-1.1.44-.41.44-.41 1.4v3.61h-1.07v-4.04q0-.7-.26-1.05-.25-.36-.83-.36-.45 0-.83.23-.37.24-.54.7-.18.45-.18 1.29v3.23h-1.04Zm15.25-2 1.1.13q-.26.95-.96 1.48t-1.78.53q-1.36 0-2.18-.84-.8-.84-.8-2.36 0-1.56.82-2.42.81-.88 2.1-.88 1.24 0 2.03.85.8.84.8 2.39v.28h-4.65q.06 1.03.58 1.58.52.53 1.3.53.57 0 .98-.3.42-.31.66-.97Zm-3.46-1.7h3.47q-.06-.8-.39-1.19-.51-.6-1.31-.6-.73 0-1.23.48-.49.48-.54 1.31Zm6.2 3.7v-6.22h.94v.88q.7-1.02 1.99-1.02.56 0 1.03.2.48.21.72.54.23.33.33.76.04.3.04 1.04v3.82h-1.04v-3.78q0-.65-.13-.97-.12-.3-.44-.5-.3-.2-.73-.2-.67 0-1.17.44-.49.42-.49 1.6v3.41h-1.04Zm9.3-.93.16.92q-.45.1-.8.1-.58 0-.89-.18-.31-.19-.45-.48-.13-.3-.13-1.25v-3.58h-.76v-.82h.76v-1.54l1.05-.63v2.17h1.06v.82h-1.06v3.64q0 .45.05.58.06.12.19.2.12.08.36.08.18 0 .46-.03Zm.28-.93 1.04-.15q.09.62.48.95.4.33 1.14.33.72 0 1.06-.28.36-.3.36-.7 0-.36-.3-.57-.23-.14-1.09-.36-1.15-.3-1.6-.5-.44-.22-.68-.6-.23-.37-.23-.83 0-.41.18-.77.2-.36.52-.6.25-.17.67-.3.42-.12.92-.12.72 0 1.27.22.56.2.83.57.26.35.36.95l-1.03.14q-.07-.47-.41-.74-.33-.28-.95-.28-.72 0-1.03.25-.32.24-.32.57 0 .2.13.36.14.17.4.28.16.06.94.26 1.13.31 1.56.5.44.19.7.55.24.36.24.9t-.31 1q-.3.46-.88.72-.57.25-1.3.25-1.23 0-1.87-.5-.62-.51-.8-1.5ZM89.75 354.51v-8.6h.95v.8q.34-.48.77-.71.43-.24 1.04-.24.8 0 1.4.41.62.4.92 1.16.3.75.3 1.64 0 .95-.34 1.72-.32.76-.98 1.17-.66.4-1.38.4-.53 0-.95-.21-.42-.24-.69-.57v3.03h-1.04Zm.95-5.46q0 1.2.48 1.78.49.56 1.18.56.7 0 1.2-.6.5-.59.5-1.84 0-1.19-.48-1.76-.49-.6-1.18-.6-.67 0-1.18.63-.52.62-.52 1.83Zm6.05-4.3v-1.22h1.06v1.22h-1.06Zm0 7.37v-6.22h1.06v6.22h-1.06Zm6.08 0v-2.06H99.1v-.97l3.92-5.56h.86v5.56h1.15v.97h-1.15v2.06h-1.06Zm0-3.03v-3.86l-2.7 3.86h2.7ZM61.75 369.04v-8.6h.95v.8q.34-.48.77-.71.43-.24 1.04-.24.8 0 1.4.41.62.4.92 1.16.3.75.3 1.64 0 .95-.34 1.72-.32.76-.98 1.17-.66.4-1.38.4-.53 0-.95-.22-.42-.23-.69-.56v3.03h-1.04Zm.95-5.47q0 1.2.48 1.79.49.56 1.18.56.7 0 1.2-.6.5-.59.5-1.84 0-1.19-.48-1.76-.49-.6-1.18-.6-.67 0-1.18.63-.52.62-.52 1.82Zm6.05-4.3v-1.21h1.06v1.22h-1.06Zm0 7.38v-6.22h1.06v6.22h-1.06Zm3 0v-8.6h1.04v3.09q.74-.85 1.86-.85.7 0 1.2.28.52.27.74.75.22.47.22 1.4v3.93h-1.05v-3.93q0-.8-.34-1.16-.34-.36-.97-.36-.47 0-.9.25-.4.23-.58.66-.18.4-.18 1.14v3.4h-1.04Zm6.6-3.1q0-1.74.96-2.57.8-.69 1.95-.69 1.28 0 2.1.85.82.83.82 2.31 0 1.2-.36 1.9-.35.68-1.06 1.07-.69.37-1.5.37-1.3 0-2.1-.82-.8-.85-.8-2.43Zm1.08 0q0 1.18.52 1.77.53.6 1.31.6.8 0 1.31-.6.52-.59.52-1.8 0-1.16-.53-1.76-.52-.6-1.3-.6t-1.31.6q-.52.58-.52 1.78Zm6.29 3.1v-8.6h1.06v8.6h-1.06Zm7.28-2 1.1.13q-.26.95-.96 1.48t-1.78.53q-1.36 0-2.18-.84-.8-.84-.8-2.36 0-1.56.82-2.42.81-.88 2.1-.88 1.24 0 2.03.85.8.84.8 2.39v.28h-4.65q.06 1.03.58 1.58.52.53 1.3.53.57 0 .98-.3.42-.31.66-.97Zm-3.46-1.7h3.47q-.06-.8-.39-1.19-.51-.6-1.31-.6-.73 0-1.23.48-.49.48-.54 1.31Zm5.78 1.12v-1.06h3.26v1.06h-3.25Zm8.1 2.58h-1.05v-6.72q-.39.36-1.01.74-.61.36-1.1.53v-1.02q.88-.42 1.53-1 .68-.59.96-1.15h.67v8.62ZM61.75 383.57v-8.6h.95v.8q.34-.48.77-.71.43-.24 1.04-.24.8 0 1.4.41.62.4.92 1.16.3.75.3 1.64 0 .95-.34 1.72-.32.76-.98 1.17-.66.4-1.38.4-.53 0-.95-.22-.42-.23-.69-.56v3.03h-1.04Zm.95-5.47q0 1.2.48 1.79.49.56 1.18.56.7 0 1.2-.6.5-.59.5-1.84 0-1.19-.48-1.76-.49-.6-1.18-.6-.67 0-1.18.63-.52.62-.52 1.82Zm6.05-4.3v-1.21h1.06v1.22h-1.06Zm0 7.38v-6.22h1.06v6.22h-1.06Zm3 0v-8.6h1.04v3.09q.74-.85 1.86-.85.7 0 1.2.28.52.27.74.75.22.47.22 1.4v3.93h-1.05v-3.93q0-.8-.34-1.16-.34-.36-.97-.36-.47 0-.9.25-.4.23-.58.66-.18.4-.18 1.14v3.4h-1.04Zm6.6-3.1q0-1.74.96-2.57.8-.69 1.95-.69 1.28 0 2.1.85.82.83.82 2.31 0 1.2-.36 1.89-.35.69-1.06 1.08-.69.37-1.5.37-1.3 0-2.1-.82-.8-.85-.8-2.43Zm1.08 0q0 1.18.52 1.77.53.6 1.31.6.8 0 1.31-.6.52-.59.52-1.8 0-1.16-.53-1.76-.52-.6-1.3-.6t-1.31.6q-.52.58-.52 1.78Zm6.29 3.1v-8.6h1.06v8.6h-1.06Zm7.28-2 1.1.13q-.26.95-.96 1.48t-1.78.53q-1.36 0-2.18-.84-.8-.84-.8-2.36 0-1.56.82-2.42.81-.88 2.1-.88 1.24 0 2.03.85.8.84.8 2.39v.28h-4.65q.06 1.03.58 1.58.52.53 1.3.53.57 0 .98-.3.42-.31.66-.97Zm-3.46-1.7h3.47q-.06-.8-.39-1.19-.51-.6-1.31-.6-.73 0-1.23.48-.49.48-.54 1.31Zm5.78 1.12v-1.06h3.26v1.06h-3.25Zm9.68 1.57v1.01h-5.7q0-.37.13-.73.22-.58.7-1.14.48-.56 1.38-1.3 1.4-1.16 1.9-1.83.5-.67.5-1.26 0-.63-.46-1.05-.45-.44-1.17-.44-.77 0-1.22.46-.45.45-.47 1.26l-1.08-.1q.11-1.23.83-1.85.73-.64 1.97-.64 1.23 0 1.95.69.72.68.72 1.7 0 .51-.22 1.01-.2.49-.7 1.05-.48.55-1.61 1.5-.95.8-1.23 1.1-.27.28-.44.56H105ZM67.75 398.1v-8.6h.95v.8q.34-.48.77-.71.43-.24 1.04-.24.8 0 1.4.4.62.42.92 1.17.3.75.3 1.64 0 .95-.34 1.72-.32.76-.98 1.17-.66.4-1.38.4-.53 0-.95-.22-.42-.23-.69-.56v3.03h-1.04Zm.95-5.47q0 1.2.48 1.79.49.56 1.18.56.7 0 1.2-.6.5-.59.5-1.84 0-1.19-.48-1.76-.49-.6-1.18-.6-.67 0-1.18.63-.52.62-.52 1.82Zm5.66-.03q0-1.73.95-2.56.8-.69 1.95-.69 1.28 0 2.1.85.82.83.82 2.31 0 1.2-.36 1.89-.35.69-1.06 1.08-.69.37-1.5.37-1.3 0-2.1-.82-.8-.85-.8-2.43Zm1.07 0q0 1.2.52 1.78.53.6 1.31.6.8 0 1.31-.6.52-.59.52-1.8 0-1.16-.53-1.76-.52-.6-1.3-.6t-1.31.6q-.52.58-.52 1.78Zm6.32 5.5v-8.6h.95v.8q.34-.48.77-.71.43-.24 1.04-.24.8 0 1.4.4.62.42.92 1.17.3.75.3 1.64 0 .95-.34 1.72-.32.76-.98 1.17-.66.4-1.38.4-.53 0-.95-.22-.42-.23-.69-.56v3.03h-1.04Zm.95-5.47q0 1.2.48 1.79.49.56 1.18.56.7 0 1.2-.6.5-.59.5-1.84 0-1.19-.48-1.76-.49-.6-1.18-.6-.67 0-1.18.63-.52.62-.52 1.82Zm5.63.5v-1.06h3.25v1.06h-3.25Zm4.03-.53q0-1.73.95-2.56.8-.69 1.95-.69 1.28 0 2.1.85.82.83.82 2.31 0 1.2-.36 1.89-.35.69-1.06 1.08-.69.37-1.5.37-1.3 0-2.1-.82-.8-.85-.8-2.43Zm1.07 0q0 1.2.52 1.78.53.6 1.31.6.8 0 1.31-.6.52-.59.52-1.8 0-1.16-.53-1.76-.52-.6-1.3-.6t-1.31.6q-.52.58-.52 1.78Zm5.9 1.25 1.03-.15q.09.62.48.95.4.33 1.14.33.72 0 1.06-.28.36-.3.36-.7 0-.37-.3-.57-.23-.14-1.09-.36-1.15-.3-1.6-.5-.44-.22-.68-.6-.23-.37-.23-.84 0-.4.18-.76.2-.36.52-.6.25-.17.67-.3.42-.12.92-.12.72 0 1.27.22.56.2.83.56.26.36.36.96l-1.03.14q-.07-.47-.41-.74-.33-.28-.95-.28-.72 0-1.03.25-.32.24-.32.57 0 .2.13.35.14.18.4.29.16.06.94.26 1.13.31 1.56.5.44.19.7.55.24.36.24.9t-.31 1q-.3.46-.88.72-.57.25-1.3.25-1.23 0-1.87-.5-.62-.51-.8-1.5ZM87.75 412.63v-8.6h.95v.8q.34-.48.77-.71.43-.24 1.04-.24.8 0 1.4.4.62.42.92 1.17.3.75.3 1.64 0 .95-.34 1.71-.32.77-.98 1.18-.66.4-1.38.4-.53 0-.95-.22-.42-.23-.69-.56v3.03h-1.04Zm.95-5.47q0 1.2.48 1.79.49.56 1.18.56.7 0 1.2-.6.5-.59.5-1.84 0-1.19-.48-1.77-.49-.59-1.18-.59-.67 0-1.18.63-.52.62-.52 1.82Zm7.77 3.08-2.36-6.22h1.1l1.35 3.72.39 1.25q.14-.48.4-1.17l1.38-3.8h1.08l-2.36 6.22h-.98Zm7.53-2 1.1.13q-.26.95-.96 1.48t-1.78.53q-1.36 0-2.18-.84-.8-.84-.8-2.36 0-1.56.82-2.42.81-.88 2.1-.88 1.24 0 2.03.85.8.84.8 2.39v.28h-4.65q.06 1.03.58 1.58.52.53 1.3.53.57 0 .98-.3.42-.31.66-.97Zm-3.46-1.7h3.47q-.06-.8-.39-1.19-.51-.6-1.31-.6-.73 0-1.23.48-.49.48-.54 1.3ZM108.95 428.82q0-1.54.31-2.46.31-.94.92-1.44.63-.5 1.57-.5.68 0 1.2.29.53.28.88.8.34.52.53 1.27.18.75.18 2.04 0 1.51-.3 2.43-.3.93-.93 1.44-.61.5-1.56.5-1.24 0-1.96-.89-.84-1.06-.84-3.48Zm1.08 0q0 2.1.5 2.8.5.71 1.22.71.73 0 1.22-.7.5-.7.5-2.81 0-2.13-.5-2.82-.49-.7-1.24-.7-.72 0-1.16.6-.54.8-.54 2.92ZM205.85 432.03v1.02h-5.7q0-.38.13-.73.22-.58.7-1.14.48-.57 1.38-1.3 1.4-1.16 1.9-1.83.5-.67.5-1.27 0-.62-.46-1.04-.45-.44-1.17-.44-.77 0-1.22.45-.45.46-.47 1.27l-1.08-.11q.11-1.22.83-1.84.74-.64 1.97-.64t1.95.68q.72.69.72 1.7 0 .52-.22 1.02-.2.49-.7 1.05-.48.55-1.61 1.5-.95.8-1.23 1.1-.27.27-.44.55h4.22ZM295.02 433.05v-2.06h-3.71v-.97l3.92-5.56h.86v5.56h1.15v.97h-1.15v2.06h-1.06Zm0-3.03v-3.86l-2.68 3.86h2.69ZM388.47 426.57l-1.05.07q-.14-.62-.39-.9-.44-.46-1.06-.46-.5 0-.9.29-.48.37-.77 1.07-.28.7-.3 1.97.38-.58.92-.86.56-.28 1.17-.28 1.05 0 1.79.78.75.78.75 2 0 .82-.36 1.52-.35.69-.96 1.06-.6.36-1.37.36-1.33 0-2.16-.97-.83-.97-.83-3.19 0-2.5.93-3.62.8-.99 2.15-.99 1.02 0 1.66.58.65.57.78 1.57Zm-4.3 3.7q0 .55.22 1.05.24.48.64.75.42.26.9.26.65 0 1.13-.53.49-.55.49-1.47 0-.89-.49-1.4-.47-.52-1.19-.52-.71 0-1.21.51-.49.52-.49 1.35ZM475.98 428.4q-.66-.26-.99-.7-.31-.45-.31-1.06 0-.93.67-1.57.69-.64 1.8-.64 1.12 0 1.8.65.7.66.7 1.6 0 .59-.32 1.03-.3.43-.95.68.8.25 1.2.83.41.58.41 1.38 0 1.1-.78 1.84-.77.75-2.05.75-1.26 0-2.04-.75-.79-.75-.79-1.87 0-.85.43-1.41.43-.56 1.22-.77Zm-.22-1.8q0 .6.39 1 .4.39 1.03.39.6 0 1-.38.39-.39.39-.95 0-.58-.4-.97-.41-.4-1-.4-.62 0-1.02.38-.4.4-.4.93Zm-.33 3.97q0 .45.2.87.22.42.64.66.42.23.9.23.76 0 1.24-.48.5-.49.5-1.24 0-.76-.5-1.26t-1.26-.5q-.75 0-1.24.5-.48.48-.48 1.22ZM566.17 433.05h-1.05v-6.72q-.39.36-1.01.74-.61.36-1.1.53v-1.02q.88-.42 1.53-1 .68-.6.96-1.15h.67v8.62Zm3.03-4.23q0-1.54.31-2.46.32-.94.92-1.44.63-.5 1.57-.5.68 0 1.2.29.53.28.88.8.34.52.53 1.27.18.75.18 2.04 0 1.51-.3 2.43-.3.93-.93 1.44-.61.5-1.56.5-1.24 0-1.96-.89-.84-1.06-.84-3.48Zm1.08 0q0 2.1.5 2.8.5.71 1.22.71.73 0 1.22-.7.5-.7.5-2.81 0-2.13-.5-2.82-.49-.7-1.24-.7-.72 0-1.15.6-.55.8-.55 2.92ZM657.52 433.05h-1.05v-6.72q-.39.36-1.01.74-.61.36-1.1.53v-1.02q.88-.42 1.53-1 .68-.6.96-1.15h.67v8.62Zm8.58-1.02v1.02h-5.7q0-.38.13-.73.22-.58.7-1.14.48-.57 1.38-1.3 1.4-1.16 1.9-1.83.5-.67.5-1.27 0-.62-.46-1.04-.45-.44-1.17-.44-.77 0-1.22.45-.45.46-.47 1.27l-1.08-.11q.11-1.22.83-1.84.73-.64 1.97-.64 1.23 0 1.95.68.72.69.72 1.7 0 .52-.22 1.02-.2.49-.7 1.05-.49.55-1.61 1.5-.95.8-1.23 1.1-.27.27-.44.55h4.22ZM263.77 36.93l1.89.47q-.6 2.35-2.14 3.58-1.55 1.22-3.8 1.22-2.31 0-3.77-.94-1.43-.95-2.2-2.73-.75-1.8-.75-3.85 0-2.23.84-3.89.86-1.67 2.44-2.53 1.58-.87 3.47-.87 2.16 0 3.6 1.1 1.48 1.09 2.06 3.07l-1.86.44q-.5-1.57-1.46-2.27-.93-.72-2.37-.72-1.66 0-2.77.8-1.1.78-1.56 2.12-.44 1.33-.44 2.74 0 1.83.53 3.2.54 1.36 1.66 2.03 1.13.68 2.42.68 1.6 0 2.7-.93 1.12-.92 1.5-2.72Zm2.9-.17q0-2.87 1.6-4.26 1.34-1.16 3.26-1.16 2.14 0 3.49 1.4 1.36 1.41 1.36 3.88 0 2-.6 3.16-.6 1.14-1.75 1.78-1.14.62-2.5.62-2.19 0-3.53-1.39-1.33-1.4-1.33-4.03Zm1.8 0q0 2 .86 2.99.87.98 2.2.98 1.31 0 2.17-.98.88-1 .88-3.05 0-1.92-.88-2.9-.87-1-2.17-1-1.33 0-2.2 1-.86.98-.86 2.96Zm9.84 5.19V31.57h1.58v1.46q.49-.75 1.3-1.22t1.84-.47q1.16 0 1.9.48.73.47 1.04 1.33 1.23-1.8 3.2-1.8 1.55 0 2.38.85.82.86.82 2.63v7.12h-1.75v-6.53q0-1.06-.17-1.52-.17-.47-.62-.75-.44-.28-1.05-.28-1.1 0-1.83.74-.72.72-.72 2.3v6.04h-1.75v-6.73q0-1.18-.43-1.75-.43-.6-1.4-.6-.74 0-1.38.4-.63.38-.91 1.13-.28.75-.28 2.18v5.37h-1.77Zm16 0V31.57h1.58v1.46q.49-.75 1.3-1.22t1.84-.47q1.16 0 1.9.48.73.47 1.04 1.33 1.23-1.8 3.2-1.8 1.55 0 2.38.85.82.86.82 2.63v7.12h-1.75v-6.53q0-1.06-.17-1.52-.17-.47-.62-.75-.44-.28-1.05-.28-1.1 0-1.83.74-.72.72-.72 2.3v6.04h-1.75v-6.73q0-1.18-.43-1.75-.43-.6-1.4-.6-.74 0-1.38.4-.63.38-.91 1.13-.28.75-.28 2.18v5.37h-1.77Zm15.36-5.19q0-2.87 1.6-4.26 1.34-1.16 3.26-1.16 2.14 0 3.49 1.4 1.36 1.41 1.36 3.88 0 2-.6 3.16-.6 1.14-1.75 1.78-1.14.62-2.5.62-2.19 0-3.53-1.39-1.33-1.4-1.33-4.03Zm1.8 0q0 2 .86 2.99.87.98 2.2.98 1.31 0 2.17-.98.88-1 .88-3.05 0-1.92-.88-2.9-.87-1-2.17-1-1.33 0-2.2 1-.86.98-.86 2.96Zm9.84 5.19V31.57h1.6v1.49q1.14-1.72 3.3-1.72.93 0 1.71.34.8.33 1.19.88.39.55.55 1.3.09.5.09 1.72v6.37h-1.77v-6.31q0-1.08-.2-1.61t-.73-.85q-.52-.3-1.22-.3-1.13 0-1.94.71-.81.7-.81 2.69v5.67h-1.77Zm16 0V27.64h1.77v5.12q1.23-1.42 3.1-1.42 1.15 0 2 .45.85.46 1.21 1.27.38.8.38 2.31v6.58h-1.75v-6.58q0-1.31-.58-1.9-.58-.61-1.61-.61-.78 0-1.49.4-.68.4-.98 1.11-.28.69-.28 1.9v5.68h-1.77Zm9.36-5.19q0-2.87 1.6-4.26 1.34-1.16 3.26-1.16 2.14 0 3.49 1.4 1.36 1.41 1.36 3.88 0 2-.6 3.16-.6 1.14-1.75 1.78-1.14.62-2.5.62-2.19 0-3.53-1.39-1.33-1.4-1.33-4.03Zm1.8 0q0 2 .86 2.99.87.98 2.2.98 1.31 0 2.17-.98.88-1 .88-3.05 0-1.92-.88-2.9-.87-1-2.17-1-1.33 0-2.2 1-.86.98-.86 2.96Zm9.14 2.1 1.75-.28q.14 1.04.81 1.6.67.55 1.88.55 1.2 0 1.78-.48.6-.5.6-1.16 0-.6-.52-.94-.36-.23-1.8-.6-1.94-.5-2.69-.83-.73-.36-1.12-.99-.4-.64-.4-1.4 0-.7.32-1.29.33-.59.87-.98.41-.3 1.11-.5.72-.22 1.53-.22 1.22 0 2.14.36.93.34 1.36.95.44.6.61 1.6l-1.71.23q-.13-.8-.7-1.23-.56-.46-1.57-.46-1.22 0-1.74.41-.51.4-.51.92 0 .35.22.63.2.28.67.47.27.09 1.55.43 1.87.5 2.6.83.74.31 1.16.92.42.6.42 1.5 0 .88-.51 1.66-.52.78-1.49 1.2-.96.42-2.18.42-2.02 0-3.08-.84t-1.36-2.48Zm14.55 1.51.25 1.56q-.74.16-1.33.16-.95 0-1.49-.3-.51-.3-.73-.8-.22-.5-.22-2.07v-5.97h-1.28v-1.38h1.28v-2.56l1.75-1.06v3.63h1.77v1.37h-1.77v6.06q0 .75.1.97.09.2.3.35.21.12.6.12.28 0 .77-.08Zm2.15 1.58V31.57h1.6v1.49q1.14-1.72 3.3-1.72.93 0 1.71.34.8.33 1.19.88.39.55.55 1.3.09.5.09 1.72v6.37h-1.77v-6.31q0-1.08-.2-1.61t-.73-.85q-.52-.3-1.22-.3-1.13 0-1.94.71-.81.7-.81 2.69v5.67h-1.77Zm16.78-1.28q-.98.83-1.89 1.17-.9.34-1.93.34-1.7 0-2.63-.82-.92-.85-.92-2.14 0-.77.34-1.4.36-.62.92-1 .57-.39 1.27-.59.52-.12 1.56-.26 2.13-.25 3.13-.6l.01-.47q0-1.06-.5-1.51-.67-.6-2-.6-1.25 0-1.84.44-.58.44-.86 1.55l-1.72-.24q.24-1.1.77-1.78.53-.68 1.54-1.04 1.02-.38 2.36-.38 1.33 0 2.16.31.83.32 1.22.8.39.47.55 1.19.09.45.09 1.62v2.35q0 2.45.1 3.1.12.65.46 1.24h-1.84q-.27-.55-.35-1.28Zm-.15-3.92q-.96.39-2.88.65-1.08.16-1.53.36-.44.19-.69.57-.25.37-.25.84 0 .7.54 1.17.53.47 1.56.47 1.01 0 1.8-.44.8-.45 1.17-1.22.28-.6.28-1.76v-.64Zm4.37 5.2V31.57h1.58v1.46q.49-.75 1.3-1.22t1.84-.47q1.16 0 1.9.48.73.47 1.04 1.33 1.23-1.8 3.2-1.8 1.55 0 2.38.85.82.86.82 2.63v7.12h-1.75v-6.53q0-1.06-.17-1.52-.17-.47-.62-.75-.44-.28-1.05-.28-1.1 0-1.83.74-.72.72-.72 2.3v6.04h-1.75v-6.73q0-1.18-.43-1.75-.43-.6-1.4-.6-.74 0-1.38.4-.63.38-.91 1.13-.28.75-.28 2.18v5.37h-1.77Zm23.11-3.34 1.81.23q-.42 1.58-1.59 2.47-1.16.87-2.97.87-2.26 0-3.6-1.39-1.34-1.4-1.34-3.93 0-2.63 1.35-4.07 1.34-1.45 3.5-1.45 2.08 0 3.39 1.42 1.33 1.4 1.33 3.99l-.02.47h-7.73q.1 1.7.97 2.6.87.91 2.17.91.97 0 1.64-.5.69-.51 1.1-1.62Zm-5.78-2.85h5.8q-.11-1.3-.66-1.95-.84-1.02-2.19-1.02-1.2 0-2.03.82-.83.8-.92 2.15Zm8.97 3.1 1.75-.28q.14 1.04.81 1.6.67.55 1.88.55 1.2 0 1.78-.48.6-.5.6-1.16 0-.6-.52-.94-.36-.23-1.8-.6-1.94-.5-2.69-.83-.73-.36-1.12-.99-.4-.64-.4-1.4 0-.7.32-1.29.33-.59.87-.98.41-.3 1.11-.5.72-.22 1.53-.22 1.22 0 2.14.36.93.34 1.36.95.44.6.61 1.6l-1.71.23q-.13-.8-.7-1.23-.56-.46-1.57-.46-1.22 0-1.74.41-.51.4-.51.92 0 .35.22.63.2.28.67.47.27.09 1.55.43 1.87.5 2.6.83.74.31 1.16.92.42.6.42 1.5 0 .88-.51 1.66-.52.78-1.49 1.2-.96.42-2.18.42-2.02 0-3.08-.84t-1.36-2.48Z"/></svg>