<?xml version="1.0" encoding="UTF-8" standalone="no"?>
<!DOCTYPE svg PUBLIC "-//W3C//DTD SVG 1.1//EN"
 "http://www.w3.org/Graphics/SVG/1.1/DTD/svg11.dtd">
<!-- Generated by graphviz version 2.40.1 (20161225.0304)
 -->
<!-- Title: G Pages: 1 -->
<svg width="1081pt" height="859pt"
 viewBox="0.00 0.00 1081.00 859.00" xmlns="http://www.w3.org/2000/svg" xmlns:xlink="http://www.w3.org/1999/xlink">
<g id="graph0" class="graph" transform="scale(1 1) rotate(0) translate(4 855)">
<title>G</title>
<polygon fill="#ffffff" stroke="transparent" points="-4,4 -4,-855 1077,-855 1077,4 -4,4"/>
<!-- alpaca&#45;diatonic -->
<g id="node1" class="node">
<title>alpaca&#45;diatonic</title>
<ellipse fill="none" stroke="#000000" cx="216.6483" cy="-347.2978" rx="64.189" ry="18"/>
<text text-anchor="middle" x="216.6483" y="-343.5978" font-family="Times,serif" font-size="14.00" fill="#000000">alpaca&#45;diatonic</text>
</g>
<!-- chimp&#45;interval -->
<g id="node2" class="node">
<title>chimp&#45;interval</title>
<ellipse fill="none" stroke="#000000" cx="615.1103" cy="-336.9384" rx="63.0888" ry="18"/>
<text text-anchor="middle" x="615.1103" y="-333.2384" font-family="Times,serif" font-size="14.00" fill="#000000">chimp&#45;interval</text>
</g>
<!-- alpaca&#45;diatonic&#45;&#45;chimp&#45;interval -->
<g id="edge1" class="edge">
<title>alpaca&#45;diatonic&#45;&#45;chimp&#45;interval</title>
<path fill="none" stroke="#000000" d="M281.111,-345.6218C355.7793,-343.6806 477.992,-340.5032 552.0562,-338.5777"/>
</g>
<!-- hawk&#45;jazz -->
<g id="node3" class="node">
<title>hawk&#45;jazz</title>
<ellipse fill="none" stroke="#000000" cx="338.0488" cy="-401.7396" rx="46.5926" ry="18"/>
<text text-anchor="middle" x="338.0488" y="-398.0396" font-family="Times,serif" font-size="14.00" fill="#000000">hawk&#45;jazz</text>
</g>
<!-- alpaca&#45;diatonic&#45;&#45;hawk&#45;jazz -->
<g id="edge2" class="edge">
<title>alpaca&#45;diatonic&#45;&#45;hawk&#45;jazz</title>
<path fill="none" stroke="#000000" d="M250.7882,-362.6077C268.6016,-370.5961 290.2163,-380.2892 307.4768,-388.0296"/>
</g>
<!-- jaguar&#45;eel -->
<g id="node4" class="node">
<title>jaguar&#45;eel</title>
<ellipse fill="none" stroke="#000000" cx="502.2128" cy="-410.7747" rx="46.2923" ry="18"/>
<text text-anchor="middle" x="502.2128" y="-407.0747" font-family="Times,serif" font-size="14.00" fill="#000000">jaguar&#45;eel</text>
</g>
<!-- alpaca&#45;diatonic&#45;&#45;jaguar&#45;eel -->
<g id="edge3" class="edge">
<title>alpaca&#45;diatonic&#45;&#45;jaguar&#45;eel</title>
<path fill="none" stroke="#000000" d="M267.0442,-358.5C322.6048,-370.8504 410.8733,-390.4712 461.9948,-401.8348"/>
</g>
<!-- monkey&#45;mountain -->
<g id="node5" class="node">
<title>monkey&#45;mountain</title>
<ellipse fill="none" stroke="#000000" cx="609.492" cy="-507.9786" rx="76.0865" ry="18"/>
<text text-anchor="middle" x="609.492" y="-504.2786" font-family="Times,serif" font-size="14.00" fill="#000000">monkey&#45;mountain</text>
</g>
<!-- alpaca&#45;diatonic&#45;&#45;monkey&#45;mountain -->
<g id="edge4" class="edge">
<title>alpaca&#45;diatonic&#45;&#45;monkey&#45;mountain</title>
<path fill="none" stroke="#000000" d="M253.2534,-362.2699C327.6341,-392.6931 495.7806,-461.4684 571.396,-492.3966"/>
</g>
<!-- mouse&#45;celsius -->
<g id="node6" class="node">
<title>mouse&#45;celsius</title>
<ellipse fill="none" stroke="#000000" cx="352.9757" cy="-579.0923" rx="61.1893" ry="18"/>
<text text-anchor="middle" x="352.9757" y="-575.3923" font-family="Times,serif" font-size="14.00" fill="#000000">mouse&#45;celsius</text>
</g>
<!-- alpaca&#45;diatonic&#45;&#45;mouse&#45;celsius -->
<g id="edge5" class="edge">
<title>alpaca&#45;diatonic&#45;&#45;mouse&#45;celsius</title>
<path fill="none" stroke="#000000" d="M227.1194,-365.1014C252.4954,-408.2478 317.0562,-518.0192 342.469,-561.228"/>
</g>
<!-- ocelot&#45;snapper -->
<g id="node7" class="node">
<title>ocelot&#45;snapper</title>
<ellipse fill="none" stroke="#000000" cx="416.0267" cy="-189.2355" rx="62.2891" ry="18"/>
<text text-anchor="middle" x="416.0267" y="-185.5355" font-family="Times,serif" font-size="14.00" fill="#000000">ocelot&#45;snapper</text>
</g>
<!-- alpaca&#45;diatonic&#45;&#45;ocelot&#45;snapper -->
<g id="edge6" class="edge">
<title>alpaca&#45;diatonic&#45;&#45;ocelot&#45;snapper</title>
<path fill="none" stroke="#000000" d="M238.3649,-330.0814C276.818,-299.5968 356.4214,-236.4891 394.6387,-206.1914"/>
</g>
<!-- pug&#45;crocodile -->
<g id="node8" class="node">
<title>pug&#45;crocodile</title>
<ellipse fill="none" stroke="#000000" cx="300.9304" cy="-239.3372" rx="59.5901" ry="18"/>
<text text-anchor="middle" x="300.9304" y="-235.6372" font-family="Times,serif" font-size="14.00" fill="#000000">pug&#45;crocodile</text>
</g>
<!-- alpaca&#45;diatonic&#45;&#45;pug&#45;crocodile -->
<g id="edge7" class="edge">
<title>alpaca&#45;diatonic&#45;&#45;pug&#45;crocodile</title>
<path fill="none" stroke="#000000" d="M230.5658,-329.4703C246.1819,-309.4669 271.3677,-277.2054 286.9923,-257.1912"/>
</g>
<!-- tailnet&#45;4c60 -->
<g id="node9" class="node">
<title>tailnet&#45;4c60</title>
<ellipse fill="none" stroke="#000000" cx="475.7306" cy="-560.4562" rx="52.7911" ry="18"/>
<text text-anchor="middle" x="475.7306" y="-556.7562" font-family="Times,serif" font-size="14.00" fill="#000000">tailnet&#45;4c60</text>
</g>
<!-- alpaca&#45;diatonic&#45;&#45;tailnet&#45;4c60 -->
<g id="edge8" class="edge">
<title>alpaca&#45;diatonic&#45;&#45;tailnet&#45;4c60</title>
<path fill="none" stroke="#000000" d="M237.4122,-364.3811C286.0432,-404.392 406.8557,-503.7897 455.2275,-543.5874"/>
</g>
<!-- tailnet&#45;baa2 -->
<g id="node10" class="node">
<title>tailnet&#45;baa2</title>
<ellipse fill="none" stroke="#000000" cx="517.9921" cy="-249.9531" rx="51.9908" ry="18"/>
<text text-anchor="middle" x="517.9921" y="-246.2531" font-family="Times,serif" font-size="14.00" fill="#000000">tailnet&#45;baa2</text>
</g>
<!-- alpaca&#45;diatonic&#45;&#45;tailnet&#45;baa2 -->
<g id="edge9" class="edge">
<title>alpaca&#45;diatonic&#45;&#45;tailnet&#45;baa2</title>
<path fill="none" stroke="#000000" d="M258.8662,-333.6599C317.6652,-314.6658 423.341,-280.5288 479.8679,-262.2686"/>
</g>
<!-- warthog&#45;alligator -->
<g id="node11" class="node">
<title>warthog&#45;alligator</title>
<ellipse fill="none" stroke="#000000" cx="233.0487" cy="-504.957" rx="71.4873" ry="18"/>
<text text-anchor="middle" x="233.0487" y="-501.257" font-family="Times,serif" font-size="14.00" fill="#000000">warthog&#45;alligator</text>
</g>
<!-- alpaca&#45;diatonic&#45;&#45;warthog&#45;alligator -->
<g id="edge10" class="edge">
<title>alpaca&#45;diatonic&#45;&#45;warthog&#45;alligator</title>
<path fill="none" stroke="#000000" d="M218.5297,-365.3833C221.6764,-395.6334 227.9731,-456.1644 231.1388,-486.5968"/>
</g>
<!-- chimp&#45;interval&#45;&#45;hawk&#45;jazz -->
<g id="edge11" class="edge">
<title>chimp&#45;interval&#45;&#45;hawk&#45;jazz</title>
<path fill="none" stroke="#000000" d="M566.2151,-348.3744C512.7749,-360.8734 428.147,-380.6667 378.3637,-392.3104"/>
</g>
<!-- chimp&#45;interval&#45;&#45;jaguar&#45;eel -->
<g id="edge12" class="edge">
<title>chimp&#45;interval&#45;&#45;jaguar&#45;eel</title>
<path fill="none" stroke="#000000" d="M589.7739,-353.5087C570.6605,-366.0091 544.6264,-383.0357 525.9217,-395.2687"/>
</g>
<!-- chimp&#45;interval&#45;&#45;monkey&#45;mountain -->
<g id="edge13" class="edge">
<title>chimp&#45;interval&#45;&#45;monkey&#45;mountain</title>
<path fill="none" stroke="#000000" d="M614.5091,-355.2427C613.4277,-388.1631 611.1672,-456.9814 610.089,-489.8059"/>
</g>
<!-- chimp&#45;interval&#45;&#45;mouse&#45;celsius -->
<g id="edge14" class="edge">
<title>chimp&#45;interval&#45;&#45;mouse&#45;celsius</title>
<path fill="none" stroke="#000000" d="M596.2583,-354.3535C547.8924,-399.0327 419.8345,-517.3296 371.6569,-561.835"/>
</g>
<!-- chimp&#45;interval&#45;&#45;ocelot&#45;snapper -->
<g id="edge15" class="edge">
<title>chimp&#45;interval&#45;&#45;ocelot&#45;snapper</title>
<path fill="none" stroke="#000000" d="M592.2729,-319.995C553.9725,-291.5794 477.2304,-234.6434 438.9036,-206.2082"/>
</g>
<!-- chimp&#45;interval&#45;&#45;pug&#45;crocodile -->
<g id="edge16" class="edge">
<title>chimp&#45;interval&#45;&#45;pug&#45;crocodile</title>
<path fill="none" stroke="#000000" d="M572.4117,-323.6739C512.0953,-304.9364 402.6374,-270.9329 342.784,-252.3392"/>
</g>
<!-- chimp&#45;interval&#45;&#45;tailnet&#45;4c60 -->
<g id="edge17" class="edge">
<title>chimp&#45;interval&#45;&#45;tailnet&#45;4c60</title>
<path fill="none" stroke="#000000" d="M603.9399,-354.8519C577.7777,-396.8074 512.7836,-501.0358 486.7608,-542.7676"/>
</g>
<!-- chimp&#45;interval&#45;&#45;tailnet&#45;baa2 -->
<g id="edge18" class="edge">
<title>chimp&#45;interval&#45;&#45;tailnet&#45;baa2</title>
<path fill="none" stroke="#000000" d="M595.9229,-319.7529C578.7862,-304.4041 553.8321,-282.0537 536.8092,-266.8069"/>
</g>
<!-- chimp&#45;interval&#45;&#45;warthog&#45;alligator -->
<g id="edge19" class="edge">
<title>chimp&#45;interval&#45;&#45;warthog&#45;alligator</title>
<path fill="none" stroke="#000000" d="M580.5311,-352.1452C508.2501,-383.9321 341.8233,-457.1214 268.6578,-489.2973"/>
</g>
<!-- hawk&#45;jazz&#45;&#45;jaguar&#45;eel -->
<g id="edge40" class="edge">
<title>hawk&#45;jazz&#45;&#45;jaguar&#45;eel</title>
<path fill="none" stroke="#000000" d="M384.6525,-404.3045C407.1185,-405.541 433.9752,-407.0191 456.3442,-408.2502"/>
</g>
<!-- hawk&#45;jazz&#45;&#45;monkey&#45;mountain -->
<g id="edge41" class="edge">
<title>hawk&#45;jazz&#45;&#45;monkey&#45;mountain</title>
<path fill="none" stroke="#000000" d="M371.0617,-414.6604C421.2194,-434.2914 516.4472,-471.5622 570.1324,-492.5738"/>
</g>
<!-- hawk&#45;jazz&#45;&#45;mouse&#45;celsius -->
<g id="edge42" class="edge">
<title>hawk&#45;jazz&#45;&#45;mouse&#45;celsius</title>
<path fill="none" stroke="#000000" d="M339.59,-420.0514C342.4578,-454.1249 348.5814,-526.8821 351.4428,-560.8801"/>
</g>
<!-- hawk&#45;jazz&#45;&#45;ocelot&#45;snapper -->
<g id="edge43" class="edge">
<title>hawk&#45;jazz&#45;&#45;ocelot&#45;snapper</title>
<path fill="none" stroke="#000000" d="M344.6971,-383.6216C359.4294,-343.4736 394.6786,-247.413 409.3952,-207.3077"/>
</g>
<!-- hawk&#45;jazz&#45;&#45;pug&#45;crocodile -->
<g id="edge44" class="edge">
<title>hawk&#45;jazz&#45;&#45;pug&#45;crocodile</title>
<path fill="none" stroke="#000000" d="M333.9347,-383.7392C326.7997,-352.5221 312.2107,-288.6914 305.063,-257.4182"/>
</g>
<!-- hawk&#45;jazz&#45;&#45;tailnet&#45;4c60 -->
<g id="edge45" class="edge">
<title>hawk&#45;jazz&#45;&#45;tailnet&#45;4c60</title>
<path fill="none" stroke="#000000" d="M353.0453,-419.0272C379.5296,-449.5577 434.2815,-512.6746 460.7527,-543.1899"/>
</g>
<!-- hawk&#45;jazz&#45;&#45;tailnet&#45;baa2 -->
<g id="edge46" class="edge">
<title>hawk&#45;jazz&#45;&#45;tailnet&#45;baa2</title>
<path fill="none" stroke="#000000" d="M357.6484,-385.2068C392.171,-356.0862 463.4438,-295.9659 498.1428,-266.6965"/>
</g>
<!-- hawk&#45;jazz&#45;&#45;warthog&#45;alligator -->
<g id="edge47" class="edge">
<title>hawk&#45;jazz&#45;&#45;warthog&#45;alligator</title>
<path fill="none" stroke="#000000" d="M320.7102,-418.7838C301.4883,-437.6793 270.6283,-468.0155 251.1176,-487.195"/>
</g>
<!-- jaguar&#45;eel&#45;&#45;monkey&#45;mountain -->
<g id="edge53" class="edge">
<title>jaguar&#45;eel&#45;&#45;monkey&#45;mountain</title>
<path fill="none" stroke="#000000" d="M520.8994,-427.7063C540.2296,-445.2211 570.2865,-472.4551 589.9323,-490.2559"/>
</g>
<!-- jaguar&#45;eel&#45;&#45;mouse&#45;celsius -->
<g id="edge54" class="edge">
<title>jaguar&#45;eel&#45;&#45;mouse&#45;celsius</title>
<path fill="none" stroke="#000000" d="M487.0819,-427.8401C458.6266,-459.9336 397.4195,-528.9662 368.5944,-561.4767"/>
</g>
<!-- jaguar&#45;eel&#45;&#45;ocelot&#45;snapper -->
<g id="edge55" class="edge">
<title>jaguar&#45;eel&#45;&#45;ocelot&#45;snapper</title>
<path fill="none" stroke="#000000" d="M495.1598,-392.6452C478.9582,-350.9992 439.2352,-248.8925 423.0563,-207.3048"/>
</g>
<!-- jaguar&#45;eel&#45;&#45;pug&#45;crocodile -->
<g id="edge56" class="edge">
<title>jaguar&#45;eel&#45;&#45;pug&#45;crocodile</title>
<path fill="none" stroke="#000000" d="M482.913,-394.3365C444.7349,-361.8192 359.9116,-289.573 321.0646,-256.486"/>
</g>
<!-- jaguar&#45;eel&#45;&#45;tailnet&#45;4c60 -->
<g id="edge57" class="edge">
<title>jaguar&#45;eel&#45;&#45;tailnet&#45;4c60</title>
<path fill="none" stroke="#000000" d="M499.0184,-428.8298C493.9284,-457.5992 484.0334,-513.5274 478.9363,-542.3371"/>
</g>
<!-- jaguar&#45;eel&#45;&#45;tailnet&#45;baa2 -->
<g id="edge58" class="edge">
<title>jaguar&#45;eel&#45;&#45;tailnet&#45;baa2</title>
<path fill="none" stroke="#000000" d="M503.9922,-392.639C507.0228,-361.752 513.1524,-299.2788 516.195,-268.2692"/>
</g>
<!-- jaguar&#45;eel&#45;&#45;warthog&#45;alligator -->
<g id="edge59" class="edge">
<title>jaguar&#45;eel&#45;&#45;warthog&#45;alligator</title>
<path fill="none" stroke="#000000" d="M467.8496,-422.7986C418.671,-440.0065 328.3028,-471.627 275.1651,-490.2202"/>
</g>
<!-- monkey&#45;mountain&#45;&#45;mouse&#45;celsius -->
<g id="edge63" class="edge">
<title>monkey&#45;mountain&#45;&#45;mouse&#45;celsius</title>
<path fill="none" stroke="#000000" d="M560.0331,-521.6901C513.0084,-534.7266 442.9102,-554.1599 397.5658,-566.7306"/>
</g>
<!-- monkey&#45;mountain&#45;&#45;ocelot&#45;snapper -->
<g id="edge64" class="edge">
<title>monkey&#45;mountain&#45;&#45;ocelot&#45;snapper</title>
<path fill="none" stroke="#000000" d="M598.5362,-489.9284C564.4842,-433.8261 460.7499,-262.9191 426.8624,-207.0878"/>
</g>
<!-- monkey&#45;mountain&#45;&#45;pug&#45;crocodile -->
<g id="edge65" class="edge">
<title>monkey&#45;mountain&#45;&#45;pug&#45;crocodile</title>
<path fill="none" stroke="#000000" d="M589.2464,-490.3523C533.2029,-441.5594 376.4998,-305.1298 320.8494,-256.6792"/>
</g>
<!-- monkey&#45;mountain&#45;&#45;tailnet&#45;4c60 -->
<g id="edge66" class="edge">
<title>monkey&#45;mountain&#45;&#45;tailnet&#45;4c60</title>
<path fill="none" stroke="#000000" d="M570.0827,-523.4398C551.2793,-530.8168 528.9694,-539.5695 510.7656,-546.7112"/>
</g>
<!-- monkey&#45;mountain&#45;&#45;tailnet&#45;baa2 -->
<g id="edge67" class="edge">
<title>monkey&#45;mountain&#45;&#45;tailnet&#45;baa2</title>
<path fill="none" stroke="#000000" d="M603.0579,-489.8348C586.2578,-442.4591 541.2113,-315.4301 524.4191,-268.0769"/>
</g>
<!-- monkey&#45;mountain&#45;&#45;warthog&#45;alligator -->
<g id="edge68" class="edge">
<title>monkey&#45;mountain&#45;&#45;warthog&#45;alligator</title>
<path fill="none" stroke="#000000" d="M533.3131,-507.3672C466.498,-506.8309 370.0669,-506.0568 304.6508,-505.5318"/>
</g>
<!-- mouse&#45;celsius&#45;&#45;ocelot&#45;snapper -->
<g id="edge69" class="edge">
<title>mouse&#45;celsius&#45;&#45;ocelot&#45;snapper</title>
<path fill="none" stroke="#000000" d="M355.8903,-561.0706C366.4256,-495.9285 402.4678,-273.0731 413.0703,-207.5157"/>
</g>
<!-- mouse&#45;celsius&#45;&#45;pug&#45;crocodile -->
<g id="edge70" class="edge">
<title>mouse&#45;celsius&#45;&#45;pug&#45;crocodile</title>
<path fill="none" stroke="#000000" d="M350.1775,-560.8256C341.1407,-501.833 312.7989,-316.8153 303.7425,-257.6943"/>
</g>
<!-- mouse&#45;celsius&#45;&#45;tailnet&#45;4c60 -->
<g id="edge71" class="edge">
<title>mouse&#45;celsius&#45;&#45;tailnet&#45;4c60</title>
<path fill="none" stroke="#000000" d="M407.5327,-570.8097C414.1921,-569.7987 420.9599,-568.7713 427.5174,-567.7757"/>
</g>
<!-- mouse&#45;celsius&#45;&#45;tailnet&#45;baa2 -->
<g id="edge72" class="edge">
<title>mouse&#45;celsius&#45;&#45;tailnet&#45;baa2</title>
<path fill="none" stroke="#000000" d="M362.0827,-560.9275C390.9335,-503.3823 480.1017,-325.5287 508.9132,-268.0617"/>
</g>
<!-- mouse&#45;celsius&#45;&#45;warthog&#45;alligator -->
<g id="edge73" class="edge">
<title>mouse&#45;celsius&#45;&#45;warthog&#45;alligator</title>
<path fill="none" stroke="#000000" d="M326.6572,-562.823C306.9375,-550.6329 280.04,-534.0056 260.1368,-521.7021"/>
</g>
<!-- ocelot&#45;snapper&#45;&#45;pug&#45;crocodile -->
<g id="edge74" class="edge">
<title>ocelot&#45;snapper&#45;&#45;pug&#45;crocodile</title>
<path fill="none" stroke="#000000" d="M381.494,-204.2677C366.7942,-210.6666 349.6956,-218.1096 335.0421,-224.4883"/>
</g>
<!-- ocelot&#45;snapper&#45;&#45;tailnet&#45;4c60 -->
<g id="edge75" class="edge">
<title>ocelot&#45;snapper&#45;&#45;tailnet&#45;4c60</title>
<path fill="none" stroke="#000000" d="M418.9468,-207.3916C429.084,-270.4217 462.6877,-479.359 472.8162,-542.3351"/>
</g>
<!-- ocelot&#45;snapper&#45;&#45;tailnet&#45;baa2 -->
<g id="edge76" class="edge">
<title>ocelot&#45;snapper&#45;&#45;tailnet&#45;baa2</title>
<path fill="none" stroke="#000000" d="M443.3516,-205.5067C458.3353,-214.4291 476.8221,-225.4375 491.6486,-234.2662"/>
</g>
<!-- ocelot&#45;snapper&#45;&#45;warthog&#45;alligator -->
<g id="edge77" class="edge">
<title>ocelot&#45;snapper&#45;&#45;warthog&#45;alligator</title>
<path fill="none" stroke="#000000" d="M405.6648,-207.1147C373.5342,-262.5547 275.8078,-431.1779 243.5239,-486.8826"/>
</g>
<!-- pug&#45;crocodile&#45;&#45;tailnet&#45;4c60 -->
<g id="edge78" class="edge">
<title>pug&#45;crocodile&#45;&#45;tailnet&#45;4c60</title>
<path fill="none" stroke="#000000" d="M310.8293,-257.522C341.596,-314.0425 435.3222,-486.2234 465.9403,-542.4708"/>
</g>
<!-- pug&#45;crocodile&#45;&#45;tailnet&#45;baa2 -->
<g id="edge79" class="edge">
<title>pug&#45;crocodile&#45;&#45;tailnet&#45;baa2</title>
<path fill="none" stroke="#000000" d="M359.9568,-242.224C393.2248,-243.8511 434.3908,-245.8644 466.3671,-247.4283"/>
</g>
<!-- pug&#45;crocodile&#45;&#45;warthog&#45;alligator -->
<g id="edge80" class="edge">
<title>pug&#45;crocodile&#45;&#45;warthog&#45;alligator</title>
<path fill="none" stroke="#000000" d="M296.2647,-257.5944C283.8338,-306.2361 250.0225,-438.5389 237.6574,-486.9234"/>
</g>
<!-- tailnet&#45;4c60&#45;&#45;tailnet&#45;baa2 -->
<g id="edge90" class="edge">
<title>tailnet&#45;4c60&#45;&#45;tailnet&#45;baa2</title>
<path fill="none" stroke="#000000" d="M478.1855,-542.4201C485.6548,-487.5412 508.0521,-322.9842 515.5305,-268.0389"/>
</g>
<!-- tailnet&#45;4c60&#45;&#45;warthog&#45;alligator -->
<g id="edge91" class="edge">
<title>tailnet&#45;4c60&#45;&#45;warthog&#45;alligator</title>
<path fill="none" stroke="#000000" d="M431.7828,-550.4057C390.8057,-541.0346 329.6187,-527.0417 285.9737,-517.0605"/>
</g>
<!-- tailnet&#45;baa2&#45;&#45;warthog&#45;alligator -->
<g id="edge96" class="edge">
<title>tailnet&#45;baa2&#45;&#45;warthog&#45;alligator</title>
<path fill="none" stroke="#000000" d="M498.8537,-267.0806C447.0696,-313.4236 304.6022,-440.9218 252.4791,-487.5683"/>
</g>
<!-- dog&#45;tet -->
<g id="node12" class="node">
<title>dog&#45;tet</title>
<ellipse fill="none" stroke="#000000" cx="638.5529" cy="-613.2629" rx="35.9954" ry="18"/>
<text text-anchor="middle" x="638.5529" y="-609.5629" font-family="Times,serif" font-size="14.00" fill="#000000">dog&#45;tet</text>
</g>
<!-- goat&#45;major -->
<g id="node13" class="node">
<title>goat&#45;major</title>
<ellipse fill="none" stroke="#000000" cx="804.3866" cy="-622.1743" rx="50.0912" ry="18"/>
<text text-anchor="middle" x="804.3866" y="-618.4743" font-family="Times,serif" font-size="14.00" fill="#000000">goat&#45;major</text>
</g>
<!-- dog&#45;tet&#45;&#45;goat&#45;major -->
<g id="edge20" class="edge">
<title>dog&#45;tet&#45;&#45;goat&#45;major</title>
<path fill="none" stroke="#000000" d="M674.1284,-615.1746C697.6355,-616.4378 728.777,-618.1113 754.7161,-619.5052"/>
</g>
<!-- saga&#45;jazz -->
<g id="node14" class="node">
<title>saga&#45;jazz</title>
<ellipse fill="none" stroke="#000000" cx="722.6046" cy="-569.0935" rx="43.5923" ry="18"/>
<text text-anchor="middle" x="722.6046" y="-565.3935" font-family="Times,serif" font-size="14.00" fill="#000000">saga&#45;jazz</text>
</g>
<!-- dog&#45;tet&#45;&#45;saga&#45;jazz -->
<g id="edge21" class="edge">
<title>dog&#45;tet&#45;&#45;saga&#45;jazz</title>
<path fill="none" stroke="#000000" d="M663.3166,-600.2495C673.4856,-594.9056 685.2868,-588.7041 695.6705,-583.2474"/>
</g>
<!-- tailnet&#45;948b -->
<g id="node15" class="node">
<title>tailnet&#45;948b</title>
<ellipse fill="none" stroke="#000000" cx="642.3514" cy="-727.0741" rx="53.0913" ry="18"/>
<text text-anchor="middle" x="642.3514" y="-723.3741" font-family="Times,serif" font-size="14.00" fill="#000000">tailnet&#45;948b</text>
</g>
<!-- dog&#45;tet&#45;&#45;tailnet&#45;948b -->
<g id="edge22" class="edge">
<title>dog&#45;tet&#45;&#45;tailnet&#45;948b</title>
<path fill="none" stroke="#000000" d="M639.1548,-631.2966C639.8618,-652.4822 641.0285,-687.4366 641.7397,-708.7479"/>
</g>
<!-- tailnet&#45;9553 -->
<g id="node16" class="node">
<title>tailnet&#45;9553</title>
<ellipse fill="none" stroke="#000000" cx="761.8817" cy="-739.2034" rx="53.0913" ry="18"/>
<text text-anchor="middle" x="761.8817" y="-735.5034" font-family="Times,serif" font-size="14.00" fill="#000000">tailnet&#45;9553</text>
</g>
<!-- dog&#45;tet&#45;&#45;tailnet&#45;9553 -->
<g id="edge23" class="edge">
<title>dog&#45;tet&#45;&#45;tailnet&#45;9553</title>
<path fill="none" stroke="#000000" d="M654.4235,-629.4696C677.7139,-653.2532 720.9712,-697.4266 744.8861,-721.8479"/>
</g>
<!-- goat&#45;major&#45;&#45;saga&#45;jazz -->
<g id="edge35" class="edge">
<title>goat&#45;major&#45;&#45;saga&#45;jazz</title>
<path fill="none" stroke="#000000" d="M779.8493,-606.2483C769.122,-599.2857 756.5969,-591.1563 746.0024,-584.2799"/>
</g>
<!-- goat&#45;major&#45;&#45;tailnet&#45;948b -->
<g id="edge36" class="edge">
<title>goat&#45;major&#45;&#45;tailnet&#45;948b</title>
<path fill="none" stroke="#000000" d="M779.7769,-638.1063C749.3216,-657.8228 697.7545,-691.2067 667.1926,-710.9922"/>
</g>
<!-- goat&#45;major&#45;&#45;tailnet&#45;9553 -->
<g id="edge37" class="edge">
<title>goat&#45;major&#45;&#45;tailnet&#45;9553</title>
<path fill="none" stroke="#000000" d="M797.8383,-640.2036C789.8742,-662.1315 776.5064,-698.937 768.5074,-720.9608"/>
</g>
<!-- saga&#45;jazz&#45;&#45;tailnet&#45;948b -->
<g id="edge81" class="edge">
<title>saga&#45;jazz&#45;&#45;tailnet&#45;948b</title>
<path fill="none" stroke="#000000" d="M713.5545,-586.9088C698.1413,-617.2502 666.9659,-678.6198 651.4915,-709.0816"/>
</g>
<!-- saga&#45;jazz&#45;&#45;tailnet&#45;9553 -->
<g id="edge82" class="edge">
<title>saga&#45;jazz&#45;&#45;tailnet&#45;9553</title>
<path fill="none" stroke="#000000" d="M726.8079,-587.2982C734.3677,-620.0396 750.1709,-688.4836 757.7086,-721.1296"/>
</g>
<!-- tailnet&#45;948b&#45;&#45;tailnet&#45;9553 -->
<g id="edge93" class="edge">
<title>tailnet&#45;948b&#45;&#45;tailnet&#45;9553</title>
<path fill="none" stroke="#000000" d="M693.7367,-732.2884C699.3049,-732.8535 704.9721,-733.4286 710.5398,-733.9935"/>
</g>
<!-- dog&#45;toad -->
<g id="node17" class="node">
<title>dog&#45;toad</title>
<ellipse fill="none" stroke="#000000" cx="779.0831" cy="-222.7508" rx="42.4939" ry="18"/>
<text text-anchor="middle" x="779.0831" y="-219.0508" font-family="Times,serif" font-size="14.00" fill="#000000">dog&#45;toad</text>
</g>
<!-- ratfish&#45;grue -->
<g id="node18" class="node">
<title>ratfish&#45;grue</title>
<ellipse fill="none" stroke="#000000" cx="865.6293" cy="-269.8044" rx="51.9908" ry="18"/>
<text text-anchor="middle" x="865.6293" y="-266.1044" font-family="Times,serif" font-size="14.00" fill="#000000">ratfish&#45;grue</text>
</g>
<!-- dog&#45;toad&#45;&#45;ratfish&#45;grue -->
<g id="edge24" class="edge">
<title>dog&#45;toad&#45;&#45;ratfish&#45;grue</title>
<path fill="none" stroke="#000000" d="M805.5201,-237.1241C815.661,-242.6375 827.2633,-248.9455 837.5526,-254.5396"/>
</g>
<!-- lion&#45;shark -->
<g id="node19" class="node">
<title>lion&#45;shark</title>
<ellipse fill="none" stroke="#000000" cx="666.8444" cy="-207.8338" rx="46.2923" ry="18"/>
<text text-anchor="middle" x="666.8444" y="-204.1338" font-family="Times,serif" font-size="14.00" fill="#000000">lion&#45;shark</text>
</g>
<!-- dog&#45;toad&#45;&#45;lion&#45;shark -->
<g id="edge25" class="edge">
<title>dog&#45;toad&#45;&#45;lion&#45;shark</title>
<path fill="none" stroke="#000000" d="M738.5623,-217.3654C729.5203,-216.1637 719.8914,-214.884 710.721,-213.6652"/>
</g>
<!-- tailnet&#45;59ab -->
<g id="node20" class="node">
<title>tailnet&#45;59ab</title>
<ellipse fill="none" stroke="#000000" cx="660.7502" cy="-255.5033" rx="52.7911" ry="18"/>
<text text-anchor="middle" x="660.7502" y="-251.8033" font-family="Times,serif" font-size="14.00" fill="#000000">tailnet&#45;59ab</text>
</g>
<!-- dog&#45;toad&#45;&#45;tailnet&#45;59ab -->
<g id="edge26" class="edge">
<title>dog&#45;toad&#45;&#45;tailnet&#45;59ab</title>
<path fill="none" stroke="#000000" d="M743.5793,-232.5776C730.5084,-236.1954 715.5929,-240.3238 702.0542,-244.071"/>
</g>
<!-- lion&#45;shark&#45;&#45;tailnet&#45;59ab -->
<g id="edge61" class="edge">
<title>lion&#45;shark&#45;&#45;tailnet&#45;59ab</title>
<path fill="none" stroke="#000000" d="M664.5404,-225.8555C664.055,-229.6522 663.5429,-233.6584 663.0574,-237.456"/>
</g>
<!-- fairy&#45;istrian -->
<g id="node21" class="node">
<title>fairy&#45;istrian</title>
<ellipse fill="none" stroke="#000000" cx="184.957" cy="-132.1823" rx="51.9908" ry="18"/>
<text text-anchor="middle" x="184.957" y="-128.4823" font-family="Times,serif" font-size="14.00" fill="#000000">fairy&#45;istrian</text>
</g>
<!-- monkey&#45;justice -->
<g id="node22" class="node">
<title>monkey&#45;justice</title>
<ellipse fill="none" stroke="#000000" cx="315.3116" cy="-112.7066" rx="65.7887" ry="18"/>
<text text-anchor="middle" x="315.3116" y="-109.0066" font-family="Times,serif" font-size="14.00" fill="#000000">monkey&#45;justice</text>
</g>
<!-- fairy&#45;istrian&#45;&#45;monkey&#45;justice -->
<g id="edge27" class="edge">
<title>fairy&#45;istrian&#45;&#45;monkey&#45;justice</title>
<path fill="none" stroke="#000000" d="M232.756,-125.0409C240.7489,-123.8467 249.1179,-122.5963 257.3325,-121.369"/>
</g>
<!-- flyingfox&#45;moth -->
<g id="node23" class="node">
<title>flyingfox&#45;moth</title>
<ellipse fill="none" stroke="#000000" cx="350.2548" cy="-689.3203" rx="64.9885" ry="18"/>
<text text-anchor="middle" x="350.2548" y="-685.6203" font-family="Times,serif" font-size="14.00" fill="#000000">flyingfox&#45;moth</text>
</g>
<!-- hawk&#45;bramble -->
<g id="node24" class="node">
<title>hawk&#45;bramble</title>
<ellipse fill="none" stroke="#000000" cx="489.2424" cy="-690.1787" rx="61.99" ry="18"/>
<text text-anchor="middle" x="489.2424" y="-686.4787" font-family="Times,serif" font-size="14.00" fill="#000000">hawk&#45;bramble</text>
</g>
<!-- flyingfox&#45;moth&#45;&#45;hawk&#45;bramble -->
<g id="edge28" class="edge">
<title>flyingfox&#45;moth&#45;&#45;hawk&#45;bramble</title>
<path fill="none" stroke="#000000" d="M415.2723,-689.7219C419.2287,-689.7463 423.2045,-689.7709 427.1482,-689.7952"/>
</g>
<!-- sheep&#45;cobra -->
<g id="node25" class="node">
<title>sheep&#45;cobra</title>
<ellipse fill="none" stroke="#000000" cx="397.2795" cy="-644.5615" rx="53.0913" ry="18"/>
<text text-anchor="middle" x="397.2795" y="-640.8615" font-family="Times,serif" font-size="14.00" fill="#000000">sheep&#45;cobra</text>
</g>
<!-- flyingfox&#45;moth&#45;&#45;sheep&#45;cobra -->
<g id="edge29" class="edge">
<title>flyingfox&#45;moth&#45;&#45;sheep&#45;cobra</title>
<path fill="none" stroke="#000000" d="M368.5704,-671.8872C372.0777,-668.549 375.7473,-665.0562 379.2456,-661.7264"/>
</g>
<!-- hawk&#45;bramble&#45;&#45;sheep&#45;cobra -->
<g id="edge39" class="edge">
<title>hawk&#45;bramble&#45;&#45;sheep&#45;cobra</title>
<path fill="none" stroke="#000000" d="M457.8512,-674.6075C447.9649,-669.7035 437.0748,-664.3015 427.2872,-659.4465"/>
</g>
<!-- flyingfox&#45;velociraptor -->
<g id="node26" class="node">
<title>flyingfox&#45;velociraptor</title>
<ellipse fill="none" stroke="#000000" cx="734.6856" cy="-389.6326" rx="89.0842" ry="18"/>
<text text-anchor="middle" x="734.6856" y="-385.9326" font-family="Times,serif" font-size="14.00" fill="#000000">flyingfox&#45;velociraptor</text>
</g>
<!-- horse&#45;cobra -->
<g id="node27" class="node">
<title>horse&#45;cobra</title>
<ellipse fill="none" stroke="#000000" cx="887.1019" cy="-402.875" rx="51.9908" ry="18"/>
<text text-anchor="middle" x="887.1019" y="-399.175" font-family="Times,serif" font-size="14.00" fill="#000000">horse&#45;cobra</text>
</g>
<!-- flyingfox&#45;velociraptor&#45;&#45;horse&#45;cobra -->
<g id="edge30" class="edge">
<title>flyingfox&#45;velociraptor&#45;&#45;horse&#45;cobra</title>
<path fill="none" stroke="#000000" d="M816.6936,-396.7577C823.4579,-397.3454 830.1608,-397.9278 836.5876,-398.4861"/>
</g>
<!-- tailnet&#45;ca0a -->
<g id="node28" class="node">
<title>tailnet&#45;ca0a</title>
<ellipse fill="none" stroke="#000000" cx="769.172" cy="-341.2639" rx="51.9908" ry="18"/>
<text text-anchor="middle" x="769.172" y="-337.5639" font-family="Times,serif" font-size="14.00" fill="#000000">tailnet&#45;ca0a</text>
</g>
<!-- flyingfox&#45;velociraptor&#45;&#45;tailnet&#45;ca0a -->
<g id="edge31" class="edge">
<title>flyingfox&#45;velociraptor&#45;&#45;tailnet&#45;ca0a</title>
<path fill="none" stroke="#000000" d="M747.527,-371.6219C750.5145,-367.4319 753.6909,-362.9769 756.6637,-358.8073"/>
</g>
<!-- horse&#45;cobra&#45;&#45;tailnet&#45;ca0a -->
<g id="edge51" class="edge">
<title>horse&#45;cobra&#45;&#45;tailnet&#45;ca0a</title>
<path fill="none" stroke="#000000" d="M858.253,-387.8032C839.9782,-378.2558 816.4278,-365.9522 798.1318,-356.3936"/>
</g>
<!-- folk&#45;delta -->
<g id="node29" class="node">
<title>folk&#45;delta</title>
<ellipse fill="none" stroke="#000000" cx="101.6187" cy="-604.44" rx="44.6926" ry="18"/>
<text text-anchor="middle" x="101.6187" y="-600.74" font-family="Times,serif" font-size="14.00" fill="#000000">folk&#45;delta</text>
</g>
<!-- tailnet&#45;3899 -->
<g id="node30" class="node">
<title>tailnet&#45;3899</title>
<ellipse fill="none" stroke="#000000" cx="208.6499" cy="-588.4489" rx="53.0913" ry="18"/>
<text text-anchor="middle" x="208.6499" y="-584.7489" font-family="Times,serif" font-size="14.00" fill="#000000">tailnet&#45;3899</text>
</g>
<!-- folk&#45;delta&#45;&#45;tailnet&#45;3899 -->
<g id="edge32" class="edge">
<title>folk&#45;delta&#45;&#45;tailnet&#45;3899</title>
<path fill="none" stroke="#000000" d="M143.9202,-598.1199C149.0622,-597.3516 154.3488,-596.5618 159.5785,-595.7805"/>
</g>
<!-- giraffe&#45;gamma -->
<g id="node31" class="node">
<title>giraffe&#45;gamma</title>
<ellipse fill="none" stroke="#000000" cx="576.9842" cy="-141.1085" rx="63.8893" ry="18"/>
<text text-anchor="middle" x="576.9842" y="-137.4085" font-family="Times,serif" font-size="14.00" fill="#000000">giraffe&#45;gamma</text>
</g>
<!-- hyrax&#45;cobra -->
<g id="node32" class="node">
<title>hyrax&#45;cobra</title>
<ellipse fill="none" stroke="#000000" cx="703.7069" cy="-141.4158" rx="53.0913" ry="18"/>
<text text-anchor="middle" x="703.7069" y="-137.7158" font-family="Times,serif" font-size="14.00" fill="#000000">hyrax&#45;cobra</text>
</g>
<!-- giraffe&#45;gamma&#45;&#45;hyrax&#45;cobra -->
<g id="edge33" class="edge">
<title>giraffe&#45;gamma&#45;&#45;hyrax&#45;cobra</title>
<path fill="none" stroke="#000000" d="M640.7168,-141.2631C643.9218,-141.2708 647.1254,-141.2786 650.2951,-141.2863"/>
</g>
<!-- narwhal&#45;major -->
<g id="node33" class="node">
<title>narwhal&#45;major</title>
<ellipse fill="none" stroke="#000000" cx="620.0366" cy="-94.2319" rx="63.0888" ry="18"/>
<text text-anchor="middle" x="620.0366" y="-90.5319" font-family="Times,serif" font-size="14.00" fill="#000000">narwhal&#45;major</text>
</g>
<!-- giraffe&#45;gamma&#45;&#45;narwhal&#45;major -->
<g id="edge34" class="edge">
<title>giraffe&#45;gamma&#45;&#45;narwhal&#45;major</title>
<path fill="none" stroke="#000000" d="M593.0153,-123.6534C596.5536,-119.8009 600.3041,-115.7172 603.8485,-111.8579"/>
</g>
<!-- hyrax&#45;cobra&#45;&#45;narwhal&#45;major -->
<g id="edge52" class="edge">
<title>hyrax&#45;cobra&#45;&#45;narwhal&#45;major</title>
<path fill="none" stroke="#000000" d="M676.3101,-125.966C667.4454,-120.967 657.5949,-115.412 648.6447,-110.3647"/>
</g>
<!-- goat&#45;snake -->
<g id="node34" class="node">
<title>goat&#45;snake</title>
<ellipse fill="none" stroke="#000000" cx="846.6187" cy="-167.44" rx="48.9926" ry="18"/>
<text text-anchor="middle" x="846.6187" y="-163.74" font-family="Times,serif" font-size="14.00" fill="#000000">goat&#45;snake</text>
</g>
<!-- zebra&#45;trout -->
<g id="node35" class="node">
<title>zebra&#45;trout</title>
<ellipse fill="none" stroke="#000000" cx="953.6499" cy="-151.4489" rx="49.2915" ry="18"/>
<text text-anchor="middle" x="953.6499" y="-147.7489" font-family="Times,serif" font-size="14.00" fill="#000000">zebra&#45;trout</text>
</g>
<!-- goat&#45;snake&#45;&#45;zebra&#45;trout -->
<g id="edge38" class="edge">
<title>goat&#45;snake&#45;&#45;zebra&#45;trout</title>
<path fill="none" stroke="#000000" d="M892.0095,-160.6583C897.2513,-159.8752 902.5995,-159.0761 907.8466,-158.2922"/>
</g>
<!-- hawk&#45;lime -->
<g id="node36" class="node">
<title>hawk&#45;lime</title>
<ellipse fill="none" stroke="#000000" cx="201.7338" cy="-708.7907" rx="48.9926" ry="18"/>
<text text-anchor="middle" x="201.7338" y="-705.0907" font-family="Times,serif" font-size="14.00" fill="#000000">hawk&#45;lime</text>
</g>
<!-- lynx&#45;coho -->
<g id="node37" class="node">
<title>lynx&#45;coho</title>
<ellipse fill="none" stroke="#000000" cx="281.901" cy="-753.9406" rx="46.2923" ry="18"/>
<text text-anchor="middle" x="281.901" y="-750.2406" font-family="Times,serif" font-size="14.00" fill="#000000">lynx&#45;coho</text>
</g>
<!-- hawk&#45;lime&#45;&#45;lynx&#45;coho -->
<g id="edge48" class="edge">
<title>hawk&#45;lime&#45;&#45;lynx&#45;coho</title>
<path fill="none" stroke="#000000" d="M228.8748,-724.0764C237.5053,-728.9371 247.0327,-734.3029 255.6027,-739.1295"/>
</g>
<!-- moose&#45;tuna -->
<g id="node38" class="node">
<title>moose&#45;tuna</title>
<ellipse fill="none" stroke="#000000" cx="203.7008" cy="-664.0449" rx="51.9908" ry="18"/>
<text text-anchor="middle" x="203.7008" y="-660.3449" font-family="Times,serif" font-size="14.00" fill="#000000">moose&#45;tuna</text>
</g>
<!-- hawk&#45;lime&#45;&#45;moose&#45;tuna -->
<g id="edge49" class="edge">
<title>hawk&#45;lime&#45;&#45;moose&#45;tuna</title>
<path fill="none" stroke="#000000" d="M202.5339,-690.5909C202.6572,-687.7842 202.7846,-684.8866 202.9078,-682.0835"/>
</g>
<!-- hippo&#45;blues -->
<g id="node39" class="node">
<title>hippo&#45;blues</title>
<ellipse fill="none" stroke="#000000" cx="203.6881" cy="-832.8778" rx="51.9908" ry="18"/>
<text text-anchor="middle" x="203.6881" y="-829.1778" font-family="Times,serif" font-size="14.00" fill="#000000">hippo&#45;blues</text>
</g>
<!-- tailnet&#45;ac67 -->
<g id="node40" class="node">
<title>tailnet&#45;ac67</title>
<ellipse fill="none" stroke="#000000" cx="316.5804" cy="-816.0111" rx="51.9908" ry="18"/>
<text text-anchor="middle" x="316.5804" y="-812.3111" font-family="Times,serif" font-size="14.00" fill="#000000">tailnet&#45;ac67</text>
</g>
<!-- hippo&#45;blues&#45;&#45;tailnet&#45;ac67 -->
<g id="edge50" class="edge">
<title>hippo&#45;blues&#45;&#45;tailnet&#45;ac67</title>
<path fill="none" stroke="#000000" d="M251.5646,-825.7248C257.2136,-824.8808 262.9798,-824.0193 268.6297,-823.1752"/>
</g>
<!-- jaguar&#45;justice -->
<g id="node41" class="node">
<title>jaguar&#45;justice</title>
<ellipse fill="none" stroke="#000000" cx="115.8573" cy="-55.749" rx="58.4896" ry="18"/>
<text text-anchor="middle" x="115.8573" y="-52.049" font-family="Times,serif" font-size="14.00" fill="#000000">jaguar&#45;justice</text>
</g>
<!-- snake&#45;cloud -->
<g id="node42" class="node">
<title>snake&#45;cloud</title>
<ellipse fill="none" stroke="#000000" cx="240.4113" cy="-37.1399" rx="53.0913" ry="18"/>
<text text-anchor="middle" x="240.4113" y="-33.4399" font-family="Times,serif" font-size="14.00" fill="#000000">snake&#45;cloud</text>
</g>
<!-- jaguar&#45;justice&#45;&#45;snake&#45;cloud -->
<g id="edge60" class="edge">
<title>jaguar&#45;justice&#45;&#45;snake&#45;cloud</title>
<path fill="none" stroke="#000000" d="M168.6794,-47.8571C176.2379,-46.7278 183.9867,-45.5701 191.4663,-44.4526"/>
</g>
<!-- long&#45;blues -->
<g id="node43" class="node">
<title>long&#45;blues</title>
<ellipse fill="none" stroke="#000000" cx="769.957" cy="-493.1823" rx="48.1917" ry="18"/>
<text text-anchor="middle" x="769.957" y="-489.4823" font-family="Times,serif" font-size="14.00" fill="#000000">long&#45;blues</text>
</g>
<!-- whale&#45;triceratops -->
<g id="node44" class="node">
<title>whale&#45;triceratops</title>
<ellipse fill="none" stroke="#000000" cx="900.3116" cy="-473.7066" rx="71.4873" ry="18"/>
<text text-anchor="middle" x="900.3116" y="-470.0066" font-family="Times,serif" font-size="14.00" fill="#000000">whale&#45;triceratops</text>
</g>
<!-- long&#45;blues&#45;&#45;whale&#45;triceratops -->
<g id="edge62" class="edge">
<title>long&#45;blues&#45;&#45;whale&#45;triceratops</title>
<path fill="none" stroke="#000000" d="M814.8176,-486.4799C822.4768,-485.3355 830.552,-484.1291 838.558,-482.9329"/>
</g>
<!-- serval&#45;gecko -->
<g id="node45" class="node">
<title>serval&#45;gecko</title>
<ellipse fill="none" stroke="#000000" cx="473.7677" cy="-35.3141" rx="55.7903" ry="18"/>
<text text-anchor="middle" x="473.7677" y="-31.6141" font-family="Times,serif" font-size="14.00" fill="#000000">serval&#45;gecko</text>
</g>
<!-- tailnet&#45;2a8f -->
<g id="node46" class="node">
<title>tailnet&#45;2a8f</title>
<ellipse fill="none" stroke="#000000" cx="592.5009" cy="-17.5748" rx="51.1914" ry="18"/>
<text text-anchor="middle" x="592.5009" y="-13.8748" font-family="Times,serif" font-size="14.00" fill="#000000">tailnet&#45;2a8f</text>
</g>
<!-- serval&#45;gecko&#45;&#45;tailnet&#45;2a8f -->
<g id="edge83" class="edge">
<title>serval&#45;gecko&#45;&#45;tailnet&#45;2a8f</title>
<path fill="none" stroke="#000000" d="M524.8103,-27.6881C531.5984,-26.6739 538.5347,-25.6376 545.2545,-24.6336"/>
</g>
<!-- spitz&#45;yo -->
<g id="node47" class="node">
<title>spitz&#45;yo</title>
<ellipse fill="none" stroke="#000000" cx="836.5099" cy="-564.5598" rx="38.9931" ry="18"/>
<text text-anchor="middle" x="836.5099" y="-560.8598" font-family="Times,serif" font-size="14.00" fill="#000000">spitz&#45;yo</text>
</g>
<!-- wolf&#45;turtle -->
<g id="node48" class="node">
<title>wolf&#45;turtle</title>
<ellipse fill="none" stroke="#000000" cx="931.7586" cy="-550.3291" rx="48.1917" ry="18"/>
<text text-anchor="middle" x="931.7586" y="-546.6291" font-family="Times,serif" font-size="14.00" fill="#000000">wolf&#45;turtle</text>
</g>
<!-- spitz&#45;yo&#45;&#45;wolf&#45;turtle -->
<g id="edge84" class="edge">
<title>spitz&#45;yo&#45;&#45;wolf&#45;turtle</title>
<path fill="none" stroke="#000000" d="M873.8814,-558.9763C878.155,-558.3378 882.5444,-557.682 886.9027,-557.0308"/>
</g>
<!-- tailnet&#45;080e -->
<g id="node49" class="node">
<title>tailnet&#45;080e</title>
<ellipse fill="none" stroke="#000000" cx="52.6881" cy="-300.8778" rx="52.7911" ry="18"/>
<text text-anchor="middle" x="52.6881" y="-297.1778" font-family="Times,serif" font-size="14.00" fill="#000000">tailnet&#45;080e</text>
</g>
<!-- wolf&#45;lizard -->
<g id="node50" class="node">
<title>wolf&#45;lizard</title>
<ellipse fill="none" stroke="#000000" cx="165.5804" cy="-284.0111" rx="50.0912" ry="18"/>
<text text-anchor="middle" x="165.5804" y="-280.3111" font-family="Times,serif" font-size="14.00" fill="#000000">wolf&#45;lizard</text>
</g>
<!-- tailnet&#45;080e&#45;&#45;wolf&#45;lizard -->
<g id="edge85" class="edge">
<title>tailnet&#45;080e&#45;&#45;wolf&#45;lizard</title>
<path fill="none" stroke="#000000" d="M101.2198,-293.6269C107.1959,-292.7341 113.2927,-291.8231 119.2352,-290.9353"/>
</g>
<!-- tailnet&#45;20c4 -->
<g id="node51" class="node">
<title>tailnet&#45;20c4</title>
<ellipse fill="none" stroke="#000000" cx="774.7171" cy="-85.6552" rx="52.7911" ry="18"/>
<text text-anchor="middle" x="774.7171" y="-81.9552" font-family="Times,serif" font-size="14.00" fill="#000000">tailnet&#45;20c4</text>
</g>
<!-- tailnet&#45;aa28 -->
<g id="node52" class="node">
<title>tailnet&#45;aa28</title>
<ellipse fill="none" stroke="#000000" cx="896.1993" cy="-84.6275" rx="51.9908" ry="18"/>
<text text-anchor="middle" x="896.1993" y="-80.9275" font-family="Times,serif" font-size="14.00" fill="#000000">tailnet&#45;aa28</text>
</g>
<!-- tailnet&#45;20c4&#45;&#45;tailnet&#45;aa28 -->
<g id="edge86" class="edge">
<title>tailnet&#45;20c4&#45;&#45;tailnet&#45;aa28</title>
<path fill="none" stroke="#000000" d="M827.6476,-85.2074C833.0185,-85.162 838.4722,-85.1159 843.8371,-85.0705"/>
</g>
<!-- tailnet&#45;cd29 -->
<g id="node53" class="node">
<title>tailnet&#45;cd29</title>
<ellipse fill="none" stroke="#000000" cx="832.6915" cy="-37.2614" rx="52.7911" ry="18"/>
<text text-anchor="middle" x="832.6915" y="-33.5614" font-family="Times,serif" font-size="14.00" fill="#000000">tailnet&#45;cd29</text>
</g>
<!-- tailnet&#45;20c4&#45;&#45;tailnet&#45;cd29 -->
<g id="edge87" class="edge">
<title>tailnet&#45;20c4&#45;&#45;tailnet&#45;cd29</title>
<path fill="none" stroke="#000000" d="M794.9937,-68.7294C800.7406,-63.9322 806.991,-58.7147 812.7197,-53.9327"/>
</g>
<!-- tailnet&#45;aa28&#45;&#45;tailnet&#45;cd29 -->
<g id="edge95" class="edge">
<title>tailnet&#45;aa28&#45;&#45;tailnet&#45;cd29</title>
<path fill="none" stroke="#000000" d="M873.9873,-68.0612C867.835,-63.4726 861.1559,-58.4911 854.9982,-53.8985"/>
</g>
<!-- tailnet&#45;3f25 -->
<g id="node54" class="node">
<title>tailnet&#45;3f25</title>
<ellipse fill="none" stroke="#000000" cx="451.3753" cy="-804.2261" rx="51.9908" ry="18"/>
<text text-anchor="middle" x="451.3753" y="-800.5261" font-family="Times,serif" font-size="14.00" fill="#000000">tailnet&#45;3f25</text>
</g>
<!-- turkey&#45;coho -->
<g id="node55" class="node">
<title>turkey&#45;coho</title>
<ellipse fill="none" stroke="#000000" cx="569.0562" cy="-805.6411" rx="53.0913" ry="18"/>
<text text-anchor="middle" x="569.0562" y="-801.9411" font-family="Times,serif" font-size="14.00" fill="#000000">turkey&#45;coho</text>
</g>
<!-- tailnet&#45;3f25&#45;&#45;turkey&#45;coho -->
<g id="edge88" class="edge">
<title>tailnet&#45;3f25&#45;&#45;turkey&#45;coho</title>
<path fill="none" stroke="#000000" d="M503.6772,-804.855C507.6059,-804.9022 511.574,-804.9499 515.5102,-804.9973"/>
</g>
<!-- werewolf&#45;map -->
<g id="node56" class="node">
<title>werewolf&#45;map</title>
<ellipse fill="none" stroke="#000000" cx="502.6461" cy="-758.6531" rx="62.2891" ry="18"/>
<text text-anchor="middle" x="502.6461" y="-754.9531" font-family="Times,serif" font-size="14.00" fill="#000000">werewolf&#45;map</text>
</g>
<!-- tailnet&#45;3f25&#45;&#45;werewolf&#45;map -->
<g id="edge89" class="edge">
<title>tailnet&#45;3f25&#45;&#45;werewolf&#45;map</title>
<path fill="none" stroke="#000000" d="M470.4666,-787.2564C474.6803,-783.511 479.1468,-779.5409 483.3678,-775.789"/>
</g>
<!-- turkey&#45;coho&#45;&#45;werewolf&#45;map -->
<g id="edge97" class="edge">
<title>turkey&#45;coho&#45;&#45;werewolf&#45;map</title>
<path fill="none" stroke="#000000" d="M545.8292,-789.207C539.5453,-784.7609 532.7359,-779.9429 526.4224,-775.4758"/>
</g>
<!-- tailnet&#45;5393 -->
<g id="node57" class="node">
<title>tailnet&#45;5393</title>
<ellipse fill="none" stroke="#000000" cx="870.7677" cy="-814.3141" rx="53.0913" ry="18"/>
<text text-anchor="middle" x="870.7677" y="-810.6141" font-family="Times,serif" font-size="14.00" fill="#000000">tailnet&#45;5393</text>
</g>
<!-- tailnet&#45;777e -->
<g id="node58" class="node">
<title>tailnet&#45;777e</title>
<ellipse fill="none" stroke="#000000" cx="989.5009" cy="-796.5748" rx="52.7911" ry="18"/>
<text text-anchor="middle" x="989.5009" y="-792.8748" font-family="Times,serif" font-size="14.00" fill="#000000">tailnet&#45;777e</text>
</g>
<!-- tailnet&#45;5393&#45;&#45;tailnet&#45;777e -->
<g id="edge92" class="edge">
<title>tailnet&#45;5393&#45;&#45;tailnet&#45;777e</title>
<path fill="none" stroke="#000000" d="M919.7465,-806.9964C926.7733,-805.9466 934.0004,-804.8668 941.0175,-803.8184"/>
</g>
<!-- tailnet&#45;a300 -->
<g id="node59" class="node">
<title>tailnet&#45;a300</title>
<ellipse fill="none" stroke="#000000" cx="907.6881" cy="-338.8778" rx="52.7911" ry="18"/>
<text text-anchor="middle" x="907.6881" y="-335.1778" font-family="Times,serif" font-size="14.00" fill="#000000">tailnet&#45;a300</text>
</g>
<!-- tailnet&#45;d9f0 -->
<g id="node60" class="node">
<title>tailnet&#45;d9f0</title>
<ellipse fill="none" stroke="#000000" cx="1020.5804" cy="-322.0111" rx="51.9908" ry="18"/>
<text text-anchor="middle" x="1020.5804" y="-318.3111" font-family="Times,serif" font-size="14.00" fill="#000000">tailnet&#45;d9f0</text>
</g>
<!-- tailnet&#45;a300&#45;&#45;tailnet&#45;d9f0 -->
<g id="edge94" class="edge">
<title>tailnet&#45;a300&#45;&#45;tailnet&#45;d9f0</title>
<path fill="none" stroke="#000000" d="M956.2198,-331.6269C961.7178,-330.8055 967.318,-329.9688 972.8062,-329.1488"/>
</g>
</g>
</svg>
