<?xml version="1.0" encoding="UTF-8"?>
<svg width="4096" height="4096" version="1.1" xmlns="http://www.w3.org/2000/svg"><g id="a" stroke="#000" stroke-width="45"><g stroke="none"><path d="m1788 727.2c-52.42 29.27-112.8 54.3-150.4 102.9-8.648 33.32 35.69 45.08 55.14 62.99 409.3 263.8 839.7 492.5 1254 748.6 212.2 138 416.3 289.5 612.8 449.5 198.9 163.6 383.6 349 512.8 573.9 5.86 22.79 40.3 42.42 49.54 11.1 1.365-140.7 3.156-282.3-0.4008-422.5-24.9-35.35-66.06-59.15-97.58-89.74-264.7-220.1-541.7-425.6-828.7-615.5-305.8-190.5-620.5-366.1-931.1-548.5-154.2-89.46-308.4-180.6-460.4-272.9-5.449-1.16-10.11-3.269-15.34 0.098z" fill="#a400e8"/><path d="m2007 693.4c-49.88 0.8025-100.3 6.938-148.1 21.23-16.21 14.28 10.01 26.04 20.11 33.11 277.5 172.3 563.2 330.8 844.8 496.2 232 136 466.8 268.2 685.2 425.7 236.1 167.8 468.9 341.1 688.4 530.5 25.8 7.948 13.93-31.24 16.68-45.75-0.7709-107.3 3.832-214.8-0.9904-322-4.137-24.32-33.79-31.69-49.13-47.75-235.8-172.3-472.6-344.1-724.8-491.8-199.8-119.1-400.8-236.1-601.9-352.8-122.2-26.27-231.5-84.92-339.6-144.6-115-60.93-242.5-104.3-374.1-102.1-5.518-0.0676-11.04-0.0635-16.56-0.0123z" fill="#d700e8"/><path d="m3141 712.9c-18.26 62.81-52.51 122.3-106.3 161-55.35 43.97-124.5 66.52-194 70.99-23.76 13.34 11.47 27.69 23 34.32 248.5 146.6 500.8 286.8 741.9 445.5 168 112.1 331.8 230.8 495 349.8 23.02 3.118 12.66-27.65 15.13-41.22 0.7617-146 0.3445-292.1 0.4251-438.1-11.79-20.24-38.99-27.49-56.75-42.66-280.6-184.5-573.9-348.6-863.1-519.1-17.78-5.486-36.51-32.44-54.75-20.98z" fill="#e700ce"/><path d="m3523 281c-30.65 30.96-61.91 62.25-98.77 85.56-26.01 17.38-54.48 30.65-82.52 44.22-9.58 7.146-6.892 20.87-9.933 31.15-11.56 71.34-44.99 139.4-97.17 190-16.76 17.09-36.44 30.82-55.44 45.16-6.372 7.494 0.8623 16.65 8.626 19.18 219.2 128.3 439 255.8 656.7 386.5 86.31 52.57 170.8 107.4 255.1 163.1 8.751 5.212 17.83-4.244 15.5-13.26-0.034-201.6 1.017-403.2-0.2208-604.8-0.4014-11.69-14.25-14.13-21.96-20.11-186-109.7-372.6-218.4-559.1-327.3-3.912-1.559-7.022-1.4-10.8 0.4628z" fill="#e70096"/></g><g id="b" stroke-width="45"><g stroke="none"><path d="m10.4 3896c-12.11 0.5643-27.15 4.753-29.37 18.71-2.995 36.99-1.096 74.26-1.71 111.4 0.3891 29.47-0.7774 59.11 0.5815 88.48 1.216 14.02 16.83 19.3 29.02 17.32 13.66-0.1303 32.3 2.484 39.46-12.5 5.807-12.77-3.838-25.42-4.911-38.24-8.138-36.51-13.17-74.33-12.36-111.4-0.677-18.76 1.162-37.58 1.472-56.2-0.5052-10.99-11.69-18.61-22.19-17.54z" fill="#4500e7"/><path d="m-5.254 3761c-9.543 2.055-16.37 11.47-15.78 21.15-0.1675 28.96-0.411 57.94 0.07864 86.89-0.1708 9.847 6.815 19.61 16.75 21.28 8.056 1.266 16.05-1.514 24.08-2.005 9.258-0.6253 18.07-7.099 20.02-16.4 3.988-20.2 9.091-40.64 15.62-59.87 3.426-7.847 2.016-17.66-4.379-23.58-7.933-6.539-17.37-10.95-26.14-16.25-7.234-3.73-13.87-8.833-21.72-11.22-2.873-0.4815-5.669-0.4774-8.543 0.01z" fill="#e7cf00"/><path d="m-5.988 3022c-37.6 21.45-17.34 77.23-24.47 113-0.1792 196.6-4.661 394.9 2.049 590.4 20.59 21.19 53.48 43.87 84.78 46.57 38.08-31.68 50.69-87.32 90.87-119.4 70.03-73.42 161.3-125.6 259.9-148.1 41.88-36.37 47.17-99.92 87.61-139 49.84-32.13 9.723-70.55-30.63-82.71-153.5-87.4-305.6-178.1-461.5-260.8l-7.762 0.041z" fill="#e89800"/><path d="m-20.12 2476c-18.97 57.28-5.959 122.7-10.97 182.9 1.528 106.8-3.885 215.3 3.294 321.1 54.42 46.1 127.5 74.77 188.8 114.4 126.1 69.64 248.9 147.6 377.4 211.5 47.22-14.39 86.3-53.66 135.9-66.46 53.23-24.82 61.57-93.46 110.4-125.2 40.47-42.52 98.91-59.28 146.5-88.26-4.477-45.69-72.32-50.9-102.8-79.05-277.9-158-553.6-320.8-832.4-476.6-5.377 1.92-10.75 3.84-16.13 5.761z" fill="#e80d00"/><path d="m-29.83 2075c-2.2 117.9-4.666 238.4 1.27 355.6 53.1 45.56 124.7 73.95 184.8 112.9 275.6 155.5 546 320.6 826 468.2 56.58 27.82 123.5 8.704 180.8 36.46 169.8 68.83 306.3 197 471.5 276.1 131.5 73.66 285 89.25 433 78.01 44.83-7.739 106.2 2.875 138.5-34.84 3.586-44.76-58.65-52.84-85.66-77.2-707-409.3-1418-811.4-2123-1225-13.8-3.317-18.57-1.588-27.56 9.354z" fill="#e80096"/><path d="m-28.67 1740c-4.815 94.41-5.124 192.3 0.1023 286.4 54.13 46.47 126.7 75.95 187.6 116.1 692.8 405.6 1391 801.6 2086 1203 42.46 22.59 81.38-26.9 117.6-43.25 35.43-25.93 77.04-50.01 99.34-88.23-22.57-41.22-79.99-52.32-116-81.87-672.7-403.1-1365-774.4-2032-1186-110.1-66.94-213.9-145.9-322.2-213.9-8.854-6.585-13.97 4.775-20.91 7.454z" fill="#e800ce"/><path d="m-6.064 1448c-39.41 14.58-19.17 70.42-25.26 102.4 4.814 49.43-10.3 104.8 8.801 150.2 464 331.7 968.6 600 1460 887.3 341 195.4 682.9 391.6 1020 592.2 50.36 18.72 71.71-46.93 87.03-82.21 21.38-35.66-11.47-63.69-42.67-77.08-364.9-244.3-754.6-448.2-1133-670.9-335.9-194.3-676.5-383-987.6-616.4-129.6-91.59-253.9-191.9-381.5-285.2l-5.685-0.3942z" fill="#d700e8"/><path d="m-24.27 1076c-20.45 33.11-4.314 77.87-9.455 115.8 2.988 72.82-6.179 147.3 6.518 219.2 18.45 19.05 47.78 27.37 67.24 47.6 255.9 201.8 519.9 394.3 797.2 565.8 492.6 294.3 996.4 569.5 1488 865 76.7 44 145.5 101.8 224.6 141.1 37.51 1.892 30.07-48.67 35.95-73.41 3.275-38.1-44.79-50.58-66.99-75.04-205.7-159.8-438.2-280-661.5-412.6-313.2-183.2-633.5-354.8-936.7-554.5-266.5-186.4-533.4-376.9-752.7-619-63.11-67.47-113.6-145.8-170.1-217.6-6.369-7.488-14.13-3.694-22.21-2.39zm21.42 348.1c-4.527 0.3112 2.7-0.4101 0 0z" fill="#a400e8"/><path d="m1644 1174c-11.2 2.02-18.93 14.47-15.39 25.36 3.21 9.718 11.96 16.13 18.4 23.69 17.08 17.47 33.94 35.34 52.93 50.77 9.436 6.729 23.65 3.182 29.24-6.875 3.826-6.547 11.24-11.56 10.91-19.94 1.057-9.337-6.029-16.77-13.48-21.25-22.87-16.08-45.38-32.66-68.06-49-4.348-2.588-9.575-3.536-14.56-2.759z" fill="#a400e8"/><path d="m-26.2-17.6c-12.6 111.2-1.885 226.8-5.442 339.7 1.633 232.3-3.645 465.1 6.595 697.1 85.77 120.1 177.2 251.6 287.1 357.6 222.9 218.2 478.3 400.3 737 573.3 456.6 288.8 940.2 535.4 1395 825.5 59.79 34.55 108.3 88.72 170.5 118.7 40.04 2.644 31.41-52.18 4.669-65.78-238.8-227.3-540-369.4-820-537.2-291.3-168.2-586.4-331.2-849.9-541.4-206.9-153.2-398.2-335.1-522.1-563.5-159.7-276.2-205.5-614-133.4-924.6 20.19-88.01 58.22-174.1 88.18-258.8-15.71-40.92-74.6-19.14-107.9-26.59-80.74 1.235-163.2-4.358-242.8 2.695l-7.127 3.074z" fill="#4600e7"/></g><g fill="#0089e8" stroke="none"><path d="m2400 2609c-8.3 1.219-14.8 7.764-17.07 15.67-3.67 4.266-8.992 7.82-9.808 13.91-2.804 9.503 3.16 19.22 11.41 23.8 38.93 28.06 76.78 57.37 113.8 88.02 8.277 6.262 16.37 17.03 28.2 15.79 12.57-0.2063 21.79-14.28 17.75-26.01-3.514-9.54-12.25-15.76-18.53-23.42-33.39-35.75-69.3-69.14-106.8-100.5-5.168-4.852-11.69-8.131-18.93-7.224z"/><path d="m364.2-17.6c-89.33 170.2-143.6 361.1-136.7 554.5-4.086 161.7 18.4 324.5 82.04 474.1 107.4 275.3 306.8 505.2 540.4 682.3 225.7 181.1 469.6 337.6 721.7 479.1 267.2 154.2 536.1 306.1 797.8 469.4 28.35 17.3 48.59-26.18 21.21-40.93-146.3-120-317.2-205.6-478.5-303.2-354.9-206.2-724.8-401.6-1018-694-206.7-210.6-343.5-500.2-330.7-799.2-2.803-276.4 131.2-542.3 329.4-731.1 16.22-28.07 92.72-63.3 53.67-95.14-188.6-5.108-378.8-0.7234-568-2.192-4.851 2.092-9.702 4.184-14.55 6.276z"/><path d="m3154-17.6c-13.65 40.47 44.33 62.52 62.9 94.54 67.28 78.42 122.1 177.7 112.5 284.4 15.98 43.01 61.71-1.778 87.34-14.69 98.6-66.63 160-175.3 179.4-291.4 9.727-28.26 12.79-76.89-29.43-75.4-134.7-5.711-271.5-5.806-405.3-0.6102l-7.127 3.074z"/><path d="m2295 2465c-6.694 0.6607-12.59 4.908-16.11 10.53-3.561 4.131-5.856 9.494-5.466 15.02 0.2568 6.835 4.413 13.14 10.27 16.55 16.66 11.29 33.13 22.88 49.46 34.64 11.72 8.311 23.14 17.04 34.67 25.61 6.25 4.888 15.4 5.777 22.31 1.746 7.821-4.156 11.99-13.94 9.615-22.46-1.216-5.342-5.078-9.501-9.245-12.82-20.19-17.45-40.94-34.25-62.14-50.45-6.871-5.1-13.59-10.42-20.61-15.32-3.743-2.451-8.338-3.43-12.77-3.03z"/></g><g stroke="none"><path d="m1769-29.57c-245.3 0.7798-490.6-1.295-735.9 2.616-9.951-0.9177-21.95 3.872-25.61 11.52 1.252-1.951-11.01 11.18-15.02 13.95-165.5 136.4-305.3 311.7-371.7 517.7-32.38 98.77-49.93 202.6-47.92 306.6-2.125 71.6 4.598 143.2 20.3 213.1 40.06 194.9 140.7 373.8 272.4 521.5 140.2 152.2 310 272.5 479 390.3 170.1 113.1 349.9 210.4 526.4 312.9 132.9 76.41 266.7 151.9 396.4 233.3 19.17 11.66 42.11-14.72 26.81-31.61-48.71-38.87-103.3-70.25-156.5-102.7-208.1-122.5-420.3-237.7-625.5-365-113-73.25-221.7-153.5-325.5-239.3-154.7-127.5-279.2-294.6-338.5-487.3-28.66-91.07-40.66-185.9-36.98-281.4 1.484-110.7 27.07-216.9 71.79-319.1 80.95-178.7 223.6-323.5 383.9-432.6 145.8-99.82 313.8-166.6 487.7-194.6 94.62-16.67 189.6-20.43 286-17.86 150.6 1.151 301.7 21.14 448.3 58.54 159.8 42.07 315.4 110.8 450.5 208.5 90.72 66.98 174.8 157.2 195.9 271.7 6.338 31.3 1.023 64.45 10.08 94.87 17.12 18.45 36.83-2.672 51.15-13.77 51.78-41.82 91.71-98.53 108.7-163.3 31.68-105.8 19.57-225.1-40.03-318.9-39.91-65.65-95.82-119.7-154.6-168.4-3.975-23.81-33.56-17.88-51.09-19.38-376.2-3.225-752.4-1.304-1129-1.879-53.96 6e-3 -107.9 0.01193-161.9 0.0179zm-763.5 19.5c1.202-4.67 1.09-3.133 0 0z" fill="#00c5e8"/><path d="m1980 31.12c-329.5 1.039-660.2 128.4-890.9 366.7-162.9 157.2-269.4 376.9-265.5 605.7-9.194 256.8 116.3 502 299.7 675.8 340.2 326 783.1 508.9 1171 767.3 128.5 92.92 257.6 209 300.6 367.3 21.18 156.6-20.07 330.6-142.7 438.5-203.9 187.7-517.1 208.8-768 112.8-184.1-80.21-334.7-219.4-517.7-301.7-154.9-60.67-354.9-8.392-435.9 143.6-40.02 67.91-29.36 151.5-23.62 226.5 56.69 177.3 217.8 292.9 369.5 386.6 280.2 166.6 608.1 252.3 934.2 238.4 396.3 5.011 800.7-155.6 1057-463.8 177.4-205.9 267.6-481.7 250.4-752.6-2.357-202.6-96.95-392.2-210-555.5-179-228.9-429.9-386.4-673-538.9-249.8-154-516-286.6-745-470.3-80.83-69.03-153.7-167.9-140.3-279.9-2.48-134.2 118.7-230 231.9-278 134.1-56.2 287.5-57.58 426.2-23.21 206.4 51.51 373.2 213.6 590.8 227 142.5 11.84 294.5-80.7 321.9-226.5 33.59-133.9-33.85-271.1-136.2-356-230.9-192.6-532.1-281.5-828.2-303.4-58.43-5.076-117.1-7.338-175.7-6.367z" fill="#00e8df"/><path d="m391.1 3523c-188.7 45.61-345.4 219.2-347.9 417.1-2.053 65.48-1.558 136.7 30.15 194.8 217 4.094 435.6 4.96 653.1-2.729 35.77-3 20.53-45.43-5.154-53.14-107.5-85.16-216.5-182.6-273.9-310.7-34.42-73.71-28.9-154.2-34.66-233.2-0.3646-9.986-14.02-12.71-21.58-12.19z" fill="#0089e7"/><path d="m1723 1245c-37.3 30.99 24.84 56.84 44.69 75.04 360.9 259 776.8 434.7 1118 721.7 206.7 159.4 362.7 385.2 424.4 638.9 49.94 215.9 19.93 445.8-60.85 649.8-100.2 233.8-287.2 422.3-501.8 553.8-250.8 147.4-544.9 196.7-833.1 185.8-322.8-0.7938-647.4-104.2-917.7-281.7-127.2-88.13-258.9-199.6-302.8-352.8-11.13-54.97 2.36-113.2-12.49-167.2-35.12-25.72-72.28 23.02-102.2 39.29-125.7 88.25-184.6 258.1-135 404.4 44 150.1 167 259.4 285.3 353.5 26.27 15.92 45.71 40.18 64.12 61.32 154.5 15.81 311.3 6.06 466.7 9.935 582.7-0.6852 1166 4.494 1748-6.054 18.77-9.116 12.46-16.69 31.77-31.11 187.8-156.8 348.3-353.5 428.5-587.3 109.8-304 111.6-655.9-40-946.5-107.4-240.3-301.2-427-509.2-581.9-352-276.4-762.3-463.3-1132-712-20.16-9.597-39.74-31.92-63.74-27.08zm1302 2866c-0.9082 8.823-1.582-18.8 0 0zm-2246-2.516c-0.5437-0.6636-0.5074-7.376 0 0z" fill="#00c5e7"/><path d="m1578 1017c-42.99 23.87-1.799 75.36 23.54 96.25 177.8 158.3 391.3 268.8 593 392.6 274.3 159.4 551.7 315.7 797.7 517.6 180.4 137.6 339.9 307.7 436.2 515.3 107.4 202.3 154.3 435.8 123.6 663.3-27.58 306.1-172.2 598.9-396.7 810.1-30.93 36.45-75.04 64.27-97.14 106.5 23.73 40.49 88.45 9.762 128.7 19.36 153.9-2.079 309.5 4.138 462.3-3.074 37.04-43.22 55.78-105.2 83.83-156.7 177-388.1 207.8-857.4 18.49-1247-99.49-223.3-244.3-426.7-432.5-583.8-266.2-229-557.6-427.4-863.4-599.8-290.7-169.2-583.4-336.1-860.4-526.9-4.996-3.887-11.36-2.878-17.25-3.517z" fill="#0089e7"/><path d="m1617 865.4c-34.19 11.53-42.13 55.65-52.57 86.17-0.2109 37.66 45.41 53.06 68.91 75.58 393.6 278.8 830.7 489.7 1232 755 175 124.5 348.4 248.9 506.1 394.4 114 104.5 216.5 222.2 293.5 356.8 126.5 212.4 220.9 455.4 225.3 706.4 3.656 186.2-12.91 372.3-69.85 550.6-32.57 110-81.27 214.1-135 315.6-9.063 37.2 39.14 30.28 61.78 31.51 120.2 1.478 241.4 3.854 361-0.3972 29.17-16.81 8.881-60.9 14.9-89.33v-1269c-89.29-171.6-202.1-333.2-340.7-469.4-235-235.6-507.3-429.8-780.1-618.8-302.3-194.5-619-365.4-927.5-549.9-149.4-87.09-295.7-178.8-440.6-272.5-5.395-2.381-11.36-3.837-17.28-3.205z" fill="#4600e8"/><path d="m3629-10.48c-3.446 20.02-2.266 40.66-5.353 60.78-8.189 69.34-29.99 137.6-67.26 196.9-4.938 5.867 4.808 8.296 8.259 11.05 137.8 81.21 276.2 161.3 414 242.4 50.4 29.31 100.3 59.44 150.9 88.45 5.85-0.8962 1.652-9.861 3.054-14.01 1.104-194.8 0.5007-389.6 0.6623-584.4-4.622-4.656-14-0.684-20.41-2h-482.4l-1.111 0.5219z" fill="#e70c00"/></g><g fill="none" stroke="#000" stroke-linejoin="round"><g stroke-width="45"><path d="m2019 24.86-10-0.064-21.47-0.138-31.48 0.325-29.98 0.938-1.222 0.038-29.96 1.576-0.972 0.051-29.92 2.224-0.737 0.054-30.38 2.93-29.79 3.542-0.312 0.037-9.901 1.405-19.92 2.826-29.55 4.882-29.27 5.532-9.78 2.086-19.22 4.097-19.46 4.631-9.262 2.204-28.44 7.485-28.17 8.136-27.89 8.787-27.61 9.438-27.34 10.09-27.06 10.74-26.78 11.39-18.21 8.272-8.298 3.769-10.24 4.955-15.99 7.738-25.96 13.34-25.68 13.99-25.4 14.64-8.541 5.2-16.58 10.1-24.85 15.95-24.57 16.6-8.154 5.789-16.14 11.46-8.018 5.976-16 11.92-23.74 18.55-0.767 0.628-22.7 18.57-22.94 19.65-7.441 6.681-14.72 13.22-7.278 6.857-14.11 13.29-7.107 7.035-7.108 7.034-6.391 6.324-13.86 14.42-5.974 6.218-13.48 14.78-5.574 6.111-13.08 15.13-5.193 6.006-17.5 21.38-16.72 21.63-5.888 8.082-5.889 8.083-4.164 5.714-11.3 16.5-3.858 5.629-5.408 8.412-8.977 13.96-10.31 17.14-3.298 5.484-4.893 8.722-7.938 14.15-9.246 17.73-2.807 5.383-11.28 23.37-10.5 23.61-7.546 18.52-2.174 5.338-8.943 24.11-3.178 9.481-4.987 14.88-2.875 9.578-2.876 9.578-1.636 5.448-5.14 19.33-1.469 5.523-2.264 9.741-2.263 9.741-1.305 5.617-1.956 9.808-1.955 9.806-1.144 5.733-1.648 9.864-1.648 9.863-0.98 5.868-1.342 9.91-1.342 9.909-0.816 6.023-1.037 9.946-1.038 9.946-0.646 6.198-0.736 9.973-0.737 9.973-0.471 6.392-0.439 9.99-0.438 9.99-0.29 6.605-0.29 20-0.099 6.835 0.117 9.999 0.117 10 8e-3 0.691 0.352 9.994 0.353 9.993 0.021 0.61 1.178 19.97 0.032 0.54 0.827 9.966 0.826 9.966 0.04 0.481 1.066 9.943 1.065 9.944 0.046 0.435 1.305 9.914 1.304 9.915 0.053 0.4 3.086 19.76 0.059 0.377 3.562 19.68 0.066 0.365 2.019 9.793 2.019 9.795 0.075 0.364 2.255 9.743 2.341 10.12 4.978 19.37 0.103 0.398 2.721 9.622 2.721 9.623 0.122 0.431 2.951 9.555 2.95 9.554 0.147 0.475 3.177 9.482 3.178 9.481 0.177 0.529 3.4 9.404 3.401 9.404 0.214 0.591 7.242 18.64 0.258 0.664 3.837 9.234 3.836 9.235 0.31 0.746 8.098 18.29 0.37 0.835 8.512 18.1 0.438 0.932 4.46 8.951 4.459 8.951 0.516 1.037 4.658 8.85 4.657 8.849 0.604 1.148 4.851 8.745 4.85 8.745 0.702 1.265 10.08 17.28 0.809 1.387 5.222 8.528 6.148 10.04 5.4 8.417 5.399 8.417 1.055 1.644 11.14 16.61 1.193 1.779 5.74 8.189 7.082 10.1 11.8 16.15 1.503 2.055 12.12 15.91 1.673 2.198 14.27 18.02 5.965 7.278 6.143 7.318 6.321 7.358 6.5 7.399 6.679 7.439 6.758 7.371 0.099 0.108 6.833 7.302 0.203 0.218 6.904 7.234 0.311 0.326 6.972 7.168 0.421 0.432 7.038 7.103 0.533 0.538 7.103 7.039 0.647 0.642 7.164 6.977 0.765 0.744 7.223 6.915 0.884 0.847 7.28 6.855 1.006 0.946 8.464 7.843 7.389 6.738 1.254 1.144 7.44 6.682 1.381 1.241 9 7.963 7.537 6.572 1.642 1.432 9.357 8.044 7.628 6.466 1.908 1.618 9.714 8.124 7.712 6.366 2.181 1.799 10.07 8.205 7.792 6.268 2.458 1.978 10.43 8.285 10.61 8.326 10.79 8.367 7.936 6.085 3.028 2.322 11.14 8.447 7.991 6.011 3.169 2.384 11.02 8.251 10.87 8.107 10.73 7.963 10.58 7.819 10.44 7.676 10.3 7.531 10.15 7.387 10.01 7.243 9.864 7.1 9.72 6.955 8.148 5.796 1.428 1.015 8.165 5.772 1.267 0.895 9.288 6.523 8.201 5.722 0.943 0.657 8.22 5.695 0.78 0.541 8.239 5.667 0.617 0.424 8.259 5.638 0.453 0.309 8.567 5.803 8.301 5.577 0.124 0.083 8.279 5.515 8.136 5.371 7.992 5.227 7.848 5.083 7.704 4.94 7.56 4.795 7.416 4.651 7.272 4.507 7.128 4.363 6.984 4.219 7.019 4.205 7.232 4.32 7.444 4.435 7.658 4.551 7.871 4.665 8.084 4.781 8.298 4.896 8.51 5.011 8.622 5.067 0.102 0.06 8.625 5.059 0.311 0.182 8.63 5.053 9.883 5.776 8.637 5.04 9.58 5.581 1.148 0.669 8.644 5.027 1.358 0.79 8.648 5.022 1.568 0.911 10.43 6.048 8.653 5.012 10.64 6.158 2.198 1.272 11.07 6.393 11.28 6.509 11.49 6.624 11.71 6.739 11.92 6.855 8.671 4.98 3.462 1.989 12.35 7.085 8.675 4.973 3.884 2.227 21.45 12.28 30.69 17.54 12.93 7.396 12.69 7.258 12.44 7.119 8.678 4.969 3.513 2.012 8.677 4.971 11.94 6.845 14.47 8.298 11.2 6.428 10.95 6.29 10.7 6.152 10.46 6.013 8.667 4.988 1.543 0.887 8.665 4.991 1.297 0.746 8.663 4.994 1.051 0.605 8.662 4.997 0.804 0.464 8.661 4.999 0.558 0.323 8.659 5.003 0.312 0.181 8.724 5.045 8.476 4.908 8.228 4.769 7.98 4.631 7.733 4.493 7.485 4.355 7.238 4.216 6.989 4.078 6.742 3.94 6.495 3.801 6.247 3.664 5.999 3.525 25.69 15.49 3.534 2.131 8.485 5.291 19.75 12.32 16.8 10.85 10.44 6.746 26.25 17.58 24.63 17.13 0.635 0.442 24.27 17.56 15.97 12.04 7.311 5.512 7.859 6.183 14.43 11.36 15.44 12.71 5.856 4.82 15.15 13.06 5.164 4.454 7.411 6.714 11.91 10.79 18.33 17.49 17.34 17.48 6.833 7.302 9.514 10.17 6.605 7.509 8.751 9.95 12.71 15.44 1.652 2.008 6.087 7.934 6.087 7.935 1.201 1.566 11.59 16.3 0.797 1.122 10.95 16.74 0.443 0.676 10.26 17.17 0.14 0.234 9.412 17.39 4.361 8.999 4.06 8.379 3.934 9.194 3.496 8.172 1.095 2.949 3.479 9.376 1.866 5.03 2.997 9.54 2.452 7.803 4.458 17.33 1.963 9.806 1.505 7.514 0.923 6.452 1.416 9.899 0.138 0.958 0.856 9.964 0.629 7.333 0.287 9.996 0.209 7.29-0.123 9.999-0.076 6.132-0.374 9.993-0.222 5.913-0.632 9.98-0.362 5.702-0.141 1.573-0.896 9.96-0.354 3.924-1.166 9.932-0.622 5.3-1.441 9.896-0.745 5.112-1.721 9.85-0.862 4.933-2.006 9.797-0.975 4.761-3.378 14.33-2.585 9.66-1.191 4.449-2.878 9.577-1.295 4.307-2.98 8.907-1.591 4.753-3.468 9.38-1.5 4.055-3.763 9.265-1.602 3.946-4.057 9.14-1.706 3.846-4.347 9.006-1.813 3.755-4.635 8.861-1.923 3.676-4.919 8.707-2.036 3.605-7.353 12.09-5.469 8.372-2.281 3.491-8.147 11.64-8.545 11.41-8.943 11.19-6.485 7.612-1.313 1.543-1.542 1.809-9.737 10.74-10.14 10.52-7.152 6.988-3.38 3.302-10.93 10.06-7.549 6.559-3.778 3.282-11.72 9.617-11.99 9.345-8.017 5.976-4.096 3.053-12.24 8.712-12.37 8.395-8.397 5.43-4.096 2.648-12.62 7.762-12.75 7.445-12.87 7.128-8.857 4.641-4.143 2.17-13.13 6.494-13.25 6.178-13.38 5.861-13.51 5.544-9.337 3.58-4.297 1.647-9.419 3.361-4.342 1.549-9.494 3.141-4.393 1.453-14.01 4.277-14.14 3.96-14.27 3.643-9.744 2.252-4.65 1.074-9.792 2.03-4.729 0.98-14.65 2.693-9.873 1.588-4.902 0.788-9.905 1.369-4.996 0.69-15.03 1.743-15.16 1.425-15.28 1.109-15.41 0.792-9.995 0.306-5.54 0.169-15.66 0.158-15.64-0.106-15.48-0.32-9.994-0.347-5.328-0.186-15.16-0.745-15-0.96-9.969-0.787-4.869-0.385-9.956-0.939-4.72-0.446-14.52-1.598-9.921-1.252-4.432-0.56-9.9-1.412-4.293-0.613-9.875-1.574-4.156-0.663-9.848-1.74-4.022-0.711-13.71-2.664-13.55-2.877-13.39-3.091-13.22-3.303-13.06-3.516-9.607-2.777-3.296-0.953-9.553-2.956-3.188-0.987-12.58-4.156-12.42-4.368-12.26-4.582-12.1-4.796-9.221-3.869-2.713-1.139-11.77-5.221-9.057-4.239-2.555-1.196-8.968-4.423-2.483-1.225-8.875-4.607-2.414-1.254-11.13-6.073-8.675-4.974-2.292-1.313-10.86-6.394-8.605-5.094-2.195-1.3-10.74-6.393-8.581-5.135-2.103-1.259-10.63-6.393-8.556-5.176-2.013-1.218-8.544-5.196-1.968-1.197-10.46-6.394-8.518-5.238-1.878-1.156-8.506-5.259-1.834-1.134-8.492-5.281-1.789-1.113-10.22-6.393-10.17-6.394-8.451-5.345-1.657-1.049-10.05-6.393-8.424-5.389-1.57-1.005-8.41-5.411-1.526-0.982-9.878-6.394-8.381-5.456-1.44-0.938-8.366-5.478-1.397-0.915-8.351-5.501-1.355-0.893-9.648-6.393-8.321-5.547-1.269-0.847-8.305-5.57-1.228-0.824-8.29-5.593-1.185-0.8-8.274-5.617-1.144-0.777-9.36-6.393-9.302-6.394-9.245-6.393-9.187-6.394-8.246-5.657-0.918-0.63-9.176-6.074-8.431-5.378-0.756-0.483-8.522-5.232-0.677-0.416-8.612-5.081-0.598-0.353-8.702-4.927-0.52-0.294-8.79-4.768-0.443-0.241-8.877-4.604-0.368-0.191-8.962-4.436-0.294-0.146-9.046-4.264-0.222-0.105-9.127-4.087-0.153-0.069-9.29-3.943-9.303-3.729-9.314-3.517-9.325-3.303-9.337-3.09-9.348-2.877-9.36-2.664-9.372-2.451-9.383-2.238-9.395-2.025-9.406-1.811-9.417-1.598-9.429-1.386-9.441-1.172-9.452-0.959-9.464-0.746-9.475-0.533-9.487-0.319-9.498-0.107-9.452 0.101-9.349 0.302-9.244 0.504-9.141 0.706-9.038 0.907-8.934 1.109-8.83 1.31-8.726 1.512-8.623 1.714-8.519 1.915-8.415 2.117-8.312 2.318-8.208 2.52-8.104 2.722-8.001 2.923-7.897 3.125-7.793 3.326-7.69 3.528-7.585 3.73-7.483 3.931-7.378 4.133-7.275 4.334-7.171 4.536-7.068 4.738-6.964 4.939-6.86 5.141-6.756 5.342-6.653 5.544-6.549 5.746-6.446 5.947-6.287 6.103-6.074 6.212-5.86 6.321-5.648 6.431-5.434 6.541-5.222 6.65-5.008 6.759-4.796 6.869-4.582 6.978-4.369 7.088-4.155 7.197-3.943 7.306-3.73 7.416-3.516 7.526-3.304 7.635-3.09 7.744-1.477 4.033-1.4 3.821-2.664 7.963-2.451 8.072-2.238 8.183-2.024 8.291-1.812 8.401-1.598 8.51-1.385 8.62-1.172 8.73-0.96 8.838-0.745 8.948-0.533 9.058-0.32 9.167-0.106 9.276 0.262 9.997 0.181 6.912 0.787 9.969 0.544 6.888 1.308 9.914 0.909 6.891 0.38 2.046 1.822 9.833 0.903 4.874 2.325 9.726 1.667 6.975 2.812 9.596 2.066 7.053 3.282 9.446 2.484 7.151 3.731 9.278 2.922 7.268 4.157 9.095 3.383 7.399 8.427 16.44 9.313 16.39 4.879 7.812 5.322 8.526 5.628 8.266 5.46 8.02 11.98 16.24 6.223 7.828 6.222 7.829 0.418 0.526 12.97 15.22 0.776 0.909 13.46 14.79 1.173 1.289 15.52 16.03 14.33 13.95 2.079 2.025 14.72 13.54 2.582 2.378 18.18 15.87 19.07 15.82 7.847 6.199 7.846 6.199 4.265 3.37 20.85 15.72 16.22 11.69 5.507 3.97 22.62 15.61 16.68 11.04 6.829 4.521 16.88 10.73 7.516 4.779 25.28 15.46 17.24 10.15 8.617 5.073 0.315 0.186 8.702 4.928 18 10.2 8.786 4.774 17.57 9.549 0.527 0.287 8.87 4.619 17.74 9.237 0.463 0.242 17.9 8.921 8.95 4.461 0.407 0.203 9.027 4.3 18.41 8.772 27.31 12.42 0.315 0.144 27.53 11.92 0.281 0.122 9.246 3.809 18.75 7.725 18.63 7.285 9.552 3.737 9.377 3.474 18.98 7.035 28.55 9.996 28.73 9.484 9.551 2.963 19.36 6.008 28.81 8.374 0.292 0.085 19.3 5.237 9.651 2.619 0.331 0.09 29.09 7.337 0.38 0.096 29.22 6.818 0.437 0.103 9.777 2.099 19.55 4.2 0.506 0.109 29.44 5.78 0.583 0.115 9.845 1.754 19.69 3.509 0.67 0.12 19.75 3.164 10.64 1.706 29.7 4.233 0.874 0.124 29.77 3.721 0.99 0.124 30.94 3.332 19.92 1.804 11.21 1.016 9.973 0.734 21.34 1.573 9.984 0.568 21.51 1.226 31.68 1.281 31.86 0.769 30 0.24 2.05 0.017 20-0.19 19.84-0.187 9.995-0.288 29.35-0.844 38.85-1.887 9.977-0.687 28.38-1.954 37.86-3.395 29.82-3.312 7.548-0.838 9.913-1.319 26.96-3.586 36.38-5.659 19.69-3.52 16.19-2.894 19.6-3.971 15.78-3.197 9.752-2.215 19.5-4.429 5.634-1.279 9.696-2.447 24.7-6.231 19.27-5.361 14.63-4.07 33.4-10.19 32.91-10.94 32.41-11.7 31.92-12.45 15.44-6.488 15.98-6.717 30.93-13.96 18-8.707 9.003-4.353 3.422-1.654 17.77-9.182 12.17-6.287 29.44-16.22 17.25-10.12 11.69-6.858 8.486-5.29 19.96-12.44 16.68-11.03 8.341-5.516 2.931-1.938 8.189-5.739 19.27-13.5 24.1-17.87 2.866-2.125 23.61-18.51 2.858-2.24 7.702-6.378 15.4-12.76 2.865-2.372 7.53-6.58 7.531-6.58 10.42-9.1 7.359-6.77 17.45-16.05 7.188-6.953 16.78-16.23 7.007-7.134 16.12-16.41 20.46-21.94 1.83-1.962 2.494-2.823 18.95-21.45 12.83-15.34 6.416-7.67 1.356-1.622 12.4-15.69 0.893-1.129 6.202-7.845 0.263-0.333 17.94-24.04 0.981-1.314 5.75-8.181 11.5-16.36 0.828-1.179 11.03-16.68 5.514-8.342 0.698-1.057 15.81-25.5 0.59-0.951 15.06-25.95 0.501-0.863 9.524-17.59 4.763-8.793 0.429-0.793 4.5-8.931 9.001-17.86 0.375-0.745 12.7-27.18 0.336-0.718 3.962-9.182 3.961-9.182 3.962-9.182 0.309-0.716 3.687-9.295 3.686-9.296 3.687-9.296 0.293-0.737 10.23-28.2 0.285-0.784 3.129-9.498 3.13-9.498 3.13-9.497 0.282-0.857 2.848-9.586 2.849-9.586 2.849-9.585 0.284-0.956 2.567-9.665 2.568-9.665 2.567-9.665 0.287-1.081 4.572-19.47 2.287-9.736 0.289-1.233 6.018-29.39 0.289-1.411 3.456-19.7 1.727-9.849 0.284-1.616 1.451-9.894 1.452-9.894 1.451-9.894 0.271-1.845 1.178-9.93 1.179-9.931 1.427-12.03 0.909-9.959 0.909-9.958 0.909-9.959 0.217-2.377 0.643-9.98 1.286-19.96 0.173-2.678 0.764-19.99 0.383-9.992 0.114-3.001 0.126-9.999 0.127-10 0.126-9.999 0.042-3.344-0.067-10-0.017-2.424-0.202-9.998-0.048-2.392-0.338-9.994-0.08-2.361-0.474-9.989-0.11-2.332-0.611-9.981-0.141-2.305-0.748-9.972-0.171-2.279-0.885-9.961-0.201-2.256-1.023-9.948-0.229-2.235-1.161-9.932-0.259-2.215-1.299-9.916-0.288-2.198-1.437-9.896-0.317-2.182-1.575-9.876-0.346-2.168-1.713-9.853-0.375-2.157-1.85-9.827-0.405-2.148-1.988-9.8-0.434-2.141-2.125-9.771-0.464-2.134-2.262-9.741-0.494-2.131-2.398-9.708-0.525-2.129-2.533-9.673-0.558-2.129-2.667-9.637-0.59-2.13-2.802-9.6-0.622-2.133-2.935-9.56-0.657-2.139-3.067-9.518-0.691-2.146-3.198-9.475-0.727-2.154-3.329-9.43-0.764-2.165-4.259-11.56-3.586-9.335-0.841-2.19-4.594-11.49-3.837-9.234-0.923-2.222-3.961-9.182-0.967-2.24-4.055-9.141-0.977-2.201-5.071-11.21-5.112-11.09-4.254-9.05-0.898-1.912-5.193-10.83-4.391-8.985-0.842-1.723-4.46-8.95-0.813-1.631-4.531-8.915-0.783-1.54-4.602-8.877-0.752-1.45-4.674-8.84-0.72-1.361-4.748-8.801-0.687-1.273-4.821-8.761-0.653-1.187-5.516-9.821-4.972-8.676-0.583-1.018-5.596-9.567-5.126-8.586-0.51-0.855-5.204-8.539-0.472-0.775-5.284-8.49-0.433-0.697-5.757-9.06-5.444-8.389-0.354-0.545-5.525-8.335-0.313-0.472-5.607-8.28-0.271-0.4-5.69-8.224-0.228-0.33-5.774-8.165-0.185-0.262-5.858-8.105-0.141-0.195-5.943-8.043-0.096-0.13-6.08-8.047-6.12-7.92-6.16-7.793-6.201-7.667-6.321-7.632-6.524-7.69-6.555-7.551-0.169-0.196-6.638-7.479-0.289-0.326-6.716-7.408-0.412-0.454-6.792-7.339-0.537-0.581-6.865-7.271-0.666-0.707-7.733-8.035-7.001-7.14-0.933-0.952-7.065-7.078-1.072-1.073-7.126-7.015-1.211-1.193-8.539-8.265-7.242-6.896-1.499-1.428-8.942-8.38-7.349-6.782-1.795-1.657-7.4-6.726-1.946-1.77-9.547-8.553-9.749-8.612-9.951-8.668-7.583-6.519-2.568-2.208-7.626-6.469-2.728-2.315-7.666-6.421-2.889-2.42-10.76-8.899-10.96-8.957-7.78-6.284-3.38-2.731-7.815-6.239-3.547-2.833-7.849-6.196-3.714-2.933-11.76-9.187-11.97-9.245-7.945-6.074-4.223-3.229-12.19-9.247-7.978-6.028-4.04-3.053-11.85-8.913-11.68-8.747-11.52-8.579-11.35-8.413-8.049-5.934-3.134-2.311-11.02-8.079-10.85-7.911-10.68-7.744-10.52-7.578-10.35-7.41-10.18-7.243-10.01-7.076-9.847-6.909-8.206-5.716-1.474-1.027-8.226-5.685-1.286-0.89-8.248-5.655-1.098-0.752-8.269-5.623-0.91-0.618-8.292-5.59-0.719-0.484-8.316-5.554-0.529-0.353-8.34-5.517-0.337-0.223-8.366-5.478-0.144-0.095-8.344-5.406-8.176-5.238-8.009-5.072-7.842-4.905-7.676-4.737-7.508-4.571-7.341-4.403-7.416-4.41-7.732-4.587-8.05-4.767-8.366-4.945-8.684-5.123-8.616-5.076-9.7-5.707-8.623-5.065-1.011-0.594-8.625-5.06-1.325-0.778-8.628-5.056-12.22-7.155-10.9-6.373-19.86-11.59-14.75-8.599-8.641-5.033-3.527-2.055-25.29-14.71-8.646-5.024-17.91-10.4-27.82-16.14-29.09-16.85-8.655-5.01-37.35-21.61-48.86-28.23-8.655-5.01-8-4.632-16.44-9.573-16.23-9.504-16.02-9.435-15.8-9.366-15.59-9.296-15.38-9.228-15.16-9.158-8.545-5.195-6.405-3.895-8.529-5.22-6.208-3.8-8.513-5.246-6.011-3.705-8.497-5.273-5.814-3.609-8.479-5.3-5.618-3.513-8.462-5.328-5.423-3.415-13.67-8.675-13.46-8.605-13.24-8.536-13.03-8.468-12.82-8.398-8.343-5.512-4.263-2.817-12.39-8.26-8.298-5.58-3.881-2.61-11.97-8.122-11.75-8.052-8.224-5.689-3.316-2.295-8.197-5.727-3.13-2.187-11.11-7.845-8.141-5.807-2.76-1.969-8.111-5.849-2.576-1.858-8.08-5.891-2.395-1.747-12.91-9.688-7.891-6.142-4.585-3.569-12.04-9.734-7.653-6.437-3.948-3.321-11.16-9.78-7.381-6.747-3.344-3.057-7.231-6.907-3.056-2.92-9.85-9.849-9.412-9.873-8.974-9.895-8.536-9.919-6.316-7.753-1.782-2.189-7.661-9.965-5.86-8.103-1.363-1.884-6.786-10.01-5.346-8.451-1.001-1.583-5.066-8.622-0.844-1.435-4.771-8.789-0.701-1.291-5.034-10.1-4.133-9.106-0.464-1.02-3.791-9.254-0.367-0.896-3.435-9.391-0.286-0.781-3.065-9.518-0.218-0.677-0.328-1.176-2.518-9.042-2.288-9.735-0.12-0.506-1.884-9.821-0.085-0.444-1.474-9.89-0.059-0.397-1.055-9.944-0.039-0.366-0.634-9.98-0.023-0.354-0.211-9.998-8e-3 -0.358 0.159-9.622 0.475-9.513 0.792-9.403 1.109-9.294 0.126-0.814 1.3-8.37 1.742-9.075 2.059-8.966 2.376-8.856 2.693-8.746 3.01-8.637 3.326-8.528 3.643-8.418 3.96-8.309 4.277-8.199 4.593-8.09 4.911-7.98 5.227-7.871 5.544-7.762 5.861-7.652 6.177-7.543 6.495-7.433 6.811-7.324 7.028-7.113 0.1-0.101 7.234-6.904 0.211-0.201 7.428-6.695 0.333-0.301 8.079-6.886 7.781-6.281 0.614-0.495 7.941-6.078 0.771-0.59 8.091-5.876 0.938-0.682 9.345-6.448 9.562-6.287 9.677-6.074 8.58-5.135 1.212-0.726 8.687-4.952 1.22-0.695 10.02-5.435 8.89-4.579 1.248-0.642 8.985-4.389 1.267-0.62 10.37-4.795 9.162-4.005 1.321-0.577 10.6-4.369 10.71-4.156 9.396-3.421 1.432-0.521 10.94-3.73 9.53-3.03 1.53-0.486 11.17-3.304 11.29-3.09 11.4-2.877 11.52-2.664 11.64-2.451 11.75-2.238 9.857-1.682 2.008-0.342 11.98-1.812 9.914-1.31 2.182-0.288 12.21-1.385 12.33-1.173 12.44-0.959 12.56-0.746 9.991-0.42 2.681-0.112 12.79-0.32 12.9-0.107 12.99 0.141 9.995 0.324 3.06 0.1 13.12 0.705 9.972 0.747 3.21 0.241 13.24 1.27 13.31 1.552 13.37 1.835 9.878 1.556 3.557 0.561 13.5 2.399 9.81 1.939 3.752 0.742 9.771 2.125 3.854 0.839 9.73 2.307 3.958 0.939 13.75 3.527 13.82 3.811 13.88 4.092 13.94 4.375 9.489 3.155 4.516 1.502 9.435 3.312 4.634 1.627 14.13 5.221 9.324 3.615 4.871 1.889 9.267 3.76 4.992 2.026 9.208 3.901 5.114 2.167 14.39 6.35 14.45 6.633 14.51 6.915 14.58 7.197 14.64 7.48 14.7 7.761 14.77 8.044 14.83 8.326 14.77 8.326 14.58 8.044 14.4 7.762 14.22 7.479 14.03 7.197 13.85 6.915 13.66 6.632 13.48 6.351 9.097 4.152 4.197 1.916 13.11 5.786 9.201 3.917 3.725 1.587 12.74 5.221 9.306 3.66 3.25 1.279 12.37 4.657 9.412 3.378 2.776 0.997 12 4.092 11.82 3.811 11.64 3.527 11.45 3.246 9.671 2.544 1.596 0.42 9.719 2.351 1.363 0.33 10.9 2.399 9.81 1.938 0.904 0.179 1.689 0.294 8.84 1.541 9.889 1.484 0.456 0.068 9.923 1.24 0.237 0.03 9.977 0.988 9.792 0.706 9.607 0.423 9.424 0.141 9.279-0.092 9.176-0.277 9.072-0.461 8.968-0.645 8.865-0.829 8.761-1.014 8.657-1.198 8.554-1.382 8.45-1.567 8.346-1.751 8.242-1.935 8.139-2.12 8.035-2.304 7.932-2.488 7.827-2.673 7.725-2.857 7.62-3.041 7.517-3.226 7.413-3.41 7.309-3.594 7.206-3.779 7.102-3.962 6.999-4.148 6.894-4.331 6.791-4.516 6.688-4.7 6.583-4.885 6.48-5.068 6.377-5.254 6.272-5.437 6.117-5.604 5.91-5.755 5.703-5.904 5.495-6.053 5.287-6.204 5.081-6.353 4.873-6.503 4.665-6.653 4.458-6.802 4.251-6.953 4.044-7.102 3.836-7.252 3.629-7.401 3.421-7.552 3.214-7.701 3.007-7.851 2.799-8 2.592-8.151 2.385-8.3 2.177-8.45 1.97-8.599 1.763-8.75 0.287-1.645 1.268-7.254 0.481-3.231 0.867-5.818 1.14-9.198 0.933-9.349 0.726-9.498 0.519-9.648 0.311-9.798 0.103-9.948-0.247-9.996-0.127-5.158-0.745-9.972-0.378-5.079-1.243-9.922-0.63-5.025-1.738-9.848-0.882-4.995-2.229-9.749-1.141-4.991-2.709-9.626-1.409-5.01-3.176-9.483-1.692-5.05-5.616-14.43-4.06-9.138-2.304-5.187-4.474-8.943-2.64-5.278-7.862-14.12-5.236-8.52-3.376-5.494-5.586-8.302-3.773-5.608-5.908-8.069-4.201-5.738-10.86-13.7-6.492-7.606-5.114-5.993-6.753-7.376-5.602-6.12-6.994-7.147-6.11-6.245-7.217-6.922-6.636-6.366-14.6-13.18-15.35-13.08-15.57-12.55-0.528-0.426-7.946-6.071-7.946-6.072-0.956-0.731-8.094-5.873-8.093-5.873-1.41-1.024-8.229-5.681-10.12-6.985-8.354-5.496-10.74-7.066-19.84-12.46-17.15-10.29-3.442-2.066-8.673-4.978-12.67-7.273-22.09-12.15-22.62-11.9-8.939-4.481-13.98-7.01-9.025-4.308-14.2-6.78-18.21-8.268-5.322-2.417-9.182-3.96-14.66-6.321-24.14-9.878-24.45-9.476-18.78-6.882-5.975-2.19-25.06-8.668-25.36-8.266-25.67-7.863-25.98-7.459-26.28-7.056-9.701-2.427-16.88-4.225-26.89-6.25-27.2-5.846-27.5-5.444-9.839-1.783-17.97-3.257-9.867-1.627-18.24-3.009-28.42-4.234-28.72-3.83-29.03-3.427-19.9-2.051-9.438-0.974-9.961-0.88-19.68-1.74-19.94-1.477-9.998-0.741-30.25-1.814-29.97-1.384-0.586-0.028-19.99-0.652-9.995-0.327-0.875-0.028-9.998-0.194-20-0.389-1.17-0.022"/><path d="m1011-22.13-27.88 22.81-7.594 6.506-15.19 13.01-4.468 3.827-7.441 6.681-18.7 16.79-0.187 0.168-21.84 20.57-3.568 3.361-14.22 14.07-10.26 10.16-20.78 21.64-2.773 2.886-20.22 22.17-2.417 2.649-6.54 7.565-15.17 17.54-19 23.22-1.788 2.185-18.34 23.74-1.516 1.96-11.78 16.16-5.889 8.082-1.271 1.746-16.96 24.75-1.055 1.54-10.82 16.82-5.408 8.411-0.865 1.346-10.31 17.14-5.154 8.57-0.702 1.167-14.68 26.16-0.564 1.005-13.87 26.6-0.449 0.861-8.692 18.01-4.346 9.006-0.356 0.739-12.19 27.41-0.284 0.638-7.545 18.52-3.773 9.261-0.229 0.562-6.956 18.75-3.477 9.376-0.191 0.513-6.356 18.96-3.179 9.482-0.164 0.49-2.876 9.577-2.875 9.578-2.876 9.578-0.149 0.496-5.14 19.33-2.571 9.664-0.141 0.531-4.526 19.48-2.264 9.74-0.138 0.596-1.956 9.807-1.955 9.806-1.956 9.807-0.138 0.691-3.296 19.73-1.648 9.864-0.136 0.815-2.684 19.82-1.342 9.909-0.131 0.971-1.038 9.946-1.037 9.946-1.038 9.946-0.121 1.156-2.208 29.92-0.101 1.37-0.438 9.99-0.439 9.991-0.438 9.99-0.071 1.611-0.145 9.999-0.144 9.999-0.145 9.999-0.028 1.88 0.117 9.999 0.117 10 0.054 4.58 0.704 19.99 0.158 4.482 0.589 9.982 0.589 9.983 0.259 4.395 0.827 9.965 0.827 9.966 0.358 4.319 1.065 9.943 1.065 9.944 0.456 4.254 1.305 9.915 1.304 9.914 0.553 4.203 3.736 23.92 1.781 9.84 1.782 9.84 0.748 4.133 2.018 9.794 2.019 9.794 0.848 4.115 2.255 9.742 2.255 9.743 0.951 4.108 4.978 19.37 1.057 4.114 2.721 9.622 2.721 9.623 1.168 4.129 5.902 19.11 1.283 4.155 3.177 9.482 4.583 13.67 3.401 9.404 3.4 9.404 1.533 4.239 7.242 18.64 1.667 4.294 7.674 18.47 1.81 4.358 4.049 9.143 4.049 9.144 1.961 4.43 10.63 22.61 4.459 8.95 4.459 8.951 2.29 4.598 11.78 22.39 4.851 8.745 7.507 13.54 5.039 8.637 5.038 8.638 2.856 4.895 5.222 8.528 8.285 13.53 5.4 8.417 5.399 8.417 3.284 5.117 14.66 21.84 11.48 16.38 3.753 5.355 11.8 16.15 4.003 5.477 12.12 15.91 4.265 5.601 16.96 21.4 6.339 7.735 0.746 0.911 6.43 7.659 0.868 1.035 6.517 7.585 0.993 1.156 7.722 8.79 6.681 7.441 1.253 1.396 6.758 7.371 1.389 1.514 8.358 8.933 6.904 7.235 1.667 1.746 6.972 7.169 1.81 1.86 7.039 7.103 1.956 1.974 9.207 9.125 9.419 9.173 9.631 9.22 9.843 9.268 10.06 9.317 7.389 6.738 2.879 2.626 7.44 6.682 3.039 2.73 10.69 9.46 10.9 9.508 11.12 9.556 11.33 9.604 7.671 6.415 3.869 3.237 11.75 9.699 7.753 6.316 4.211 3.432 12.18 9.795 12.39 9.843 12.6 9.891 12.81 9.939 13.02 9.987 13.24 10.04 13.26 9.973 13.09 9.802 8.017 5.978 4.899 3.654 12.74 9.46 12.57 9.289 12.4 9.117 12.23 8.948 12.06 8.775 8.101 5.863 3.788 2.742 8.117 5.841 3.601 2.592 11.55 8.263 8.149 5.796 3.227 2.296 11.2 7.92 11.03 7.749 10.86 7.579 10.69 7.407 10.52 7.236 10.35 7.065 8.28 5.608 1.898 1.286 10.01 6.723 8.323 5.544 1.513 1.008 9.666 6.381 8.368 5.474 1.126 0.736 8.393 5.436 0.93 0.603 8.418 5.397 0.734 0.47 8.445 5.356 0.536 0.341 8.472 5.313 0.338 0.212 8.5 5.269 0.139 0.086 8.468 5.183 8.297 5.012 8.338 4.996 8.591 5.131 8.591 5.119 0.253 0.15 9.097 5.406 8.603 5.099 0.748 0.444 9.603 5.679 9.857 5.816 8.618 5.074 1.493 0.88 8.621 5.066 1.742 1.024 10.62 6.226 10.87 6.364 8.634 5.046 2.489 1.455 11.38 6.637 11.63 6.774 8.644 5.028 3.238 1.884 8.648 5.022 3.488 2.026 12.39 7.184 12.64 7.322 12.9 7.459 13.15 7.595 13.4 7.732 8.665 4.993 4.99 2.876 13.91 8.006 14.16 8.143 14.41 8.28 29.59 16.97 30.6 17.52 8.682 4.963 22.66 12.95 8.681 4.963 15.36 8.788 6.391 3.656 14.78 8.458 14.48 8.293 14.19 8.129 13.89 7.965 13.6 7.801 13.31 7.637 8.672 4.98 4.339 2.492 8.671 4.982 4.046 2.326 8.669 4.985 3.754 2.159 8.668 4.987 3.461 1.992 11.83 6.815 8.665 4.994 2.876 1.658 8.662 4.996 2.584 1.491 10.95 6.322 8.658 5.003 10.66 6.162 1.707 0.988 8.654 5.01 10.07 5.834 1.123 0.651 8.649 5.02 0.832 0.482 8.646 5.024 0.54 0.313 8.644 5.029 0.248 0.144 8.598 5.009 8.304 4.845 8.009 4.68 7.715 4.517 7.421 4.352 7.127 4.187 25.69 15.49 8.564 5.164 0.464 0.279 33.54 20.92 16.8 10.85 15.57 10.05 24.92 16.7 6.264 4.196 8.209 5.71 21.8 15.17 8.102 5.862 20.73 15 15.97 12.04 11.69 8.811 26.48 20.84 25.3 20.82 7.573 6.531 15.14 13.06 1.409 1.216 22.23 20.14 0.719 0.651 7.234 6.904 14.54 13.88 20.6 20.77 19.42 20.75 13.21 15.02 5.033 5.723 12.71 15.44 4.353 5.287 3.432 4.473"/><path d="m3130 689.4 5.51-2.709 5.049-2.648 3.511-1.841 8.437-4.708 8.314-4.927 8.19-5.145 8.068-5.365 7.944-5.584 7.822-5.802 7.698-6.022 7.575-6.241 7.451-6.459 7.267-6.658 7.021-6.836 6.774-7.014 6.528-7.191 6.282-7.37 6.035-7.547 5.789-7.726 5.543-7.903 5.296-8.081 5.05-8.259 4.803-8.437 4.558-8.616 4.31-8.792 4.065-8.971 3.818-9.149 3.572-9.327 3.326-9.504 3.03-9.53 0.049-0.153 2.761-9.611 0.072-0.249 2.495-9.684 0.091-0.354 2.233-9.748 0.108-0.468 1.974-9.803 0.12-0.591 1.721-9.851 0.126-0.721 1.473-9.891 0.128-0.859 1.23-9.924 0.125-1.004 0.944-9.46 0.165-1.646 0.761-9.971 0.101-1.312 0.536-9.986 0.08-1.476 0.317-9.995 0.052-1.644 0.104-10 0.019-1.818-0.247-9.997-0.198-8.006-0.744-9.972-0.59-7.908-1.243-9.922-0.981-7.834-1.739-9.848-1.374-7.786-2.229-9.748-1.774-7.762-4.893-17.39-3.176-9.482-2.606-7.782-3.627-9.319-3.045-7.822-7.561-17.02-4.473-8.943-3.977-7.952-4.866-8.736-4.475-8.035-10.23-16.65-11.12-16.52-5.908-8.069-5.907-8.068-0.194-0.265-12.42-15.68-0.478-0.603-13.79-16.16-6.357-6.944-6.752-7.376-1.568-1.712-13.99-14.3-1.579-1.614-14.43-13.84-2.024-1.942-7.422-6.701-9.924-8.961-7.612-6.486-10.62-9.054-7.786-6.276-7.785-6.276-8.561-8.09"/><path d="m3020 4123 30.72-24.34 15.4-12.76 7.747-6.414 15.06-13.16 15.2-13.28 14.72-13.54 14.75-13.57 28.47-27.54 13.26-13.5 14.02-14.27 0.2-0.203 26.47-28.4 13.24-14.99 12.23-13.84 6.415-7.67 10.72-12.82 6.416-7.67 0.921-1.102 12.4-15.69 0.232-0.293 10.84-13.71 17.94-24.04 4.538-6.081 11.5-16.36 9.978-14.19 16.54-25.03 3.939-5.959 19.48-31.42 5.019-8.65 10.04-17.3 3.424-5.902 9.525-17.59 7.959-14.69 9-17.86 4.5-8.93 2.984-5.921 15.48-33.14 3.961-9.181 10.52-24.39 7.373-18.59 3.687-9.296 2.427-6.118 10.23-28.2 2.261-6.233 3.129-9.498 3.13-9.497 3.129-9.498 2.101-6.374 2.848-9.586 5.698-19.17 1.943-6.541 2.568-9.665 2.567-9.665 2.568-9.665 1.788-6.734 2.287-9.736 4.572-19.47 1.633-6.955 6.018-29.39 1.475-7.201 1.728-9.85 1.727-9.849 1.728-9.85 1.311-7.474 1.451-9.894 1.452-9.894 1.451-9.894 1.141-7.771 1.178-9.931 1.178-9.93 1.179-9.93 0.96-8.094 0.909-9.958 1.818-19.92 0.77-8.44 1.929-29.94 0.568-8.809 0.383-9.993 0.764-19.99 0.352-9.199 0.126-10 0.252-20 0.121-9.611-0.067-10-0.032-4.76-0.202-9.998-0.095-4.721-0.338-9.994-0.158-4.683-0.475-9.989-0.22-4.648-0.611-9.981-0.282-4.614-0.748-9.972-0.343-4.583-0.886-9.96-0.404-4.553-1.023-9.948-0.465-4.525-1.161-9.932-0.526-4.499-1.299-9.915-0.587-4.475-1.437-9.896-0.646-4.453-1.575-9.875-0.707-4.433-1.713-9.853-0.767-4.414-1.851-9.828-0.828-4.398-1.988-9.801-0.89-4.384-2.125-9.772-0.951-4.372-2.261-9.741-1.013-4.362-2.397-9.708-1.075-4.354-3.671-14.02-3.87-13.98-2.802-9.6-1.266-4.339-4.267-13.9-3.066-9.518-1.398-4.339-3.199-9.475-1.465-4.34-3.328-9.43-1.534-4.345-3.457-9.383-1.603-4.35-3.585-9.335-1.673-4.357-5.457-13.65-3.838-9.235-1.818-4.376-3.961-9.182-1.893-4.387-5.977-13.47-4.121-9.111-1.904-4.212-4.187-9.081-1.886-4.091-4.254-9.05-1.867-3.972-4.322-9.017-1.846-3.854-6.217-12.72-4.46-8.95-1.805-3.62-4.531-8.915-1.781-3.505-6.36-12.27-6.409-12.12-4.747-8.801-1.709-3.167-4.821-8.761-1.682-3.057-4.897-8.719-1.655-2.947-4.973-8.677-1.627-2.84-6.648-11.36-5.126-8.587-1.57-2.629-6.743-11.06-6.791-10.91-5.363-8.441-1.477-2.323-5.443-8.389-1.444-2.224-5.525-8.335-1.41-2.128-6.983-10.31-7.031-10.16-5.773-8.165-1.306-1.846-5.857-8.105-1.269-1.755-7.175-9.71-7.222-9.559-6.115-7.913-1.156-1.496-7.318-9.258-6.289-7.775-1.077-1.333-6.379-7.701-1.131-1.366-6.469-7.625-1.28-1.51-6.556-7.551-1.433-1.652-6.638-7.479-1.59-1.793-6.717-7.408-1.751-1.932-8.708-9.409-8.947-9.477-6.934-7.205-2.252-2.341-7.001-7.14-2.425-2.474-7.065-7.077-2.6-2.605-9.905-9.751-10.14-9.819-10.38-9.888-10.62-9.956-10.86-10.02-7.399-6.726-3.703-3.367-7.448-6.672-3.894-3.489-7.495-6.62-4.086-3.61-7.541-6.569-4.28-3.729-12.06-10.37-7.625-6.469-4.674-3.966-12.54-10.5-7.705-6.375-5.073-4.198-13.02-10.64-13.26-10.71-7.815-6.239-5.683-4.538-13.74-10.85-7.881-6.154-6.095-4.76-14.22-10.98-14.46-11.05-14.48-10.99-14.28-10.79-14.08-10.59-13.88-10.39-8.019-5.973-5.663-4.219-8.034-5.954-5.449-4.04-13.29-9.795-13.09-9.597-12.89-9.398-12.69-9.2-12.49-9.002-12.29-8.803-8.148-5.797-3.946-2.808-11.9-8.406-11.7-8.208-8.206-5.715-3.293-2.294-11.3-7.811-8.247-5.655-2.855-1.958-8.27-5.622-2.634-1.792-8.292-5.589-2.413-1.627-8.316-5.553-2.191-1.464-10.31-6.818-10.11-6.621-8.392-5.437-1.52-0.985-8.42-5.394-1.293-0.829-9.515-6.025-9.316-5.827-8.509-5.252-0.609-0.376-8.542-5.2-0.377-0.23-8.576-5.144-0.145-0.087-8.596-5.11-0.214-0.128-8.601-5.102-0.585-0.348-8.605-5.095-0.958-0.568-9.939-5.874-8.613-5.082-1.703-1.005-8.616-5.075-2.076-1.223-11.07-6.511-8.622-5.065-2.822-1.658-11.82-6.935-12.2-7.147-12.57-7.36-12.95-7.571-13.33-7.784-27.78-16.2-8.641-5.033-5.814-3.387-30.04-17.48-31.54-18.32-8.65-5.019-7.687-4.462-8.651-5.016-8.063-4.677-34.56-20.02-8.655-5.01-26.5-15.34-0.908-0.525-56.91-32.9-8.66-5-11.06-6.389-19.79-11.46-17.28-10.06-2.249-1.31-19.28-11.29-17.23-10.15-1.794-1.056-18.77-11.13-18.52-11.04-17.15-10.29-1.118-0.671-17.12-10.34-0.894-0.54-17.09-10.39-0.671-0.408-8.529-5.22-8.529-5.221-0.449-0.274-17.03-10.49-0.228-0.14-17-10.55-8.48-5.301-8.268-5.169-8.462-5.328-8.032-5.059-8.444-5.357-7.797-4.948-15.99-10.22-8.406-5.417-7.329-4.724-8.386-5.448-7.096-4.611-15.23-9.976-14.98-9.895-14.72-9.812-14.47-9.731-14.22-9.648-13.96-9.566-8.224-5.689-5.485-3.795-13.46-9.402-8.17-5.767-5.033-3.553-12.95-9.237-12.7-9.156-12.44-9.073-15.34-11.51-7.891-6.142-6.93-5.395-7.776-6.287-6.525-5.277-7.653-6.436-6.128-5.155-13.26-11.62-12.74-11.65-12.22-11.67-11.7-11.7-6.9-7.238-0.446-0.468"/><path d="m708.8 3237-8.798 2.213-9.633 2.687-0.241 0.067-9.56 2.935-0.191 0.059-9.48 3.184-0.148 0.049-9.392 3.432-0.112 0.041-9.382 3.712-9.258 3.952-9.135 4.191-9.012 4.431-8.888 4.67-8.766 4.909-8.642 5.15-8.519 5.388-8.307 5.568-0.089 0.06-8.157 5.786-0.116 0.082-8.003 5.997-0.147 0.11-7.844 6.202-0.183 0.145-7.682 6.402-0.221 0.184-2.788 2.446-4.992 4.379-7.349 6.782-0.308 0.284-7.175 6.965-0.294 0.284-6.991 7.151-0.224 0.229-6.799 7.334-0.164 0.176-6.598 7.514-0.111 0.126-6.391 7.692-0.065 0.078-6.203 7.9-5.95 8.03-5.697 8.16-5.443 8.29-5.19 8.42-4.937 8.55-4.684 8.68-4.431 8.809-4.177 8.941-3.924 9.069-3.671 9.2-3.418 9.33-3.165 9.461-2.912 9.59-2.658 9.72-2.405 9.85-2.108 9.775-0.044 0.205-1.846 9.828-0.053 0.282-1.587 9.873-0.059 0.367-1.331 9.911-0.061 0.459-1.079 9.942-0.061 0.558-0.83 9.966-0.056 0.664-0.587 9.983-0.046 0.778-0.348 9.994-0.032 0.896-0.114 9.999-0.012 1.021 0.262 9.997 0.265 10.09 0.787 9.969 0.794 10.06 2.634 19.96 1.822 9.833 1.822 9.832 0.044 0.237 4.65 19.45 0.092 0.388 5.624 19.19 0.172 0.586 3.282 9.446 3.281 9.447 0.287 0.825 3.73 9.278 4.173 10.38 4.157 9.095 4.8 10.5 9.122 17.8 0.889 1.734 4.941 8.694 4.94 8.694 1.184 2.083 5.296 8.482 6.822 10.93 5.628 8.266 7.544 11.08 14.23 19.29 15.28 19.22 6.487 7.61 6.487 7.611 3.359 3.942 6.732 7.395 10.66 11.71 18.44 19.04 19.5 18.98 20.55 18.92 7.534 6.575 14.07 12.28 7.697 6.384 14.96 12.41 23.71 18.73 15.97 12.04 8.794 6.631 24.34 17.54 1.48 1.067 16.46 11.36 8.23 5.681 11.63 8.123"/></g><path d="m360.8-27.16-17.6 33.76-16.47 34.12-4.063 9.137-8.124 18.28-3.145 7.073-3.773 9.261-3.772 9.262-6.651 16.33-3.478 9.376-3.477 9.376-3.478 9.375-2.627 7.083-3.179 9.482-6.356 18.96-2.39 7.127-2.875 9.578-5.752 19.15-2.162 7.201-7.71 28.99-1.943 7.303-4.526 19.48-2.264 9.74-1.727 7.436-3.912 19.61-1.955 9.807-1.515 7.597-1.649 9.864-3.296 19.73-1.302 7.791-1.342 9.91-1.341 9.909-1.342 9.91-1.085 8.014-1.038 9.946-1.037 9.946-1.038 9.946-0.862 8.266-0.736 9.973-0.737 9.973-0.736 9.973-0.631 8.547-0.438 9.99-0.438 9.991-0.439 9.99-0.388 8.857-0.145 9.998-0.145 10-0.145 9.999-0.133 9.192 0.117 9.999 0.117 10 0.119 10.22 0.352 9.993 0.353 9.994 0.355 10.09 0.589 9.983 1.178 19.97 0.827 9.966 0.827 9.965 0.819 9.882 1.066 9.944 1.065 9.943 1.049 9.793 1.304 9.914 1.305 9.915 1.278 9.715 1.543 9.88 1.543 9.881 1.507 9.649 1.781 9.84 1.782 9.84 1.737 9.595 2.019 9.794 2.018 9.794 1.969 9.553 2.255 9.742 2.255 9.743 2.203 9.521 2.489 9.685 2.49 9.686 2.441 9.501 2.721 9.622 2.722 9.623 2.684 9.491 2.95 9.555 5.883 19.05 9.539 28.47 6.802 18.81 3.445 9.526 7.241 18.64 3.712 9.555 3.836 9.235 7.674 18.47 0.149 0.3599 8.098 18.29 4.048 9.143 0.221 0.498 12.77 27.15 0.305 0.647 13.38 26.85 0.402 0.808 4.657 8.85 4.658 8.849 4.657 8.849 0.514 0.978 4.851 8.745 9.701 17.49 0.641 1.157 5.039 8.637 5.039 8.638 5.038 8.638 0.784 1.343 15.67 25.58 0.941 1.537 16.2 25.25 1.114 1.737 5.572 8.303 11.14 16.61 1.303 1.941 5.74 8.189 11.48 16.38 1.507 2.151 5.902 8.073 11.8 16.15 1.728 2.365 20.14 26.45 12.42 15.68 6.209 7.839 2.217 2.799 8.711 10.63 8.972 10.69 9.233 10.75 9.494 10.81 9.754 10.86 10.02 10.92 10.28 10.98 10.54 11.04 10.8 11.1 7.038 7.104 4.02 4.055 7.102 7.04 4.217 4.178 11.58 11.28 11.84 11.34 7.28 6.855 4.821 4.54 7.336 6.796 5.026 4.657 7.389 6.739 5.234 4.774 12.88 11.57 13.14 11.63 7.537 6.572 5.868 5.117 7.584 6.519 6.082 5.229 13.93 11.81 14.19 11.87 7.712 6.365 6.736 5.56 14.71 11.98 7.792 6.268 7.178 5.775 7.83 6.22 7.401 5.881 7.866 6.174 7.626 5.986 15.75 12.22 16.01 12.28 15.94 12.08 0.336 0.2549 15.98 12.02 0.316 0.238 16.09 12.05 15.88 11.84 15.67 11.63 8.044 5.942 7.414 5.478 15.25 11.21 15.04 11 14.83 10.79 14.62 10.58 14.41 10.37 14.2 10.16 13.99 9.948 8.166 5.772 5.609 3.966 8.184 5.747 5.381 3.78 8.202 5.721 5.153 3.596 8.22 5.694 4.924 3.412 12.94 8.896 8.259 5.638 4.464 3.048 12.51 8.476 8.301 5.576 4.002 2.689 8.323 5.543 3.77 2.512 11.88 7.844 11.67 7.635 8.393 5.436 3.069 1.988 11.25 7.213 11.04 7.004 10.83 6.793 8.5 5.268 2.12 1.314 8.53 5.221 1.881 1.152 10.2 6.162 10.25 6.141 8.585 5.128 1.976 1.182 8.592 5.118 2.281 1.359 8.597 5.108 2.588 1.538 11.5 6.814 8.607 5.09 3.199 1.892 8.613 5.082 3.505 2.069 8.618 5.074 3.812 2.245 12.74 7.487 13.05 7.655 8.63 5.052 4.734 2.772 13.67 7.991 13.99 8.16 14.3 8.329 14.61 8.496 14.92 8.665 15.23 8.833 8.654 5.012 6.888 3.99 8.656 5.006 7.197 4.163 16.17 9.338 16.48 9.506 16.79 9.674 17.1 9.843 17.41 10.01 17.34 9.961 0.378 0.218 18.03 10.35 8.676 4.973 9.668 5.543 17.36 9.939 1.299 0.7441 18.97 10.85 8.682 4.963 29.85 17.06 17.36 9.928 1.528 0.8739 17.36 9.931 9.848 5.636 8.679 4.968 0.808 0.462 17.81 10.2 17.44 9.994 17.08 9.792 16.72 9.591 8.673 4.977 7.685 4.411 16 9.186 15.63 8.985 15.27 8.782 14.91 8.581 14.55 8.379 8.664 4.993 5.523 3.184 8.663 4.996 5.163 2.979 8.66 4.999 4.804 2.774 8.659 5.003 4.444 2.568 12.74 7.369 12.38 7.168 8.652 5.014 3.365 1.951 11.66 6.764 11.29 6.561 10.93 6.36 10.57 6.158 10.21 5.956 8.634 5.046 1.213 0.7079 8.63 5.052 0.855 0.5 8.626 5.059 9.119 5.358 0.14 0.082 34.26 20.65 8.429 5.082 33.94 21.17 7.297 4.551 8.4 5.425 16.8 10.85 14.59 9.424 8.309 5.565 24.93 16.69 5.11 3.423 24.63 17.13 12.27 8.535 24.31 17.59 8.101 5.862 3.043 2.202 15.97 12.04 15.97 12.04 2.062 1.555 7.859 6.183 23.58 18.55 1.121 0.8821 7.722 6.354 23.39 19.24 7.573 6.531 22.09 19.05 7.411 6.714 20.8 18.85 7.235 6.905 19.53 18.64 7.042 7.1 1.014 1.023" stroke-width="45"/><g stroke-width="45"><path d="m3324 402.6 4.828-1.786 9.287-3.706 1.843-0.735 9.189-3.944 1.789-0.767 10.83-4.981 10.68-5.249 8.856-4.644 1.668-0.874 8.732-4.873 1.64-0.915 10.22-6.057 10.07-6.327 8.327-5.537 1.592-1.058 9.766-6.864 8.031-5.959 1.585-1.175 7.876-6.161 1.588-1.242 7.718-6.359 1.594-1.313 7.557-6.55 1.604-1.392 7.374-6.755 1.56-1.43 7.165-6.976 1.467-1.428 8.328-8.623 6.721-7.404 1.305-1.437 6.486-7.61 1.236-1.45 6.245-7.81 1.175-1.469 7.117-9.498 6.814-9.716 5.481-8.364 1.03-1.571 5.217-8.532 0.991-1.622 4.948-8.69 0.958-1.683 4.676-8.839 0.927-1.752 4.402-8.979 0.898-1.831 4.127-9.109 0.869-1.92 3.852-9.228 0.843-2.019 3.576-9.339 0.815-2.127 3.303-9.439 0.786-2.246 3.03-9.53 0.755-2.374 2.761-9.611 0.722-2.511 2.495-9.684 0.685-2.657 2.233-9.748 0.644-2.812 1.975-9.803 0.599-2.975 1.721-9.851 0.55-3.147 1.474-9.891 0.495-3.324 1.23-9.924 0.435-3.511 0.994-9.951 0.369-3.702 0.762-9.971 0.298-3.902 0.537-9.985 0.22-4.105 0.9531-20.43"/><path d="m3666 4124 10.04-17.3 10.04-17.3 2.646-4.559 14.29-26.38 7.207-13.31 13.5-26.79 4.501-8.931 2.264-4.494 4.234-9.06 4.233-9.06 4.232-9.06 4.234-9.06 2.105-4.506 3.961-9.182 11.88-27.54 1.963-4.549 11.06-27.89 3.686-9.295 1.834-4.623 3.409-9.401 3.41-9.401 3.408-9.401 3.41-9.401 1.716-4.732 3.129-9.498 3.13-9.498 3.129-9.497 3.13-9.498 1.606-4.875 2.849-9.585 2.848-9.586 5.698-19.17 1.501-5.052 2.568-9.665 2.567-9.665 2.568-9.665 2.567-9.665 1.399-5.266 9.144-38.94 1.296-5.515 6.018-29.39 2.006-9.796 1.187-5.799 1.728-9.85 1.728-9.849 1.727-9.85 1.728-9.85 1.073-6.116 1.451-9.895 1.452-9.894 1.451-9.894 1.452-9.894 0.949-6.469 1.178-9.93 1.179-9.931 2.356-19.86 0.814-6.855 0.909-9.958 0.909-9.959 0.908-9.958 0.909-9.959 0.664-7.271 0.643-9.979 0.643-9.98 1.286-19.96 0.498-7.718 0.382-9.993 0.383-9.993 0.382-9.993 0.382-9.992 0.314-8.195 0.252-20 0.126-10 0.126-9.999 0.11-8.698-0.068-10-0.054-8.146-0.202-9.998-0.164-8.097-0.338-9.995-0.272-8.05-0.474-9.989-0.38-8.005-0.611-9.981-0.487-7.963-0.748-9.972-0.594-7.921-0.885-9.961-0.7-7.882-1.023-9.947-0.807-7.845-1.161-9.933-0.913-7.809-1.299-9.915-1.018-7.776-1.437-9.897-1.125-7.744-1.575-9.876-1.23-7.715-1.713-9.852-1.337-7.688-1.85-9.827-1.443-7.662-1.988-9.801-1.55-7.638-2.125-9.772-1.656-7.617-2.262-9.74-1.764-7.598-2.397-9.708-1.872-7.579-2.533-9.674-1.98-7.563-2.668-9.638-2.089-7.549-2.802-9.599-2.2-7.537-2.934-9.56-2.311-7.526-3.067-9.518-2.422-7.517-5.733-16.98-3.328-9.43-2.649-7.504-6.221-16.88-6.465-16.83-6.709-16.78-6.953-16.73-7.197-16.68-7.348-16.56-4.121-9.112-3.286-7.267-4.187-9.082-3.28-7.112-7.524-16.01-7.584-15.82-7.643-15.64-4.46-8.95-3.241-6.504-7.761-15.27-4.602-8.878-3.218-6.206-4.674-8.84-3.204-6.058-4.747-8.801-3.19-5.912-4.821-8.761-3.175-5.768-4.896-8.719-3.159-5.624-4.972-8.676-3.141-5.482-8.173-13.97-8.232-13.79-5.204-8.539-3.086-5.064-5.283-8.49-3.066-4.928-8.409-13.23-8.467-13.05-8.526-12.86-5.607-8.28-2.978-4.398-8.644-12.49-8.702-12.31-8.762-12.12-5.943-8.042-2.877-3.895-8.88-11.75-8.938-11.57-8.997-11.38-9.056-11.2-6.379-7.702-2.853-3.445-9.528-11.23-6.555-7.551-3.266-3.763-10.12-11.4-10.41-11.48-10.7-11.57-11-11.65-6.935-7.206-4.359-4.53-7.001-7.14-4.587-4.679-11.88-11.9-7.126-7.015-5.051-4.973-12.47-12.07-7.242-6.896-5.524-5.261-7.297-6.838-5.764-5.402-7.348-6.781-6.006-5.543-13.65-12.41-7.448-6.673-6.495-5.82-14.24-12.58-14.53-12.66-7.583-6.518-7.244-6.227-7.625-6.469-7.496-6.36-7.666-6.421-7.75-6.492-7.705-6.374-7.705-6.375-0.3-0.248-16-13.08-15.56-12.57-0.741-0.598-15.63-12.48-0.965-0.77-16.89-13.33-17.18-13.42-15.83-12.23-1.65-1.275-15.89-12.15-1.882-1.439-17.8-13.51-15.96-12.06-1.595-1.206-7.992-6.01-7.992-6.011-1.325-0.997-16.01-11.98-1.053-0.789-8.02-5.974-8.019-5.974-0.782-0.582-16.07-11.91-0.509-0.377-8.049-5.934-8.048-5.935-0.236-0.173-16.09-11.8-15.84-11.55-15.6-11.31-15.36-11.07-8.131-5.822-6.982-5.001-14.87-10.58-14.62-10.33-14.38-10.09-8.206-5.715-5.931-4.132-13.89-9.603-13.65-9.358-13.4-9.115-13.16-8.871-12.92-8.627-12.67-8.383-8.366-5.478-4.063-2.661-12.19-7.895-8.42-5.395-3.521-2.257-8.449-5.349-3.249-2.058-8.478-5.302-2.975-1.861-11.21-6.919-10.96-6.675-8.576-5.144-2.146-1.288-8.595-5.11-2.236-1.33-8.6-5.102-2.693-1.598-11.76-6.961-12.22-7.222-12.68-7.483-8.616-5.076-4.528-2.668-8.62-5.07-4.987-2.934-8.623-5.065-5.447-3.201-14.53-8.526-8.628-5.055-6.367-3.731-15.46-9.048-8.633-5.047-7.287-4.261-16.38-9.569-34.15-19.92-8.641-5.033-8.641-5.034-0.489-0.285-17.29-10.06-0.948-0.552-8.645-5.027-8.644-5.027-1.408-0.819-8.646-5.024-30.14-17.5-8.65-5.019-8.649-5.019-44.34-25.71-8.653-5.012-57.15-33.08-17.31-10.01-76.9-44.43-24.32-14.08-8.642-5.031-15.37-8.95-23.7-13.88-8.617-5.076-14.77-8.704-17.21-10.2-5.874-3.482-8.589-5.122-14.18-8.456-8.575-5.145-13.88-8.331-17.12-10.34-5.026-3.036-8.545-5.195-13.29-8.08-21.52-13.17-8.513-5.246-12.7-7.827-16.99-10.55-3.907-2.426-16.96-10.6-3.631-2.27-8.462-5.329-11.82-7.441-19.97-12.67-19.66-12.57-19.34-12.47-16.77-10.9-2.262-1.47-18.72-12.26-16.69-11.02-1.724-1.14-18.1-12.06-8.298-5.58-8.298-5.581-1.192-0.802-16.55-11.23-0.928-0.63-8.25-5.652-8.916-6.109-8.224-5.689-8.223-5.689-0.407-0.281-16.54-11.56-16.23-11.46-8.141-5.807-7.779-5.55-15.61-11.26-15.3-11.16-16-12-2.862-2.148-6.782-5.278"/><path d="m430.6 3509-2.005 0.298-12.74 2.208-12.59 2.503-12.44 2.797-12.29 3.091-9.632 2.687-2.507 0.699-11.99 3.681-11.84 3.975-9.393 3.432-2.292 0.837-9.299 3.68-2.235 0.884-11.38 4.858-11.23 5.153-11.08 5.447-8.853 4.651-2.075 1.09-10.78 6.036-10.62 6.331-10.47 6.624-10.32 6.92-8.157 5.785-2.014 1.428-8.002 5.997-2.017 1.511-7.844 6.203-2.024 1.6-9.716 8.097-7.517 6.595-2.048 1.796-7.349 6.782-2.064 1.904-9.183 8.913-8.871 9.073-8.559 9.233-6.599 7.514-1.65 1.878-6.39 7.692-1.547 1.861-6.175 7.865-1.451 1.847-5.953 8.034-1.361 1.838-7.004 10.03-5.488 8.36-1.204 1.832-5.247 8.513-1.134 1.839-5 8.66-1.069 1.851-4.749 8.8-1.01 1.871-4.492 8.934-0.955 1.897-5.135 10.99-3.971 9.178-0.854 1.973-3.115 7.807-1.398 3.503-3.44 9.39-0.762 2.081-3.173 9.483-0.718 2.147-2.905 9.569-0.674 2.221-2.639 9.646-0.63 2.304-2.957 12.11-2.108 9.775-0.537 2.494-1.846 9.828-0.489 2.601-1.51 9.4-0.513 3.19-1.331 9.911-0.381 2.838-1.079 9.941-0.322 2.968-0.83 9.965-0.259 3.103-0.587 9.983-0.191 3.246-0.349 9.994-0.118 3.394-0.115 10-0.041 3.549 0.263 9.996 0.262 9.997 0.123 4.702 1.574 19.94 0.37 4.681 2.616 19.83 0.622 4.715 1.822 9.833 1.823 9.832 0.89 4.803 2.324 9.726 2.325 9.726 1.18 4.939 2.812 9.597 2.813 9.596 1.501 5.124"/><path d="m4126 2768-30.39-51.19-4.897-8.719-0.354-0.63-9.944-17.35-0.277-0.483-10.1-17.26-0.198-0.338-10.25-17.17-0.117-0.197-5.205-8.539-5.239-8.596-10.52-16.9-10.59-16.67-5.443-8.389-5.223-8.047-10.74-16.2-5.607-8.28-5.207-7.69-5.69-8.223-5.199-7.514-10.96-15.5-5.858-8.105-5.179-7.166-5.943-8.042-5.168-6.995-11.18-14.8-6.115-7.912-5.145-6.659-11.33-14.34-11.41-14.1-6.379-7.701-5.251-6.34-12-14.15-12.37-14.25-12.74-14.36-13.11-14.46-13.48-14.57-13.86-14.68-14.23-14.78-14-14.28-0.596-0.608-7.065-7.077-7.064-7.077-0.839-0.841-7.127-7.015-8.213-8.086-15.71-15.21-14.48-13.79-1.598-1.522-14.59-13.68-1.859-1.743-7.35-6.781-9.473-8.743-7.4-6.727-7.399-6.727-2.396-2.177-17.56-15.74-17.94-15.84-18.31-15.95-18.68-16.06-19.05-16.16-19.42-16.27-7.705-6.374-12.08-9.999-7.743-6.328-12.42-10.15-20.53-16.58-15.63-12.48-5.274-4.212-7.849-6.196-7.849-6.197-5.576-4.403-15.76-12.31-5.881-4.593-22.02-17.01-15.89-12.15-6.497-4.968-7.966-6.045-14.45-10.97-15.96-12.06-6.154-4.65-21.8-16.4-21.5-16.09-8.02-5.974-8.019-5.974-5.15-3.837-8.034-5.954-12.85-9.523-20.58-15.17-16.13-11.83-4.139-3.036-19.96-14.56-8.096-5.869-8.096-5.87-3.46-2.509-8.113-5.846-11.23-8.094-19.04-13.63-16.3-11.59-2.434-1.732-8.167-5.771-10.26-7.247-16.37-11.49-1.744-1.224-8.206-5.715-9.603-6.689-16.45-11.37-1.049-0.724-17.19-11.79-8.27-5.623-8.269-5.623-0.348-0.236-16.58-11.18-16.27-10.87-8.341-5.517-7.624-5.044-15.66-10.25-8.393-5.438-6.957-4.508-15.04-9.638-8.449-5.35-6.286-3.981-8.479-5.302-5.949-3.721-8.51-5.253-5.611-3.464-13.81-8.408-13.51-8.102-13.64-8.112-14.23-8.441-14.81-8.769-8.609-5.088-6.783-4.01-15.98-9.426-16.56-9.755-17.14-10.08-17.24-10.13-0.479-0.282-17.25-10.12-1.056-0.62-18.89-11.07-19.47-11.4-20.06-11.73-20.64-12.05-21.22-12.38-8.639-5.036-13.16-7.676-45.36-26.41-47.69-27.72-8.648-5.022-67.26-39.02-17.3-10.03-35.12-20.35-1.09-0.632-84.64-48.98-17.32-10.01-72.58-41.92-30.64-17.74-17.28-10.06-12.96-7.549-17.26-10.11-12.6-7.379-17.23-10.15-12.23-7.207-29.07-17.23-17.18-10.24-11.5-6.86-8.575-5.146-17.15-10.29-2.566-1.54-8.56-5.17-19.34-11.68-25.63-15.58-1.871-1.138-8.529-5.22-17.06-10.44-1.526-0.933-26.72-16.47-26.33-16.34-25.44-15.9-0.498-0.311-25.54-16.09-25.15-15.96-24.76-15.83-24.37-15.7-23.98-15.58-16.73-10.96-6.854-4.491-23.19-15.32-22.8-15.2-8.298-5.58-13.15-8.841"/><path d="m-23.56 1027 14.23 23.38 10.8 16.83 5.61 8.746 5.572 8.303 16.72 24.91 0.41 0.612 5.74 8.189 17.22 24.57 0.632 0.901 11.8 16.15 11.8 16.15 0.873 1.196 12.12 15.91 13.25 17.4 26.26 33.15 10.97 13.39 6.43 7.659 4.872 5.805 6.517 7.585 5.114 5.953 6.6 7.512 5.359 6.1 12.29 13.69 6.758 7.371 5.858 6.39 12.94 13.83 13.27 13.91 13.6 13.98 7.039 7.103 6.891 6.954 14.26 14.13 7.164 6.976 7.164 6.977 0.259 0.252 14.92 14.28 7.281 6.855 7.963 7.499 7.336 6.796 7.335 6.796 0.902 0.836 15.9 14.5 14.88 13.36 1.35 1.213 7.489 6.626 7.489 6.627 1.58 1.397 7.537 6.572 9.349 8.153 7.584 6.519 9.632 8.28 17.54 14.87 15.34 12.83 2.53 2.117 15.43 12.73 2.775 2.291 18.53 15.1 15.58 12.54 3.274 2.634 7.83 6.221 11.36 9.023 15.73 12.35 3.782 2.97 7.902 6.129 11.94 9.263 15.87 12.17 4.3 3.298 20.5 15.54 20.53 15.45 20.27 15.18 16.03 11.96 3.969 2.96 8.03 5.96 8.029 5.96 3.678 2.731 8.044 5.942 11.43 8.443 19.21 14.12 8.072 5.904 10.87 7.952 16.17 11.77 2.505 1.824 18.41 13.33 8.117 5.841 10.03 7.22 16.26 11.64 1.618 1.158 8.149 5.796 9.468 6.735 8.166 5.772 8.166 5.773 1.021 0.722 8.184 5.747 8.183 5.747 0.721 0.507 16.82 11.74 16.56 11.47 16.29 11.21 16.03 10.94 15.76 10.68 15.5 10.41 8.323 5.543 6.91 4.603 14.97 9.882 14.7 9.617 14.44 9.352 14.17 9.088 8.445 5.356 5.464 3.466 8.472 5.313 5.172 3.244 13.38 8.292 8.529 5.221 4.585 2.807 12.85 7.762 12.91 7.736 13.3 7.948 13.7 8.16 8.596 5.108 5.492 3.264 14.48 8.583 14.87 8.796 15.26 9.008 15.66 9.219 16.05 9.432 16.44 9.643 16.83 9.856 8.634 5.045 8.592 5.022 17.62 10.28 17.28 10.07 0.728 0.425 8.644 5.027 9.758 5.676 17.3 10.04 1.499 0.871 17.3 10.03 1.885 1.094 17.31 10.02 2.272 1.316 19.97 11.55 20.36 11.76 17.32 9.995 3.431 1.98 21.15 12.19 8.667 4.989 12.87 7.41 21.93 12.61 45.04 25.86 23.11 13.25 8.678 4.969 14.82 8.489 23.89 13.67 8.682 4.963 39.85 22.78 23.8 13.61 17.36 9.931 5.981 3.422 17.36 9.934 22.88 13.1 5.073 2.906 21.97 12.59 21.52 12.34 17.35 9.951 3.713 2.13 17.35 9.955 3.26 1.871 20.15 11.57 8.671 4.982 8.67 4.982 2.354 1.353 17.34 9.97 19.24 11.07 1.449 0.834 8.666 4.99 9.662 5.565 8.664 4.993 8.664 4.994 0.544 0.313 17.42 10.05 8.66 4.999 8.3 4.792 16.51 9.538 16.05 9.283 15.59 9.029 15.14 8.774 14.68 8.52 14.23 8.266 13.77 8.012 13.32 7.757 8.637 5.039 4.222 2.464 12.4 7.248 11.95 6.994 11.49 6.74 8.622 5.066 2.415 1.42 25.69 15.49 25.69 15.49 2.386 1.439 8.485 5.291 16.97 10.58 26.49 16.52 16.8 10.85 25.2 16.28 8.123 5.247 8.309 5.565 39.99 26.79 16.42 11.42 16.42 11.42 13.64 9.49 32.41 23.45 12.25 8.863 15.97 12.04 23.96 18.06 2.907 2.192 15.72 12.37 15.72 12.37 7.859 6.184 1.717 1.35 26.48 21.79"/><path d="m39.84 3889-9.708 0.975-16.44 2.04-9.892 1.468-12.54 1.853"/><path d="m4123 2245-26.56-25.36-14.99-13.24-0.524-0.463-15.08-13.14-7.54-6.569-0.865-0.754-23.96-20.6-22.88-19.41-1.559-1.323-7.666-6.421-17.25-14.45-15.41-12.75-9.978-8.255-7.743-6.328-18.12-14.81-26.34-21.28-7.815-6.239-19-15.17-23.55-18.59-3.745-2.957-7.882-6.155-19.88-15.53-23.74-18.34-4.503-3.479-7.944-6.073-15.89-12.15-4.885-3.735-7.966-6.045-20.79-15.78-28.36-21.43-7.992-6.011-19.98-15.03-27.58-20.64-27.18-20.25-16.07-11.91-10.72-7.946-8.049-5.934-18.34-13.53-24.19-17.74-1.807-1.326-24.24-17.68-1.365-0.996-8.097-5.869-17.12-12.41-16.22-11.69-8.113-5.847-0.478-0.344-8.131-5.822-16.29-11.67-8.148-5.797-15.88-11.3-16.33-11.54-7.3-5.159-8.186-5.743-15.05-10.56-8.206-5.715-14.64-10.2-16.45-11.37-5.999-4.147-22.06-15.12-8.27-5.623-13.39-9.107-16.58-11.18-4.684-3.158-8.316-5.553-12.56-8.387-16.68-11.03-3.799-2.514-20.09-13.15-16.78-10.88-2.906-1.884-8.42-5.394-10.88-6.97-18.9-11.97-16.96-10.6-1.552-0.971-17.02-10.5-1.095-0.676-17.08-10.4-0.637-0.387-17.15-10.29-0.175-0.105-17.19-10.22-0.312-0.185-8.6-5.102-9.65-5.726-8.605-5.095-8.604-5.095-1.79-1.059-19.74-11.67-17.23-10.16-3.268-1.929-8.616-5.075-12.63-7.438-8.619-5.07-13.37-7.865-8.622-5.065-14.12-8.292-8.625-5.06-14.86-8.718-17.26-10.11-6.976-4.088-24.98-14.62-17.27-10.1-8.462-4.948-8.635-5.043-17.27-10.09-0.57-0.333-53.14-31-19.34-11.26-11.44-6.662-25.93-15.09-3.537-2.06-8.645-5.027-52.53-30.54-8.648-5.021-8.648-5.022-46.87-27.21-8.651-5.016-8.651-5.017-84.56-49-8.655-5.01-25.96-15.03-0.83-0.48-70.82-40.97-2.316-1.34-34.63-20.02-3.059-1.769-17.32-10-60.31-34.83-8.654-5.01-30.65-17.75-38.81-22.59-17.26-10.11-21.04-12.32-37.8-22.27-17.2-10.2-17.2-10.2-2.886-1.711-17.18-10.24-19.62-11.7-34.3-20.58-1.992-1.196-25.68-15.51-10.11-6.105-35.28-21.45-34.78-21.29-17.03-10.49-17.25-10.63-8.497-5.273-12.86-7.98"/><path d="m-15.44 1421 7.713 6.365 15.64 12.9 7.753 6.316 15.5 12.63 0.512 0.416 7.792 6.268 15.58 12.54 0.816 0.656 23.49 18.66 1.124 0.894 7.866 6.174 15.73 12.35 1.436 1.128 7.902 6.129 15.8 12.26 1.751 1.359 7.936 6.084 7.936 6.085 10 7.672 26.3 19.94 26.34 19.81 8.004 5.995 18 13.48 16.03 11.96 9.626 7.178 24.09 17.88 1.231 0.914 24.13 17.83 0.851 0.628 24.17 17.77 0.469 0.345 24.3 17.78 16.17 11.77 7.788 5.668 23.62 17.1 23.28 16.76 8.133 5.819 8.132 5.819 6.676 4.778 22.6 16.08 16.33 11.54 5.929 4.192 16.37 11.49 5.554 3.901 21.58 15.06 21.24 14.72 20.9 14.38 20.56 14.04 8.28 5.608 11.94 8.088 19.88 13.36 16.64 11.09 2.897 1.93 16.69 11.02 2.511 1.658 8.369 5.473 8.369 5.474 2.124 1.39 16.79 10.87 1.736 1.125 18.18 11.66 8.445 5.356 9.398 5.962 8.472 5.313 9.031 5.664 8.5 5.268 8.663 5.37 16.82 10.3 16.48 9.958 16.56 9.924 8.585 5.128 8.482 5.068 17.18 10.24 0.388 0.232 8.597 5.108 9.477 5.632 8.603 5.099 9.974 5.912 19.08 11.28 19.58 11.56 20.09 11.83 20.59 12.1 21.09 12.37 21.6 12.64 8.634 5.046 13.46 7.869 22.6 13.19 23.1 13.46 23.61 13.73 24.11 14 8.651 5.017 15.96 9.257 8.654 5.012 16.46 9.534 25.62 14.82 26.12 15.09 26.62 15.36 25.99 14.98 1.135 0.655 8.667 4.988 8.667 4.989 10.3 5.928 28.13 16.18 8.671 4.98 17.34 9.962 2.623 1.507 29.14 16.72 29.64 16.99 17.36 9.94 43.44 24.86 62.26 35.59 17.36 9.927 8.681 4.964 4.483 2.564 17.36 9.931 12.58 7.198 17.36 9.935 12 6.868 8.678 4.969 20.1 11.51 26.03 14.91 19.51 11.18 10.25 5.878 27.02 15.5 26.02 14.93 26.26 15.08 25.27 14.52 17.34 9.97 7.343 4.223 8.667 4.987 15.43 8.879 8.666 4.99 14.85 8.55 22.93 13.21 8.662 4.996 13.68 7.891 8.661 5 13.1 7.562 8.659 5.003 8.658 5.003 3.857 2.229 20.59 11.91 8.655 5.01 11.35 6.572 8.652 5.015 8.651 5.015 2.117 1.226 8.649 5.019 8.649 5.02 1.537 0.891 18.25 10.6 17.29 10.06 0.378 0.22 8.641 5.034 8.441 4.918 16.5 9.625 15.91 9.298 15.33 8.973 8.626 5.058 6.117 3.588 8.622 5.066 5.537 3.254 68.98 41.58 16.97 10.58 25.46 15.88 24.21 15.1 42 27.13 22.3 14.4 58.16 38.96 3.804 2.549 8.21 5.71 16.42 11.42 16.42 11.42 18.58 12.92 8.102 5.862 16.2 11.72 3.992 2.889"/><path d="m4131 1816-8.02-5.974-27.35-20.37-16.07-11.91-16.07-11.91-2.717-2.015-16.1-11.87-8.049-5.935-10.19-7.516-16.13-11.83-17.7-12.98-32.32-23.57-0.995-0.725-32.38-23.48-0.416-0.302-8.113-5.846-24.18-17.42-24.39-17.47-7.384-5.288-31.26-22.24-30.75-21.73-30.24-21.22-24.62-17.15-5.106-3.557-8.227-5.685-16.45-11.37-4.532-3.133-28.7-19.68-16.54-11.24-11.65-7.919-16.58-11.18-8.292-5.59-2.796-1.883-24.95-16.66-2.211-1.477-8.341-5.517-18.3-12.11-26.13-17.11-8.392-5.437-17.23-11.16-8.42-5.394-16.69-10.69-8.449-5.35-16.14-10.22-16.96-10.6-7.124-4.456-8.51-5.252-15.06-9.296-17.08-10.4-5.972-3.636-8.576-5.144-13.97-8.378-17.19-10.22-5.581-3.319-17.2-10.2-6.544-3.883-17.21-10.19-7.508-4.446-25.69-15.18-17.23-10.16-8.612-5.082-28.46-16.77-28.61-16.83-8.623-5.065-8.622-5.065-12.34-7.248-8.626-5.06-8.625-5.06-13.3-7.806-25.88-15.17-5.644-3.308-8.631-5.051-8.63-5.051-15.24-8.92-33.47-19.57-17.27-10.09-17.18-10.03-17.27-10.08-17.27-10.08-0.87-0.508-17.28-10.07-17.28-10.07-1.835-1.07-25.92-15.1-11.44-6.665-8.643-5.03-25.93-15.09-3.766-2.192-8.645-5.027-70.95-41.24-8.648-5.021-17.3-10.04-11.62-6.747"/><path d="m-24.48 1706 8.166 5.772 28.03 20.89 12.63 8.928 28.52 20.03 28.08 19.59 24.66 17.08 2.976 2.062 27.2 18.7 26.75 18.26 26.31 17.82 24.9 16.73 0.966 0.648 24.97 16.63 0.457 0.305 8.346 5.509 16.64 10.98 24.54 16.05 8.393 5.436 15.71 10.17 23.66 15.17 23.21 14.72 16.94 10.63 5.829 3.656 17 10.54 5.33 3.304 17.06 10.44 4.83 2.957 8.56 5.171 12.89 7.785 8.579 5.139 8.578 5.139 4.396 2.634 8.585 5.128 13.62 8.137 22.86 13.62 17.19 10.22 6.321 3.757 8.603 5.099 15.57 9.227 24.82 14.68 8.613 5.082 16.87 9.952 26.13 15.39 8.622 5.066 17.24 10.13 0.923 0.543 17.25 10.12 8.626 5.06 29.66 17.37 8.634 5.046 20.12 11.76 29.4 17.16 17.28 10.07 12.78 7.444 8.644 5.027 22.07 12.84 17.3 10.04 14.07 8.174 8.651 5.017 17.3 10.03 6.071 3.522 8.654 5.011 24.02 13.91 33.33 19.28 33.99 19.63 34.64 19.99 17.33 9.986 17.33 9.987 0.638 0.368 8.667 4.989 26 14.97 1.283 0.739 34.68 19.94 1.928 1.109 34.68 19.92 2.573 1.479 8.674 4.977 37.91 21.75 17.35 9.946 12.54 7.189 8.678 4.97 70.42 40.31 8.682 4.963 26.04 14.89 31.85 18.2 14.43 8.249 8.682 4.964 31.04 17.75 26.04 14.9 12.92 7.39 8.679 4.967 26.04 14.9 3.48 1.992 26.03 14.91 11.4 6.529 26.03 14.91 10.64 6.099 8.676 4.973 26.03 14.92 1.212 0.695 8.675 4.975 26.02 14.93 0.456 0.262 8.673 4.977 25.72 14.76 17.34 9.96 16.29 9.354 32.87 18.89 32.11 18.46 17.34 9.975 14.02 8.066 30.59 17.62 8.664 4.993 21.17 12.2 17.32 9.993 11.74 6.775 8.661 4.999 19.65 11.34 25.98 15.01 1.573 0.909 26.79 15.49 8.655 5.011 17.37 10.06 25.27 14.64 24.51 14.22 17.29 10.05 6.452 3.749 22.98 13.37 8.641 5.033 13.58 7.914 21.46 12.52 20.7 12.1 19.94 11.67 19.18 11.25 8.622 5.066 9.799 5.758 8.565 5.163 17.13 10.33 64.05 38.62 33.94 21.17 25.46 15.88 16.97 10.58 8.485 5.292 1.851 1.155 8.401 5.425 16.8 10.85 16.8 10.85 1.945 1.257"/><path d="m4118 1274-35.74-23.87-8.341-5.517-25.02-16.55-1.699-1.124-16.73-10.96-16.73-10.96-0.922-0.604-8.393-5.437-16.78-10.88-8.534-5.53-16.84-10.79-8.42-5.395-7.776-4.983-8.449-5.35-16.9-10.7-7.016-4.443-25.44-15.91-6.251-3.91-31.01-19.14-8.542-5.2-21.79-13.27-8.576-5.144-21.09-12.65-17.19-10.22-12.77-7.595-17.2-10.2-14.04-8.332-25.81-15.28-6.71-3.974-17.22-10.18-16.59-9.804-25.84-15.24-8.612-5.082-0.635-0.374-36.36-21.42-25.86-15.21-11.79-6.934-38.92-22.87-17.25-10.12-22.95-13.47-41.48-24.31-25.89-15.15-16.87-9.877-17.26-10.09-25.9-15.14-0.881-0.516-17.27-10.09-25.9-15.13-2.15-1.256-43.19-25.2-3.419-1.996-8.639-5.036-17.28-10.07-17.28-10.07-4.689-2.734-17.28-10.07-25.92-15.1-5.96-3.472-17.12-9.961"/><path d="m-22.71 2042 25.43 16.55 8.592 5.118 12.9 7.684 25.79 15.32 5.151 3.061 25.81 15.3 5.996 3.555 32.66 19.32 25.84 15.25 7.688 4.537 34.39 20.25 34.49 20.27 0.762 0.447 25.88 15.18 10.23 6.001 8.63 5.052 28.34 16.59 34.53 20.18 3.296 1.927 8.638 5.039 25.91 15.12 4.142 2.417 8.641 5.033 17.28 10.07 13.63 7.94 25.93 15.08 14.48 8.423 34.59 20.09 6.685 3.883 25.95 15.05 16.18 9.387 8.653 5.011 34.34 19.89 43.28 25.03 0.577 0.334 44.72 25.83 45.58 26.3 8.665 4.993 17.33 9.986 20.45 11.78 17.33 9.978 26 14.97 3.969 2.285 48.16 27.7 8.672 4.981 40.35 23.18 8.674 4.977 49.89 28.62 8.676 4.973 33.4 19.14 8.678 4.969 42.93 24.59 17.36 9.932 17.36 9.933 123.2 70.42 1.17 0.668 43.4 24.82 8.855 5.064 17.36 9.931 33.9 19.39 17.36 9.935 26.04 14.9 6.864 3.929 8.678 4.969 26.03 14.91 14.55 8.33 34.71 19.88 13.55 7.764 34.7 19.89 12.55 7.197 46.26 26.53 45.26 25.97 43.36 24.9 0.896 0.514 8.67 4.982 17.34 9.965 17.24 9.909 42.25 24.3 26 14.96 15.25 8.776 26 14.97 14.25 8.209 8.664 4.993 17.33 9.987 13.26 7.641 17.32 9.993 20.92 12.07 37.25 21.5 8.659 5.003 27.59 15.94 34.62 20.03 0.622 0.36 34.25 19.83 25.96 15.04 7.29 4.226 8.65 5.019 8.649 5.019 14.95 8.674 17.29 10.05 13.95 8.106 30.24 17.6 17.28 10.07 11.96 6.969 8.638 5.039 17.28 10.08 2.329 1.359 27.24 15.92 14.19 8.307"/><path d="m4139 619.5-48.29-28.45-25.86-15.21-24.13-14.2-51.69-30.36-34.5-20.24-18.89-11.08-17.26-10.11-34.51-20.22-3.324-1.948-8.631-5.051-25.89-15.15-30.9-18.08-17.27-10.09-32.59-19.06-17.27-10.09-17.27-10.09-25.65-14.98-60.46-35.28-1.431-0.834-17.28-10.07-17.28-10.07-17.28-10.07-69.09-40.25"/><path d="m-23.07 2448 34.6 20.07 17.3 10.03 4.053 2.351 17.31 10.02 39.79 23.05 8.657 5.007 49.59 28.68 8.66 5.002 43.3 25.01 7.432 4.294 8.662 4.997 34.65 19.99 17.22 9.937 8.665 4.993 25.99 14.98 27.02 15.57 8.667 4.989 52 29.93 2.15 1.238 8.669 4.984 55.29 31.79 65.1 37.4 8.674 4.977 34.69 19.91 22.88 13.13 8.676 4.973 43.38 24.87 15.34 8.793 26.03 14.91 51.18 29.31 8.68 4.966 34.72 19.86 17.6 10.07 8.682 4.963 131.6 75.22 9.955 5.692 17.36 9.927 32.17 18.39"/><path d="m-20.32 2996 28.17 16.3 78.06 44.79 1.918 1.101 34.7 19.89 43.38 24.87 12.1 6.938 8.678 4.97 26.03 14.91 52.06 29.82 4.937 2.828 8.68 4.966 84.56 48.39 8.682 4.963 52.09 29.78 122.4 69.95"/><path d="m-99.76 3698 34.73 19.85 34.73 19.85 34.73 19.85 23.3 13.32 37.9 21.67"/></g></g><g fill-opacity="0" stroke="none"><path d="m2579-22.44c-155.7 1.019-311.4 0.1721-467 3.608-41.86 14.82 1.454 55.66 30.77 41.98 302.9 22.11 617.9 108.3 852.9 310.2 84.87 74.87 151.9 179.7 150.1 296.1 8.844 40.77 55.64 15.56 69.5-8.601 136.5-130.6 135.9-364.4 14-504.3-44.21-49.81-89.18-103.4-143.6-140.4-168.9 0.4801-337.7 0.9601-506.6 1.44z"/><path d="m2579-22.44c-155.7 1.019-311.4 0.1721-467 3.608-41.86 14.82 1.454 55.66 30.77 41.98 302.9 22.11 617.9 108.3 852.9 310.2 84.87 74.87 151.9 179.7 150.1 296.1 8.844 40.77 55.64 15.56 69.5-8.601 136.5-130.6 135.9-364.4 14-504.3-44.21-49.81-89.18-103.4-143.6-140.4-168.9 0.4801-337.7 0.9601-506.6 1.44z"/><path d="m1017-18.92c-202.6 162-368.7 382.3-420.6 640.5-65.01 297.7 20.18 616.5 206.8 854.6 143.2 186.3 337.4 324.7 528.5 457.5 26.36 24.23 62.03-19.36 28.02-37.51-189.5-138.9-373.4-300.1-472.3-518.5-143.4-303.9-86.79-688.4 139.8-937 212.5-240.4 518.4-393.1 839.3-417.7 33.39-11.53 6.462-50.19-20.37-41.8-271.9-6.449-544-3.314-816-5.079l-7.268 2.725z"/><path d="m-5.988 3022c-37.6 21.45-17.34 77.23-24.47 113-0.1792 196.6-4.661 394.9 2.049 590.4 20.59 21.19 53.48 43.87 84.78 46.57 38.08-31.68 50.69-87.32 90.87-119.4 70.03-73.42 161.3-125.6 259.9-148.1 41.88-36.37 47.17-99.92 87.61-139 49.84-32.13 9.723-70.55-30.63-82.71-153.5-87.4-305.6-178.1-461.5-260.8l-7.762 0.041z"/></g></g></g></svg>
