<svg version="1.1" viewBox="0.0 0.0 423.0 317.0" fill="none" stroke="none" stroke-linecap="square" stroke-miterlimit="10" width="423" height="317" xmlns:xlink="http://www.w3.org/1999/xlink" xmlns="http://www.w3.org/2000/svg"><path fill="#ffffff" d="M0 0L423.0 0L423.0 317.0L0 317.0L0 0Z" fill-rule="nonzero"/><path fill="#4285f4" d="M211.5 50.416668C222.93375 50.416668 234.31377 51.980812 245.32352 55.0656L211.5 175.78334Z" fill-rule="nonzero"/><path fill="#34a853" d="M153.82318 64.47212C171.64626 55.236954 191.42638 50.416668 211.5 50.416668L211.5 175.78334Z" fill-rule="nonzero"/><path fill="#fbbc04" d="M88.75549 201.28993C77.318886 146.25395 103.91364 90.33316 153.82318 64.47212L211.5 175.78334Z" fill-rule="nonzero"/><path fill="#ea4335" d="M245.32352 55.0656C304.59964 71.67399 343.04727 128.86198 336.0554 190.0225C329.06354 251.18303 278.7011 298.21826 217.20601 301.02008C155.71092 303.8219 101.280014 261.56125 88.75549 201.28993L211.5 175.78334Z" fill-rule="nonzero"/><path fill="#1a1a1a" d="M16.88125 63.416668L16.88125 53.401043L18.209375 53.401043L18.209375 62.229168L23.13125 62.229168L23.13125 63.416668L16.88125 63.416668ZM24.31875 59.791668Q24.31875 57.776043 25.44375 56.791668Q26.365625 55.994793 27.725 55.994793Q29.209375 55.994793 30.1625 56.979168Q31.115625 57.947918 31.115625 59.682293Q31.115625 61.088543 30.69375 61.901043Q30.271875 62.697918 29.459375 63.151043Q28.6625 63.588543 27.725 63.588543Q26.19375 63.588543 25.25625 62.604168Q24.31875 61.619793 24.31875 59.791668ZM25.584375 59.791668Q25.584375 61.182293 26.19375 61.885418Q26.803125 62.572918 27.725 62.572918Q28.63125 62.572918 29.240625 61.869793Q29.85 61.166668 29.85 59.744793Q29.85 58.401043 29.240625 57.713543Q28.63125 57.010418 27.725 57.010418Q26.803125 57.010418 26.19375 57.697918Q25.584375 58.385418 25.584375 59.791668ZM34.115623 63.416668L31.896875 56.151043L33.1625 56.151043L34.31875 60.354168L34.75625 61.901043Q34.771873 61.791668 35.13125 60.401043L36.2875 56.151043L37.5375 56.151043L38.63125 60.369793L38.990623 61.760418L39.4125 60.354168L40.6625 56.151043L41.85 56.151043L39.584373 63.416668L38.303123 63.416668L37.146873 59.072918L36.865623 57.838543L35.396873 63.416668L34.115623 63.416668Z" fill-rule="nonzero"/><path fill="#9e9e9e" d="M16.50625 74.71354L16.50625 73.52604L23.00625 73.52604L23.00625 74.479164Q22.0375 75.49479 21.1 77.18229Q20.1625 78.86979 19.646875 80.666664Q19.2875 81.916664 19.178125 83.416664L17.9125 83.416664Q17.928125 82.229164 18.365625 80.55729Q18.81875 78.885414 19.646875 77.33854Q20.490625 75.77604 21.428125 74.71354L16.50625 74.71354ZM25.115625 83.416664L25.115625 82.010414L26.521875 82.010414L26.521875 83.416664L25.115625 83.416664ZM34.81875 75.854164L33.6 75.947914Q33.428123 75.21354 33.13125 74.885414Q32.63125 74.36979 31.896875 74.36979Q31.303125 74.36979 30.865625 74.697914Q30.2875 75.11979 29.94375 75.93229Q29.615625 76.74479 29.6 78.24479Q30.0375 77.572914 30.678125 77.24479Q31.334375 76.916664 32.0375 76.916664Q33.271873 76.916664 34.13125 77.822914Q34.990623 78.729164 34.990623 80.166664Q34.990623 81.104164 34.584373 81.916664Q34.178123 82.729164 33.459373 83.166664Q32.75625 83.58854 31.85 83.58854Q30.31875 83.58854 29.35 82.46354Q28.38125 81.322914 28.38125 78.729164Q28.38125 75.822914 29.44375 74.49479Q30.38125 73.354164 31.975 73.354164Q33.1625 73.354164 33.9125 74.02604Q34.6625 74.68229 34.81875 75.854164ZM29.7875 80.166664Q29.7875 80.80729 30.053125 81.385414Q30.334375 81.96354 30.81875 82.27604Q31.303125 82.572914 31.834375 82.572914Q32.615623 82.572914 33.178123 81.947914Q33.740623 81.322914 33.740623 80.24479Q33.740623 79.197914 33.178123 78.604164Q32.63125 77.99479 31.7875 77.99479Q30.959375 77.99479 30.365625 78.604164Q29.7875 79.197914 29.7875 80.166664ZM36.6625 75.80729Q36.6625 74.729164 37.19375 73.979164Q37.740623 73.229164 38.771873 73.229164Q39.709373 73.229164 40.31875 73.90104Q40.94375 74.572914 40.94375 75.86979Q40.94375 77.15104 40.31875 77.83854Q39.69375 78.52604 38.7875 78.52604Q37.88125 78.52604 37.271873 77.854164Q36.6625 77.166664 36.6625 75.80729ZM38.803123 74.072914Q38.35 74.072914 38.0375 74.479164Q37.740623 74.86979 37.740623 75.916664Q37.740623 76.885414 38.0375 77.27604Q38.35 77.666664 38.803123 77.666664Q39.271873 77.666664 39.56875 77.27604Q39.88125 76.885414 39.88125 75.822914Q39.88125 74.854164 39.56875 74.46354Q39.25625 74.072914 38.803123 74.072914ZM38.803123 83.791664L44.2875 73.229164L45.2875 73.229164L39.834373 83.791664L38.803123 83.791664ZM43.146873 81.05729Q43.146873 79.979164 43.678123 79.24479Q44.225 78.49479 45.25625 78.49479Q46.19375 78.49479 46.81875 79.166664Q47.44375 79.83854 47.44375 81.135414Q47.44375 82.416664 46.81875 83.104164Q46.19375 83.791664 45.25625 83.791664Q44.35 83.791664 43.740623 83.11979Q43.146873 82.43229 43.146873 81.05729ZM45.2875 79.33854Q44.81875 79.33854 44.521873 79.74479Q44.225 80.135414 44.225 81.18229Q44.225 82.15104 44.521873 82.541664Q44.834373 82.93229 45.2875 82.93229Q45.75625 82.93229 46.053123 82.541664Q46.365623 82.15104 46.365623 81.08854Q46.365623 80.11979 46.053123 79.729164Q45.75625 79.33854 45.2875 79.33854Z" fill-rule="nonzero"/><path stroke="#757575" stroke-width="1.0" stroke-linecap="butt" d="M15.85 68.916664L80.13333 68.916664L183.30176 60.071312" fill-rule="nonzero"/><path fill="#9e9e9e" d="M185.30176 60.071312C185.30176 58.966743 184.40633 58.071312 183.30176 58.071312C182.19719 58.071312 181.30176 58.966743 181.30176 60.071312C181.30176 61.17588 182.19719 62.071312 183.30176 62.071312C184.40633 62.071312 185.30176 61.17588 185.30176 60.071312" fill-rule="nonzero"/><path fill="#1a1a1a" d="M16.896875 119.13257L16.896875 109.11694L18.88125 109.11694L21.25625 116.21069Q21.584375 117.19507 21.740625 117.69507Q21.9125 117.14819 22.271875 116.08569L24.6625 109.11694L26.459375 109.11694L26.459375 119.13257L25.178125 119.13257L25.178125 110.74194L22.25625 119.13257L21.06875 119.13257L18.1625 110.60132L18.1625 119.13257L16.896875 119.13257ZM27.31875 115.50757Q27.31875 113.49194 28.44375 112.50757Q29.365625 111.71069 30.725 111.71069Q32.209373 111.71069 33.1625 112.69507Q34.115623 113.66382 34.115623 115.39819Q34.115623 116.80444 33.69375 117.61694Q33.271873 118.41382 32.459373 118.86694Q31.6625 119.30444 30.725 119.30444Q29.19375 119.30444 28.25625 118.32007Q27.31875 117.33569 27.31875 115.50757ZM28.584375 115.50757Q28.584375 116.89819 29.19375 117.60132Q29.803125 118.28882 30.725 118.28882Q31.63125 118.28882 32.240623 117.58569Q32.85 116.88257 32.85 115.46069Q32.85 114.11694 32.240623 113.42944Q31.63125 112.72632 30.725 112.72632Q29.803125 112.72632 29.19375 113.41382Q28.584375 114.10132 28.584375 115.50757ZM40.490623 119.13257L40.490623 118.21069Q39.7875 119.30444 38.459373 119.30444Q37.584373 119.30444 36.85 118.82007Q36.13125 118.33569 35.725 117.47632Q35.334373 116.61694 35.334373 115.50757Q35.334373 114.42944 35.69375 113.53882Q36.053123 112.64819 36.771873 112.17944Q37.50625 111.71069 38.396873 111.71069Q39.053123 111.71069 39.56875 111.99194Q40.084373 112.25757 40.396873 112.71069L40.396873 109.11694L41.63125 109.11694L41.63125 119.13257L40.490623 119.13257ZM36.6 115.50757Q36.6 116.89819 37.178123 117.60132Q37.771873 118.28882 38.56875 118.28882Q39.38125 118.28882 39.94375 117.63257Q40.50625 116.96069 40.50625 115.61694Q40.50625 114.11694 39.928123 113.42944Q39.35 112.72632 38.521873 112.72632Q37.69375 112.72632 37.146873 113.39819Q36.6 114.07007 36.6 115.50757ZM48.740623 116.78882L50.021873 116.94507Q49.709373 118.07007 48.896873 118.69507Q48.084373 119.30444 46.81875 119.30444Q45.225 119.30444 44.2875 118.32007Q43.365623 117.33569 43.365623 115.57007Q43.365623 113.72632 44.303123 112.72632Q45.25625 111.71069 46.75625 111.71069Q48.209373 111.71069 49.13125 112.71069Q50.053123 113.69507 50.053123 115.49194Q50.053123 115.60132 50.053123 115.82007L44.63125 115.82007Q44.709373 117.00757 45.303123 117.64819Q45.9125 118.28882 46.834373 118.28882Q47.50625 118.28882 47.975 117.92944Q48.459373 117.57007 48.740623 116.78882ZM44.709373 114.80444L48.75625 114.80444Q48.678123 113.88257 48.2875 113.42944Q47.709373 112.72632 46.771873 112.72632Q45.9125 112.72632 45.334373 113.28882Q44.771873 113.85132 44.709373 114.80444ZM51.75625 119.13257L51.75625 111.86694L52.865623 111.86694L52.865623 112.97632Q53.2875 112.19507 53.646873 111.96069Q54.00625 111.71069 54.44375 111.71069Q55.06875 111.71069 55.709373 112.10132L55.2875 113.24194Q54.834373 112.97632 54.38125 112.97632Q53.975 112.97632 53.646873 113.22632Q53.334373 113.46069 53.19375 113.89819Q52.990623 114.55444 52.990623 115.33569L52.990623 119.13257L51.75625 119.13257ZM61.50625 118.24194Q60.834373 118.82007 60.19375 119.07007Q59.56875 119.30444 58.834373 119.30444Q57.646873 119.30444 56.990623 118.72632Q56.35 118.13257 56.35 117.21069Q56.35 116.67944 56.584373 116.24194Q56.834373 115.80444 57.225 115.53882Q57.63125 115.27319 58.115623 115.13257Q58.475 115.03882 59.209373 114.94507Q60.709373 114.77319 61.4125 114.52319Q61.4125 114.27319 61.4125 114.21069Q61.4125 113.44507 61.06875 113.14819Q60.6 112.72632 59.6625 112.72632Q58.803123 112.72632 58.38125 113.03882Q57.975 113.33569 57.771873 114.10132L56.56875 113.94507Q56.725 113.16382 57.1 112.69507Q57.490623 112.22632 58.19375 111.97632Q58.9125 111.71069 59.85 111.71069Q60.771873 111.71069 61.35 111.92944Q61.928123 112.14819 62.19375 112.47632Q62.475 112.80444 62.584373 113.32007Q62.646873 113.63257 62.646873 114.44507L62.646873 116.08569Q62.646873 117.80444 62.725 118.25757Q62.803123 118.71069 63.0375 119.13257L61.75625 119.13257Q61.56875 118.74194 61.50625 118.24194ZM61.4125 115.49194Q60.740623 115.75757 59.396873 115.96069Q58.646873 116.07007 58.31875 116.21069Q58.00625 116.33569 57.834373 116.60132Q57.6625 116.86694 57.6625 117.17944Q57.6625 117.67944 58.0375 118.00757Q58.4125 118.33569 59.13125 118.33569Q59.85 118.33569 60.396873 118.02319Q60.94375 117.71069 61.209373 117.16382Q61.4125 116.75757 61.4125 115.94507L61.4125 115.49194ZM67.45937 118.03882L67.63125 119.11694Q67.11562 119.22632 66.70937 119.22632Q66.0375 119.22632 65.6625 119.02319Q65.30312 118.80444 65.14687 118.46069Q65.00625 118.11694 65.00625 117.00757L65.00625 112.83569L64.1 112.83569L64.1 111.86694L65.00625 111.86694L65.00625 110.07007L66.225 109.33569L66.225 111.86694L67.45937 111.86694L67.45937 112.83569L66.225 112.83569L66.225 117.07007Q66.225 117.60132 66.2875 117.75757Q66.35 117.89819 66.49062 117.99194Q66.64687 118.08569 66.9125 118.08569Q67.13125 118.08569 67.45937 118.03882ZM73.74062 116.78882L75.02187 116.94507Q74.70937 118.07007 73.89687 118.69507Q73.08437 119.30444 71.81875 119.30444Q70.225 119.30444 69.2875 118.32007Q68.36562 117.33569 68.36562 115.57007Q68.36562 113.72632 69.30312 112.72632Q70.25625 111.71069 71.75625 111.71069Q73.20937 111.71069 74.13125 112.71069Q75.05312 113.69507 75.05312 115.49194Q75.05312 115.60132 75.05312 115.82007L69.63125 115.82007Q69.70937 117.00757 70.30312 117.64819Q70.9125 118.28882 71.83437 118.28882Q72.50625 118.28882 72.975 117.92944Q73.45937 117.57007 73.74062 116.78882ZM69.70937 114.80444L73.75625 114.80444Q73.67812 113.88257 73.2875 113.42944Q72.70937 112.72632 71.77187 112.72632Q70.9125 112.72632 70.33437 113.28882Q69.77187 113.85132 69.70937 114.80444Z" fill-rule="nonzero"/><path fill="#9e9e9e" d="M22.896875 137.94507L22.896875 139.13257L16.271875 139.13257Q16.25625 138.69507 16.4125 138.2732Q16.678125 137.60132 17.225 136.94507Q17.7875 136.28882 18.834375 135.42944Q20.475 134.0857 21.0375 133.30444Q21.615625 132.5232 21.615625 131.82007Q21.615625 131.0857 21.084375 130.5857Q20.56875 130.0857 19.740625 130.0857Q18.85 130.0857 18.303125 130.61694Q17.771875 131.1482 17.771875 132.10132L16.50625 131.9607Q16.63125 130.55444 17.475 129.82007Q18.334375 129.07007 19.75625 129.07007Q21.209375 129.07007 22.0375 129.86694Q22.88125 130.66382 22.88125 131.85132Q22.88125 132.4607 22.63125 133.03882Q22.396875 133.61694 21.81875 134.25757Q21.25625 134.8982 19.928125 136.0232Q18.81875 136.94507 18.50625 137.28882Q18.19375 137.61694 17.990625 137.94507L22.896875 137.94507ZM24.428125 134.19507Q24.428125 132.41382 24.7875 131.3357Q25.1625 130.24194 25.88125 129.66382Q26.6 129.07007 27.69375 129.07007Q28.50625 129.07007 29.115625 129.3982Q29.725 129.72632 30.115625 130.3357Q30.521875 130.94507 30.740625 131.82007Q30.959375 132.69507 30.959375 134.19507Q30.959375 135.9607 30.6 137.03882Q30.240625 138.11694 29.521875 138.7107Q28.803125 139.30444 27.69375 139.30444Q26.25625 139.30444 25.428125 138.25757Q24.428125 137.00757 24.428125 134.19507ZM25.69375 134.19507Q25.69375 136.66382 26.271875 137.47632Q26.85 138.28882 27.69375 138.28882Q28.553125 138.28882 29.13125 137.47632Q29.709375 136.6482 29.709375 134.19507Q29.709375 131.7107 29.13125 130.8982Q28.553125 130.0857 27.678125 130.0857Q26.834375 130.0857 26.334375 130.80444Q25.69375 131.72632 25.69375 134.19507ZM33.115623 139.13257L33.115623 137.72632L34.521873 137.72632L34.521873 139.13257L33.115623 139.13257ZM36.50625 130.42944L36.50625 129.24194L43.00625 129.24194L43.00625 130.19507Q42.0375 131.2107 41.1 132.8982Q40.1625 134.5857 39.646873 136.38257Q39.2875 137.63257 39.178123 139.13257L37.9125 139.13257Q37.928123 137.94507 38.365623 136.2732Q38.81875 134.60132 39.646873 133.05444Q40.490623 131.49194 41.428123 130.42944L36.50625 130.42944ZM44.6625 131.5232Q44.6625 130.44507 45.19375 129.69507Q45.740623 128.94507 46.771873 128.94507Q47.709373 128.94507 48.31875 129.61694Q48.94375 130.28882 48.94375 131.5857Q48.94375 132.86694 48.31875 133.55444Q47.69375 134.24194 46.7875 134.24194Q45.88125 134.24194 45.271873 133.57007Q44.6625 132.88257 44.6625 131.5232ZM46.803123 129.78882Q46.35 129.78882 46.0375 130.19507Q45.740623 130.5857 45.740623 131.63257Q45.740623 132.60132 46.0375 132.99194Q46.35 133.38257 46.803123 133.38257Q47.271873 133.38257 47.56875 132.99194Q47.88125 132.60132 47.88125 131.53882Q47.88125 130.57007 47.56875 130.17944Q47.25625 129.78882 46.803123 129.78882ZM46.803123 139.50757L52.2875 128.94507L53.2875 128.94507L47.834373 139.50757L46.803123 139.50757ZM51.146873 136.7732Q51.146873 135.69507 51.678123 134.9607Q52.225 134.2107 53.25625 134.2107Q54.19375 134.2107 54.81875 134.88257Q55.44375 135.55444 55.44375 136.85132Q55.44375 138.13257 54.81875 138.82007Q54.19375 139.50757 53.25625 139.50757Q52.35 139.50757 51.740623 138.8357Q51.146873 138.1482 51.146873 136.7732ZM53.2875 135.05444Q52.81875 135.05444 52.521873 135.4607Q52.225 135.85132 52.225 136.8982Q52.225 137.86694 52.521873 138.25757Q52.834373 138.6482 53.2875 138.6482Q53.75625 138.6482 54.053123 138.25757Q54.365623 137.86694 54.365623 136.80444Q54.365623 135.8357 54.053123 135.44507Q53.75625 135.05444 53.2875 135.05444Z" fill-rule="nonzero"/><path stroke="#757575" stroke-width="1.0" stroke-linecap="butt" d="M15.85 124.63257L80.13333 124.63257L103.945305 124.63257" fill-rule="nonzero"/><path fill="#9e9e9e" d="M105.945305 124.63257C105.945305 123.528 105.04987 122.63257 103.945305 122.63257C102.84074 122.63257 101.945305 123.528 101.945305 124.63257C101.945305 125.73714 102.84074 126.63257 103.945305 126.63257C105.04987 126.63257 105.945305 125.73714 105.945305 124.63257" fill-rule="nonzero"/><path fill="#1a1a1a" d="M372.38437 59.901043L373.7125 60.244793Q373.29062 61.869793 372.19687 62.729168Q371.11874 63.588543 369.55624 63.588543Q367.93124 63.588543 366.91562 62.932293Q365.9 62.260418 365.36874 61.010418Q364.85312 59.760418 364.85312 58.322918Q364.85312 56.760418 365.44687 55.604168Q366.04062 54.432293 367.15 53.838543Q368.25937 53.229168 369.57187 53.229168Q371.0875 53.229168 372.10312 53.994793Q373.13437 54.760418 373.54062 56.135418L372.22812 56.447918Q371.88437 55.354168 371.2125 54.854168Q370.55624 54.354168 369.55624 54.354168Q368.4 54.354168 367.61874 54.916668Q366.8375 55.463543 366.525 56.401043Q366.2125 57.338543 366.2125 58.322918Q366.2125 59.604168 366.5875 60.557293Q366.9625 61.510418 367.74374 61.979168Q368.525 62.447918 369.44687 62.447918Q370.55624 62.447918 371.32187 61.807293Q372.10312 61.166668 372.38437 59.901043ZM375.05624 63.416668L375.05624 56.151043L376.16562 56.151043L376.16562 57.260418Q376.5875 56.479168 376.94687 56.244793Q377.30624 55.994793 377.74374 55.994793Q378.36874 55.994793 379.00937 56.385418L378.5875 57.526043Q378.13437 57.260418 377.68124 57.260418Q377.275 57.260418 376.94687 57.510418Q376.63437 57.744793 376.49374 58.182293Q376.29062 58.838543 376.29062 59.619793L376.29062 63.416668L375.05624 63.416668ZM380.0875 54.807293L380.0875 53.401043L381.30624 53.401043L381.30624 54.807293L380.0875 54.807293ZM380.0875 63.416668L380.0875 56.151043L381.30624 56.151043L381.30624 63.416668L380.0875 63.416668ZM385.75937 62.322918L385.93124 63.401043Q385.41562 63.510418 385.00937 63.510418Q384.3375 63.510418 383.9625 63.307293Q383.60312 63.088543 383.44687 62.744793Q383.30624 62.401043 383.30624 61.291668L383.30624 57.119793L382.4 57.119793L382.4 56.151043L383.30624 56.151043L383.30624 54.354168L384.525 53.619793L384.525 56.151043L385.75937 56.151043L385.75937 57.119793L384.525 57.119793L384.525 61.354168Q384.525 61.885418 384.5875 62.041668Q384.65 62.182293 384.79062 62.276043Q384.94687 62.369793 385.2125 62.369793Q385.43124 62.369793 385.75937 62.322918ZM387.0875 54.807293L387.0875 53.401043L388.30624 53.401043L388.30624 54.807293L387.0875 54.807293ZM387.0875 63.416668L387.0875 56.151043L388.30624 56.151043L388.30624 63.416668L387.0875 63.416668ZM394.80624 60.760418L396.025 60.916668Q395.82187 62.166668 394.99374 62.885418Q394.18124 63.588543 392.99374 63.588543Q391.50937 63.588543 390.60312 62.619793Q389.69687 61.635418 389.69687 59.807293Q389.69687 58.635418 390.0875 57.760418Q390.47812 56.869793 391.275 56.432293Q392.07187 55.994793 393.00937 55.994793Q394.18124 55.994793 394.93124 56.588543Q395.69687 57.182293 395.9 58.291668L394.7125 58.479168Q394.54062 57.744793 394.10312 57.385418Q393.66562 57.010418 393.05624 57.010418Q392.11874 57.010418 391.54062 57.682293Q390.9625 58.338543 390.9625 59.776043Q390.9625 61.244793 391.525 61.916668Q392.0875 62.572918 392.97812 62.572918Q393.7125 62.572918 394.19687 62.135418Q394.68124 61.682293 394.80624 60.760418ZM401.80624 62.526043Q401.13437 63.104168 400.49374 63.354168Q399.86874 63.588543 399.13437 63.588543Q397.94687 63.588543 397.29062 63.010418Q396.65 62.416668 396.65 61.494793Q396.65 60.963543 396.88437 60.526043Q397.13437 60.088543 397.525 59.822918Q397.93124 59.557293 398.41562 59.416668Q398.775 59.322918 399.50937 59.229168Q401.00937 59.057293 401.7125 58.807293Q401.7125 58.557293 401.7125 58.494793Q401.7125 57.729168 401.36874 57.432293Q400.9 57.010418 399.9625 57.010418Q399.10312 57.010418 398.68124 57.322918Q398.275 57.619793 398.07187 58.385418L396.86874 58.229168Q397.025 57.447918 397.4 56.979168Q397.79062 56.510418 398.49374 56.260418Q399.2125 55.994793 400.15 55.994793Q401.07187 55.994793 401.65 56.213543Q402.22812 56.432293 402.49374 56.760418Q402.775 57.088543 402.88437 57.604168Q402.94687 57.916668 402.94687 58.729168L402.94687 60.369793Q402.94687 62.088543 403.025 62.541668Q403.10312 62.994793 403.3375 63.416668L402.05624 63.416668Q401.86874 63.026043 401.80624 62.526043ZM401.7125 59.776043Q401.04062 60.041668 399.69687 60.244793Q398.94687 60.354168 398.61874 60.494793Q398.30624 60.619793 398.13437 60.885418Q397.9625 61.151043 397.9625 61.463543Q397.9625 61.963543 398.3375 62.291668Q398.7125 62.619793 399.43124 62.619793Q400.15 62.619793 400.69687 62.307293Q401.24374 61.994793 401.50937 61.447918Q401.7125 61.041668 401.7125 60.229168L401.7125 59.776043ZM405.04062 63.416668L405.04062 53.401043L406.275 53.401043L406.275 63.416668L405.04062 63.416668Z" fill-rule="nonzero"/><path fill="#9e9e9e" d="M379.68124 83.416664L379.68124 81.010414L375.32187 81.010414L375.32187 79.885414L379.9 73.40104L380.9 73.40104L380.9 79.885414L382.25937 79.885414L382.25937 81.010414L380.9 81.010414L380.9 83.416664L379.68124 83.416664ZM379.68124 79.885414L379.68124 75.36979L376.54062 79.885414L379.68124 79.885414ZM384.41562 83.416664L384.41562 82.010414L385.82187 82.010414L385.82187 83.416664L384.41562 83.416664ZM387.74374 80.77604L388.9625 80.604164Q389.18124 81.65104 389.68124 82.11979Q390.19687 82.572914 390.93124 82.572914Q391.80624 82.572914 392.4 81.979164Q392.99374 81.36979 392.99374 80.479164Q392.99374 79.635414 392.43124 79.08854Q391.88437 78.541664 391.04062 78.541664Q390.68124 78.541664 390.16562 78.666664L390.30624 77.58854Q390.43124 77.604164 390.49374 77.604164Q391.29062 77.604164 391.91562 77.197914Q392.54062 76.791664 392.54062 75.93229Q392.54062 75.260414 392.0875 74.822914Q391.63437 74.36979 390.9 74.36979Q390.18124 74.36979 389.69687 74.822914Q389.22812 75.260414 389.0875 76.166664L387.86874 75.947914Q388.0875 74.71354 388.88437 74.041664Q389.68124 73.354164 390.86874 73.354164Q391.69687 73.354164 392.38437 73.71354Q393.07187 74.05729 393.43124 74.666664Q393.80624 75.27604 393.80624 75.96354Q393.80624 76.604164 393.4625 77.135414Q393.11874 77.666664 392.43124 77.99479Q393.32187 78.197914 393.80624 78.83854Q394.30624 79.479164 394.30624 80.46354Q394.30624 81.77604 393.3375 82.68229Q392.38437 83.58854 390.93124 83.58854Q389.60312 83.58854 388.72812 82.80729Q387.86874 82.02604 387.74374 80.77604ZM395.9625 75.80729Q395.9625 74.729164 396.49374 73.979164Q397.04062 73.229164 398.07187 73.229164Q399.00937 73.229164 399.61874 73.90104Q400.24374 74.572914 400.24374 75.86979Q400.24374 77.15104 399.61874 77.83854Q398.99374 78.52604 398.0875 78.52604Q397.18124 78.52604 396.57187 77.854164Q395.9625 77.166664 395.9625 75.80729ZM398.10312 74.072914Q397.65 74.072914 397.3375 74.479164Q397.04062 74.86979 397.04062 75.916664Q397.04062 76.885414 397.3375 77.27604Q397.65 77.666664 398.10312 77.666664Q398.57187 77.666664 398.86874 77.27604Q399.18124 76.885414 399.18124 75.822914Q399.18124 74.854164 398.86874 74.46354Q398.55624 74.072914 398.10312 74.072914ZM398.10312 83.791664L403.5875 73.229164L404.5875 73.229164L399.13437 83.791664L398.10312 83.791664ZM402.44687 81.05729Q402.44687 79.979164 402.97812 79.24479Q403.525 78.49479 404.55624 78.49479Q405.49374 78.49479 406.11874 79.166664Q406.74374 79.83854 406.74374 81.135414Q406.74374 82.416664 406.11874 83.104164Q405.49374 83.791664 404.55624 83.791664Q403.65 83.791664 403.04062 83.11979Q402.44687 82.43229 402.44687 81.05729ZM404.5875 79.33854Q404.11874 79.33854 403.82187 79.74479Q403.525 80.135414 403.525 81.18229Q403.525 82.15104 403.82187 82.541664Q404.13437 82.93229 404.5875 82.93229Q405.05624 82.93229 405.35312 82.541664Q405.66562 82.15104 405.66562 81.08854Q405.66562 80.11979 405.35312 79.729164Q405.05624 79.33854 404.5875 79.33854Z" fill-rule="nonzero"/><path stroke="#757575" stroke-width="1.0" stroke-linecap="butt" d="M407.15 68.916664L342.86667 68.916664L227.71722 57.79429" fill-rule="nonzero"/><path fill="#9e9e9e" d="M229.71722 57.79429C229.71722 56.68972 228.8218 55.79429 227.71722 55.79429C226.61266 55.79429 225.71722 56.68972 225.71722 57.79429C225.71722 58.898857 226.61266 59.79429 227.71722 59.79429C228.8218 59.79429 229.71722 58.898857 229.71722 57.79429" fill-rule="nonzero"/><path fill="#1a1a1a" d="M380.275 257.32468L380.275 247.30905L381.60312 247.30905L381.60312 251.41843L386.80624 251.41843L386.80624 247.30905L388.13437 247.30905L388.13437 257.32468L386.80624 257.32468L386.80624 252.60593L381.60312 252.60593L381.60312 257.32468L380.275 257.32468ZM389.0875 248.7153L389.0875 247.30905L390.30624 247.30905L390.30624 248.7153L389.0875 248.7153ZM389.0875 257.32468L389.0875 250.05905L390.30624 250.05905L390.30624 257.32468L389.0875 257.32468ZM391.85312 257.93405L393.04062 258.10593Q393.11874 258.6528 393.4625 258.91843Q393.91562 259.24655 394.7125 259.24655Q395.57187 259.24655 396.025 258.9028Q396.49374 258.57468 396.66562 257.94968Q396.75937 257.57468 396.74374 256.37155Q395.94687 257.32468 394.74374 257.32468Q393.24374 257.32468 392.41562 256.24655Q391.60312 255.16843 391.60312 253.6528Q391.60312 252.62155 391.97812 251.74655Q392.35312 250.85593 393.05624 250.38718Q393.775 249.9028 394.74374 249.9028Q396.025 249.9028 396.86874 250.93405L396.86874 250.05905L397.99374 250.05905L397.99374 256.3403Q397.99374 258.04343 397.65 258.74655Q397.30624 259.44968 396.55624 259.85593Q395.80624 260.2778 394.7125 260.2778Q393.41562 260.2778 392.61874 259.68405Q391.82187 259.10593 391.85312 257.93405ZM392.86874 253.55905Q392.86874 254.99655 393.43124 255.6528Q393.99374 256.30905 394.85312 256.30905Q395.69687 256.30905 396.275 255.6528Q396.85312 254.99655 396.85312 253.60593Q396.85312 252.2778 396.25937 251.60593Q395.66562 250.91843 394.8375 250.91843Q394.00937 250.91843 393.43124 251.5903Q392.86874 252.24655 392.86874 253.55905ZM400.07187 257.32468L400.07187 247.30905L401.30624 247.30905L401.30624 250.9028Q402.16562 249.9028 403.47812 249.9028Q404.29062 249.9028 404.88437 250.23093Q405.47812 250.54343 405.72812 251.10593Q405.99374 251.6528 405.99374 252.73093L405.99374 257.32468L404.75937 257.32468L404.75937 252.73093Q404.75937 251.79343 404.35312 251.38718Q403.9625 250.9653 403.22812 250.9653Q402.68124 250.9653 402.19687 251.24655Q401.7125 251.5278 401.50937 252.01218Q401.30624 252.49655 401.30624 253.35593L401.30624 257.32468L400.07187 257.32468Z" fill-rule="nonzero"/><path fill="#9e9e9e" d="M374.11874 269.76218L372.9 269.85593Q372.72812 269.12155 372.43124 268.79343Q371.93124 268.2778 371.19687 268.2778Q370.60312 268.2778 370.16562 268.60593Q369.5875 269.0278 369.24374 269.8403Q368.91562 270.6528 368.9 272.1528Q369.3375 271.48093 369.97812 271.1528Q370.63437 270.82468 371.3375 270.82468Q372.57187 270.82468 373.43124 271.73093Q374.29062 272.63718 374.29062 274.07468Q374.29062 275.01218 373.88437 275.82468Q373.47812 276.63718 372.75937 277.07468Q372.05624 277.49655 371.15 277.49655Q369.61874 277.49655 368.65 276.37155Q367.68124 275.23093 367.68124 272.63718Q367.68124 269.73093 368.74374 268.4028Q369.68124 267.26218 371.275 267.26218Q372.4625 267.26218 373.2125 267.93405Q373.9625 268.5903 374.11874 269.76218ZM369.0875 274.07468Q369.0875 274.7153 369.35312 275.29343Q369.63437 275.87155 370.11874 276.18405Q370.60312 276.48093 371.13437 276.48093Q371.91562 276.48093 372.47812 275.85593Q373.04062 275.23093 373.04062 274.1528Q373.04062 273.10593 372.47812 272.51218Q371.93124 271.9028 371.0875 271.9028Q370.25937 271.9028 369.66562 272.51218Q369.0875 273.10593 369.0875 274.07468ZM375.80624 268.62155L375.80624 267.43405L382.30624 267.43405L382.30624 268.38718Q381.3375 269.4028 380.4 271.0903Q379.4625 272.7778 378.94687 274.57468Q378.5875 275.82468 378.47812 277.32468L377.2125 277.32468Q377.22812 276.13718 377.66562 274.4653Q378.11874 272.79343 378.94687 271.24655Q379.79062 269.68405 380.72812 268.62155L375.80624 268.62155ZM384.41562 277.32468L384.41562 275.91843L385.82187 275.91843L385.82187 277.32468L384.41562 277.32468ZM391.68124 277.32468L391.68124 274.91843L387.32187 274.91843L387.32187 273.79343L391.9 267.30905L392.9 267.30905L392.9 273.79343L394.25937 273.79343L394.25937 274.91843L392.9 274.91843L392.9 277.32468L391.68124 277.32468ZM391.68124 273.79343L391.68124 269.2778L388.54062 273.79343L391.68124 273.79343ZM395.9625 269.7153Q395.9625 268.63718 396.49374 267.88718Q397.04062 267.13718 398.07187 267.13718Q399.00937 267.13718 399.61874 267.80905Q400.24374 268.48093 400.24374 269.7778Q400.24374 271.05905 399.61874 271.74655Q398.99374 272.43405 398.0875 272.43405Q397.18124 272.43405 396.57187 271.76218Q395.9625 271.07468 395.9625 269.7153ZM398.10312 267.98093Q397.65 267.98093 397.3375 268.38718Q397.04062 268.7778 397.04062 269.82468Q397.04062 270.79343 397.3375 271.18405Q397.65 271.57468 398.10312 271.57468Q398.57187 271.57468 398.86874 271.18405Q399.18124 270.79343 399.18124 269.73093Q399.18124 268.76218 398.86874 268.37155Q398.55624 267.98093 398.10312 267.98093ZM398.10312 277.69968L403.5875 267.13718L404.5875 267.13718L399.13437 277.69968L398.10312 277.69968ZM402.44687 274.9653Q402.44687 273.88718 402.97812 273.1528Q403.525 272.4028 404.55624 272.4028Q405.49374 272.4028 406.11874 273.07468Q406.74374 273.74655 406.74374 275.04343Q406.74374 276.32468 406.11874 277.01218Q405.49374 277.69968 404.55624 277.69968Q403.65 277.69968 403.04062 277.0278Q402.44687 276.3403 402.44687 274.9653ZM404.5875 273.24655Q404.11874 273.24655 403.82187 273.6528Q403.525 274.04343 403.525 275.0903Q403.525 276.05905 403.82187 276.44968Q404.13437 276.8403 404.5875 276.8403Q405.05624 276.8403 405.35312 276.44968Q405.66562 276.05905 405.66562 274.99655Q405.66562 274.0278 405.35312 273.63718Q405.05624 273.24655 404.5875 273.24655Z" fill-rule="nonzero"/><path stroke="#757575" stroke-width="1.0" stroke-linecap="butt" d="M407.15 262.82468L342.86667 262.82468L292.79095 262.82468" fill-rule="nonzero"/><path fill="#9e9e9e" d="M294.79095 262.82468C294.79095 261.72012 293.8955 260.82468 292.79095 260.82468C291.68637 260.82468 290.79095 261.72012 290.79095 262.82468C290.79095 263.92926 291.68637 264.82468 292.79095 264.82468C293.8955 264.82468 294.79095 263.92926 294.79095 262.82468" fill-rule="nonzero"/><path fill="#000000" d="M137.71875 30.193748L140.53125 29.912498Q140.79688 31.334373 141.5625 32.00625Q142.34375 32.6625 143.65625 32.6625Q145.0625 32.6625 145.76562 32.06875Q146.46875 31.474998 146.46875 30.693748Q146.46875 30.178123 146.17188 29.834373Q145.875 29.474998 145.14062 29.209373Q144.625 29.021873 142.82812 28.584373Q140.5 28.006248 139.5625 27.162498Q138.23438 25.974998 138.23438 24.287498Q138.23438 23.193748 138.85938 22.240623Q139.48438 21.287498 140.64062 20.787498Q141.8125 20.287498 143.46875 20.287498Q146.15625 20.287498 147.51562 21.474998Q148.89062 22.646873 148.95312 24.631248L146.0625 24.756248Q145.875 23.646873 145.26562 23.162498Q144.65625 22.678123 143.4375 22.678123Q142.17188 22.678123 141.46875 23.193748Q141.0 23.537498 141.0 24.084373Q141.0 24.599998 141.4375 24.959373Q141.98438 25.412498 144.09375 25.912498Q146.20312 26.412498 147.20312 26.943748Q148.21875 27.474998 148.78125 28.396873Q149.35938 29.318748 149.35938 30.678123Q149.35938 31.912498 148.67188 32.990623Q148.0 34.053123 146.75 34.584373Q145.5 35.1 143.625 35.1Q140.92188 35.1 139.45312 33.85Q138.0 32.6 137.71875 30.193748ZM157.4375 31.553123L160.17188 32.00625Q159.65625 33.50625 158.51562 34.303123Q157.375 35.084373 155.67188 35.084373Q152.95312 35.084373 151.65625 33.31875Q150.64062 31.896873 150.64062 29.740623Q150.64062 27.162498 151.98438 25.709373Q153.32812 24.240623 155.39062 24.240623Q157.70312 24.240623 159.03125 25.771873Q160.375 27.303123 160.32812 30.459373L153.45312 30.459373Q153.48438 31.678123 154.10938 32.365623Q154.75 33.0375 155.6875 33.0375Q156.34375 33.0375 156.78125 32.69375Q157.21875 32.334373 157.4375 31.553123ZM157.59375 28.771873Q157.5625 27.584373 156.96875 26.974998Q156.39062 26.349998 155.5625 26.349998Q154.65625 26.349998 154.07812 26.990623Q153.48438 27.646873 153.5 28.771873L157.59375 28.771873ZM165.28125 34.85L161.10938 24.474998L163.98438 24.474998L165.9375 29.771873L166.51562 31.537498Q166.73438 30.865623 166.79688 30.646873Q166.92188 30.209373 167.07812 29.771873L169.0625 24.474998L171.875 24.474998L167.76562 34.85L165.28125 34.85ZM179.4375 31.553123L182.17188 32.00625Q181.65625 33.50625 180.51562 34.303123Q179.375 35.084373 177.67188 35.084373Q174.95312 35.084373 173.65625 33.31875Q172.64062 31.896873 172.64062 29.740623Q172.64062 27.162498 173.98438 25.709373Q175.32812 24.240623 177.39062 24.240623Q179.70312 24.240623 181.03125 25.771873Q182.375 27.303123 182.32812 30.459373L175.45312 30.459373Q175.48438 31.678123 176.10938 32.365623Q176.75 33.0375 177.6875 33.0375Q178.34375 33.0375 178.78125 32.69375Q179.21875 32.334373 179.4375 31.553123ZM179.59375 28.771873Q179.5625 27.584373 178.96875 26.974998Q178.39062 26.349998 177.5625 26.349998Q176.65625 26.349998 176.07812 26.990623Q175.48438 27.646873 175.5 28.771873L179.59375 28.771873ZM187.0625 34.85L184.3125 34.85L184.3125 24.474998L186.875 24.474998L186.875 25.959373Q187.51562 24.912498 188.03125 24.584373Q188.5625 24.240623 189.23438 24.240623Q190.17188 24.240623 191.03125 24.756248L190.1875 27.146873Q189.5 26.709373 188.90625 26.709373Q188.32812 26.709373 187.92188 27.021873Q187.51562 27.334373 187.28125 28.178123Q187.0625 29.006248 187.0625 31.646873L187.0625 34.85ZM192.4375 23.068748L192.4375 20.537498L195.1875 20.537498L195.1875 23.068748L192.4375 23.068748ZM192.4375 34.85L192.4375 24.474998L195.1875 24.474998L195.1875 34.85L192.4375 34.85ZM202.1875 24.474998L202.1875 26.662498L200.3125 26.662498L200.3125 30.849998Q200.3125 32.115623 200.35938 32.334373Q200.42188 32.5375 200.60938 32.678123Q200.8125 32.803123 201.07812 32.803123Q201.45312 32.803123 202.1875 32.5375L202.42188 34.678123Q201.45312 35.084373 200.25 35.084373Q199.5 35.084373 198.90625 34.834373Q198.3125 34.584373 198.03125 34.19375Q197.76562 33.7875 197.65625 33.115623Q197.5625 32.646873 197.5625 31.193748L197.5625 26.662498L196.29688 26.662498L196.29688 24.474998L197.5625 24.474998L197.5625 22.412498L200.3125 20.818748L200.3125 24.474998L202.1875 24.474998ZM203.14062 24.474998L206.0625 24.474998L208.53125 31.834373L210.95312 24.474998L213.79688 24.474998L210.14062 34.459373L209.48438 36.271873Q209.125 37.178123 208.79688 37.646873Q208.46875 38.13125 208.04688 38.428123Q207.625 38.725 207.0 38.88125Q206.375 39.053123 205.59375 39.053123Q204.8125 39.053123 204.04688 38.896873L203.79688 36.740623Q204.45312 36.865623 204.96875 36.865623Q205.92188 36.865623 206.375 36.303123Q206.84375 35.75625 207.07812 34.88125L203.14062 24.474998ZM224.0625 34.85L221.3125 34.85L221.3125 24.474998L223.875 24.474998L223.875 25.959373Q224.51562 24.912498 225.03125 24.584373Q225.5625 24.240623 226.23438 24.240623Q227.17188 24.240623 228.03125 24.756248L227.1875 27.146873Q226.5 26.709373 225.90625 26.709373Q225.32812 26.709373 224.92188 27.021873Q224.51562 27.334373 224.28125 28.178123Q224.0625 29.006248 224.0625 31.646873L224.0625 34.85ZM231.48438 27.646873L229.0 27.193748Q229.42188 25.693748 230.4375 24.974998Q231.46875 24.240623 233.48438 24.240623Q235.32812 24.240623 236.21875 24.678123Q237.125 25.115623 237.48438 25.787498Q237.85938 26.443748 237.85938 28.240623L237.82812 31.443748Q237.82812 32.803123 237.95312 33.459373Q238.09375 34.1 238.45312 34.85L235.73438 34.85Q235.625 34.56875 235.46875 34.0375Q235.40625 33.7875 235.375 33.709373Q234.67188 34.396873 233.85938 34.740623Q233.0625 35.084373 232.15625 35.084373Q230.5625 35.084373 229.64062 34.225Q228.71875 33.35 228.71875 32.021873Q228.71875 31.131248 229.125 30.443748Q229.54688 29.756248 230.29688 29.396873Q231.0625 29.021873 232.5 28.756248Q234.42188 28.396873 235.15625 28.084373L235.15625 27.803123Q235.15625 27.021873 234.76562 26.693748Q234.375 26.349998 233.29688 26.349998Q232.5625 26.349998 232.14062 26.631248Q231.73438 26.912498 231.48438 27.646873ZM235.15625 29.865623Q234.625 30.037498 233.48438 30.287498Q232.34375 30.537498 232.0 30.771873Q231.45312 31.146873 231.45312 31.740623Q231.45312 32.303123 231.875 32.725Q232.3125 33.146873 232.98438 33.146873Q233.71875 33.146873 234.39062 32.6625Q234.89062 32.2875 235.04688 31.756248Q235.15625 31.396873 235.15625 30.412498L235.15625 29.865623ZM245.1875 24.474998L245.1875 26.662498L243.3125 26.662498L243.3125 30.849998Q243.3125 32.115623 243.35938 32.334373Q243.42188 32.5375 243.60938 32.678123Q243.8125 32.803123 244.07812 32.803123Q244.45312 32.803123 245.1875 32.5375L245.42188 34.678123Q244.45312 35.084373 243.25 35.084373Q242.5 35.084373 241.90625 34.834373Q241.3125 34.584373 241.03125 34.19375Q240.76562 33.7875 240.65625 33.115623Q240.5625 32.646873 240.5625 31.193748L240.5625 26.662498L239.29688 26.662498L239.29688 24.474998L240.5625 24.474998L240.5625 22.412498L243.3125 20.818748L243.3125 24.474998L245.1875 24.474998ZM247.4375 23.068748L247.4375 20.537498L250.1875 20.537498L250.1875 23.068748L247.4375 23.068748ZM247.4375 34.85L247.4375 24.474998L250.1875 24.474998L250.1875 34.85L247.4375 34.85ZM261.875 34.85L259.125 34.85L259.125 29.553123Q259.125 27.881248 258.95312 27.396873Q258.78125 26.896873 258.375 26.631248Q257.98438 26.349998 257.42188 26.349998Q256.71875 26.349998 256.14062 26.740623Q255.57812 27.131248 255.35938 27.771873Q255.15625 28.412498 255.15625 30.146873L255.15625 34.85L252.42188 34.85L252.42188 24.474998L254.96875 24.474998L254.96875 26.006248Q256.32812 24.240623 258.39062 24.240623Q259.29688 24.240623 260.04688 24.568748Q260.79688 24.896873 261.17188 25.412498Q261.5625 25.912498 261.71875 26.568748Q261.875 27.209373 261.875 28.396873L261.875 34.85ZM264.1875 35.5375L267.3125 35.9125Q267.39062 36.459373 267.67188 36.6625Q268.0625 36.959373 268.90625 36.959373Q269.98438 36.959373 270.51562 36.63125Q270.875 36.428123 271.0625 35.94375Q271.1875 35.6 271.1875 34.678123L271.1875 33.1625Q269.96875 34.85 268.09375 34.85Q266.0 34.85 264.78125 33.084373Q263.82812 31.678123 263.82812 29.599998Q263.82812 26.990623 265.07812 25.615623Q266.32812 24.240623 268.20312 24.240623Q270.125 24.240623 271.375 25.928123L271.375 24.474998L273.9375 24.474998L273.9375 33.7875Q273.9375 35.615623 273.625 36.521873Q273.32812 37.44375 272.78125 37.959373Q272.23438 38.475 271.3125 38.75625Q270.40625 39.053123 269.01562 39.053123Q266.375 39.053123 265.26562 38.146873Q264.17188 37.25625 264.17188 35.865623Q264.17188 35.725 264.1875 35.5375ZM266.64062 29.443748Q266.64062 31.099998 267.26562 31.865623Q267.90625 32.63125 268.84375 32.63125Q269.85938 32.63125 270.54688 31.849998Q271.25 31.053123 271.25 29.521873Q271.25 27.912498 270.57812 27.131248Q269.92188 26.349998 268.90625 26.349998Q267.90625 26.349998 267.26562 27.115623Q266.64062 27.881248 266.64062 29.443748ZM275.46875 31.896873L278.21875 31.474998Q278.40625 32.271873 278.9375 32.69375Q279.46875 33.1 280.4375 33.1Q281.5 33.1 282.04688 32.709373Q282.40625 32.44375 282.40625 31.974998Q282.40625 31.662498 282.20312 31.459373Q282.0 31.271873 281.29688 31.099998Q277.96875 30.365623 277.07812 29.756248Q275.84375 28.928123 275.84375 27.428123Q275.84375 26.084373 276.90625 25.162498Q277.98438 24.240623 280.21875 24.240623Q282.34375 24.240623 283.375 24.943748Q284.42188 25.631248 284.8125 26.990623L282.21875 27.459373Q282.04688 26.865623 281.57812 26.537498Q281.125 26.209373 280.26562 26.209373Q279.1875 26.209373 278.71875 26.521873Q278.40625 26.740623 278.40625 27.068748Q278.40625 27.365623 278.67188 27.568748Q279.04688 27.849998 281.23438 28.349998Q283.42188 28.849998 284.29688 29.568748Q285.15625 30.303123 285.15625 31.599998Q285.15625 33.0375 283.96875 34.06875Q282.78125 35.084373 280.4375 35.084373Q278.32812 35.084373 277.07812 34.225Q275.84375 33.365623 275.46875 31.896873Z" fill-rule="nonzero"/></svg>