<?xml version="1.0" encoding="UTF-8" standalone="no"?>
<!-- Created with Inkscape (http://www.inkscape.org/) -->
<svg xmlns:dc="http://purl.org/dc/elements/1.1/" xmlns:cc="http://creativecommons.org/ns#" xmlns:rdf="http://www.w3.org/1999/02/22-rdf-syntax-ns#" xmlns:svg="http://www.w3.org/2000/svg" xmlns="http://www.w3.org/2000/svg" xmlns:sodipodi="http://sodipodi.sourceforge.net/DTD/sodipodi-0.dtd" xmlns:inkscape="http://www.inkscape.org/namespaces/inkscape" width="4.1525402cm" height="4.0456729cm" viewBox="0 0 41.525402 40.456728" version="1.1" id="svg4504" inkscape:version="0.92.1 r15371" sodipodi:docname="donut.svg">
  <defs id="defs4498"/>
  <sodipodi:namedview id="base" pagecolor="#ffffff" bordercolor="#666666" borderopacity="1.0" inkscape:pageopacity="0.0" inkscape:pageshadow="2" inkscape:zoom="1.23" inkscape:cx="-4.4334249" inkscape:cy="105.4337" inkscape:document-units="mm" inkscape:current-layer="layer1" showgrid="false" units="cm" inkscape:snap-global="false" inkscape:window-width="1366" inkscape:window-height="705" inkscape:window-x="-8" inkscape:window-y="-8" inkscape:window-maximized="1"/>
  <metadata id="metadata4501">
    <rdf:RDF>
      <cc:Work rdf:about="">
        <dc:format>image/svg+xml</dc:format>
        <dc:type rdf:resource="http://purl.org/dc/dcmitype/StillImage"/>
        <dc:title/>
      </cc:Work>
    </rdf:RDF>
  </metadata>
  <g inkscape:groupmode="layer" id="layer2" inkscape:label="Dough" style="display:inline" transform="translate(-4.0265368,-6.05163)">
    <path style="fill:#ff9fb4;fill-opacity:1;stroke:#ff6485;stroke-width:0.5;stroke-miterlimit:4;stroke-dasharray:none;stroke-opacity:1" clip-path="none" d="M 24.789496,253.30165 A 20.512935,19.978397 0 0 0 4.2765368,273.27976 20.512935,19.978397 0 0 0 24.789496,293.25838 20.512935,19.978397 0 0 0 45.301938,273.27976 20.512935,19.978397 0 0 0 24.789496,253.30165 Z m 0.400492,12.42767 a 7.416729,7.1494596 0 0 1 7.41712,7.14943 7.416729,7.1494596 0 0 1 -7.41712,7.14944 7.416729,7.1494596 0 0 1 -7.416601,-7.14944 7.416729,7.1494596 0 0 1 7.416601,-7.14943 z" id="path4506" inkscape:connector-curvature="0" transform="translate(0,-247.00002)"/>
  </g>
  <g inkscape:groupmode="layer" id="layer3" inkscape:label="Shadow" style="display:inline" transform="translate(-4.0265368,-6.05163)">
    <ellipse style="opacity:1;fill:#ff6f8e;fill-opacity:1;fill-rule:nonzero;stroke-width:0.20758472" id="path5588" ry="17.666214" rx="3.262826" cy="29.586332" cx="63.733837"/>
    <path style="opacity:1;fill:#ff6f8e;fill-opacity:1;fill-rule:nonzero;stroke-width:0.70710677" d="m 103.92811,170.15249 c 14.99717,-7.90979 25.87655,-15.68696 35.88939,-25.65567 7.51204,-7.47893 11.98687,-13.57141 16.09721,-21.9163 5.07849,-10.31047 6.58373,-17.39945 6.15589,-28.991377 -0.19297,-5.22833 -0.83014,-10.94507 -1.47756,-13.256741 -3.49049,-12.463064 -10.18279,-24.894269 -19.91454,-36.991995 -3.26538,-4.059257 -5.75101,-7.380467 -5.52362,-7.380467 1.18909,0 9.95498,7.001289 14.37802,11.483683 9.15435,9.277203 15.3234,20.031762 18.96624,33.064044 1.71357,6.130281 1.87483,7.799261 1.84473,19.091883 -0.0277,10.38623 -0.27495,13.24636 -1.53894,17.80172 -7.56804,27.27489 -28.42807,47.79511 -55.56455,54.65939 -3.56612,0.90207 -9.02943,1.8487 -12.1407,2.10363 l -5.656856,0.4635 z" id="path5746" inkscape:connector-curvature="0" transform="scale(0.26458333)"/>
    <rect style="opacity:1;fill:#ff6f8e;fill-opacity:1;fill-rule:nonzero;stroke:#ff6f8e;stroke-width:0.26458332;stroke-opacity:1" id="rect5817" width="0.064133532" height="5.211822" x="44.962627" y="24.103907" ry="0.1405599" rx="0"/>
  </g>
  <g inkscape:groupmode="layer" id="layer4" inkscape:label="ShadowLine" style="display:none" transform="translate(-4.0265368,-6.05163)">
    <path style="display:inline;fill:none;stroke:#000000;stroke-width:0.26458332px;stroke-linecap:butt;stroke-linejoin:miter;stroke-opacity:1" d="m 24.426712,46.252129 c 0,0 34.190674,-13.416607 9.289359,-38.3744336" id="path5598" inkscape:connector-curvature="0" sodipodi:nodetypes="cc"/>
  </g>
  <g inkscape:label="Sprinkles" inkscape:groupmode="layer" id="layer1" transform="translate(-4.0265368,-253.05165)" style="display:inline">
    <rect style="opacity:1;fill:#ff5686;fill-opacity:1;fill-rule:nonzero;stroke-width:0.02502002" id="rect5072-3-5" width="0.80180758" height="3.8754077" x="-19.299713" y="254.0519" ry="0.33072916"/>
    <rect style="opacity:1;fill:#376e54;fill-opacity:1;fill-rule:nonzero;stroke-width:0.02502002" id="rect5072-3-5-8" width="0.80180758" height="3.8754077" x="-17.031857" y="254.05193" ry="0.33072916"/>
    <rect style="opacity:1;fill:#ff763a;fill-opacity:1;fill-rule:nonzero;stroke-width:0.02502002" id="rect5072-3-5-8-0" width="0.80180758" height="3.8754077" x="-15.141975" y="254.24089" ry="0.33072916"/>
    <rect style="opacity:1;fill:#6246c0;fill-opacity:1;fill-rule:nonzero;stroke-width:0.02502002" id="rect5072-3-5-8-0-3" width="0.80180758" height="3.8754077" x="-12.968613" y="254.61885" ry="0.33072916"/>
    <rect style="opacity:1;fill:#ecd1e8;fill-opacity:1;fill-rule:nonzero;stroke-width:0.02502002" id="rect5072-3-5-8-0-3-2" width="0.80180758" height="3.8754077" x="-11.267719" y="254.33539" ry="0.33072916"/>
    <rect style="opacity:1;fill:#ff4140;fill-opacity:1;fill-rule:nonzero;stroke-width:0.02502002" id="rect5072-3-5-8-0-3-2-4" width="0.80180758" height="3.8754077" x="-8.2439098" y="254.14639" ry="0.33072916"/>
    <rect style="opacity:1;fill:#ffd88b;fill-opacity:1;fill-rule:nonzero;stroke-width:0.02502002" id="rect5072-3-5-8-0-3-2-4-8" width="0.80180758" height="3.8754077" x="-6.4485226" y="254.0519" ry="0.33072916"/>
    <rect style="opacity:1;fill:#00d88b;fill-opacity:1;fill-rule:nonzero;stroke-width:0.02502002" id="rect5072-3-5-8-0-3-2-4-8-1" width="0.80180758" height="3.8754077" x="-3.8026896" y="253.67392" ry="0.33072916"/>
    <rect style="display:inline;opacity:1;fill:#62e7c0;fill-opacity:1;fill-rule:nonzero;stroke-width:0.02502002" id="rect5072-3-5-8-0-3-25-4-8" width="0.80180758" height="3.8754077" x="-6.5835414" y="253.69872" ry="0.33072916" transform="rotate(-1.0255055)"/>
    <rect style="opacity:1;fill:#ffd88b;fill-opacity:1;fill-rule:nonzero;stroke-width:0.02502002" id="rect5072-3-5-8-0-3-2-4-8-10" width="0.80180758" height="3.8754077" x="-68.280609" y="269.42511" ry="0.33072916" transform="rotate(-16.696602)"/>
    <rect style="opacity:1;fill:#ff4140;fill-opacity:1;fill-rule:nonzero;stroke-width:0.02502002" id="rect5072-3-5-8-0-3-2-4-5" width="0.80180758" height="3.8754077" x="-70.94574" y="260.70572" ry="0.33072916" transform="rotate(-23.277108)"/>
    <rect style="opacity:1;fill:#ff763a;fill-opacity:1;fill-rule:nonzero;stroke-width:0.02502002" id="rect5072-3-5-8-0-1" width="0.80180758" height="3.8754077" x="-4.3266702" y="282.1633" ry="0.33072916" transform="rotate(-7.3840548)"/>
    <rect style="opacity:1;fill:#376e54;fill-opacity:1;fill-rule:nonzero;stroke-width:0.02502002" id="rect5072-3-5-8-7" width="0.80180758" height="3.8754077" x="-240.30525" y="-100.30731" ry="0.33072916" transform="rotate(-116.91506)"/>
    <rect style="opacity:1;fill:#ff5686;fill-opacity:1;fill-rule:nonzero;stroke-width:0.02502002" id="rect5072-3-5-6" width="0.80180758" height="3.8754077" x="275.73517" y="64.137894" ry="0.33072916" transform="rotate(73.013055)"/>
    <rect style="display:inline;opacity:1;fill:#00d88b;fill-opacity:1;fill-rule:nonzero;stroke-width:0.02502002" id="rect5072-3-5-8-0-3-2-4-8-1-7" width="0.80180758" height="3.8754077" x="118.72414" y="236.12474" ry="0.33072916" transform="rotate(23.897487)"/>
    <rect transform="rotate(-72.011234)" ry="0.33072916" y="101.53538" x="-261.81393" height="3.8754077" width="0.80180758" id="rect5386" style="opacity:1;fill:#ffd88b;fill-opacity:1;fill-rule:nonzero;stroke-width:0.02502002" inkscape:transform-center-x="0.21911137" inkscape:transform-center-y="14.443991"/>
    <rect transform="rotate(-124.96025)" ry="0.33072916" y="-136.15157" x="-220.58876" height="3.8754077" width="0.80180758" id="rect5388" style="opacity:1;fill:#ff4140;fill-opacity:1;fill-rule:nonzero;stroke-width:0.02502002" inkscape:transform-center-x="7.3969963" inkscape:transform-center-y="-12.943274"/>
    <rect transform="rotate(-121.8149)" ry="0.33072916" y="-110.67143" x="-241.31535" height="3.8754077" width="0.80180758" id="rect5390" style="opacity:1;fill:#ecd1e8;fill-opacity:1;fill-rule:nonzero;stroke-width:0.02502002" inkscape:transform-center-x="-11.035951" inkscape:transform-center-y="-8.2634948"/>
    <rect transform="rotate(-115.92737)" ry="0.33072916" y="-88.689682" x="-244.50157" height="3.8754077" width="0.80180758" id="rect5392" style="opacity:1;fill:#6246c0;fill-opacity:1;fill-rule:nonzero;stroke-width:0.02502002" inkscape:transform-center-x="-5.1367225" inkscape:transform-center-y="-12.841416"/>
    <rect transform="rotate(-109.0672)" ry="0.33072916" y="-57.196892" x="-256.30029" height="3.8754077" width="0.80180758" id="rect5394" style="opacity:1;fill:#ff763a;fill-opacity:1;fill-rule:nonzero;stroke-width:0.02502002" inkscape:transform-center-x="-7.7975095" inkscape:transform-center-y="-10.392157"/>
    <rect transform="rotate(141.4018)" ry="0.33072916" y="-223.90692" x="160.17281" height="3.8754077" width="0.80180758" id="rect5396" style="opacity:1;fill:#376e54;fill-opacity:1;fill-rule:nonzero;stroke-width:0.02502002" inkscape:transform-center-x="10.589623" inkscape:transform-center-y="3.3487589"/>
    <rect transform="rotate(-28.670086)" ry="0.33072916" y="257.85934" x="-103.33418" height="3.8754077" width="0.80180758" id="rect5398" style="opacity:1;fill:#ff5686;fill-opacity:1;fill-rule:nonzero;stroke-width:0.02502002" inkscape:transform-center-x="-13.271306" inkscape:transform-center-y="4.8797984"/>
    <rect transform="rotate(-77.785654)" ry="0.33072916" y="82.47641" x="-273.58191" height="3.8754077" width="0.80180758" id="rect5400" style="display:inline;opacity:1;fill:#00d88b;fill-opacity:1;fill-rule:nonzero;stroke-width:0.02502002" inkscape:transform-center-x="2.8337499" inkscape:transform-center-y="13.324201"/>
    <rect transform="rotate(-72.600654)" ry="0.33072916" y="108.76917" x="-270.78162" height="3.8754077" width="0.80180758" id="rect5402" style="opacity:1;fill:#ffd88b;fill-opacity:1;fill-rule:nonzero;stroke-width:0.02502002"/>
    <rect transform="rotate(-79.18116)" ry="0.33072916" y="75.766579" x="-252.63904" height="3.8754077" width="0.80180758" id="rect5404" style="opacity:1;fill:#ff4140;fill-opacity:1;fill-rule:nonzero;stroke-width:0.02502002"/>
    <rect transform="rotate(-149.84402)" ry="0.33072916" y="-223.32967" x="-173.83412" height="3.8754077" width="0.80180758" id="rect5406" style="opacity:1;fill:#ecd1e8;fill-opacity:1;fill-rule:nonzero;stroke-width:0.02502002"/>
    <rect transform="rotate(-63.288106)" ry="0.33072916" y="155.09923" x="-228.21709" height="3.8754077" width="0.80180758" id="rect5410" style="opacity:1;fill:#ff763a;fill-opacity:1;fill-rule:nonzero;stroke-width:0.02502002"/>
    <rect transform="rotate(17.109003)" ry="0.33072916" y="265.51288" x="112.19817" height="3.8754077" width="0.80180758" id="rect5414" style="opacity:1;fill:#ff5686;fill-opacity:1;fill-rule:nonzero;stroke-width:0.02502002"/>
    <rect transform="rotate(-32.006565)" ry="0.33072916" y="245.89905" x="-139.58081" height="3.8754077" width="0.80180758" id="rect5416" style="display:inline;opacity:1;fill:#00d88b;fill-opacity:1;fill-rule:nonzero;stroke-width:0.02502002"/>
    <rect inkscape:transform-center-y="-0.68068642" inkscape:transform-center-x="-14.429596" style="opacity:1;fill:#ffd88b;fill-opacity:1;fill-rule:nonzero;stroke-width:0.02502002" id="rect5418" width="0.80180758" height="3.8754077" x="-76.32843" y="-262.66211" ry="0.33072916" transform="rotate(-165.58117)"/>
    <rect inkscape:transform-center-y="-1.1302946" inkscape:transform-center-x="14.864944" style="opacity:1;fill:#ff4140;fill-opacity:1;fill-rule:nonzero;stroke-width:0.02502002" id="rect5420" width="0.80180758" height="3.8754077" x="-4.5641422" y="-278.10349" ry="0.33072916" transform="rotate(179.1357)"/>
    <rect inkscape:transform-center-y="-13.771233" inkscape:transform-center-x="0.65646908" style="opacity:1;fill:#ecd1e8;fill-opacity:1;fill-rule:nonzero;stroke-width:0.02502002" id="rect5422" width="0.80180758" height="3.8754077" x="-33.404942" y="-264.2626" ry="0.33072916" transform="rotate(-177.71895)"/>
    <rect inkscape:transform-center-y="-11.452363" inkscape:transform-center-x="7.7544361" style="opacity:1;fill:#6246c0;fill-opacity:1;fill-rule:nonzero;stroke-width:0.02502002" id="rect5424" width="0.80180758" height="3.8754077" x="-53.442635" y="-262.7973" ry="0.33072916" transform="rotate(-171.83142)"/>
    <rect inkscape:transform-center-y="-12.282753" inkscape:transform-center-x="4.2346188" style="opacity:1;fill:#ff763a;fill-opacity:1;fill-rule:nonzero;stroke-width:0.02502002" id="rect5426" width="0.80180758" height="3.8754077" x="-87.4058" y="-252.87938" ry="0.33072916" transform="rotate(-164.97125)"/>
    <rect inkscape:transform-center-y="10.646523" inkscape:transform-center-x="3.1632257" style="opacity:1;fill:#376e54;fill-opacity:1;fill-rule:nonzero;stroke-width:0.02502002" id="rect5428" width="0.80180758" height="3.8754077" x="288.13159" y="0.68947047" ry="0.33072916" transform="rotate(85.497748)"/>
    <rect inkscape:transform-center-y="-8.2544496" inkscape:transform-center-x="-11.480597" style="opacity:1;fill:#ff5686;fill-opacity:1;fill-rule:nonzero;stroke-width:0.02502002" id="rect5430" width="0.80180758" height="3.8754077" x="-264.86456" y="58.012043" ry="0.33072916" transform="rotate(-84.574138)"/>
    <rect inkscape:transform-center-y="9.81591" inkscape:transform-center-x="-9.4452444" style="display:inline;opacity:1;fill:#00d88b;fill-opacity:1;fill-rule:nonzero;stroke-width:0.02502002" id="rect5432" width="0.80180758" height="3.8754077" x="-230.7196" y="-173.21136" ry="0.33072916" transform="rotate(-133.68971)"/>
    <rect style="display:inline;opacity:1;fill:#ff5686;fill-opacity:1;fill-rule:nonzero;stroke-width:0.02502002" id="rect5072-3-5-87" width="0.80180758" height="3.8754077" x="198.34631" y="173.1171" ry="0.33072916" transform="rotate(46.602474)"/>
    <rect style="display:inline;opacity:1;fill:#62e7c0;fill-opacity:1;fill-rule:nonzero;stroke-width:0.02502002" id="rect5072-3-5-8-0-3-25-4" width="0.80180758" height="3.8754077" x="-204.37314" y="171.34991" ry="0.33072916" transform="rotate(-57.188011)"/>
    <rect style="display:inline;opacity:1;fill:#62e7c0;fill-opacity:1;fill-rule:nonzero;stroke-width:0.02502002" id="rect5072-3-5-8-0-3-25-4-8-9" width="0.80180758" height="3.8754077" x="-157.4946" y="232.05269" ry="0.33072916" transform="rotate(-35.778944)" inkscape:transform-center-x="15.588477" inkscape:transform-center-y="-8.0462221"/>
    <rect style="display:inline;opacity:1;fill:#62e7c0;fill-opacity:1;fill-rule:nonzero;stroke-width:0.02502002" id="rect5072-3-5-8-0-3-25-4-8-9-0" width="0.80180758" height="3.8754077" x="-240.12077" y="90.502541" ry="0.33072916" transform="rotate(-74.300598)" inkscape:transform-center-x="17.207275" inkscape:transform-center-y="3.4135124"/>
    <rect style="display:inline;opacity:1;fill:#62e7c0;fill-opacity:1;fill-rule:nonzero;stroke-width:0.02502002" id="rect5072-3-5-8-0-3-25-4-8-9-0-3" width="0.80180758" height="3.8754077" x="202.16826" y="197.43294" ry="0.33072916" transform="rotate(39.745016)" inkscape:transform-center-x="-3.894052" inkscape:transform-center-y="-17.104936"/>
    <rect style="display:inline;opacity:1;fill:#ecd1e8;fill-opacity:1;fill-rule:nonzero;stroke-width:0.02502002" id="rect5072-3-5-8-0-3-2-1" width="0.80180758" height="3.8754077" x="111.87581" y="245.15192" ry="0.33072916" transform="rotate(21.295362)"/>
  </g>
</svg>