<?xml version="1.0" encoding="UTF-8"?>
<!DOCTYPE svg PUBLIC "-//W3C//DTD SVG 1.1//EN" "http://www.w3.org/Graphics/SVG/1.1/DTD/svg11.dtd">
<svg width="160mm" height="90mm" viewBox="0 0 16000 9000" version="1.1" xmlns="http://www.w3.org/2000/svg" xmlns:xlink="http://www.w3.org/1999/xlink" stroke-width="28.222" stroke-linejoin="round" xml:space="preserve">
 <path fill="rgb(255,255,255)" stroke="none" d="M 8000,8998 L 0,8998 0,0 15999,0 15999,8998 8000,8998 Z"/>
 <path fill="none" stroke="rgb(179,179,179)" stroke-linejoin="round" d="M 7977,7878 L 911,7878 911,178 15042,178 15042,7878 7977,7878 Z"/>
 <path fill="none" stroke="rgb(179,179,179)" stroke-linejoin="round" d="M 911,177 L 911,7877"/>
 <path fill="none" stroke="rgb(179,179,179)" stroke-linejoin="round" d="M 2677,177 L 2677,7877"/>
 <path fill="none" stroke="rgb(179,179,179)" stroke-linejoin="round" d="M 4444,177 L 4444,7877"/>
 <path fill="none" stroke="rgb(179,179,179)" stroke-linejoin="round" d="M 6210,177 L 6210,7877"/>
 <path fill="none" stroke="rgb(179,179,179)" stroke-linejoin="round" d="M 7977,177 L 7977,7877"/>
 <path fill="none" stroke="rgb(179,179,179)" stroke-linejoin="round" d="M 9742,177 L 9742,7877"/>
 <path fill="none" stroke="rgb(179,179,179)" stroke-linejoin="round" d="M 11509,177 L 11509,7877"/>
 <path fill="none" stroke="rgb(179,179,179)" stroke-linejoin="round" d="M 13275,177 L 13275,7877"/>
 <path fill="none" stroke="rgb(179,179,179)" stroke-linejoin="round" d="M 15042,177 L 15042,7877"/>
 <path fill="none" stroke="rgb(179,179,179)" stroke-linejoin="round" d="M 4294,7877 L 4444,7877"/>
 <path fill="none" stroke="rgb(179,179,179)" stroke-linejoin="round" d="M 4294,7877 L 4444,7877"/>
 <path fill="none" stroke="rgb(179,179,179)" stroke-linejoin="round" d="M 4294,7106 L 4444,7106"/>
 <path fill="none" stroke="rgb(179,179,179)" stroke-linejoin="round" d="M 4294,7106 L 4444,7106"/>
 <path fill="none" stroke="rgb(179,179,179)" stroke-linejoin="round" d="M 4294,6337 L 4444,6337"/>
 <path fill="none" stroke="rgb(179,179,179)" stroke-linejoin="round" d="M 4294,6337 L 4444,6337"/>
 <path fill="none" stroke="rgb(179,179,179)" stroke-linejoin="round" d="M 4294,5567 L 4444,5567"/>
 <path fill="none" stroke="rgb(179,179,179)" stroke-linejoin="round" d="M 4294,5567 L 4444,5567"/>
 <path fill="none" stroke="rgb(179,179,179)" stroke-linejoin="round" d="M 4294,4797 L 4444,4797"/>
 <path fill="none" stroke="rgb(179,179,179)" stroke-linejoin="round" d="M 4294,4797 L 4444,4797"/>
 <path fill="none" stroke="rgb(179,179,179)" stroke-linejoin="round" d="M 4294,4027 L 4444,4027"/>
 <path fill="none" stroke="rgb(179,179,179)" stroke-linejoin="round" d="M 4294,4027 L 4444,4027"/>
 <path fill="none" stroke="rgb(179,179,179)" stroke-linejoin="round" d="M 4294,3256 L 4444,3256"/>
 <path fill="none" stroke="rgb(179,179,179)" stroke-linejoin="round" d="M 4294,3256 L 4444,3256"/>
 <path fill="none" stroke="rgb(179,179,179)" stroke-linejoin="round" d="M 4294,2486 L 4444,2486"/>
 <path fill="none" stroke="rgb(179,179,179)" stroke-linejoin="round" d="M 4294,2486 L 4444,2486"/>
 <path fill="none" stroke="rgb(179,179,179)" stroke-linejoin="round" d="M 4294,1717 L 4444,1717"/>
 <path fill="none" stroke="rgb(179,179,179)" stroke-linejoin="round" d="M 4294,1717 L 4444,1717"/>
 <path fill="none" stroke="rgb(179,179,179)" stroke-linejoin="round" d="M 4294,947 L 4444,947"/>
 <path fill="none" stroke="rgb(179,179,179)" stroke-linejoin="round" d="M 4294,947 L 4444,947"/>
 <path fill="none" stroke="rgb(179,179,179)" stroke-linejoin="round" d="M 4294,177 L 4444,177"/>
 <path fill="none" stroke="rgb(179,179,179)" stroke-linejoin="round" d="M 4294,177 L 4444,177"/>
 <path fill="none" stroke="rgb(179,179,179)" stroke-linejoin="round" d="M 4444,7877 L 4444,177"/>
 <path fill="none" stroke="rgb(179,179,179)" stroke-linejoin="round" d="M 911,8027 L 911,7877"/>
 <path fill="none" stroke="rgb(179,179,179)" stroke-linejoin="round" d="M 911,8027 L 911,7877"/>
 <path fill="none" stroke="rgb(179,179,179)" stroke-linejoin="round" d="M 2677,8027 L 2677,7877"/>
 <path fill="none" stroke="rgb(179,179,179)" stroke-linejoin="round" d="M 2677,8027 L 2677,7877"/>
 <path fill="none" stroke="rgb(179,179,179)" stroke-linejoin="round" d="M 4444,8027 L 4444,7877"/>
 <path fill="none" stroke="rgb(179,179,179)" stroke-linejoin="round" d="M 4444,8027 L 4444,7877"/>
 <path fill="none" stroke="rgb(179,179,179)" stroke-linejoin="round" d="M 6210,8027 L 6210,7877"/>
 <path fill="none" stroke="rgb(179,179,179)" stroke-linejoin="round" d="M 6210,8027 L 6210,7877"/>
 <path fill="none" stroke="rgb(179,179,179)" stroke-linejoin="round" d="M 7977,8027 L 7977,7877"/>
 <path fill="none" stroke="rgb(179,179,179)" stroke-linejoin="round" d="M 7977,8027 L 7977,7877"/>
 <path fill="none" stroke="rgb(179,179,179)" stroke-linejoin="round" d="M 9742,8027 L 9742,7877"/>
 <path fill="none" stroke="rgb(179,179,179)" stroke-linejoin="round" d="M 9742,8027 L 9742,7877"/>
 <path fill="none" stroke="rgb(179,179,179)" stroke-linejoin="round" d="M 11509,8027 L 11509,7877"/>
 <path fill="none" stroke="rgb(179,179,179)" stroke-linejoin="round" d="M 11509,8027 L 11509,7877"/>
 <path fill="none" stroke="rgb(179,179,179)" stroke-linejoin="round" d="M 13275,8027 L 13275,7877"/>
 <path fill="none" stroke="rgb(179,179,179)" stroke-linejoin="round" d="M 13275,8027 L 13275,7877"/>
 <path fill="none" stroke="rgb(179,179,179)" stroke-linejoin="round" d="M 15042,8027 L 15042,7877"/>
 <path fill="none" stroke="rgb(179,179,179)" stroke-linejoin="round" d="M 15042,8027 L 15042,7877"/>
 <path fill="none" stroke="rgb(179,179,179)" stroke-linejoin="round" d="M 911,7877 L 15042,7877"/>
 <path fill="rgb(0,69,134)" stroke="none" d="M 3949,754 L 3949,369 4444,369 4444,754 3949,754 Z"/>
 <path fill="rgb(0,69,134)" stroke="none" d="M 4444,1524 L 4444,1139 12702,1139 12702,1524 4444,1524 Z"/>
 <path fill="rgb(0,69,134)" stroke="none" d="M 3467,2294 L 3467,1909 4444,1909 4444,2294 3467,2294 Z"/>
 <path fill="rgb(0,69,134)" stroke="none" d="M 4444,3064 L 4444,2679 4565,2679 4565,3064 4444,3064 Z"/>
 <path fill="rgb(0,69,134)" stroke="none" d="M 3001,3834 L 3001,3449 4444,3449 4444,3834 3001,3834 Z"/>
 <path fill="rgb(0,69,134)" stroke="none" d="M 3140,4604 L 3140,4219 4444,4219 4444,4604 3140,4604 Z"/>
 <path fill="rgb(0,69,134)" stroke="none" d="M 3569,5374 L 3569,4989 4444,4989 4444,5374 3569,5374 Z"/>
 <path fill="rgb(0,69,134)" stroke="none" d="M 2866,6145 L 2866,5759 4444,5759 4444,6145 2866,6145 Z"/>
 <path fill="rgb(0,69,134)" stroke="none" d="M 3254,6914 L 3254,6530 4444,6530 4444,6914 3254,6914 Z"/>
 <path fill="rgb(0,69,134)" stroke="none" d="M 1493,7684 L 1493,7299 4444,7299 4444,7684 1493,7684 Z"/>
 <text class="TextShape"><tspan class="TextParagraph" font-family="Liberation Sans, sans-serif" font-size="353px" font-weight="400"><tspan class="TextPosition" x="276" y="8445"><tspan fill="rgb(0,0,0)" stroke="none">-40.00%</tspan></tspan></tspan></text>
 <text class="TextShape"><tspan class="TextParagraph" font-family="Liberation Sans, sans-serif" font-size="353px" font-weight="400"><tspan class="TextPosition" x="2042" y="8445"><tspan fill="rgb(0,0,0)" stroke="none">-20.00%</tspan></tspan></tspan></text>
 <text class="TextShape"><tspan class="TextParagraph" font-family="Liberation Sans, sans-serif" font-size="353px" font-weight="400"><tspan class="TextPosition" x="3954" y="8445"><tspan fill="rgb(0,0,0)" stroke="none">0.00%</tspan></tspan></tspan></text>
 <text class="TextShape"><tspan class="TextParagraph" font-family="Liberation Sans, sans-serif" font-size="353px" font-weight="400"><tspan class="TextPosition" x="5628" y="8445"><tspan fill="rgb(0,0,0)" stroke="none">20.00%</tspan></tspan></tspan></text>
 <text class="TextShape"><tspan class="TextParagraph" font-family="Liberation Sans, sans-serif" font-size="353px" font-weight="400"><tspan class="TextPosition" x="7395" y="8445"><tspan fill="rgb(0,0,0)" stroke="none">40.00%</tspan></tspan></tspan></text>
 <text class="TextShape"><tspan class="TextParagraph" font-family="Liberation Sans, sans-serif" font-size="353px" font-weight="400"><tspan class="TextPosition" x="9161" y="8445"><tspan fill="rgb(0,0,0)" stroke="none">60.00%</tspan></tspan></tspan></text>
 <text class="TextShape"><tspan class="TextParagraph" font-family="Liberation Sans, sans-serif" font-size="353px" font-weight="400"><tspan class="TextPosition" x="10928" y="8445"><tspan fill="rgb(0,0,0)" stroke="none">80.00%</tspan></tspan></tspan></text>
 <text class="TextShape"><tspan class="TextParagraph" font-family="Liberation Sans, sans-serif" font-size="353px" font-weight="400"><tspan class="TextPosition" x="12601" y="8445"><tspan fill="rgb(0,0,0)" stroke="none">100.00%</tspan></tspan></tspan></text>
 <text class="TextShape"><tspan class="TextParagraph" font-family="Liberation Sans, sans-serif" font-size="353px" font-weight="400"><tspan class="TextPosition" x="14368" y="8445"><tspan fill="rgb(0,0,0)" stroke="none">120.00%</tspan></tspan></tspan></text>
 <text class="TextShape"><tspan class="TextParagraph" font-family="Liberation Sans, sans-serif" font-size="353px" font-weight="400"><tspan class="TextPosition" x="4544" y="7612"><tspan fill="rgb(0,0,0)" stroke="none">zopflipng -33.40%</tspan></tspan></tspan></text>
 <text class="TextShape"><tspan class="TextParagraph" font-family="Liberation Sans, sans-serif" font-size="353px" font-weight="400"><tspan class="TextPosition" x="4544" y="6842"><tspan fill="rgb(0,0,0)" stroke="none">ImageWorsener -13.47%</tspan></tspan></tspan></text>
 <text class="TextShape"><tspan class="TextParagraph" font-family="Liberation Sans, sans-serif" font-size="353px" font-weight="400"><tspan class="TextPosition" x="4544" y="6072"><tspan fill="rgb(0,0,0)" stroke="none">pngout -17.86%</tspan></tspan></tspan></text>
 <text class="TextShape"><tspan class="TextParagraph" font-family="Liberation Sans, sans-serif" font-size="353px" font-weight="400"><tspan class="TextPosition" x="4544" y="5302"><tspan fill="rgb(0,0,0)" stroke="none">pngcrush -9.90%</tspan></tspan></tspan></text>
 <text class="TextShape"><tspan class="TextParagraph" font-family="Liberation Sans, sans-serif" font-size="353px" font-weight="400"><tspan class="TextPosition" x="4544" y="4532"><tspan fill="rgb(0,0,0)" stroke="none">optipng -14.76%</tspan></tspan></tspan></text>
 <text class="TextShape"><tspan class="TextParagraph" font-family="Liberation Sans, sans-serif" font-size="353px" font-weight="400"><tspan class="TextPosition" x="4544" y="3762"><tspan fill="rgb(0,0,0)" stroke="none">oxipng -16.33%</tspan></tspan></tspan></text>
 <text class="TextShape"><tspan class="TextParagraph" font-family="Liberation Sans, sans-serif" font-size="353px" font-weight="400"><tspan class="TextPosition" x="4665" y="2992"><tspan fill="rgb(0,0,0)" stroke="none">AdvanceCOMP 1.38%</tspan></tspan></tspan></text>
 <text class="TextShape"><tspan class="TextParagraph" font-family="Liberation Sans, sans-serif" font-size="353px" font-weight="400"><tspan class="TextPosition" x="4544" y="2222"><tspan fill="rgb(0,0,0)" stroke="none">pngrewrite -11.06%</tspan></tspan></tspan></text>
 <text class="TextShape"><tspan class="TextParagraph" font-family="Liberation Sans, sans-serif" font-size="353px" font-weight="400"><tspan class="TextPosition" x="12802" y="1452"><tspan fill="rgb(0,0,0)" stroke="none">FFmpeg 93.51%</tspan></tspan></tspan></text>
 <text class="TextShape"><tspan class="TextParagraph" font-family="Liberation Sans, sans-serif" font-size="353px" font-weight="400"><tspan class="TextPosition" x="4544" y="682"><tspan fill="rgb(0,0,0)" stroke="none">imagemagick -5.60%</tspan></tspan></tspan></text>
 <text class="TextShape"><tspan class="TextParagraph" font-family="Liberation Sans, sans-serif" font-size="318px" font-weight="400"><tspan class="TextPosition" x="6449" y="8825"><tspan fill="rgb(0,0,0)" stroke="none">Compression amount</tspan></tspan></tspan></text>
</svg>