<?xml version="1.0" encoding="UTF-8" standalone="no"?><!DOCTYPE svg PUBLIC "-//W3C//DTD SVG 1.1//EN" "http://www.w3.org/Graphics/SVG/1.1/DTD/svg11.dtd"><!-- Generated by graphviz version 2.40.1 (20161225.0304)
 --><!-- Title: Productivity Pages: 1 --><svg xmlns="http://www.w3.org/2000/svg" xmlns:xlink="http://www.w3.org/1999/xlink" width="369pt" height="476pt" viewBox="0.00 0.00 368.66 476.00">
<g id="graph0" class="graph" transform="scale(1 1) rotate(0) translate(4 472)">
<title>Productivity</title>
<polygon fill="#ffffff" stroke="transparent" points="-4,4 -4,-472 364.6615,-472 364.6615,4 -4,4"/>
<!-- Find new productivity system -->
<g id="node1" class="node">
<title>Find new productivity system</title>
<ellipse fill="none" stroke="#000000" cx="228.7196" cy="-450" rx="126.2077" ry="18"/>
<text text-anchor="middle" x="228.7196" y="-445.8" font-family="Times,serif" font-size="14.00" fill="#000000">Find new productivity system</text>
</g>
<!-- Enjoy novelty of new system -->
<g id="node2" class="node">
<title>Enjoy novelty of new system</title>
<ellipse fill="none" stroke="#000000" cx="152.7196" cy="-378" rx="123.864" ry="18"/>
<text text-anchor="middle" x="152.7196" y="-373.8" font-family="Times,serif" font-size="14.00" fill="#000000">Enjoy novelty of new system</text>
</g>
<!-- Find new productivity system&#45;&gt;Enjoy novelty of new system -->
<g id="edge1" class="edge">
<title>Find new productivity system-&gt;Enjoy novelty of new system</title>
<path fill="none" stroke="#000000" d="M209.5416,-431.8314C200.2907,-423.0673 189.0487,-412.4171 179.0137,-402.9103"/>
<polygon fill="#000000" stroke="#000000" points="181.2948,-400.25 171.6282,-395.9134 176.4806,-405.3317 181.2948,-400.25"/>
</g>
<!-- Use new productivity system a lot -->
<g id="node3" class="node">
<title>Use new productivity system a lot</title>
<ellipse fill="none" stroke="#000000" cx="142.7196" cy="-306" rx="142.9395" ry="18"/>
<text text-anchor="middle" x="142.7196" y="-301.8" font-family="Times,serif" font-size="14.00" fill="#000000">Use new productivity system a lot</text>
</g>
<!-- Enjoy novelty of new system&#45;&gt;Use new productivity system a lot -->
<g id="edge2" class="edge">
<title>Enjoy novelty of new system-&gt;Use new productivity system a lot</title>
<path fill="none" stroke="#000000" d="M150.1961,-359.8314C149.1266,-352.131 147.8549,-342.9743 146.6663,-334.4166"/>
<polygon fill="#000000" stroke="#000000" points="150.1195,-333.8367 145.277,-324.4133 143.186,-334.7997 150.1195,-333.8367"/>
</g>
<!-- My life feels pretty organized -->
<g id="node4" class="node">
<title>My life feels pretty organized</title>
<ellipse fill="none" stroke="#000000" cx="143.7196" cy="-234" rx="125.6015" ry="18"/>
<text text-anchor="middle" x="143.7196" y="-229.8" font-family="Times,serif" font-size="14.00" fill="#000000">My life feels pretty organized</text>
</g>
<!-- Use new productivity system a lot&#45;&gt;My life feels pretty organized -->
<g id="edge3" class="edge">
<title>Use new productivity system a lot-&gt;My life feels pretty organized</title>
<path fill="none" stroke="#000000" d="M142.9719,-287.8314C143.0789,-280.131 143.206,-270.9743 143.3249,-262.4166"/>
<polygon fill="#000000" stroke="#000000" points="146.8245,-262.4609 143.4638,-252.4133 139.8252,-262.3637 146.8245,-262.4609"/>
</g>
<!-- Novelty wears off -->
<g id="node5" class="node">
<title>Novelty wears off</title>
<ellipse fill="none" stroke="#000000" cx="145.7196" cy="-162" rx="80.9988" ry="18"/>
<text text-anchor="middle" x="145.7196" y="-157.8" font-family="Times,serif" font-size="14.00" fill="#000000">Novelty wears off</text>
</g>
<!-- My life feels pretty organized&#45;&gt;Novelty wears off -->
<g id="edge4" class="edge">
<title>My life feels pretty organized-&gt;Novelty wears off</title>
<path fill="none" stroke="#000000" d="M144.2243,-215.8314C144.4382,-208.131 144.6925,-198.9743 144.9302,-190.4166"/>
<polygon fill="#000000" stroke="#000000" points="148.429,-190.5066 145.2081,-180.4133 141.4317,-190.3122 148.429,-190.5066"/>
</g>
<!-- Get bored of productivity system -->
<g id="node6" class="node">
<title>Get bored of productivity system</title>
<ellipse fill="none" stroke="#000000" cx="146.7196" cy="-90" rx="138.8894" ry="18"/>
<text text-anchor="middle" x="146.7196" y="-85.8" font-family="Times,serif" font-size="14.00" fill="#000000">Get bored of productivity system</text>
</g>
<!-- Novelty wears off&#45;&gt;Get bored of productivity system -->
<g id="edge5" class="edge">
<title>Novelty wears off-&gt;Get bored of productivity system</title>
<path fill="none" stroke="#000000" d="M145.9719,-143.8314C146.0789,-136.131 146.206,-126.9743 146.3249,-118.4166"/>
<polygon fill="#000000" stroke="#000000" points="149.8245,-118.4609 146.4638,-108.4133 142.8252,-118.3637 149.8245,-118.4609"/>
</g>
<!-- Stop using productivity system -->
<g id="node7" class="node">
<title>Stop using productivity system</title>
<ellipse fill="none" stroke="#000000" cx="229.7196" cy="-18" rx="130.8839" ry="18"/>
<text text-anchor="middle" x="229.7196" y="-13.8" font-family="Times,serif" font-size="14.00" fill="#000000">Stop using productivity system</text>
</g>
<!-- Get bored of productivity system&#45;&gt;Stop using productivity system -->
<g id="edge6" class="edge">
<title>Get bored of productivity system-&gt;Stop using productivity system</title>
<path fill="none" stroke="#000000" d="M167.664,-71.8314C177.866,-62.9814 190.2853,-52.2081 201.3255,-42.631"/>
<polygon fill="#000000" stroke="#000000" points="203.809,-45.1101 209.0694,-35.9134 199.222,-39.8223 203.809,-45.1101"/>
</g>
<!-- Stop using productivity system&#45;&gt;Find new productivity system -->
<g id="edge7" class="edge">
<title>Stop using productivity system-&gt;Find new productivity system</title>
<path fill="none" stroke="#000000" d="M258.8893,-35.7115C271.7587,-44.9745 285.9288,-57.428 294.7196,-72 315.8369,-107.0052 313.7196,-121.1184 313.7196,-162 313.7196,-306 313.7196,-306 313.7196,-306 313.7196,-347.8911 307.8656,-360.4414 285.7196,-396 278.9636,-406.8477 269.5115,-416.9923 260.2441,-425.4939"/>
<polygon fill="#000000" stroke="#000000" points="257.7762,-423.003 252.5661,-432.2283 262.392,-428.2655 257.7762,-423.003"/>
</g>
</g>
</svg>