<?xml version="1.0" encoding="UTF-8"?>
<!DOCTYPE svg PUBLIC "-//W3C//DTD SVG 1.1//EN" "http://www.w3.org/Graphics/SVG/1.1/DTD/svg11.dtd">
<svg xmlns="http://www.w3.org/2000/svg" xmlns:xlink="http://www.w3.org/1999/xlink" version="1.1" width="963px" height="816px" viewBox="-0.5 -0.5 321 272"><defs/><g><path d="M 74 30 L 74 73.63" fill="none" stroke="#000000" stroke-miterlimit="10" pointer-events="stroke"/><path d="M 74 78.88 L 70.5 71.88 L 74 73.63 L 77.5 71.88 Z" fill="#000000" stroke="#000000" stroke-miterlimit="10" pointer-events="all"/><g fill="#000000" font-family="Helvetica" text-anchor="middle" font-size="11px"><rect fill="#ffffff" stroke="none" x="26" y="49" width="97" height="14" stroke-width="0"/><text x="73.5" y="58.83">Loaded and started</text></g><path d="M 119 15 L 222.63 15" fill="none" stroke="#000000" stroke-miterlimit="10" pointer-events="stroke"/><path d="M 227.88 15 L 220.88 18.5 L 222.63 15 L 220.88 11.5 Z" fill="#000000" stroke="#000000" stroke-miterlimit="10" pointer-events="all"/><g fill="#000000" font-family="Helvetica" text-anchor="middle" font-size="11px"><rect fill="#ffffff" stroke="none" x="140" y="9" width="70" height="14" stroke-width="0"/><text x="173.67" y="19">Loading failed</text></g><rect x="29" y="0" width="90" height="30" rx="4.5" ry="4.5" fill="#ffffff" stroke="#000000" pointer-events="all"/><g fill="#000000" font-family="monospace" text-anchor="middle" font-size="12px"><text x="73.5" y="19.5">installing</text></g><path d="M 74 110 L 74 153.63" fill="none" stroke="#000000" stroke-miterlimit="10" pointer-events="stroke"/><path d="M 74 158.88 L 70.5 151.88 L 74 153.63 L 77.5 151.88 Z" fill="#000000" stroke="#000000" stroke-miterlimit="10" pointer-events="all"/><g fill="#000000" font-family="Helvetica" text-anchor="middle" font-size="11px"><rect fill="#ffffff" stroke="none" x="0" y="129" width="149" height="14" stroke-width="0"/><text x="73.5" y="138.83">Ready to start handling clients</text></g><rect x="29" y="80" width="90" height="30" rx="4.5" ry="4.5" fill="#ffffff" stroke="#000000" pointer-events="all"/><g fill="#000000" font-family="monospace" text-anchor="middle" font-size="12px"><text x="73.5" y="99.5">installed</text></g><rect x="229" y="0" width="90" height="30" rx="4.5" ry="4.5" fill="#ffffff" stroke="#000000" pointer-events="all"/><g fill="#000000" font-family="monospace" text-anchor="middle" font-size="12px"><text x="273.5" y="19.5">redundant</text></g><path d="M 74 190 L 74 233.63" fill="none" stroke="#000000" stroke-miterlimit="10" pointer-events="stroke"/><path d="M 74 238.88 L 70.5 231.88 L 74 233.63 L 77.5 231.88 Z" fill="#000000" stroke="#000000" stroke-miterlimit="10" pointer-events="all"/><g fill="#000000" font-family="Helvetica" text-anchor="middle" font-size="11px"><rect fill="#ffffff" stroke="none" x="18" y="209" width="114" height="14" stroke-width="0"/><text x="73.5" y="218.83">Activation is completed</text></g><rect x="29" y="160" width="90" height="30" rx="4.5" ry="4.5" fill="#ffffff" stroke="#000000" pointer-events="all"/><g fill="#000000" font-family="monospace" text-anchor="middle" font-size="12px"><text x="73.5" y="179.5">activating</text></g><path d="M 119 255.03 L 274 255.03 L 274 36.37" fill="none" stroke="#000000" stroke-miterlimit="10" pointer-events="stroke"/><path d="M 274 31.12 L 277.5 38.12 L 274 36.37 L 270.5 38.12 Z" fill="#000000" stroke="#000000" stroke-miterlimit="10" pointer-events="all"/><g fill="#000000" font-family="Helvetica" text-anchor="middle" font-size="11px"><rect fill="#ffffff" stroke="none" x="131" y="243" width="137" height="27" stroke-width="0"/><text x="198.5" y="252.53">Another service worker</text><text x="198.5" y="265.53">activates, replacing this one</text></g><rect x="29" y="240" width="90" height="30" rx="4.5" ry="4.5" fill="#ffffff" stroke="#000000" pointer-events="all"/><g fill="#000000" font-family="monospace" text-anchor="middle" font-size="12px"><text x="73.5" y="259.5">activated</text></g></g></svg>
